<?xml version="1.0" encoding="utf-8"?>
<!-- Generator: Adobe Illustrator 18.1.1, SVG Export Plug-In . SVG Version: 6.00 Build 0)  -->
<svg version="1.1" id="Layer_2" xmlns="http://www.w3.org/2000/svg" xmlns:xlink="http://www.w3.org/1999/xlink" x="0px" y="0px"
	 viewBox="-67.9 -71.2 1095 990.8" enable-background="new -67.9 -71.2 1095 990.8" xml:space="preserve">
<g>
	<g>
		<polygon fill="none" points="586.6,287.6 613.2,290.7 612.9,284.4 602.6,283.1 602.4,274.7 612.6,276 612.3,269.2 585.8,265.9 
			586,272.8 596.6,274 596.9,282.4 586.4,281.2 		"/>
		<polygon fill="none" points="593,303.1 592.6,295.8 613.4,298.4 613.3,292 586.5,288.8 587.1,302.4 		"/>
		<g>
			<polygon fill="none" points="614.1,318 613.4,300.8 607.6,300.1 607.9,305.9 592.9,304 592.9,304 587.1,303.3 587.1,303.3 
				587.2,303.3 587.3,310.2 608.1,312.8 608.2,317.2 			"/>
			<polygon fill="none" points="614.8,336.2 598.4,327.9 614.3,323.4 614.2,319.1 614.1,318.9 607.2,318 587.8,323.8 588,329.2 
				614.9,343.7 			"/>
		</g>
	</g>
	<g>
		<path fill="none" d="M590.3,341.4c-1.4-0.2-2.6-1.4-2.7-2.9c-0.1-1.5,1.1-2.4,2.6-2.3c1.4,0.2,2.6,1.4,2.7,2.9
			C593,340.6,591.8,341.6,590.3,341.4z"/>
		<path fill="none" d="M595.5,354c-3.5-0.4-7.3-1.9-7.3-6.1c-0.1-4.2,3.5-4.9,7-4.2c3.5,0.4,7.3,2,7.4,6.1
			C602.6,353.7,598.9,354.5,595.5,354z M595.1,347.4c-0.9-0.2-3.7-0.4-3.7,1c0.1,1.3,3,1.8,3.8,1.9c0.8,0.1,3.8,0.4,3.7-1
			C598.9,347.9,596,347.5,595.1,347.4z"/>
		<path fill="none" d="M602.6,360.3l-1.7-0.2l0,0c1.2,0.9,2,1.9,2.3,3.5l-3.7-0.4c0-0.3,0-0.4,0-0.5c-0.1-2.6-1.8-2.7-3.9-3.1
			l-6.9-0.8l-0.2-3.8l13.8,1.7L602.6,360.3z"/>
		<path fill="none" d="M587.2,366.4c-0.9-0.1-1.9,0.1-1.9,1.2c0.1,1.7,2.7,1.8,3.9,1.9l1.8,0.3l0,0c-0.5-0.3-1-0.6-1.4-1.1
			c-0.4-0.4-0.7-1-0.6-1.6c-0.1-1.5,1.1-2.2,2.2-2.7c1.3-0.5,3.2-0.5,4.7-0.4c2.5,0.4,7.4,1.3,7.5,4.7c0.1,1.3-0.8,2.1-1.9,2.4l0,0
			l1.7,0.2l0.2,3.8l-15.1-1.8c-4.1-0.4-5.8-2.5-5.8-5.8c-0.1-3.4,1.8-4.5,4.9-4.4V366.4z M596.1,370.6c0.7,0.1,3.7,0.4,3.6-0.9
			s-3-1.8-3.7-1.9c-0.9-0.1-3.8-0.4-3.6,1C592.3,370,595.4,370.5,596.1,370.6z"/>
	</g>
</g>
<g>
	<g>
		<g>
			<path fill="#E8E5E2" d="M218.2,140.2c53.9-25.5,109.3-49.3,167.8-62.1c-4.2,15.9-11.3,33.1-5.6,49.5
				c38.5-16.8,80.8-26.5,122.9-23.2c-14,8.6-30.3,16.4-38,31.8c93.1,28.2,187.5,59.9,267.4,116.8c-28.9,1.1-62.5-4.3-87,14.2
				c50.6,31.5,98.4,69.2,134.1,117.4c-7.3,0-14.7,0.1-22,0.3c-27.3,2.6-59-2.8-82.6,13.4c27.3,29.8,60.6,56.1,99.7,68.3
				c-22.7,3.2-45.5,6.3-68.4,8.1C643,449.2,576,431.9,507.7,425.9c-21.8-21.3-42.4-44.1-59.1-69.7c20.4,2.4,43.3,9.3,62.5-0.9
				c-38.9-10.4-80-25.8-105.1-59.1c18.3,0.6,36.5,3.9,53.7,10c-14.1-12.2-29.9-22.4-46.4-31.2c-36.7-20.6-78.3-31.7-120-35.9
				c25.8-37.5,72.3-52.2,114.9-60.7c-45.4-1.4-91.8-3.9-136.4,6.7c5.1-3.8,10.1-7.7,15.1-11.7c2.7-1.5,5.5-3,8.2-4.4
				c-11.5,0.4-23.1,1.3-34.4,3.5c29.1-16.5,60.4-29.8,93.6-34.8c-15.4-0.9-30.4,3.3-45.3,6.6c-75.6,19.2-150.6,44.7-216.7,86.9
				l-2.9,1c42.3-37.9,84.7-77,134-105.7C221.7,131,219.9,135.6,218.2,140.2z"/>
			<path fill="#E8E5E2" d="M111.9,241.3c4.7-2.9,15.8-1.5,13.3,6c-4.3,11-14,18.6-22.1,26.7c7.1-1.9,14.1-4.3,21.3-6.1
				c-26.6,18.4-53.1,37.5-77.2,59.3c-0.6,10.9-16.9,13.7-11.9,25.9c7.7-6.4,15.4-13.9,18.5-23.8c18-13.7,36.4-28.8,59-34
				c6.1-1.1,13.3-2.8,18.6,1.3c-3.7,8.7-16.2,8.1-24.1,11.5c25.4,4.2,48-23.7,74.3-16.1c4.1,1.2,12.3,5.5,6.9,10.1
				c-16.8,11.5-38.2,11.9-56.7,19.2C86.6,338,42.8,358.6-0.5,379.9c-7.6,3.5-9.6-6.4-7.1-11.7c6.2-19.5,14.7-39.1,29.3-53.8
				C47.8,285.8,77.3,259.3,111.9,241.3z"/>
			<path fill="#E8E5E2" d="M204.2,280.3c31.6,0.3,63.1,8.3,91.2,22.6c-56.1,22.4-115.7,34.7-174.3,48.8
				c29.9-12.6,63.1-18.3,90.4-36.8c6.2-4.7,14.6-10.8,12.9-19.7C221.4,286.5,211.6,283.9,204.2,280.3z"/>
			<path fill="#E8E5E2" d="M-10.4,399.9c45.7-28.9,92-59.9,145.2-73c-17.2,9.4-35.6,17-51.7,28.4c18.4-6.7,36.2-15.2,54.7-21.7
				c-34,19.8-72,32.4-104.7,54.6c37.3-15.4,75.3-30.9,115.6-36.2C101.7,370.7,54,387.6,8.9,410.5c-20.5,12.1-39.7,26.4-59.9,38.9
				C-48,426.6-28.9,411-10.4,399.9z"/>
			<path fill="#E8E5E2" d="M446.8,443.4c33.4,0.3,66.7,3,99.7,8.3c0.1,7.5,0.1,15,0,22.5c-5.2-0.8-10.4-1.6-15.6-2.3
				c-0.1-2.5-0.1-5.1-0.2-7.6c-7.6-1.1-15.1-2-22.7-2.8c-0.1,28.4,0,56.7-0.1,85c2.7,0.3,5.4,0.7,8.1,1c0,4.9,0,9.9,0,14.8
				c-12.9-1.5-25.8-2.5-38.8-3.2c0-4.9,0-9.8,0-14.7c2.7,0,5.4,0,8.2,0c-0.1-28.3,0-56.6,0-84.9c-7.7-0.4-15.4-0.8-23.1-1.1
				c-0.1,2.5-0.2,5.1-0.3,7.6c-5.1-0.2-10.2-0.2-15.3-0.3C446.6,458.4,446.6,450.9,446.8,443.4z"/>
			<g>
				<path fill="#E8E5E2" d="M344.8,451.3c24.2-4,48.7-6.7,73.2-7.1c5.8,5.4,11.7,10.7,17.5,16.1c0.2,8.9,0.1,17.9,0.1,26.8
					c-4.1,3.9-8.1,7.8-12.1,11.8c4,3.8,8,7.7,12.1,11.4c0.1,11.1,0,22.2,0,33.3c2.7,0,5.5,0,8.2,0c0,4.9,0,9.9,0,14.9
					c-10.2-0.1-20.4,0.3-30.6,0.7c0-14.7,0-29.4,0-44.1c-2.8-2.6-5.6-5.1-8.3-7.7c-9.9,0.4-19.8,1.4-29.7,2.4
					c0.1,12.5-0.1,25,0,37.5c2.7-0.3,5.3-0.5,8-0.8c0,4.9,0,9.9,0,14.9c-12.9,1.2-25.7,2.9-38.5,4.9c0-5,0-9.9,0-14.9
					c2.7-0.4,5.4-0.8,8.1-1.2c0-28.4,0-56.7,0-85.1c-2.7,0.4-5.4,0.7-8,1.1C344.8,461.2,344.8,456.2,344.8,451.3z M375.3,462.1
					c-0.2,11-0.1,21.9-0.1,32.9c13-3,29.9,2.4,38.1-11.1c-0.2-5.6,0.6-11.3-0.4-16.9C404.3,454.1,387.8,462.6,375.3,462.1z"/>
			</g>
			<path fill="#E8E5E2" d="M253.4,472.9c27.1-8.9,55-15.7,83.2-20.2c0.1,6.7,0.1,13.4,0,20.1c-5.1,0.9-10.1,1.8-15.2,2.8
				c-0.1-1.7-0.1-3.4-0.2-5.1c-12.8,2.5-25.5,5.5-38.1,8.7c-0.2,11.8-0.1,23.5-0.1,35.3c6.6-1.7,13.3-3.4,19.9-4.9
				c0.1-1.7,0.2-3.5,0.2-5.2c5.1-1.2,10.2-2.3,15.3-3.3c0.2,8.3,0.1,16.5,0.1,24.8c-5.1,1.1-10.2,2.3-15.3,3.4
				c-0.1-1.2-0.3-3.7-0.3-4.9c-6.7,1.5-13.3,3.2-19.9,4.8c-0.1,11.7,0,23.4,0,35.2c12.6-3.3,25.3-6.4,38.1-8.7
				c0.1-1.7,0.2-3.5,0.3-5.2c5-1,10.1-2,15.2-2.8c0.1,6.7,0.1,13.4,0,20.1c-28.2,4.6-56,11.4-83.1,20.2c0-4.9,0-9.8-0.1-14.8
				c2.7-0.9,5.3-1.8,8-2.7c-0.1-28.3,0-56.5,0-84.8c-2.6,0.7-5.3,1.4-7.9,2.2C253.4,482.7,253.4,477.8,253.4,472.9z"/>
			<path fill="#E8E5E2" d="M549.2,467.1c0-5,0-9.9,0.1-14.9c12.8,2.1,25.5,4.7,38.1,7.6c0,5,0,9.9,0,14.9c-2.7-0.6-5.4-1.1-8.1-1.7
				c0.2,25.6-0.3,51.3,0.3,76.9c5.9,13.6,22.1,12.3,34,16.8c2.8-1.7,5.5-3.5,8.3-5.3c0-25.9,0.2-51.7-0.1-77.6
				c-2.6-0.8-5.2-1.6-7.8-2.4c0-4.9,0-9.8,0.1-14.7c12.6,3.3,25,7.3,37.3,11.5c0.1,5,0.1,10,0,14.9c-2.5-0.8-5-1.6-7.6-2.5
				c-0.4,27.5,0.3,55.1-0.3,82.6c-5.2,4.7-11.6,7.8-17.3,11.8c-14-4.2-28.1-8.3-42.5-11.2c-13-0.7-17.8-14.7-26.4-22.4
				c-0.1-27.7,0-55.4,0-83.1C554.6,468.1,551.9,467.6,549.2,467.1z"/>
			<g>
				<path fill="#E8E5E2" d="M164.9,508.3c22.2-11.1,45.1-20.7,68.5-28.8c5.8,3.6,11.5,7.4,17.2,11.1c-1.2,14.3,4.7,31.6-7.7,42.4
					c-9.4,18.9-32.9,18.9-49.6,28.2c-0.5,11.4-0.1,22.8-0.2,34.2c2.6-1,5.1-2.1,7.7-3.1c0,4.9,0,9.8,0.1,14.6
					c-12.1,5.3-24.2,10.6-36.1,16.5c0-4.9,0-9.9,0-14.8c2.5-1.3,5-2.6,7.5-3.9c-0.1-28.3,0-56.5-0.1-84.8c-2.5,1.1-5,2.3-7.5,3.4
					C164.8,518.3,164.8,513.3,164.9,508.3z M193.1,510.3c0,12,0,24.1,0,36.1c11.7-6.4,28-7,34.6-20.1c3.3-6.8,0.8-14.9,1.6-22.2
					c-2.7-1.7-5.4-3.4-8.1-5.1C211.8,502.3,202.4,506.2,193.1,510.3z"/>
			</g>
			<g>
				<path fill="#E8E5E2" d="M654,494.1c0-5,0-9.9,0.1-14.9c23.4,8.3,46.7,17.3,68.5,29.1c5.9,8,11.4,16.5,16.3,25.2
					c0.9,8.8,0.1,17.7,0.3,26.5c-3.7,1.9-7.4,3.8-11.1,5.6c13.5,14,11.6,32.7,11.1,50.7c2.5,1.4,5,2.7,7.5,4.1c0,4.9,0,9.9,0,14.9
					c-9.2-5-18.5-9.8-28-14.3c-0.2-14.5,0.3-29-0.2-43.5c-4.6-15.9-22.4-18.6-35.4-24.8c-0.1,12.5-0.1,25,0,37.5
					c2.6,1.1,5.1,2.2,7.7,3.3c0,4.9,0,9.9,0,14.8c-12.1-5.1-24.3-9.9-36.7-14.2c0-4.9,0-9.9,0-14.8c2.6,0.9,5.2,1.8,7.8,2.7
					c0-28.3,0-56.6,0-85C659.2,496.1,656.6,495.1,654,494.1z M683.1,505.3c-0.1,10.9,0,21.8-0.1,32.7c9.3,4,18.6,8,27.8,12.3
					c2.6-1.4,5.2-2.8,7.8-4.2c-0.6-7,2-14.9-2.5-21C709.7,512.7,694.4,511.2,683.1,505.3z"/>
			</g>
			<g>
				<path fill="#E8E5E2" d="M77.4,559.4c20.9-14.3,42.3-28,64.8-39.7c0.1,6.3,0,12.5,0.1,18.8c-3.7,2.1-7.3,4.1-11,6.2
					c11.5,30,22.9,60,34.5,90c2.3-1.1,4.7-2.3,7-3.4c0,6.4,0,12.7,0,19.1c-14.7,7.1-29,15-43.2,23.1c0-6.3,0-12.5-0.1-18.8
					c2.9-1.7,5.8-3.4,8.7-5.2c-2.7-7-5.4-14-8.2-20.9c-14.3,8.1-28.4,16.8-42,26c-2.5,10.2-5.2,20.4-7.6,30.6
					c2.8-1.8,5.5-3.6,8.3-5.4c-0.3,6.4,0.9,13-0.6,19.2c-13.4,9.3-27,18.4-40,28.3c-0.1-6.3-0.1-12.6,0-18.9c2.7-2.2,6.4-4,7-7.8
					c10.5-42.9,21.3-85.7,32.1-128.5c-3.2,2.1-6.4,4.2-9.6,6.3C77.4,572,77.4,565.7,77.4,559.4z M108.9,574.2
					c-5.9,21.2-11.1,42.5-16.5,63.8c11-7,22-14,33.3-20.4C120.1,603.1,114.9,588.4,108.9,574.2z"/>
			</g>
			<path fill="#E8E5E2" d="M746.6,520.2c33,18,65.3,37.9,94.5,61.6c0.6,8.4,0,16.8,0.2,25.2c-5.6-4.1-11.3-8.1-16.8-12.3
				c0-2.2-0.1-4.4-0.1-6.6c-14.1-9.9-28.3-19.5-43.1-28.4c-0.1,15,0,29.9,0,44.9c7.7,4.8,15.3,9.6,22.8,14.6
				c0.1-2.2,0.1-4.3,0.2-6.5c5.6,4.2,12,7.3,16.9,12.3c0.6,10.4,0,20.8,0.2,31.1c-5.7-3.9-11.3-7.8-17.1-11.6
				c-0.1-2.2-0.2-4.4-0.2-6.5c-7.5-5-15.1-9.9-22.8-14.7c0,14.9,0,29.7,0,44.6c14.7,9.1,29.1,18.6,43.2,28.7c0-1.6,0.1-4.8,0.1-6.4
				c5.7,3.9,11.2,8,16.8,12.2c0,8.5,0.1,17,0,25.5c-29.9-22.9-61.6-43.4-94.7-61.2c0-6.3,0-12.6,0-18.9c3.1,1.6,6.2,3.3,9.4,4.9
				c0.1-35.1,0-70.2,0-105.3c0.3-5.1-6.3-5.8-9.5-8.3C746.6,532.9,746.6,526.6,746.6,520.2z"/>
			<path fill="#E8E5E2" d="M242.2,655.6c10-17.3,30.4-11.3,47-11.8c4.7,3.2,8.2,8,12.4,11.8c0,4.4,0,8.8,0,13.2c-5,0-10,0-14.9,0
				c0.7-5.7-0.7-11.1-5.6-14.5c-6.1,0-12.2,0-18.4,0c-2.4,2.7-6,5.2-5.4,9.3c0,15.2-0.1,30.5,0.1,45.7c1.8,1.8,3.6,3.5,5.4,5.3
				c7.9-0.7,18.7,3.3,23.3-5.5c0.9-5.3,0.3-10.7,0.4-16c-2.3,0-4.5-0.1-6.7-0.1c0-2.9,0-5.8,0-8.7c7.3,0,14.5,0,21.8,0
				c0,9.6,0,19.3,0,28.9c-9.9,17.3-30.2,11.4-46.8,11.8c-4.9-3-8.3-8-12.6-11.8C242.1,694.1,242.1,674.8,242.2,655.6z"/>
			<g>
				<path fill="#E8E5E2" d="M325.5,643.7c12.9-0.1,25.8,0,38.8,0c0,3.5,0,7.1,0,10.6c-2.1,0-4.3,0.1-6.4,0.1
					c6.6,20,13.3,39.9,19.8,59.9c1.4,0.3,2.8,0.7,4.2,1c0,3.3,0,6.7,0,10c-8.4,0.1-16.8,0.1-25.1,0c0-3.5,0-7,0-10.4
					c1.7-0.1,3.4-0.2,5.1-0.3c-1.6-4.7-3.2-9.5-4.9-14.2c-8.3,0-16.6,0-24.9,0c-1.7,4.7-3.2,9.4-4.6,14.3c1.2,0,3.6,0.1,4.8,0.2
					c0,3.5,0,7,0,10.5c-8.3,0-16.6,0-25,0c0-3.4,0-6.9,0-10.3c1-0.1,3-0.4,4-0.6c6.7-20,13.3-39.9,20.1-59.8
					c-1.9-0.2-3.8-0.3-5.8-0.5C325.6,650.7,325.6,647.2,325.5,643.7z M344.5,663.1c-3.4,9.9-6.7,19.8-9.9,29.8
					c6.6,0.1,13.2,0,19.9,0C351.2,683,348.1,673,344.5,663.1z"/>
			</g>
			<path fill="#E8E5E2" d="M383.3,643.6c6.8,0,13.6,0,20.4,0c8.5,13.9,16.7,28.1,25.4,41.9c8.4-14,16.6-28,25-41.9
				c6.8,0,13.7,0,20.5,0c0,3.5,0,7,0,10.5c-1.8,0.1-3.7,0.2-5.5,0.3c0,20,0,40.1,0,60.1c1.8,0.1,3.7,0.2,5.5,0.3c0,3.5,0,7,0,10.5
				c-8.7,0-17.4,0-26,0c0-3.5,0-7,0-10.5c1.8,0,3.6-0.1,5.4-0.1c0-15.3,0.1-30.6-0.1-45.8c-8.3,13.7-16.5,27.6-24.8,41.3
				c-8.7-13.6-16.7-27.6-25.2-41.3c-0.1,15.3-0.1,30.5-0.1,45.8c1.8,0,3.6,0,5.5,0.1c0,3.5,0,7,0,10.5c-8.7,0-17.4,0-26.1,0
				c0-3.5,0-7,0-10.4c1.8-0.1,3.7-0.2,5.5-0.3c0-20-0.1-40.1,0-60.1c-1.8-0.1-3.7-0.2-5.5-0.3C383.3,650.6,383.3,647.1,383.3,643.6z
				"/>
			<path fill="#E8E5E2" d="M476.5,643.6c8.7,0,17.4,0,26.1,0c0,3.5,0,7.1,0,10.6c-1.8,0-3.7,0-5.5,0.1c0,20.1,0,40.3,0,60.4
				c1.8,0,3.6,0,5.5,0.1c0,3.5,0,7,0,10.5c-8.7,0-17.4,0-26.1,0c0-3.5,0-7,0-10.4c1.8-0.1,3.7-0.2,5.5-0.3c0-20-0.1-40.1,0-60.1
				c-1.9-0.1-3.7-0.2-5.6-0.3C476.5,650.6,476.5,647.1,476.5,643.6z"/>
			<path fill="#E8E5E2" d="M504.5,643.6c7,0,14.1,0,21.1,0c11.4,18.7,22.5,37.7,34,56.3c0-15.2,0-30.4,0-45.6
				c-1.8-0.1-3.7-0.2-5.5-0.2c0-3.5,0-7,0-10.5c8.7,0,17.4,0,26.1,0c0,3.5,0,7.1,0,10.6c-1.9,0-3.7,0.1-5.6,0.1
				c0,20.1,0,40.3,0,60.4c1.9,0,3.7,0.1,5.6,0.1c0,3.5,0,7,0,10.5c-7.3,0-14.5,0-21.8,0c-11.2-18.2-21.8-36.7-33.2-54.8
				c-0.3,14.6,0,29.3-0.2,44c1.8,0.1,3.7,0.2,5.5,0.3c0,3.5,0,6.9,0,10.4c-8.7,0-17.4,0-26.1,0c0-3.5,0-7,0-10.5
				c1.8,0,3.6-0.1,5.5-0.1c0-20.1,0-40.3,0-60.4c-1.8,0-3.7-0.1-5.5-0.1C504.5,650.7,504.5,647.2,504.5,643.6z"/>
			<path fill="#E8E5E2" d="M586.4,655.6c10-17.2,30.3-11.3,47-11.8c4.8,3.2,8.2,8,12.4,11.8c0,4.4,0,8.8,0,13.2c-5,0-10,0-14.9,0
				c0.7-5.7-0.7-11.1-5.6-14.5c-6.1,0-12.2,0-18.4,0c-2.4,2.7-6,5.2-5.4,9.3c0,15.2-0.1,30.5,0.1,45.7c1.8,1.8,3.6,3.6,5.4,5.4
				c7.9-0.7,18.7,3.3,23.3-5.4c0.9-5.3,0.3-10.7,0.4-16.1c-2.3,0-4.5-0.1-6.7-0.1c0-2.9,0-5.8,0-8.7c7.3,0,14.5,0,21.8,0
				c0,9.6,0,19.3,0,28.9c-9.9,17.3-30.2,11.4-46.8,11.8c-4.9-3-8.3-8-12.6-11.8C586.3,694.1,586.3,674.8,586.4,655.6z"/>
		</g>
		<g>
			<path fill="#010101" d="M157.5-53.2c192-24,386.8-24,578.8,0C745.9-26.9,754,0,767.3,24.7c18.7,35.4,45.7,66.3,78.3,89.7
				c21.3,15.6,45.1,27,68,40c-1.1,55.5-3.2,111.2-11.4,166.2c-6.9-7.3-14-14.3-21.1-21.3c5.1-43.3,7.8-86.9,8-130.4
				c-6.6-5.3-14.8-8.3-22-12.8c-52-27.9-96.2-71-122.8-123.9C733.7,12,726.4-9.6,718.7-31c-180.4-21.9-363.4-21.9-543.8,0
				c-19.1,62.1-53.5,121-106.5,160c-19.8,15.5-42,27.3-64,39.3c0.1,37.9,2.8,75.8,5.8,113.5c-5.7,10.8-13.8,20.3-19.8,31
				c-7.6-52.5-9.4-105.6-10.4-158.5c22.7-12.7,46.2-24.1,67.2-39.4c33.7-24.1,61.7-56.2,80.5-93.1C140.4-2.1,148-28,157.5-53.2z"/>
			<path fill="#010101" d="M205.2,7.4C300.6-3,396.6-7.9,492.5-5.3C442.1,11.9,392,30.4,342.1,48.8c5-5.8,10.3-11.2,15.2-17
				C241.9,77.1,131.4,141.6,48.4,235c-0.7-14.2-1.8-28.5-1.6-42.7C120.4,153.5,178.1,86.2,205.2,7.4z"/>
			<path fill="#010101" d="M530.4-4.3c52.8,1.9,105.5,5.9,158,11.8c27.1,78.8,84.9,146,158.6,184.8c-0.2,23.9-1.9,47.8-4,71.6
				c-54.7-47.6-114.8-89.3-180.1-121.1c32.7-0.1,64.5,8.7,95.6,18.3c-17.1-18.2-34.7-36.2-55.3-50.6
				c-65.1-46.1-146.1-64.7-224.9-66.3C495,27.3,512.6,11.4,530.4-4.3z"/>
			<g>
				<path fill="#010101" d="M316.6,69.5c67.8-24.5,134.7-52,204.2-71.7c-19.6,18.9-41.3,35.9-58.3,57.3
					c97.2-1.4,201.3,24.1,271.6,95c-32.9-8.5-67.6-14.3-101.6-8.8C738.2,185.3,830,258,907.8,341c-30.9-8.6-62.2-16.6-94.2-19.2
					c72.3,46.2,137.3,104.3,189.5,172.4C927.9,461.1,849,429.7,765.8,427c18.7,24.3,45.6,41.7,75,50.3c-32.5,9-66.4,12.1-99.9,12.8
					c-11.7-4.5-23-10.1-34.3-15.4c22.9-1.9,45.6-4.9,68.4-8.1c-39.1-12.2-72.4-38.4-99.7-68.3c23.6-16.2,55.3-10.9,82.6-13.4
					c21.2,0.3,42.5,0.1,63.7,0.6c-36.7-40-77.8-76.1-123.2-105.9c30.8-11.6,65-5.2,97.2-5.1c-87.5-68.7-189-119.7-296.4-148.7
					c22.2-17.9,51.9-21.2,79-26.6c-57.5-14.7-119.5-22.9-177.6-6.4c0.3-12.8,7.3-23.8,13.7-34.4c-59,16.3-119,31.8-174,59.1
					c6.3-7.7,13.3-14.7,19.3-22.6c-69.3,30.7-132.7,78.8-175.7,141.6c2.9-1.7,5.7-3.6,8.4-5.6c66.1-42.2,141.2-67.7,216.7-86.9
					c14.9-3.3,30-7.5,45.3-6.6c-33.2,5-64.6,18.3-93.6,34.8c11.3-2.2,22.9-3.1,34.4-3.5c-2.8,1.4-5.5,2.9-8.2,4.4
					c-22.6,8.5-43.6,21.2-62.7,35.8c8.7-3.5,17.4-7.2,26.6-9c-17.8,12.3-32.6,28.3-45.3,45.7c37.5-21.4,75.3-45.1,118.2-53.8
					c-21.2,15.8-40.9,33.7-59.4,52.6c51.2-0.1,101.7,11.4,149,30.2c16.5,8.8,32.3,19,46.4,31.2c-17.3-6-35.4-9.4-53.7-10
					c25.1,33.3,66.2,48.7,105.1,59.1c-19.2,10.2-42.1,3.4-62.5,0.9c-4.4-0.8-8.8-1.7-13.3-2.5c11.6,25.7,27.7,49.2,46.3,70.3
					c-51-2.7-102.4,0.1-152.6,9.4c-35.9-20.6-64.4-54.6-105.4-65.6c-34.5-7.4-69.9,0.8-103.5,9.4C54.5,394.3-7.5,424.5-60.1,467.3
					c16.5-110.2,85.2-205.9,167.5-278.1c65.8-57,142.1-101.3,222.4-134.7C325.5,59.7,320.8,64.5,316.6,69.5z M111.9,241.3
					c-34.6,18-64.1,44.4-90.1,73.2C7.1,329.2-1.4,348.8-7.6,368.2c-2.5,5.3-0.5,15.2,7.1,11.7c43.2-21.3,87.1-41.9,132.4-58.6
					c18.6-7.3,40-7.7,56.7-19.2c5.4-4.7-2.8-8.9-6.9-10.1c-26.3-7.5-49,20.4-74.3,16.1c7.8-3.4,20.3-2.8,24.1-11.5
					c-5.3-4.1-12.6-2.4-18.6-1.3c-22.6,5.2-41,20.3-59,34c-3.1,9.9-10.8,17.4-18.5,23.8c-5-12.2,11.3-15,11.9-25.9
					c24-21.8,50.5-40.9,77.2-59.3c-7.2,1.8-14.1,4.2-21.3,6.1c8.1-8.1,17.8-15.7,22.1-26.7C127.7,239.8,116.6,238.5,111.9,241.3z
					 M204.2,280.3c7.4,3.6,17.2,6.3,20.2,14.9c1.7,8.9-6.7,15-12.9,19.7c-27.3,18.5-60.4,24.2-90.4,36.8
					c58.6-14,118.2-26.4,174.3-48.8C267.3,288.5,235.7,280.6,204.2,280.3z M-10.4,399.9C-28.9,411-48,426.6-51.1,449.3
					c20.3-12.5,39.5-26.7,59.9-38.9c45.1-22.8,92.9-39.8,139.7-58.5c-40.3,5.2-78.3,20.8-115.6,36.2c32.7-22.1,70.7-34.8,104.7-54.6
					c-18.5,6.5-36.2,15-54.7,21.7c16.1-11.4,34.5-19,51.7-28.4C81.7,340,35.3,371-10.4,399.9z"/>
			</g>
			<path fill="#010101" d="M875.7,336c7.7,1.9,15.5,3.9,23.2,6c-1.5,8.6-3,17.2-4.8,25.7c-6.9-5.8-14-11.3-21-16.9
				C873.9,345.8,874.8,340.9,875.7,336z"/>
			<path fill="#010101" d="M73.2,396.3c46.5-15.8,95.8-33,145.5-26.1c41,9.4,69.3,43.4,104.4,64.2c-72.9,13.9-142.6,41.8-207.4,77.7
				C97.8,475,83.7,436.1,73.2,396.3z"/>
			<path fill="#010101" d="M12.8,423.3c7.1-3.9,14.3-7.6,21.7-10.9c11.2,41.8,26.7,82.4,45.4,121.4c-6.7,4.4-13.3,8.8-19.8,13.4
				C40.4,507.6,24.6,466,12.8,423.3z"/>
			<g>
				<path fill="#010101" d="M62.5,551.9c104.5-75,231.3-119.4,360.1-123.6c3.7-0.7,6.3,2.3,8.9,4.3c0.1-1.2,0.3-3.6,0.4-4.8
					c154.6-3.9,307.8,50.9,428.6,146.6c0.1,22.7,0.1,45.4,0,68.2c-6.7-4.6-13.1-9.8-19.7-14.6c-0.1,17.6-0.1,35.1,0,52.6
					c6.4,5.2,14.3,9.1,19.6,15.4c0.5,22.3,0.1,44.7,0.2,67.1c-41.2-30.9-82.9-61.4-128.9-84.9c0-10.3,0-20.7,0-31
					c-29.6-15.8-60.8-28.6-92.5-39.4c-0.1-2.6-0.1-5.1-0.2-7.6c-2.5,1.7-5,3.4-7.4,5.1c-17.1-4.7-33.9-10.1-51.3-13.5
					c-18.2-0.9-25.4-20.6-37.1-31.7c-1.8-22.4-0.2-45.4-0.8-68c-5-0.8-10.1-1.5-15.1-2.2c-0.1,14.4,0,28.7,0,43.1
					c2.7,0.3,5.4,0.5,8.1,0.8c0.1,16.5,0,32.9,0.1,49.4c-99.5-14.1-202.1-3.9-296.9,29.4c-0.1-16.1,0-32.2-0.1-48.3
					c-6.1,2.1-12.1,4.4-18.1,6.7c-0.4,16.3,0,32.7-0.2,49.1c-9.2,4.2-19.2,7.1-27.8,12.4c-0.5,10,0,20-0.2,30
					c-26.5,12.7-52,27.5-77.5,42.2c-0.1-14.7,0.1-29.4-0.1-44.1c-2.2,1.4-4.4,2.9-6.6,4.4c0.1,14.8,0,29.6,0.1,44.5
					c-25.9,16.6-50.3,35.3-74.9,53.7c-0.1-20.5,0-41.1,0-61.6c3.3-2.8,8.1-4.7,9.1-9.4c5.4-21.9,10.8-43.7,16.2-65.6
					C66.1,602.3,61.1,576.7,62.5,551.9z M248.6,468.4c0,3.8,0,7.6,0,11.5c-4.4-2.4-8.5-7-13.7-6.9c-25.7,8.5-50.7,19.3-74.8,31.7
					c-0.1,10,0,20,0,30.1c2.4-1,4.8-2.1,7.2-3.1c0,23.2,0.5,46.5-0.3,69.8c-1.4,0.6-2.8,1.1-4.2,1.7c-7-17.9-14.2-35.8-20.6-54
					c3-1.6,6-3.3,9-4.9c0.2-11.6,0.2-23.3,0-34.9c-27.2,14.3-53.7,30.2-78.8,48c0,11.7,0,23.5,0,35.3c1.6-0.7,3.3-1.5,5-2.2
					c-8.6,35.5-17.9,70.9-26.3,106.4c-0.6,4.6-4.8,6.9-8,9.6c-0.2,12-0.3,24.1,0.1,36.1c17.9-13.2,35.8-26.4,54.4-38.5
					c0-11.4,0.1-22.9-0.1-34.3c-0.9,0.1-2.9,0.3-3.8,0.4c2.2-16.9,22.9-20.5,34.7-29.7c1,2.4,2,4.9,3,7.3c-13.7,7.2-4,26.6-6.8,39.2
					c18.9-10.5,37.5-21.3,57-30.6c0.5-10.6,0-21.3,0.4-31.9c9.2-4.4,18.7-8.1,28-12.3c0.1-9.9,0.1-19.8,0-29.7
					c-2.6,0.9-5.2,1.7-7.8,2.6c-0.1-6.1,0-12.1,0-18.2c10-4.6,20.3-8.6,30.8-12.2c11.6-3,15-16.2,23.2-23.6
					c0.4,11.6,0.4,23.3,0,34.9c-2.5,0.8-4.9,1.5-7.3,2.3c-0.7,9.9-0.3,19.8-0.3,29.7c46.5-15.8,95-25.1,143.8-29.7
					c-0.1-9.6,0.1-19.2-0.1-28.7c-2.7,0.2-5.3,0.4-8,0.6c0-7.8,0-15.6,0.1-23.4c7.8,0.1,16.7-3.9,23.8,0.9c0.3,16.4,0,32.9,0.1,49.4
					c14.9-0.5,29.8-0.9,44.6-0.8c0.2-9.6,0.2-19.1,0-28.7c-2.7-0.2-5.4-0.4-8.2-0.6c-1.2-13,4.9-29.7-9-37.5
					c9.6-5.4,10.1-15.8,9-25.7c8.7-0.2,17.5,0,26.2,0.4c0.2-2.7,0.5-5.3,0.8-7.9c3,0.4,6,0.8,8.9,1.2c0,23.4-0.1,46.7,0,70.1
					c-2.7,0.2-5.4,0.3-8.1,0.5c-0.1,9.5-0.1,19,0,28.6c17.6,0.8,35.1,2.8,52.7,4.2c0-9.5-0.1-19,0-28.4c-2.7-0.4-5.3-0.7-8-1.1
					c-0.3-23.7-0.1-47.3-0.1-71c2.7,0.2,5.5,0.4,8.2,0.7c0.3,2.6,0.5,5.2,0.8,7.8c8.7,1.3,17.5,2.5,26.2,4c0.3,22.7,0,45.3,0.1,68
					c-0.3,7.4,7.1,11.5,10.9,16.9c11.6,19.4,37.5,14.5,55.8,23c11.6,7.2,20.4-4.8,29.9-9.8c0,6.4,0.1,12.9,0.3,19.3
					c17.2,5.6,33.8,12.5,50.4,19.5c-2.2-11,6.5-29.1-7.5-33.6c-0.2-7.4-0.1-14.7,0-22.1c8.2,3.7,19.3,6.4,21.3,16.7
					c0.8,15.2-0.1,30.4,0.4,45.6c8.9,4.7,18.3,8.4,26.8,13.8c1.7,11,0.1,22.3,0.7,33.5c38.3,20.3,74.2,44.5,108.5,70.9
					c0.1-14.3,0.2-28.6,0-43c-9.9-7.6-20-14.8-30.2-21.9c-0.3,2-0.5,3.9-0.7,5.9c-9.3-6.8-19.8-12-28.6-19.3
					c-0.7-9-0.1-18.1-0.2-27.2c5.1,2.2,10.2,5.5,9.4,11.9c10.2,7,20.2,14.3,30.6,21c0.3-16.1,0.1-32.2,0.1-48.3
					c-10-7.2-20.2-14.2-30.6-20.8c-0.2,1.4-0.7,4.1-1,5.4c-2.9-1.5-5.7-3.3-8.5-4.9c0.1-9.5,0-18.9,0-28.4
					c9.8,6.1,19.5,12.4,28.7,19.4c2.7,14.6,21.2,19.1,31.1,29c0.2-14.2,0.1-28.4,0.1-42.7c-33.9-26.3-70.2-49.5-108.4-69.2
					c-0.2,2.8-0.4,5.6-0.6,8.4c-5.6-6.2-8-15.8-16.3-19.1c-36.9-18.1-75.7-32.4-115.5-42.5c-0.1,9.7-0.1,19.3,0,29
					c2.6,0.9,5.2,1.7,7.9,2.6c0.1,22.8,0.5,45.7-0.2,68.6c-10.2,0-30-1.6-28.3-16.5c0.2-19.7-0.1-39.4,0.2-59.1
					c2.6,0.4,5.1,0.8,7.7,1.2c0.3-9.7,0.3-19.5,0-29.2C545.8,442.7,493.9,436.6,442,437c-0.1,5.9-0.1,11.7-0.1,17.6
					c-7.5-5-12.6-13.5-20.9-17C362.5,439.6,304.1,449.7,248.6,468.4z M455,484.6c0.1,5.5,0.9,11.7-3.9,15.6
					c7.5,7.1,2.4,18.5,3.9,27.6c5.2,0.1,10.3,0.2,15.5,0.4c0-14.4-0.1-28.7,0-43.1C465.3,484.8,460.2,484.7,455,484.6z M598.6,496
					c0,16.7-0.1,33.4,0,50.2c2.8,0.4,5.6,1.2,8.4,1.7c-0.2-16.5,0-33.1-0.1-49.6C604.2,497.5,601.4,496.7,598.6,496z"/>
			</g>
			<path fill="#010101" d="M782.5,431c9,0.5,17.9,1.7,26.8,3.1c-1.6,5-3.3,9.9-5.1,14.8C796.5,443.6,789,437.8,782.5,431z"/>
			<path fill="#010101" d="M850.3,442.5c7.7,2,15.4,4,23,6.2c-2.5,8-5.2,16-8.1,24c-7.6-2.2-15.2-4.2-22.9-6.2
				C844.8,458.4,847.6,450.5,850.3,442.5z"/>
			<path fill="#010101" d="M384.3,469c6.9-0.8,13.9-1.3,20.9-1.8c4.6,4.8,5.4,15.5-1.5,18.6c-6.3,1.6-12.9,1.2-19.4,1.6
				C384.3,481.2,384.3,475.1,384.3,469z"/>
			<path fill="#010101" d="M344.5,479.4c1-2.3,2-4.6,3.1-6.9c0.8,24.3,0.6,48.7,0.1,73c-1-1.8-2-3.7-2.9-5.5
				c-9.4,1.2-18.6,3.2-27.9,4.9c-0.3,1.8-0.5,3.5-0.8,5.3c-7.9,1.8-15.9,3.5-23.8,5.4c-0.2-6.9-0.2-13.8,0-20.7
				c1.7-0.4,3.4-0.8,5.1-1.3c0.5,1.5,1.1,3.1,1.6,4.6c9.6-2.2,19.2-4.1,28.8-6.4c0-13,0.1-26-0.1-39c-9.7,1.9-19.5,3.8-29.1,6.2
				c-0.3,1.7-0.6,3.4-0.9,5.2c-1.8,0.5-3.7,1.1-5.5,1.6c-0.2-7-0.2-14,0-21.1c7.9-2,15.7-4,23.7-5.3c0.2,1.2,0.7,3.6,0.9,4.8
				C326.1,482.7,335.2,480.9,344.5,479.4z"/>
			<path fill="#010101" d="M836.2,482.5c9.7-2.7,19.2-6,28.7-9.1c-8.7,24.9-19.2,49.2-30.9,72.8c-6.5-4.8-13.2-9.3-19.8-13.8
				C822.1,516.1,829.3,499.4,836.2,482.5z"/>
			<path fill="#010101" d="M747.3,493.7c13.5-0.6,26.9-1.7,40.4-3c-2.9,6.7-5.9,13.3-9.2,19.8C768.2,504.6,757.6,499.3,747.3,493.7z
				"/>
			<path fill="#010101" d="M653.1,501.3c1,0.3,3,0.9,3.9,1.2c-0.1,23.4,0.4,46.9-0.2,70.3c-3-0.4-4.2-2.5-3.8-5.3
				C653,545.5,652.8,523.4,653.1,501.3z"/>
			<path fill="#010101" d="M202.4,515.3c7.2-3,14.3-6.3,21.9-8.3c5.3,16-7.6,26.7-21.9,29.1C202.2,529.2,202.3,522.3,202.4,515.3z"
				/>
			<path fill="#010101" d="M692.3,516.1c12.2,3.5,25.7,12.2,21.3,27c-7.1-3-14.1-6.2-21.3-9.1C692.1,528,692.1,522.1,692.3,516.1z"
				/>
			<path fill="#010101" d="M748.6,549.6c5,20.1,1,43.5,1.8,64.9c-6.5-12.3,3.5-29.4-7.2-40.6c-5.1-4.6,1-7.2,5-9.2
				C748.3,559.6,748.3,554.6,748.6,549.6z"/>
			<path fill="#010101" d="M249.6,619.1c125.1-41.2,263.7-41.4,388.8,0C508.8,619.6,379.2,619.6,249.6,619.1z"/>
			<path fill="#010101" d="M198.8,638.7c15.7-6.4,31-13.7,47.3-18.5c-7.8,8.6-16.4,16.6-24.6,24.9c0,8.2,0,16.5,0,24.7
				C214.2,659.4,201.5,651.4,198.8,638.7z"/>
			<path fill="#010101" d="M647.2,621.8c16.8,5.5,33.2,12,49.4,19c-8.3,10.4-16.9,20.6-25.9,30.4c-0.1-8.6,0-17.3-0.1-25.9
				C662.8,637.5,654.8,629.9,647.2,621.8z"/>
			<g>
				<path fill="#010101" d="M249.8,629.9c15.7,0,31.5,0,47.2,0c5.2,5.2,10.4,10.5,15.7,15.7c0.1-5.2,0.1-10.5,0.1-15.7
					c33.5,0,67,0,100.5,0c5.9,9.5,11.4,19.2,17.4,28.6c5.8-9.5,11.4-19.1,17.1-28.6c27-0.1,54,0,80.9-0.1c5.9-0.9,9,5.1,12.9,8.4
					c0.1-2.8,0.1-5.6,0.2-8.4c33,0.1,66.1-0.1,99.1,0.1c6.4,7.1,14.3,13.1,19.7,20.9c0.6,22.8,0.2,45.7,0.2,68.6
					c-6.8,6.7-13.4,13.6-20.2,20.2c-29.5-0.1-59.1,0-88.6-0.1c-1.9-3.1-3.8-6.2-5.7-9.3c0,3.1-0.1,6.2-0.1,9.3c-36.7,0-73.3,0-110,0
					c0-4.1-0.1-8.1-0.2-12.2c-1.8,2.1-3.6,4.3-5.4,6.4c-1.9-2.3-3.7-4.6-5.6-6.9c-0.1,4.2-0.1,8.4-0.1,12.7
					c-58.2-0.1-116.4,0.3-174.5-0.2c-7.8-5.6-14-13.6-21.1-20.3c0.1-23,0-46,0.1-69C236.3,643.4,243,636.6,249.8,629.9z
					 M252.5,639.9c-4.8,4.7-9.6,9.5-14.4,14.3c0,20.1-0.5,40.4,0.2,60.5c4.3,5.4,9.2,11.2,15.2,14.7c17.2-0.9,38.8,6.3,49.6-11.2
					c0,3.8,0,7.6,0,11.5c11.1,0.1,22.2,0.1,33.3,0c0.1-6,0-12,0-18.1c-0.9-0.3-2.8-1-3.8-1.3c2.4-9.6,14.5-3.9,21.6-5.3
					c0.1,8-3.6,16.1-1.8,24.7c20.5,0.1,40.9,0.1,61.4,0c0.1-6.1,0.1-12.2,0-18.3c-1.9-0.2-3.8-0.4-5.6-0.5c0-8.8-0.1-17.6,0.1-26.3
					c7.3,11.1,13.7,22.9,20.9,34.1c7.1-11.1,13.3-22.7,20.5-33.7c0.5,8.6,0.3,17.3,0.2,25.9c-1.3,0.2-3.9,0.5-5.2,0.6
					c-0.2,6.1-0.2,12.2,0,18.4c30,0,60,0.1,90,0c0.1-6.1,0.1-12.2,0-18.3c-1.9-0.3-3.7-0.6-5.5-0.8c0.1-8.1-0.1-16.2,0.2-24.3
					c9.8,13.9,17.7,29,26.7,43.4c9.4,0.2,18.8,0.1,28.3,0c0.1-3.8,0.1-7.7,0.3-11.5c3.8,3.9,7.6,7.6,11.5,11.5
					c11,0.2,21.9,0,32.9,0.2c9.4,1,14.3-8.9,20-14.7c1-11.4,0.2-22.9,0.3-34.3c-10-0.1-20.1-0.2-30.1,0.1c-0.1,5.5,0,10.9,0.1,16.4
					c2.2,0.1,4.5,0.3,6.7,0.4c0,3.4-0.1,6.8-0.1,10.2c-1,1-2,2-3,3c-5.2,0.1-10.5,0.1-15.7,0.1c-5-14-0.8-29.8-2.3-44.5
					c-1.6-9.7,10.3-8.4,16.5-7.7c6.6,1.3,4,9.7,4.7,14.5c7.6,0,15.3,0,22.9,0c3.8-13.9-3.2-27.7-16-33.3
					c-16.8,1.2-37.9-6.1-48.5,11.3c-0.2-3.8-0.2-7.6-0.4-11.4c-11.4,0.1-22.7,0.1-34,0c-0.2,6.2-0.2,12.3-0.1,18.5
					c1.8,0.2,3.6,0.3,5.4,0.5c0.2,8.8,0.2,17.7-0.1,26.6c-9.4-15.1-18.2-30.5-27.6-45.6c-25.3,0-50.7-0.1-76,0.1
					c-7.8,12.6-14.9,25.6-23,38c-7.6-12.7-15.1-25.5-22.9-38.1c-8.8,0-17.7,0-26.5-0.1c-0.2,6.1-0.3,12.3-0.1,18.4
					c1.7,0.2,3.5,0.5,5.2,0.7c0.3,17.3,0,34.6,0.2,51.9c-1,0.1-3,0.2-4,0.2c-5.9-17.3-11.9-34.6-17.2-52.1c1.1-0.2,3.3-0.7,4.4-0.9
					c0.1-6.1,0.1-12.2-0.1-18.3c-15.6,0.1-31.1,0-46.7,0.1c-0.1,5.8-0.1,11.6,0,17.5c1.3,0.8,2.6,1.6,3.8,2.4
					c-5.8,17.4-11.3,34.9-17.6,52.2c-4.4-9.3-0.5-20.9-1.9-31.1c-10-0.1-19.9-0.1-29.8,0c-0.1,5.4-0.1,10.8-0.1,16.2
					c2.3,0.3,4.5,0.6,6.8,0.9c5.4,13.7-13.2,17.4-20.5,10.1c-0.6-15.5-1-31.3,0.2-46.8c9.1-7.5,25.5-1.8,20.3,12
					c7.8,0,15.5,0.2,23.2-0.3c3.2-14-3.4-24.9-14.3-33C278.4,639.7,265.5,639.8,252.5,639.9z"/>
			</g>
			<path fill="#010101" d="M473.6,658.9c1.5-0.2,3-0.3,4.6-0.5c0.4,17.6,0.1,35.1,0.1,52.7c-1.6-0.1-3.2-0.2-4.9-0.3
				C473.6,693.4,473.3,676.1,473.6,658.9z"/>
			<path fill="#010101" d="M501.4,658.7c1.1,0,3.4,0.1,4.6,0.1c0.1,17.4,0.1,34.7,0,52.1c-1.1,0-3.4,0-4.6,0
				C501.4,693.6,501.4,676.2,501.4,658.7z"/>
			<path fill="#010101" d="M446.9,892.3c104.8-55.7,202.5-127.6,277.8-220.1c0.1,4.2,0.1,8.4,0.1,12.6c4.7,2.6,9.4,5.1,14,7.7
				c-79.3,96.1-182.4,169.5-292,227.2C337,861.9,233.7,788.2,154.4,692c7.1-3.9,14.2-7.8,21.5-11.4
				C250.3,769,345.1,838.3,446.9,892.3z"/>
			<path fill="#010101" d="M306,750.2c93.9,0,187.8,0,281.7,0c-43.7,36.1-91.3,67.3-140.8,94.7C397.2,817.5,349.7,786.3,306,750.2z"
				/>
		</g>
		<g>
			<g>
				<path fill="#E92629" d="M174.9-31c180.4-21.8,363.4-21.9,543.8,0c7.7,21.4,14.9,43,25.6,63.2c26.6,52.9,70.7,96.1,122.8,123.9
					c7.2,4.4,15.4,7.4,22,12.8c-0.2,43.5-3,87.1-8,130.4c7.1,7,14.2,14,21.1,21.3c9.7,10.4,19.6,20.6,29,31.2
					c-10.8-3.1-21.5-6.7-32.4-9.7c-7.7-2.1-15.4-4.1-23.2-6c-0.9,4.9-1.8,9.9-2.7,14.8c7,5.6,14.2,11.1,21,16.9
					c50.2,41.4,94.9,89.3,133.1,141.9c-49.5-24.4-100.8-45.5-153.8-60.9c-7.7-2.2-15.3-4.2-23-6.2c-2.7,8-5.5,15.9-7.9,24
					c7.6,2,15.3,3.9,22.9,6.2l1,0.3l-1.3,0.4c-9.5,3.2-19,6.5-28.7,9.1c-6.9,16.8-14,33.5-22,49.9c6.6,4.5,13.3,9,19.8,13.8
					c11.6,8.6,23.1,17.3,33.6,27.1c-0.1,28.5,0.1,56.9-0.1,85.4c-6.7-4.7-13.1-9.8-19.7-14.6c-0.1,11.7-0.1,23.4,0,35.2
					c6.6,4.9,13.2,9.8,19.7,14.7c0.1,28.6,0,57.1,0,85.7c-41.5-31.1-82.4-63.3-128.7-87.2c-4.7-2.6-9.4-5.1-14-7.7
					c-0.1-4.2-0.1-8.4-0.1-12.6c-75.3,92.5-173,164.4-277.8,220.1c-101.7-53.9-196.5-123.3-271-211.7c-7.2,3.7-14.4,7.5-21.5,11.4
					c-45.8,24.2-86.9,55.9-128.2,86.9c-0.5-26.3,0-52.6-0.2-78.8c3-2.3,6-4.5,9-6.8c6.7-27.1,13.7-54.2,20.2-81.3
					c0.6-20.5,0.1-40.9,0.3-61.4c1.6-1.1,3.2-2.2,4.7-3.3c6.5-4.6,13.2-9,19.8-13.4c-18.7-39-34.2-79.6-45.4-121.4
					c-7.4,3.3-14.6,7-21.7,10.9c-29.3,14.6-54.1,36.4-80.8,55c3.7-59.3,28.6-115,58.4-165.6c6-10.7,14-20.2,19.8-31
					C7.3,244,4.5,206.1,4.5,168.2c22-12,44.2-23.8,64-39.3C121.5,89.9,155.9,31.1,174.9-31z M205.2,7.4
					c-27.1,78.8-84.8,146-158.5,184.8c-0.2,14.3,0.9,28.5,1.6,42.7c83-93.3,193.5-157.8,308.8-203.2c-4.9,5.8-10.2,11.3-15.2,17
					c50-18.4,100-36.9,150.4-54.1C396.6-7.9,300.6-3,205.2,7.4z M530.4-4.3c-17.8,15.7-35.4,31.7-52.1,48.6
					c78.8,1.5,159.8,20.1,224.9,66.3c20.6,14.4,38.2,32.3,55.3,50.6c-31-9.5-62.8-18.4-95.6-18.3c65.2,31.9,125.4,73.5,180.1,121.1
					c2.2-23.8,3.8-47.7,4-71.6C773.3,153.5,715.5,86.3,688.4,7.5C635.9,1.5,583.2-2.4,530.4-4.3z M316.6,69.5
					c4.3-5.1,8.9-9.8,13.1-14.9C249.4,88,173.1,132.2,107.3,189.3C25.1,261.4-43.6,357.1-60.1,467.3c52.7-42.8,114.7-73,180.3-90.1
					c33.5-8.6,69-16.8,103.5-9.4c41,11,69.5,45,105.4,65.6c50.2-9.3,101.6-12.1,152.6-9.4c8.7,0.5,17.4,1.2,26.1,1.8
					c68.3,6,135.3,23.3,198.8,48.9c11.4,5.3,22.7,10.9,34.3,15.4c33.5-0.8,67.5-3.9,99.9-12.8c-29.3-8.6-56.3-26-75-50.3
					c83.2,2.7,162.1,34.1,237.4,67.2C951,426.1,885.9,367.9,813.7,321.8c32,2.6,63.3,10.6,94.2,19.2
					C830,258,738.2,185.3,632.5,141.3c33.9-5.5,68.6,0.3,101.6,8.8c-70.3-70.9-174.4-96.4-271.6-95c17-21.4,38.8-38.4,58.3-57.3
					C451.3,17.5,384.4,45,316.6,69.5z M73.2,396.3c10.5,39.9,24.6,78.7,42.6,115.8c64.8-35.9,134.5-63.8,207.4-77.7
					c-35.1-20.8-63.4-54.8-104.4-64.2C169,363.3,119.8,380.4,73.2,396.3z M62.5,551.9c-1.4,24.8,3.5,50.4-4.3,74.5
					C52.8,648.2,47.4,670.1,42,692c-0.9,4.6-5.8,6.6-9.1,9.4c0,20.5,0,41.1,0,61.6c24.6-18.4,49.1-37,74.9-53.7
					c-0.1-14.8,0-29.6-0.1-44.5c2.2-1.5,4.4-2.9,6.6-4.4c0.1,14.7,0,29.4,0.1,44.1c25.5-14.7,50.9-29.5,77.5-42.2
					c0.2-10-0.3-20,0.2-30c8.7-5.3,18.6-8.2,27.8-12.4c0.2-16.4-0.2-32.7,0.2-49.1c6-2.3,12-4.6,18.1-6.7c0.1,16.1,0,32.2,0.1,48.3
					c94.8-33.3,197.4-43.5,296.9-29.4c-0.1-16.5,0-32.9-0.1-49.4c-2.7-0.3-5.4-0.5-8.1-0.8c0-14.4,0-28.7,0-43.1
					c5,0.7,10.1,1.4,15.1,2.2c0.5,22.6-1,45.6,0.8,68c11.8,11.1,18.9,30.8,37.1,31.7c17.4,3.4,34.3,8.8,51.3,13.5
					c2.5-1.7,4.9-3.4,7.4-5.1c0,2.5,0.1,5.1,0.2,7.6c31.8,10.8,62.9,23.6,92.5,39.4c0,10.3,0,20.7,0,31
					c46,23.5,87.7,54.1,128.9,84.9c0-22.4,0.4-44.7-0.2-67.1c-5.2-6.3-13.2-10.2-19.6-15.4c-0.1-17.6-0.1-35.1,0-52.6
					c6.6,4.8,13,9.9,19.7,14.6c0.1-22.7,0.1-45.4,0-68.2c-120.8-95.7-274-150.5-428.6-146.6c-0.1,1.2-0.3,3.6-0.4,4.8
					c-2.7-2-5.2-5-8.9-4.3C293.8,432.5,167.1,476.9,62.5,551.9z M782.5,431c6.5,6.8,14,12.6,21.7,17.9c1.8-4.9,3.5-9.9,5.1-14.8
					C800.4,432.6,791.5,431.5,782.5,431z M747.3,493.7c10.4,5.6,20.9,10.9,31.2,16.8c3.4-6.5,6.3-13.1,9.2-19.8
					C774.2,492,760.7,493.1,747.3,493.7z M249.6,619.1c129.6,0.5,259.2,0.5,388.8,0C513.3,577.7,374.7,577.9,249.6,619.1z
					 M198.8,638.7c2.6,12.7,15.3,20.7,22.7,31c0-8.2,0-16.5,0-24.7c8.2-8.3,16.7-16.3,24.6-24.9C229.9,625,214.5,632.3,198.8,638.7z
					 M647.2,621.8c7.6,8.1,15.6,15.7,23.3,23.5c0.1,8.6,0,17.2,0.1,25.9c9-9.9,17.6-20,25.9-30.4C680.4,633.8,664,627.3,647.2,621.8
					z M249.8,629.9c-6.8,6.7-13.5,13.5-20.2,20.2c-0.1,23,0,46-0.1,69c7.1,6.6,13.3,14.7,21.1,20.3c58.2,0.5,116.4,0.1,174.5,0.2
					c0-4.2,0-8.4,0.1-12.7c1.9,2.3,3.7,4.6,5.6,6.9c1.8-2.2,3.6-4.3,5.4-6.4c0.1,4,0.1,8.1,0.2,12.2c36.7,0,73.3,0,110,0
					c0-3.1,0-6.2,0.1-9.3c2,3.1,3.9,6.2,5.7,9.3c29.5,0.1,59.1,0,88.6,0.1c6.8-6.7,13.4-13.6,20.2-20.2c0-22.9,0.4-45.8-0.2-68.6
					c-5.5-7.8-13.4-13.7-19.7-20.9c-33-0.2-66,0-99.1-0.1c-0.1,2.8-0.1,5.6-0.2,8.4c-3.9-3.3-7-9.3-12.9-8.4c-27,0-54,0-80.9,0.1
					c-5.7,9.5-11.3,19.1-17.1,28.6c-6-9.4-11.5-19.1-17.4-28.6c-33.5,0-67,0-100.5,0c0,5.2,0,10.5-0.1,15.7
					c-5.3-5.2-10.4-10.5-15.7-15.7C281.2,629.9,265.5,629.9,249.8,629.9z M306,750.2c43.7,36.1,91.3,67.3,140.9,94.6
					c49.5-27.4,97.1-58.6,140.8-94.7C493.8,750.2,399.9,750.2,306,750.2z"/>
			</g>
			<path fill="#E92629" d="M455,484.6c5.2,0.1,10.4,0.2,15.5,0.5c-0.1,14.4-0.1,28.7,0,43.1c-5.2-0.2-10.4-0.3-15.5-0.4
				c-1.5-9.1,3.6-20.5-3.9-27.6C455.9,496.3,455.1,490.1,455,484.6z"/>
			<path fill="#E92629" d="M598.6,496c2.8,0.7,5.6,1.5,8.3,2.2c0.2,16.5,0,33.1,0.1,49.6c-2.8-0.5-5.6-1.3-8.4-1.7
				C598.6,529.4,598.6,512.7,598.6,496z"/>
		</g>
		<g>
			<path fill="#4D4E4A" d="M240.3,117.6c55.1-27.3,115-42.8,174-59.1c-6.4,10.6-13.5,21.6-13.7,34.4c58-16.5,120.1-8.3,177.6,6.4
				c-27.1,5.4-56.8,8.7-79,26.6c107.4,29,208.9,80,296.4,148.7c-32.2-0.1-66.4-6.5-97.2,5.1c45.4,29.8,86.5,65.9,123.2,105.9
				c-21.3-0.5-42.5-0.2-63.7-0.6c7.3-0.2,14.6-0.3,22-0.3c-35.7-48.2-83.5-85.9-134.1-117.4c24.5-18.5,58.2-13.1,87-14.2
				c-79.9-56.9-174.3-88.7-267.4-116.8c7.7-15.4,24-23.2,38-31.8c-42.1-3.3-84.5,6.4-122.9,23.2c-5.8-16.4,1.4-33.6,5.6-49.5
				c-58.5,12.7-113.9,36.6-167.8,62.1c1.7-4.6,3.4-9.3,5.1-13.9c-49.3,28.7-91.7,67.8-134,105.7l2.9-1c-2.7,1.9-5.5,3.8-8.4,5.6
				C126.9,173.8,190.3,125.8,259.6,95C253.5,102.9,246.5,109.9,240.3,117.6z"/>
			<path fill="#4D4E4A" d="M224.1,209.1c19.2-14.6,40.2-27.3,62.7-35.8c-4.9,4-10,7.9-15.1,11.7c44.6-10.6,91-8.1,136.4-6.7
				c-42.6,8.4-89,23.2-114.9,60.7c41.7,4.2,83.3,15.3,120,35.9c-47.3-18.8-97.8-30.3-149-30.2c18.5-18.9,38.2-36.7,59.4-52.6
				c-43,8.7-80.7,32.3-118.2,53.8c12.7-17.4,27.5-33.4,45.3-45.7C241.5,201.9,232.8,205.6,224.1,209.1z"/>
			<path fill="#4D4E4A" d="M435.3,353.7c4.4,0.8,8.8,1.6,13.3,2.5c16.7,25.6,37.3,48.4,59.1,69.7c-8.7-0.6-17.4-1.3-26.1-1.8
				C463,402.9,447,379.4,435.3,353.7z"/>
			<g>
				<path fill="#4D4E4A" d="M248.6,468.4c55.5-18.7,113.9-28.8,172.4-30.8c8.2,3.5,13.4,12.1,20.9,17c0-5.9,0-11.7,0.1-17.6
					c51.9-0.5,103.9,5.7,154.4,17.6c0.3,9.7,0.3,19.4,0,29.2c-2.6-0.4-5.2-0.8-7.7-1.2c-0.2,19.7,0,39.4-0.2,59.1
					c-1.7,14.9,18.2,16.5,28.3,16.5c0.7-22.8,0.3-45.7,0.2-68.6c-2.6-0.9-5.2-1.7-7.9-2.6c-0.1-9.7-0.1-19.3,0-29
					c39.8,10.1,78.6,24.4,115.5,42.5c8.3,3.3,10.7,12.9,16.3,19.1c0.2-2.8,0.4-5.6,0.6-8.4c38.2,19.6,74.5,42.8,108.4,69.2
					c0.1,14.2,0.2,28.4-0.1,42.7c-9.9-9.9-28.4-14.3-31.1-29c-9.2-7-18.9-13.3-28.7-19.4c0,9.5,0,18.9,0,28.4
					c2.9,1.6,5.6,3.4,8.5,4.9c0.2-1.3,0.7-4.1,1-5.4c10.5,6.6,20.7,13.5,30.6,20.8c0,16.1,0.2,32.2-0.1,48.3
					c-10.4-6.7-20.4-14-30.6-21c0.8-6.4-4.3-9.7-9.4-11.9c0.2,9-0.5,18.1,0.2,27.2c8.8,7.3,19.3,12.6,28.6,19.3c0.2-2,0.4-4,0.7-5.9
					c10.2,7.1,20.4,14.3,30.2,21.9c0.2,14.3,0.2,28.6,0,43c-34.3-26.4-70.2-50.7-108.5-70.9c-0.6-11.1,1-22.5-0.7-33.5
					c-8.5-5.4-17.9-9.1-26.8-13.8c-0.5-15.2,0.4-30.4-0.4-45.6c-1.9-10.3-13.1-13-21.3-16.7c-0.1,7.3-0.1,14.7,0,22.1
					c14,4.5,5.3,22.6,7.5,33.6c-16.6-7-33.2-14-50.4-19.5c-0.2-6.4-0.4-12.9-0.3-19.3c-9.5,4.9-18.3,17-29.9,9.8
					c-18.4-8.6-44.2-3.6-55.8-23c-3.8-5.4-11.2-9.6-10.9-16.9c-0.1-22.6,0.2-45.3-0.1-68c-8.7-1.4-17.5-2.7-26.2-4
					c-0.3-2.6-0.5-5.2-0.8-7.8c-2.7-0.2-5.5-0.5-8.2-0.7c0,23.7-0.2,47.4,0.1,71c2.7,0.3,5.3,0.7,8,1.1c0,9.5,0,19,0,28.4
					c-17.6-1.4-35.1-3.4-52.7-4.2c-0.1-9.5-0.1-19,0-28.6c2.7-0.2,5.4-0.3,8.1-0.5c-0.1-23.4-0.1-46.7,0-70.1c-3-0.4-6-0.8-8.9-1.2
					c-0.3,2.6-0.5,5.3-0.8,7.9c-8.7-0.4-17.5-0.6-26.2-0.4c1.1,9.9,0.6,20.3-9,25.7c13.9,7.8,7.8,24.5,9,37.5
					c2.7,0.2,5.4,0.4,8.2,0.6c0.2,9.6,0.2,19.1,0,28.7c-14.9-0.1-29.8,0.3-44.6,0.8c-0.1-16.4,0.2-32.9-0.1-49.4
					c-7.1-4.7-16-0.8-23.8-0.9c-0.1,7.8-0.1,15.6-0.1,23.4c2.7-0.2,5.3-0.4,8-0.6c0.2,9.6,0.1,19.2,0.1,28.7
					c-48.8,4.6-97.3,13.9-143.8,29.7c-0.1-9.9-0.4-19.8,0.3-29.7c2.4-0.8,4.9-1.5,7.3-2.3c0.4-11.6,0.4-23.3,0-34.9
					c-8.2,7.5-11.6,20.6-23.2,23.6c-10.5,3.6-20.8,7.5-30.8,12.2c0,6.1,0,12.1,0,18.2c2.6-0.9,5.2-1.7,7.8-2.6
					c0.1,9.9,0.1,19.8,0,29.7c-9.3,4.2-18.8,7.9-28,12.3c-0.4,10.6,0.2,21.3-0.4,31.9c-19.5,9.3-38.2,20.2-57,30.6
					c2.8-12.6-6.9-32,6.8-39.2c-1-2.5-2-4.9-3-7.3c-11.8,9.2-32.5,12.8-34.7,29.7c0.9-0.1,2.9-0.3,3.8-0.4
					c0.2,11.4,0.1,22.9,0.1,34.3c-18.6,12.1-36.5,25.3-54.4,38.5c-0.4-12-0.3-24.1-0.1-36.1c3.2-2.7,7.5-5,8-9.6
					c8.5-35.6,17.7-70.9,26.3-106.4c-1.6,0.7-3.3,1.4-5,2.2c0-11.8,0-23.5,0-35.3c25.1-17.8,51.5-33.7,78.8-48
					c0.1,11.6,0.2,23.3,0,34.9c-3,1.6-6,3.2-9,4.9c6.4,18.2,13.5,36.1,20.6,54c1.4-0.6,2.8-1.2,4.2-1.7c0.7-23.2,0.2-46.5,0.3-69.8
					c-2.4,1-4.8,2-7.2,3.1c0-10,0-20.1,0-30.1c24.1-12.4,49-23.2,74.8-31.7c5.2-0.1,9.3,4.5,13.7,6.9
					C248.6,476,248.6,472.2,248.6,468.4z M446.8,443.4c-0.2,7.5-0.2,15-0.1,22.5c5.1,0.1,10.2,0.1,15.3,0.3c0.1-2.5,0.2-5.1,0.3-7.6
					c7.7,0.3,15.4,0.7,23.1,1.1c0,28.3,0,56.6,0,84.9c-2.7,0-5.5,0-8.2,0c0,4.9,0,9.8,0,14.7c13,0.6,25.9,1.7,38.8,3.2
					c0-4.9,0-9.9,0-14.8c-2.7-0.3-5.4-0.7-8.1-1c0.1-28.4,0-56.7,0.1-85c7.6,0.8,15.2,1.7,22.7,2.8c0,2.5,0.1,5,0.2,7.6
					c5.2,0.7,10.4,1.5,15.6,2.3c0-7.5,0.1-15,0-22.5C513.5,446.4,480.2,443.7,446.8,443.4z M344.8,451.3c0,4.9,0,9.9,0,14.9
					c2.7-0.4,5.4-0.7,8-1.1c0,28.4,0,56.7,0,85.1c-2.7,0.4-5.4,0.8-8.1,1.2c0,5,0,9.9,0,14.9c12.8-2,25.6-3.7,38.5-4.9
					c0-5,0-9.9,0-14.9c-2.7,0.2-5.3,0.5-8,0.8c-0.2-12.5,0-25,0-37.5c9.9-1.1,19.8-2,29.7-2.4c2.8,2.6,5.5,5.1,8.3,7.7
					c0,14.7,0,29.4,0,44.1c10.2-0.4,20.4-0.8,30.6-0.7c0-5,0-9.9,0-14.9c-2.7,0-5.5,0-8.2,0c0-11.1,0-22.2,0-33.3
					c-4.1-3.7-8.1-7.5-12.1-11.4c4-3.9,8-7.9,12.1-11.8c0-8.9,0.1-17.9-0.1-26.8c-5.8-5.4-11.7-10.7-17.5-16.1
					C393.5,444.6,369,447.3,344.8,451.3z M253.4,472.9c0,4.9,0,9.9,0,14.8c2.6-0.7,5.2-1.5,7.9-2.2c0,28.3,0,56.5,0,84.8
					c-2.7,0.9-5.3,1.8-8,2.7c0,4.9,0,9.8,0.1,14.8c27.2-8.8,54.9-15.6,83.1-20.2c0.1-6.7,0.1-13.4,0-20.1
					c-5.1,0.8-10.1,1.8-15.2,2.8c-0.1,1.7-0.2,3.5-0.3,5.2c-12.8,2.4-25.5,5.4-38.1,8.7c0-11.7-0.1-23.4,0-35.2
					c6.6-1.7,13.2-3.3,19.9-4.8c0.1,1.2,0.2,3.7,0.3,4.9c5.1-1.1,10.2-2.2,15.3-3.4c0-8.3,0.1-16.5-0.1-24.8
					c-5.1,1-10.2,2.1-15.3,3.3c-0.1,1.7-0.2,3.5-0.2,5.2c-6.7,1.5-13.3,3.2-19.9,4.9c0-11.8-0.1-23.5,0.1-35.3
					c12.6-3.2,25.3-6.3,38.1-8.7c0.1,1.7,0.1,3.4,0.2,5.1c5-1,10.1-1.9,15.2-2.8c0.1-6.7,0.1-13.4,0-20.1
					C308.3,457.2,280.5,463.9,253.4,472.9z M549.2,467.1c2.7,0.5,5.4,1,8.1,1.5c0.1,27.7,0,55.4,0,83.1c8.6,7.7,13.4,21.6,26.4,22.4
					c14.4,2.9,28.5,6.9,42.5,11.2c5.7-4.1,12.1-7.1,17.3-11.8c0.6-27.5-0.1-55.1,0.3-82.6c2.5,0.8,5,1.7,7.6,2.5c0-5,0-10,0-14.9
					c-12.3-4.2-24.7-8.2-37.3-11.5c0,4.9-0.1,9.8-0.1,14.7c2.6,0.8,5.2,1.6,7.8,2.4c0.4,25.9,0.1,51.7,0.1,77.6
					c-2.8,1.7-5.6,3.5-8.3,5.3c-11.9-4.5-28.1-3.2-34-16.8c-0.6-25.6,0-51.2-0.3-76.9c2.7,0.6,5.4,1.2,8.1,1.7c0-5,0-9.9,0-14.9
					c-12.6-3-25.3-5.5-38.1-7.6C549.2,457.2,549.2,462.1,549.2,467.1z M344.5,479.4c-9.3,1.5-18.4,3.3-27.6,5.1
					c-0.2-1.2-0.7-3.6-0.9-4.8c-8,1.4-15.9,3.4-23.7,5.3c-0.3,7-0.3,14.1,0,21.1c1.8-0.5,3.7-1.1,5.5-1.6c0.3-1.7,0.6-3.5,0.9-5.2
					c9.6-2.4,19.3-4.4,29.1-6.2c0.2,13,0.1,26,0.1,39c-9.6,2.2-19.2,4.1-28.8,6.4c-0.6-1.5-1.1-3.1-1.6-4.6
					c-1.7,0.4-3.4,0.8-5.1,1.3c-0.2,6.9-0.2,13.8,0,20.7c7.9-1.9,15.8-3.7,23.8-5.4c0.3-1.8,0.5-3.6,0.8-5.3
					c9.3-1.7,18.5-3.7,27.9-4.9c0.9,1.9,1.9,3.7,2.9,5.5c0.6-24.3,0.7-48.7-0.1-73C346.5,474.8,345.5,477.1,344.5,479.4z
					 M164.9,508.3c-0.1,5-0.1,10-0.1,15c2.5-1.1,5-2.3,7.5-3.4c0.1,28.3-0.1,56.5,0.1,84.8c-2.5,1.3-5,2.6-7.5,3.9
					c0,4.9,0,9.9,0,14.8c11.8-5.9,24-11.2,36.1-16.5c-0.1-4.9-0.1-9.8-0.1-14.6c-2.6,1-5.1,2.1-7.7,3.1c0-11.4-0.3-22.8,0.2-34.2
					c16.7-9.3,40.2-9.3,49.6-28.2c12.5-10.8,6.5-28,7.7-42.4c-5.7-3.7-11.4-7.5-17.2-11.1C210,487.6,187.1,497.2,164.9,508.3z
					 M654,494.1c2.6,1,5.2,2,7.9,3c0,28.3,0,56.6,0,85c-2.6-0.9-5.2-1.8-7.8-2.7c0,4.9,0,9.9,0,14.8c12.4,4.3,24.6,9.1,36.7,14.2
					c0-4.9,0-9.9,0-14.8c-2.6-1.1-5.1-2.2-7.7-3.3c-0.1-12.5-0.1-25,0-37.5c13,6.2,30.7,8.9,35.4,24.8c0.5,14.5,0,29,0.2,43.5
					c9.4,4.5,18.7,9.4,28,14.3c0-5,0-9.9,0-14.9c-2.5-1.4-5-2.8-7.5-4.1c0.5-18,2.4-36.7-11.1-50.7c3.7-1.9,7.4-3.8,11.1-5.6
					c-0.3-8.8,0.5-17.7-0.3-26.5c-4.8-8.7-10.3-17.2-16.3-25.2c-21.8-11.9-45.1-20.9-68.5-29.1C654,484.2,654,489.2,654,494.1z
					 M653.1,501.3c-0.3,22.1-0.1,44.2-0.1,66.2c-0.4,2.8,0.8,4.8,3.8,5.3c0.6-23.4,0.2-46.9,0.2-70.3
					C656.1,502.2,654.1,501.6,653.1,501.3z M77.4,559.4c0,6.3,0,12.6,0,18.9c3.2-2.1,6.4-4.2,9.6-6.3
					C76.2,614.9,65.5,657.7,55,700.6c-0.6,3.8-4.3,5.5-7,7.8c-0.1,6.3-0.1,12.6,0,18.9c13-9.9,26.6-19,40-28.3
					c1.5-6.2,0.3-12.8,0.6-19.2c-2.8,1.8-5.5,3.6-8.3,5.4c2.5-10.2,5.1-20.4,7.6-30.6c13.6-9.2,27.7-17.8,42-26
					c2.8,6.9,5.6,13.9,8.2,20.9c-2.9,1.7-5.8,3.4-8.7,5.2c0.1,6.3,0.1,12.5,0.1,18.8c14.2-8.1,28.5-15.9,43.2-23.1
					c0-6.4,0-12.7,0-19.1c-2.4,1.1-4.7,2.3-7,3.4c-11.5-30-23-60-34.5-90c3.7-2.1,7.3-4.2,11-6.2c0-6.3,0-12.5-0.1-18.8
					C119.7,531.4,98.3,545,77.4,559.4z M746.6,520.2c0,6.3,0,12.6-0.1,18.9c3.2,2.5,9.7,3.2,9.5,8.3c0,35.1,0,70.2,0,105.3
					c-3.1-1.6-6.3-3.3-9.4-4.9c0,6.3,0,12.6,0,18.9c33.2,17.8,64.8,38.3,94.7,61.2c0.1-8.5,0-17,0-25.5c-5.5-4.2-11.1-8.2-16.8-12.2
					c0,1.6,0,4.8-0.1,6.4c-14.1-10-28.5-19.5-43.2-28.7c0-14.9,0-29.7,0-44.6c7.7,4.7,15.3,9.6,22.8,14.7c0,2.2,0.1,4.3,0.2,6.5
					c5.8,3.8,11.4,7.7,17.1,11.6c-0.1-10.4,0.4-20.8-0.2-31.1c-4.9-5-11.4-8.1-16.9-12.3c-0.1,2.2-0.1,4.3-0.2,6.5
					c-7.5-5-15.1-9.9-22.8-14.6c0-15,0-29.9,0-44.9c14.7,8.9,29,18.6,43.1,28.4c0,2.2,0.1,4.4,0.1,6.6c5.5,4.2,11.2,8.3,16.8,12.3
					c-0.1-8.4,0.4-16.8-0.2-25.2C811.9,558.2,779.7,538.2,746.6,520.2z M748.6,549.6c-0.3,5-0.3,10-0.4,15c-4,2-10,4.6-5,9.2
					c10.6,11.3,0.7,28.4,7.2,40.6C749.6,593.2,753.6,569.8,748.6,549.6z"/>
			</g>
			<g>
				<path fill="#4D4E4A" d="M375.3,462.1c12.5,0.5,29-8,37.6,4.9c1,5.6,0.2,11.3,0.4,16.9c-8.2,13.5-25.1,8.1-38.1,11.1
					C375.2,484,375.1,473.1,375.3,462.1z M384.3,469c0,6.1,0,12.3,0,18.4c6.5-0.3,13.1,0,19.4-1.6c6.9-3.1,6.1-13.8,1.5-18.6
					C398.2,467.7,391.2,468.2,384.3,469z"/>
			</g>
			<g>
				<path fill="#4D4E4A" d="M193.1,510.3c9.3-4,18.6-7.9,28.2-11.3c2.7,1.7,5.4,3.4,8.1,5.1c-0.8,7.3,1.7,15.4-1.6,22.2
					c-6.6,13.2-22.9,13.7-34.6,20.1C193.1,534.3,193.2,522.3,193.1,510.3z M202.4,515.3c-0.1,6.9-0.1,13.9,0,20.8
					c14.3-2.4,27.3-13.1,21.9-29.1C216.7,509,209.6,512.3,202.4,515.3z"/>
			</g>
			<g>
				<path fill="#4D4E4A" d="M683.1,505.3c11.3,5.9,26.6,7.4,33,19.8c4.5,6.1,2,14,2.5,21c-2.6,1.4-5.2,2.8-7.8,4.2
					c-9.2-4.3-18.5-8.2-27.8-12.3C683.1,527,683,516.2,683.1,505.3z M692.3,516.1c-0.2,6-0.1,11.9,0.1,17.9
					c7.1,2.9,14.2,6.1,21.3,9.1C717.9,528.3,704.4,519.6,692.3,516.1z"/>
			</g>
			<path fill="#4D4E4A" d="M108.9,574.2c6,14.3,11.2,28.9,16.8,43.3c-11.3,6.5-22.3,13.5-33.3,20.4
				C97.8,616.7,103,595.3,108.9,574.2z"/>
			<g>
				<path fill="#4D4E4A" d="M252.5,639.9c13-0.1,26-0.2,39,0c10.8,8.1,17.5,19.1,14.3,33c-7.7,0.5-15.5,0.3-23.2,0.3
					c5.2-13.8-11.2-19.5-20.3-12c-1.2,15.5-0.8,31.3-0.2,46.8c7.2,7.3,25.8,3.6,20.5-10.1c-2.3-0.3-4.5-0.6-6.8-0.9
					c-0.1-5.4,0-10.8,0.1-16.2c10-0.1,19.9-0.1,29.8,0c1.4,10.2-2.5,21.8,1.9,31.1c6.3-17.3,11.8-34.8,17.6-52.2
					c-1.3-0.8-2.6-1.6-3.8-2.4c-0.1-5.8-0.1-11.6,0-17.5c15.5-0.1,31.1,0,46.7-0.1c0.2,6.1,0.2,12.2,0.1,18.3
					c-1.1,0.2-3.3,0.7-4.4,0.9c5.3,17.5,11.3,34.8,17.2,52.1c1-0.1,3-0.2,4-0.2c-0.1-17.3,0.2-34.6-0.2-51.9
					c-1.7-0.3-3.5-0.5-5.2-0.7c-0.2-6.2-0.1-12.3,0.1-18.4c8.8,0,17.7,0,26.5,0.1c7.8,12.6,15.3,25.4,22.9,38.1
					c8-12.4,15.1-25.5,23-38c25.3-0.2,50.7-0.1,76-0.1c9.4,15.1,18.2,30.5,27.6,45.6c0.3-8.9,0.3-17.7,0.1-26.6
					c-1.8-0.2-3.6-0.4-5.4-0.5c-0.1-6.2-0.1-12.3,0.1-18.5c11.3,0,22.7,0,34,0c0.1,3.8,0.2,7.6,0.4,11.4
					c10.5-17.4,31.7-10.1,48.5-11.3c12.8,5.7,19.8,19.4,16,33.3c-7.6,0-15.3,0-22.9,0c-0.7-4.8,1.9-13.3-4.7-14.5
					c-6.2-0.6-18.1-2-16.5,7.7c1.4,14.7-2.8,30.5,2.3,44.5c5.2,0,10.4,0,15.7-0.1c1-1,2-2,3-3c0-3.4,0.1-6.8,0.1-10.2
					c-2.3-0.2-4.5-0.3-6.7-0.4c-0.1-5.5-0.2-10.9-0.1-16.4c10-0.2,20.1-0.2,30.1-0.1c-0.1,11.4,0.7,22.9-0.3,34.3
					c-5.8,5.7-10.7,15.7-20,14.7c-11-0.2-21.9,0-32.9-0.2c-3.8-3.8-7.7-7.6-11.5-11.5c-0.1,3.8-0.2,7.7-0.3,11.5
					c-9.4,0.1-18.8,0.1-28.3,0c-9-14.4-16.9-29.5-26.7-43.4c-0.3,8.1-0.1,16.2-0.2,24.3c1.8,0.3,3.7,0.6,5.5,0.8
					c0.2,6.1,0.2,12.2,0,18.3c-30,0.1-60,0.1-90,0c-0.2-6.1-0.2-12.3,0-18.4c1.3-0.2,3.9-0.5,5.2-0.6c0.1-8.6,0.2-17.3-0.2-25.9
					c-7.3,11-13.4,22.6-20.5,33.7c-7.2-11.2-13.6-22.9-20.9-34.1c-0.3,8.8-0.1,17.5-0.1,26.3c1.9,0.2,3.7,0.4,5.6,0.5
					c0,6.1,0,12.2,0,18.3c-20.5,0.1-40.9,0.1-61.4,0c-1.8-8.7,1.9-16.7,1.8-24.7c-7.1,1.4-19.2-4.2-21.6,5.3c0.9,0.3,2.8,1,3.8,1.3
					c0.1,6,0.1,12,0,18.1c-11.1,0.1-22.2,0.1-33.3,0c0-3.8,0-7.6,0-11.5c-10.8,17.6-32.4,10.3-49.6,11.2
					c-5.9-3.5-10.8-9.3-15.2-14.7c-0.7-20.1-0.2-40.3-0.2-60.5C242.9,649.4,247.6,644.6,252.5,639.9z M242.2,655.6
					c-0.1,19.2-0.1,38.5,0,57.7c4.3,3.8,7.7,8.8,12.6,11.8c16.6-0.4,36.9,5.5,46.8-11.8c0.1-9.6,0-19.3,0-28.9c-7.3,0-14.6,0-21.8,0
					c0,2.9,0,5.8,0,8.7c2.2,0,4.5,0,6.7,0.1c0,5.3,0.6,10.8-0.4,16c-4.6,8.8-15.4,4.7-23.3,5.5c-1.8-1.8-3.6-3.6-5.4-5.3
					c-0.2-15.2-0.1-30.5-0.1-45.7c-0.7-4.1,2.9-6.7,5.4-9.3c6.1,0,12.2,0,18.4,0c4.9,3.4,6.3,8.8,5.6,14.5c5,0,10,0,14.9,0
					c0-4.4,0-8.8,0-13.2c-4.2-3.8-7.6-8.6-12.4-11.8C272.6,644.3,252.2,638.4,242.2,655.6z M325.5,643.7c0.1,3.5,0.1,7,0.1,10.5
					c1.9,0.1,3.8,0.3,5.8,0.5c-6.8,19.9-13.4,39.9-20.1,59.8c-1,0.1-3,0.4-4,0.6c0,3.4,0,6.9,0,10.3c8.3,0,16.7,0,25,0
					c0-3.5,0-7,0-10.5c-1.2,0-3.6-0.1-4.8-0.2c1.3-4.8,2.9-9.6,4.6-14.3c8.3,0,16.6,0,24.9,0c1.7,4.7,3.3,9.4,4.9,14.2
					c-1.7,0.1-3.4,0.2-5.1,0.3c0,3.5,0,7,0,10.4c8.4,0.1,16.8,0.1,25.1,0c0-3.3,0-6.7,0-10c-1.4-0.4-2.8-0.7-4.2-1
					c-6.6-20-13.3-39.9-19.8-59.9c2.1-0.1,4.2-0.1,6.4-0.1c0-3.5,0-7.1,0-10.6C351.3,643.6,338.4,643.6,325.5,643.7z M383.3,643.6
					c0,3.5,0,7,0,10.5c1.8,0.1,3.7,0.2,5.5,0.3c-0.1,20,0,40.1,0,60.1c-1.8,0.1-3.7,0.2-5.5,0.3c0,3.5,0,7,0,10.4
					c8.7,0,17.4,0,26.1,0c0-3.5,0-7,0-10.5c-1.8,0-3.6,0-5.5-0.1c0-15.3-0.1-30.6,0.1-45.8c8.5,13.7,16.5,27.7,25.2,41.3
					c8.3-13.8,16.4-27.6,24.8-41.3c0.2,15.3,0,30.6,0.1,45.8c-1.8,0-3.6,0.1-5.4,0.1c0,3.5,0,7,0,10.5c8.7,0.1,17.4,0,26,0
					c0-3.5,0-7,0-10.5c-1.8-0.1-3.7-0.2-5.5-0.3c0.1-20,0-40.1,0-60.1c1.8-0.1,3.7-0.2,5.5-0.3c0-3.5,0-7,0-10.5
					c-6.9,0-13.7,0-20.5,0c-8.4,14-16.6,28-25,41.9c-8.7-13.8-16.9-28-25.4-41.9C396.9,643.6,390.1,643.6,383.3,643.6z M476.5,643.6
					c0,3.5,0,7,0,10.5c1.9,0.1,3.7,0.2,5.6,0.3c-0.1,20,0,40.1,0,60.1c-1.9,0.1-3.7,0.2-5.5,0.3c0,3.5,0,7,0,10.4
					c8.7,0,17.4,0,26.1,0c0-3.5,0-7,0-10.5c-1.8,0-3.7-0.1-5.5-0.1c0-20.1,0-40.3,0-60.4c1.8,0,3.6-0.1,5.5-0.1c0-3.5,0-7.1,0-10.6
					C493.9,643.6,485.2,643.6,476.5,643.6z M504.5,643.6c0,3.5,0,7.1,0,10.6c1.8,0,3.6,0,5.5,0.1c0,20.1,0,40.3,0,60.4
					c-1.8,0-3.7,0-5.5,0.1c0,3.5,0,7,0,10.5c8.7,0,17.4,0,26.1,0c0-3.5,0-7,0-10.4c-1.9-0.1-3.7-0.2-5.5-0.3
					c0.1-14.7-0.1-29.3,0.2-44c11.4,18,22,36.6,33.2,54.8c7.3,0,14.5,0,21.8,0c0-3.5,0-7,0-10.5c-1.9,0-3.7-0.1-5.6-0.1
					c0-20.1,0-40.3,0-60.4c1.9,0,3.7-0.1,5.6-0.1c0-3.5,0-7.1,0-10.6c-8.7,0-17.4,0-26.1,0c0,3.5,0,7,0,10.5
					c1.8,0.1,3.6,0.1,5.5,0.2c0,15.2,0,30.4,0,45.6c-11.5-18.7-22.6-37.6-34-56.3C518.6,643.6,511.5,643.6,504.5,643.6z
					 M586.4,655.6c-0.1,19.2-0.1,38.5,0,57.7c4.3,3.8,7.7,8.8,12.6,11.8c16.6-0.4,36.9,5.5,46.8-11.8c0.1-9.6,0-19.3,0-28.9
					c-7.3,0-14.6,0-21.8,0c0,2.9,0,5.8,0,8.7c2.2,0,4.5,0.1,6.7,0.1c0,5.3,0.6,10.8-0.4,16.1c-4.6,8.7-15.4,4.7-23.3,5.4
					c-1.8-1.8-3.6-3.6-5.4-5.4c-0.1-15.2-0.1-30.5-0.1-45.7c-0.7-4.1,2.9-6.7,5.4-9.3c6.1,0,12.2,0,18.4,0c4.9,3.4,6.3,8.8,5.6,14.5
					c5,0,10,0,14.9,0c0-4.4,0-8.8,0-13.2c-4.2-3.8-7.6-8.6-12.4-11.8C616.7,644.3,596.4,638.4,586.4,655.6z M473.6,658.9
					c-0.2,17.3,0.1,34.6-0.2,51.8c1.6,0.1,3.2,0.2,4.9,0.3c0-17.6,0.2-35.1-0.1-52.7C476.6,658.5,475.1,658.7,473.6,658.9z
					 M501.4,658.7c0,17.4-0.1,34.8,0,52.3c1.1,0,3.4,0,4.6,0c0.1-17.4,0.1-34.7,0-52.1C504.9,658.8,502.6,658.8,501.4,658.7z"/>
			</g>
			<path fill="#4D4E4A" d="M344.5,663.1c3.5,9.9,6.7,19.8,10,29.8c-6.6,0-13.3,0-19.9,0C337.9,683,341.2,673.1,344.5,663.1z"/>
		</g>
	</g>
	<g>
		<path fill="#E92629" d="M173.6,222.9c0-1-0.1-1.9-0.4-2.9l-4.9,4.9c-0.3,1-0.9,1.8-1.6,2.5h6C173.2,226.1,173.6,224.5,173.6,222.9
			z"/>
		<path fill="#E92629" d="M159.8,217c0.5-0.2,1-0.3,1.5-0.4l-3.9-3.9c-2,1-3.6,2.5-4.8,4.3H159.8z"/>
		<path fill="#E92629" d="M151.9,218.5c-0.6,1.4-0.9,2.9-0.9,4.4c0,1,0.1,1.9,0.4,2.8l5-5c0.3-0.8,0.8-1.6,1.4-2.2H151.9z"/>
		<path fill="#E92629" d="M167.8,219.8c0.5,0.8,0.8,1.8,0.8,2.8l4.1-4.1c-1-2.3-2.7-4.3-4.9-5.5V219.8z"/>
		<path fill="#E92629" d="M159.9,228.8c-0.8-0.3-1.5-0.8-2.2-1.4v5.9c1.4,0.6,2.9,1,4.5,1c0.9,0,1.8-0.1,2.7-0.3L159.9,228.8z"/>
		<path fill="#E92629" d="M163.3,216.6c1.2,0.2,2.3,0.7,3.1,1.4v-5.7c-1.3-0.5-2.7-0.8-4.1-0.8c-1.2,0-2.4,0.2-3.5,0.6L163.3,216.6z
			"/>
		<path fill="#E92629" d="M164.3,228.9c-0.6,0.2-1.3,0.3-1.9,0.3l4.1,4.1c2.2-0.9,4.1-2.5,5.3-4.5H164.3z"/>
		<path fill="#E92629" d="M156.3,225.1c-0.2-0.6-0.4-1.3-0.4-2l-4.1,4.1c0.9,2.2,2.5,4,4.5,5.3V225.1z"/>
	</g>
</g>
</svg>
