<?xml version="1.0" encoding="utf-8"?>
<!-- Generator: Adobe Illustrator 18.1.1, SVG Export Plug-In . SVG Version: 6.00 Build 0)  -->
<svg version="1.1" id="Layer_2" xmlns="http://www.w3.org/2000/svg" xmlns:xlink="http://www.w3.org/1999/xlink" x="0px" y="0px"
	 viewBox="224.5 50.5 392.5 494.5" enable-background="new 224.5 50.5 392.5 494.5" xml:space="preserve">
<g>
	<g>
		<polygon fill="none" points="459.4,303 485.9,286.5 481.1,281.2 471.1,287.6 464.8,280.2 474.8,273.8 470,268 443.5,283.9 
			448.7,289.7 458.9,283.4 465.2,290.8 455,297.1 		"/>
		<polygon fill="none" points="476.3,312.5 470.5,306.2 491.3,293.4 487,288.2 460.4,304.1 470.5,315.8 		"/>
		<g>
			<polygon fill="none" points="506.1,311 493.4,296 487.6,299.3 491.7,304.7 476.9,313.2 476.9,313.2 471.1,316.9 471.1,316.9 
				471.1,316.9 476.3,322.7 496.5,310.5 500.4,314.2 			"/>
			<polygon fill="none" points="519.5,326.9 498.7,330.7 509.9,315.8 506.7,312.1 506.7,312.1 499.7,315.8 486.5,334.9 490.2,339.7 
				524.7,333.8 			"/>
		</g>
	</g>
	<g>
		<path fill="none" d="M500.8,348.8c-1.5,0.5-3.2,0.5-4.8-0.5c-1.1-1.5-0.5-2.6,0.5-4.3c1.5-0.5,3.2-0.5,4.8,0.5
			C503,345.5,502.4,348.1,500.8,348.8z"/>
		<path fill="none" d="M514.7,356.6c-3.2,2.2-8,3.2-10.6-0.5c-3.2-3.7-0.5-6.9,3.2-9.1c3.2-2.2,8-3.2,11.1,0
			C521,351.4,517.8,354.6,514.7,356.6z M509.3,350.9c-1.1,0.5-3.7,2.2-2.6,3.2c1.1,1.1,4.3-0.5,4.8-1.1c0.5-0.5,3.7-2.2,2.6-3.2
			C513.6,348.8,510.4,350.3,509.3,350.9z"/>
		<path fill="none" d="M525.3,357.2l-1.5,1.1l0,0c1.5,0,3.2,0.5,4.8,1.5l-3.7,2.2c0,0,0-0.5-0.5-0.5c-2.2-2.2-3.7-1.1-5.9,0
			l-6.9,4.3l-2.6-3.2l13.9-8L525.3,357.2z"/>
		<path fill="none" d="M515.8,373.7c-1.1,0.5-1.5,1.5-1.1,2.6c1.5,1.5,3.7,0,4.8-1.1l2.2-1.1l0,0c-0.5,0-1.5,0-2.2,0
			c-0.6,0-1.5-0.5-1.5-1.1c-1.1-1.5-0.5-2.6,0-4.3c0.5-1.7,2.6-2.6,4.3-3.7c2.6-1.5,7.4-4.3,10.2-1.1c1.1,1.1,0.5,2.6,0,3.2l0,0
			l1.5-1.1l2.6,3.2l-15,9.1c-4.3,2.6-6.9,2.2-9.6-1.1c-2.6-3.2-1.5-5.2,1.5-7.4L515.8,373.7L515.8,373.7z M526.9,371.1
			c0.5-0.5,3.7-2.2,2.6-3.2c-1.1-1.1-4.3,0.5-4.8,1.1c-1.1,0.5-3.7,2.2-2.6,3.2C523.2,373.1,526.3,371.6,526.9,371.1z"/>
	</g>
</g>
<path fill="#900000" d="M529.3,127.5c46.3,33.6,76.4,88.1,76.4,149.7c0,102.1-82.7,184.8-184.8,184.8S236,379.2,236,277.1
	c0-61.6,30.1-116.1,76.4-149.7c-53,35.2-87.9,95.3-87.9,163.7c0,108.4,87.9,196.3,196.3,196.3s196.3-87.9,196.3-196.3
	C617.1,222.8,582.2,162.7,529.3,127.5z"/>
<path fill="#040004" d="M537.6,133.9l23.9-83.4l-45.6,68.9c-28.2-15.6-60.6-24.6-95.1-24.6c-34,0-66,8.7-93.9,23.9l0,0l-44.4-68.2
	l23.6,81.8c-42.7,33.9-70.1,86.2-70.1,144.9c0,84.8,57.1,156.2,134.9,178l49.9,89.9l49.6-89.8c78-21.7,135.2-93.2,135.2-178.1
	C605.6,219.4,579.1,167.8,537.6,133.9z"/>
<linearGradient id="SVGID_1_" gradientUnits="userSpaceOnUse" x1="421.7439" y1="526.5" x2="421.7439" y2="157.3009">
	<stop  offset="3.408004e-03" style="stop-color:#660100"/>
	<stop  offset="1" style="stop-color:#A20806"/>
</linearGradient>
<path fill="url(#SVGID_1_)" d="M508.8,157.3L421,333.5l-86.6-176.2H282l138.8,369.2l140.7-369.2H508.8z M286.5,164
	c25.2,2.2,25.8,10.7,90.5,185.3L286.5,164z M556.4,164l-90.5,185.3C530.6,174.7,531.2,166.2,556.4,164z"/>
<linearGradient id="SVGID_2_" gradientUnits="userSpaceOnUse" x1="421.6424" y1="413.6143" x2="421.6424" y2="72.6143">
	<stop  offset="3.408004e-03" style="stop-color:#660100"/>
	<stop  offset="1" style="stop-color:#A20806"/>
</linearGradient>
<polygon fill="url(#SVGID_2_)" points="292.8,72.6 422.1,413.6 550.5,73.5 421,333.5 "/>
<linearGradient id="SVGID_3_" gradientUnits="userSpaceOnUse" x1="380" y1="209.6667" x2="380" y2="181">
	<stop  offset="3.408004e-03" style="stop-color:#660100"/>
	<stop  offset="1" style="stop-color:#A20806"/>
</linearGradient>
<path fill="url(#SVGID_3_)" d="M353,181l54,16.3c0,0-9,12.3-17.3,12.3C381.3,209.7,353,181,353,181z"/>
<linearGradient id="SVGID_4_" gradientUnits="userSpaceOnUse" x1="236.9635" y1="209.6667" x2="236.9635" y2="181" gradientTransform="matrix(-1 0 0 1 700 0)">
	<stop  offset="3.408004e-03" style="stop-color:#660100"/>
	<stop  offset="1" style="stop-color:#A20806"/>
</linearGradient>
<path fill="url(#SVGID_4_)" d="M490,181l-54,16.3c0,0,9,12.3,17.3,12.3C461.7,209.7,490,181,490,181z"/>
</svg>
