<?xml version="1.0" encoding="utf-8"?>
<!-- Generator: Adobe Illustrator 18.1.1, SVG Export Plug-In . SVG Version: 6.00 Build 0)  -->
<svg version="1.1" id="Layer_1" xmlns="http://www.w3.org/2000/svg" xmlns:xlink="http://www.w3.org/1999/xlink" x="0px" y="0px"
	 viewBox="137 11.3 572 572.7" enable-background="new 137 11.3 572 572.7" xml:space="preserve">
<g>
	<g>
		<polygon fill="none" points="385.1,308.5 389.6,280 382.7,280 380.9,291 371.9,291 373.6,280 366.2,280 361.7,308.5 369.1,308.5 
			370.9,297.1 380,297.1 378.2,308.5 		"/>
		<polygon fill="none" points="402.1,302.2 394.2,302.2 397.7,280 390.8,280 386.4,308.5 401.1,308.5 		"/>
		<g>
			<polygon fill="none" points="418.8,280 400.4,280 399.4,286.3 405.5,286.3 403,302.2 403,302.2 402,308.5 402,308.5 402.1,308.5 
				409.4,308.5 412.9,286.3 417.8,286.3 			"/>
			<polygon fill="none" points="438.5,280 428.8,297.3 424.7,280 420,280 419.7,280 418.6,287.4 424.1,308.5 429.9,308.5 446.5,280 
							"/>
		</g>
	</g>
	<g>
		<path fill="none" d="M443.2,306.4c-0.2,1.5-1.7,2.8-3.2,2.8c-1.6,0-2.6-1.3-2.3-2.8c0.2-1.5,1.7-2.8,3.2-2.8
			S443.4,304.9,443.2,306.4z"/>
		<path fill="none" d="M456.8,301.5c-0.6,3.8-2.4,7.7-6.9,7.7c-4.4,0-5-3.9-4.4-7.7c0.6-3.8,2.4-7.7,6.9-7.7
			C456.8,293.8,457.4,297.7,456.8,301.5z M449.7,301.5c-0.1,0.9-0.6,4,0.9,4c1.4,0,2-3.1,2.1-4c0.1-0.9,0.6-4-0.9-4
			C450.4,297.5,449.8,300.6,449.7,301.5z"/>
		<path fill="none" d="M463.9,294l-0.3,1.8h0.1c1-1.3,2.1-2.2,3.8-2.3l-0.6,4c-0.2,0-0.4-0.1-0.6-0.1c-2.8,0-3.1,1.8-3.4,4l-1.2,7.4
			h-4.1l2.3-14.8H463.9z"/>
		<path fill="none" d="M469.9,310.8c-0.1,0.9,0,2.1,1.2,2.1c1.8,0,2-2.8,2.2-4.1l0.3-1.9h-0.1c-0.4,0.5-0.8,1.1-1.2,1.5
			c-0.5,0.4-1.1,0.7-1.8,0.7c-1.5,0-2.3-1.2-2.8-2.5c-0.5-1.5-0.4-3.4-0.2-5c0.4-2.6,1.7-7.9,5.3-7.9c1.4,0,2.2,0.9,2.5,2.1h0.1
			l0.3-1.8h4.1l-2.6,16.1c-0.7,4.3-2.9,6.1-6.5,6.1c-3.5,0-4.8-2-4.5-5.4H469.9z M474.7,301.4c0.1-0.8,0.6-4-0.8-4
			c-1.4,0-2,3.1-2.1,4c-0.1,0.9-0.6,4,0.9,4C474,305.4,474.6,302.2,474.7,301.4z"/>
	</g>
</g>
<g>
	<path fill="#1F0D09" d="M280.5,42c2-0.9,4.3-1.6,6.5-1.4c18-0.3,35.9,0.8,53.5,3.5c1.7,0.3,3.5,0.8,5.2,1.1
		c1.4,3.5,2.8,7.1,3.9,10.6c-18.6-6.6-38-11-57.6-13.2C288.2,41.7,284.3,41.3,280.5,42L280.5,42z"/>
	<path fill="#1F0D09" d="M350.1,45.2c10.9,2.4,21.7,4.7,32.1,8.3c5.8,1.7,11,5,16.2,8c23.9,13.7,46.1,30.9,65.5,50.6
		c20.9,21.6,38.3,46.3,52,73.1c0.9,1.9,2.2,3.8,2.7,6c-3.6,0.2-7.2,0.3-10.9,0.9c-21.3-43.5-54.8-80.6-95.7-106.3
		c-2.4-1.4-4.6-2.8-6.9-4.3c-15.3-9.1-31.3-16.7-47.6-23.6l1.6,2.8C355,56.4,353.1,50.6,350.1,45.2L350.1,45.2z"/>
	<path fill="#1F0D09" d="M683.3,156.9c1.3,21.1,0,42.5-3.5,63.3c-3.6,1.3-7.2,2.7-10.7,3.9c5.5-16.1,9.6-32.8,12-49.6
		C681.9,168.8,682,162.8,683.3,156.9L683.3,156.9z"/>
	<path fill="#1F0D09" d="M171,378.3c2.7-1.1,5.5-2.2,8.2-3c-6.6,18.6-11,38-13.4,57.6c-0.5,3.8-1.1,7.6-0.6,11.3
		c-0.3-0.8-0.9-2.4-1.3-3.1c-0.6-20.6,0.6-41.3,3.9-61.6C168.8,379.2,170.2,378.6,171,378.3L171,378.3z"/>
	<g>
		<path fill="#AA8C63" d="M412,85.8c-2.4-1.4-4.6-2.8-6.9-4.3c-11.2,1.4-22.7,2.5-33.5,5.7c0.6,1.4,1.4,2.8,2.2,4.1
			C386.3,88.5,399.1,86.6,412,85.8z"/>
		<path fill="#AA8C63" d="M642.7,280.2c-1.4-11.2-2.8-22.5-6-33.4c-1.4,0.6-2.8,1.3-4.1,2c3.1,12.6,4.9,25.5,5.7,38.4
			C639.7,284.9,641.3,282.5,642.7,280.2z"/>
		<path fill="#AA8C63" d="M215.7,351.7c-0.3-0.9-0.8-2.8-1.1-3.6c-3-11.3-4.1-23-5.2-34.5c-1.7,2.7-3.3,5.4-4.9,8
			c1.7,10.9,3.3,21.9,6,32.8C212.3,353.4,214,352.6,215.7,351.7z"/>
		<path fill="#AA8C63" d="M704.1,136.9c-0.2,0.3-0.5,1.1-0.5,1.6c-2,26.8-6.3,53.9-15.9,79.1c-2.5,0.9-5.2,2-7.9,2.8
			c-3.6,1.3-7.2,2.7-10.7,3.9c-9.3,3.6-18.9,6.5-28.5,9.6c-1.4,0.3-4.4,0.9-6,1.3c-0.3-0.3-1.1-0.9-1.4-1.4
			c-21.9-69.9-80.9-127.1-152-145.2C420.9,38,340.2,13.9,262,19.8c15.3,2,30.9,2.7,45.7,6.9l0.6-0.3c11.3,2.5,22.5,5.8,33.5,9.3
			c1.1,2.8,2.5,5.7,3.3,8.5c-1.1-0.2-3.5-0.3-4.7-0.5c1.7,0.3,3.5,0.8,5.2,1.1c1.4,3.5,2.8,7.1,3.9,10.6c4.1,11.3,7.9,22.8,11,34.5
			c-41.4,12.1-78.9,37.2-106.3,70.4c-20.5,24.4-35.3,53.4-43.3,84.1c-1.1,2-2,4.3-3.6,6c-34.8,44.3-57.3,98.3-63.2,154.3
			c-1.7,18.3-3.1,36.9-0.9,55.1c2.2-8.5,2-17.5,3.5-26.1c2.4-17.2,7.1-33.9,12.3-50.2c2.8-1.7,6-2.8,9-4.1c0.8-0.3,2.2-0.9,3-1.3
			c2.7-1.1,5.5-2.2,8.2-3c1.6-0.5,3.1-0.6,4.7-1.1l0.3-0.9c9.8-2.7,19.2-6.1,29.3-8.2c8.5,26.6,21.7,51.8,39.5,73.4
			c27.9,34.3,66.3,60,108.8,72.3c1.9,0.5,3.9,0.8,6,0.8c19.4,15.4,40.2,29.1,62.5,39.7c35.9,17.2,75.1,26.9,114.8,29.1
			c14.2,0.8,28.7,0.5,42.8-0.3c-11.7-1.9-23.3-2.2-35-4.4c-15.6-2.8-31-6.3-46-11.8c-1.3-2.7-2.2-5.5-3.3-8.3
			c-0.6-1.7-1.4-3.5-2-5.2c-0.6-1.9-1.3-3.8-2-5.7c-4.3-11.7-7.7-23.5-10.9-35.4c40.5-12.3,77.2-37,103.9-69.6
			c19.5-23.6,34.3-51.5,42.4-81.1l-0.5-1.9c6.3-9.6,14.2-18.4,20.2-28.3c26.1-39.7,42.8-85.8,47.6-133.2
			C705.7,175.9,704.6,156.2,704.1,136.9z M439.2,227.2c5.7-1.6,11.2-3.8,17-4.4c1.3,2.2,2.4,4.4,3.6,6.5
			c18,30.7,31.2,63.9,40.6,98.1c0.3,0.8,0.8,2.4,1.1,3.3c-6.5,4.6-13.7,7.9-20.6,11.7c-27.1,13.9-55.7,24.1-85,32.1
			c-0.8,0.2-2.5,0.8-3.5,0.9c-2.2-3.1-4.1-6.6-5.8-10.1c-16.5-30.9-28.3-63.8-38.1-97.3C376.7,250.4,407.7,237.5,439.2,227.2z
			 M656.7,235.3c7.6-3,14.6-7.4,22.2-10.2c2.7-1.9,5.4-3.6,8-5.2c-1.1,3.1-2.2,6.3-3.6,9.4c-3.9,8.2-6.5,17-11.7,24.6
			c-0.5,1.6-1.1,3.1-1.6,4.6c-19.1,37.8-46,71.7-79.1,98.1c-18,14.6-37.8,26.5-58.4,37c-0.2-1.3-0.6-3.9-0.8-5.2h-0.2
			c0-0.6-0.2-1.7-0.2-2.2c-1.6-13.4-4.4-26.6-6.8-39.8c-1.1-7.4-3.1-14.5-4.3-21.9c7.7-6.8,15.1-14.2,21.4-22.4
			c-7.7,5.7-14.6,12.1-22.8,17.3c-12.8-32.1-29.3-62.8-49.8-90.7c-0.5-0.6-1.4-1.9-1.9-2.5c-1.3-1.7-2.7-3.5-3.9-5.2
			c0.9-0.3,3-0.8,3.9-0.9c14.2,0.6,28.3-1.4,42.5-0.6c2.5,0.3,4.9,0.8,7.2,1.6c-0.5,0.8-1.3,2.4-1.7,3.1c-1.6,2.5-3.3,5-5,7.6
			c-3.3,4.7-6.6,9.6-9.1,14.8l-0.9,2.2c-0.2,0.5-0.6,1.4-0.8,2c1.1,2.2,2.4,4.3,3.5,6.3c4.7,8.7,9.8,17,13.4,26.1
			c0.3,0.9,1.1,2.7,1.6,3.5c7.2-7.4,11.5-17.2,17.5-25.7c2.5-3,4.1-7.9,8.2-9c12.3,12.4,24.1,25.7,34.2,40
			c5.2,6.9,10.1,14,14.8,21.3c-1.4-18-3.9-35.7-7.4-53.5c22.2-5.5,44.4-11.8,65-21.7C652.3,237.2,654.5,236.2,656.7,235.3z
			 M563,136.7c31,26.1,53.9,61.4,66.1,99.8c-15.6,3.8-31.5,6.8-47.6,8.3c-8.7-30.1-20.6-59.5-37.8-85.8
			c-14.8-23.5-33.5-44.3-53.7-63.3C516.7,104.6,541.7,118.3,563,136.7z M360.5,63.2c-0.3-0.6-0.9-1.7-1.3-2.4
			c-4.1-4.4-6.1-10.4-9-15.6c-0.8-1.3-1.4-2.5-2.2-3.8c-0.9-1.6-1.9-3.1-2.8-4.7c12.6,5.2,25.7,9.4,37.2,16.9c5.8,1.7,11,5,16.2,8
			c23.9,13.7,46.1,30.9,65.5,50.6c20.9,21.6,38.3,46.3,52,73.1c0.9,1.9,2.2,3.8,2.7,6c-3.6,0.2-7.2,0.3-10.9,0.9
			c-19.7,2.8-39.4,6.6-58.6,11.5c-7.2-6.5-13.5-14.2-21.6-19.7c6,6.6,11.3,13.5,16.5,20.8c-33.7,13.7-66.1,31-95.1,53.2
			c-0.5,0.2-1.4,0.6-1.7,0.8c-0.5-2.2-0.8-4.3-1.1-6.5c-0.6-3.6-1.3-7.4-1.4-11c-0.5-11-2.8-22.5,0.2-33.4
			c8.7,4.9,16.2,11.7,25.2,16.1c1.9,0.9,4.4,3,6.5,0.9c10.6-6.1,21.1-12.4,32.8-16.4l2.2-0.8c-1.6-1.6-3.3-3-5-4.4
			c-9.8-7.4-20.9-12.6-30.4-20.3c0.2-0.3,0.3-0.9,0.5-1.3c16.5-16.7,35-31.5,54.5-44.3c2-1.3,4.1-2.7,6-4.1
			c-6.3,0.6-12.8,0.9-19.1,1.7c-10.7,1.3-21.3,3-31.8,5.2c-6.3-24.7-14.2-49.1-24.9-72.3C360.5,66.5,360.2,64.9,360.5,63.2z
			 M220.9,229.6c8.5-24.7,21.7-47.9,38.6-67.7c26.8-31.7,62.7-55.3,102.2-67.4c3.6,12.4,5.8,25.2,7.9,38c0.3,3.8,0.8,7.4,1.3,11.2
			c-2.2,0.6-4.3,1.1-6.5,1.7c-55.7,15.3-107.2,46.5-144.9,90.6C219.8,233.7,220.2,231.5,220.9,229.6z M168.8,374.8
			c-1.4,0.8-3,1.7-4.4,2.5c-0.9,0.5-3,1.6-3.9,2.2c1.4-4.6,3.5-9,5.2-13.5c3.6-8,6.5-16.5,11.7-23.6c2.4-7.1,6.6-13.5,10.4-20
			C217.3,272.3,262,231,315,206.6c0.2,4.1,0.6,8,1.1,12.1c2.7,19.4,6.5,38.6,10.4,57.6c-7.2,6.6-14.2,13.7-20.2,21.4
			c7.4-5.7,14.3-12,22-17.2c4.1,9.6,8,19.2,12.6,28.5c1.1,2.2,2,4.3,3.1,6.5c9.8,18.7,20.6,36.9,32.9,53.9l0.5,0.6
			c1.4,2.4,4.3,4.3,4.6,6.9c-16.7,1.1-33.4,3.3-50.2,2.7c1.4-3.5,3.3-6.6,5.4-9.8c2.8-4.6,6-9,8.8-13.5c1.3-2.4,2.5-4.7,3.6-7.1
			c-0.6-1.1-1.9-3.3-2.5-4.4c-5-8.3-9.8-17-13.5-26l-0.3-0.9c-0.8-1.9-1.4-3.8-2-5.7c-7.7,7.9-12.9,17.6-18.1,27.1
			c-2.2,3.1-3.8,7.9-8.2,8.3c-0.6-0.6-1.9-2-2.5-2.7c-10.1-12-20.9-23.3-30.1-36.1c-1.1-1.6-2.4-3.1-3.5-4.7
			c-4.4-5.8-8-12-12.3-17.8c0.5,7.2,1.1,14.5,2,21.6c1.4,9.4,2.7,18.9,4.6,28.2c0.3,1.3,0.5,2.5,0.8,3.9c-25,5-49.1,13.5-72.6,23.5
			C183.6,367.1,176.2,371,168.8,374.8z M238.6,408.5c-8.3-14-14.6-29-20-44.3c0.6-0.3,1.9-0.9,2.4-1.3c15.3-3.9,31-6.5,46.8-7.7
			c5.2,20.5,12.9,40.2,22.4,59.1c17.3,33.5,40.6,63.8,68.7,89l-1.9,0.5C307.7,487.4,264.7,453.2,238.6,408.5z M491.2,540.8l0.2,1.3
			c0.3,0.2,1.3,0.5,1.6,0.6c1.6,3,3,6,4.6,9c0.5,0.9,1.4,2.7,1.9,3.6c1.6,2.7,3.1,5.4,4.4,8c-10.7-3.8-21.3-8.2-31.3-13.2
			c-0.2-0.5-0.6-1.4-0.8-1.9c-10.4-2.8-19.4-9.1-28.5-14.5c-46.8-28.2-84.9-69.9-109.8-118.4c-0.8-2-2.7-3.9-2.4-6.3
			c1.6-0.3,3.1-0.5,4.7-0.8c21.3-3,41.9-8.7,62.8-12.9c6.8,7.2,13.2,14.8,21.6,20.5c-4.3-6.5-9.8-12.1-14.2-18.6
			c-1.9-1.6-2.8-4.3,0.3-4.9c5.8-1.3,11-4.1,16.4-6.3c25.2-11.2,49.1-24.9,71.7-40.5c0.6-0.5,1.9-1.6,2.5-2c1.6-1.1,3.1-2.4,4.9-3.5
			l0.6,1.4c0,4.7,0.3,9.4,0.8,14.2c0.3,12.1,0.9,24.4-0.5,36.4c-3.5-1.3-6.6-3.5-9.8-5.5v-0.3c-1.6-1.1-3.3-2-4.9-3.1
			c-3.6-2.5-7.6-4.7-11.5-6.9c-0.9-0.5-3-1.4-3.9-1.9c-11,6-21.9,12.8-33.7,17.2c-0.8,0.3-2.4,0.8-3.1,1.1c1.6,1.6,3.1,2.8,4.9,4.1
			c0.8,0.6,2.4,1.7,3.1,2.4c2,1.6,4.3,2.8,6.5,4.3c4.1,2.4,8,4.9,12,7.6c0.6,0.5,2,1.4,2.8,1.9c1.9,1.3,3.8,2.8,5.5,4.4
			c-0.2,0.3-0.3,1.3-0.3,1.6c-12.3,12.1-25.2,23.6-39.4,33.5c-3.6,2.7-7.2,5.5-11,7.9c-3.3,2-6.8,4.1-9.6,6.9
			c17.3-1.3,34.2-4.9,51.3-7.2l2.5-0.6c0.5,1.1,0.9,2.2,1.3,3.5c4.6,23.3,12.6,45.8,21.7,67.6C488.3,533.7,491,536.9,491.2,540.8z
			 M589.8,436.1l-0.6,0.8c-25.7,31.2-60.5,54.5-98.9,67.1c-0.6,0.2-2,0.5-2.7,0.5c-2.5-12.1-5-24.3-6.8-36.4
			c-0.2-4.1-0.5-8.2-0.9-12.3l0.8-0.6c22.4-5.4,43.8-14.6,64.1-25.2c6.1-3.5,12.3-6.9,18.1-10.7c24.6-14.6,45.5-34.3,65-55
			c0,0.9-0.2,3-0.3,4.1C619.2,392.9,606.3,415.9,589.8,436.1z"/>
		<path fill="#AA8C63" d="M436.4,514c2.7,1.7,5.5,3.5,8.3,5.2c11-2.5,22.4-3.1,33.2-6.3c-0.6-1.6-1.3-3.1-1.9-4.7
			C463,511,449.8,513.2,436.4,514z"/>
	</g>
	<g>
		<path fill="#1F0D09" d="M263.1,336.5c-1.9-9.3-3.1-18.7-4.6-28.2c-0.8-7.2-1.6-14.5-2-21.6c4.4,5.8,8,12,12.3,17.8
			c1.3,1.6,2.4,3.1,3.5,4.7l0,0c9.1,12.8,19.8,24.1,30.1,36.1c0.6,0.6,1.9,2,2.5,2.7c4.3-0.5,6-5.2,8.2-8.3
			c5.2-9.4,10.6-19.2,18.1-27.1c0.6,1.9,1.3,3.8,2,5.7l0.3,0.9c3.9,9,8.5,17.6,13.5,26c0.6,1.1,1.9,3.3,2.5,4.4
			c-1.1,2.4-2.4,4.7-3.6,7.1c-2.8,4.6-6,9-8.8,13.5c-1.9,3.1-3.8,6.3-5.4,9.8c16.9,0.6,33.5-1.6,50.2-2.7c-0.3-2.8-3.3-4.6-4.6-6.9
			l-0.5-0.6c-12.3-17.2-23.1-35.3-32.9-53.9c-1.1-2-2.2-4.3-3.1-6.5c-4.6-9.3-8.5-19.1-12.6-28.5c-7.7,5.2-14.6,11.5-22,17.2
			c6-7.7,12.9-14.8,20.2-21.4c-4.1-19.1-7.9-38.3-10.4-57.6c0,0.2,0,0.3-0.2,0.5c0-0.2,0-0.3,0.2-0.5c-0.6-4.1-0.9-8-1.1-12.1
			c-52.9,24.4-97.6,65.7-127.2,115.7c-3.8,6.6-7.9,12.9-10.4,20c-3.8,10.6-6.1,21.6-8.5,32.4c7.4-3.8,14.8-7.7,22.5-11
			c23.5-10.1,47.6-18.6,72.6-23.5C263.8,339.1,263.5,337.8,263.1,336.5z M210.4,354.2c-9.8,4.1-19.4,8.7-28.7,13.7
			c6.3-16.1,13.9-31.7,22.8-46.5c1.6-2.7,3.3-5.4,4.9-8c1.1,11.7,2.2,23.3,5.2,34.5l0,0c0.3,0.9,0.8,2.8,1.1,3.6
			C214,352.6,212.3,353.4,210.4,354.2z"/>
		<path fill="#1F0D09" d="M348.5,268c9.8,33.5,21.6,66.5,38.1,97.3c1.7,3.5,3.6,6.9,5.8,10.1c0.9-0.3,2.5-0.8,3.5-0.9
			c29.3-7.9,58-18.3,85-32.1c6.9-3.8,14.2-7.1,20.6-11.7c-0.3-0.8-0.8-2.5-1.1-3.3c-9.4-34.2-22.7-67.6-40.6-98.1
			c-1.3-2.2-2.4-4.4-3.6-6.5c-5.8,0.5-11.3,2.8-17,4.4C407.7,237.5,376.7,250.4,348.5,268z"/>
		<path fill="#1F0D09" d="M656.7,235.3l0.3,2c3.1-1.6,6.1-3.3,9.3-5c-6.6,16.5-14.5,32.8-23.6,48c-1.4,2.4-2.8,4.6-4.4,6.9
			c-0.8-12.9-2.5-25.8-5.7-38.4c1.4-0.6,2.8-1.4,4.1-2c6.8-3,13.7-6,20.3-9.4L656.7,235.3c-2.2,0.9-4.6,1.9-6.8,2.8
			c-20.6,9.8-42.8,16.1-65,21.7c3.5,17.6,6,35.6,7.4,53.5c-4.7-7.2-9.6-14.3-14.8-21.3c-10.1-14.3-21.9-27.4-34.2-40
			c-4.1,1.1-5.7,6-8.2,9c-6,8.5-10.2,18.3-17.5,25.7c-0.3-0.9-1.1-2.7-1.6-3.5c-3.6-9.1-8.7-17.5-13.4-26.1
			c-1.1-2.2-2.4-4.3-3.5-6.3c0.2-0.5,0.6-1.4,0.8-2l0.9-2.2c2.5-5.2,5.8-10.1,9.1-14.8c1.7-2.5,3.5-5,5-7.6c0.5-0.8,1.3-2.4,1.7-3.1
			c-2.4-0.8-4.7-1.3-7.2-1.6c-14.2-0.8-28.3,1.3-42.5,0.6c-0.9,0.2-3,0.8-3.9,0.9c1.3,1.7,2.5,3.5,3.9,5.2c0.5,0.6,1.4,1.9,1.9,2.5
			c2.4-0.2,3.6-0.3,3.9-0.3c-0.3,0-1.6,0.2-3.9,0.3c20.5,27.9,36.9,58.6,49.8,90.7c8-5,15.1-11.7,22.8-17.3
			c-6.3,8.2-13.7,15.4-21.4,22.4c0.9,7.4,3.1,14.5,4.3,21.9c2.4,13.2,5.4,26.5,6.8,39.8c0,0.6,0.2,1.7,0.2,2.2h0.2
			c0.2,1.3,0.6,3.9,0.8,5.2c20.6-10.6,40.5-22.4,58.4-37c33.1-26.5,60-60.3,79.1-98.1c0.6-1.6,1.1-3,1.6-4.6
			c3-9.4,5.2-19.1,7.1-28.7C671.3,227.9,664.3,232.3,656.7,235.3z"/>
		<path fill="#1F0D09" d="M386.1,140c10.6-2.2,21.1-3.9,31.8-5.2c6.3-0.8,12.8-1.1,19.1-1.7c-1.9,1.4-3.9,2.8-6,4.1
			c-19.5,12.9-38,27.7-54.5,44.3c-0.2,0.3-0.3,0.9-0.5,1.3c9.4,7.7,20.6,13.1,30.4,20.3c1.7,1.3,3.5,2.8,5,4.4l-2.2,0.8
			c-11.7,4.1-22,10.4-32.8,16.4c-2,1.9-4.6,0-6.5-0.9c-9-4.4-16.5-11.2-25.2-16.1c-3,10.9-0.6,22.2-0.2,33.4c0.3,3.8,0.8,7.4,1.4,11
			c0.3,2.2,0.8,4.3,1.1,6.5c0.5-0.2,1.4-0.6,1.7-0.8c29-22.2,61.4-39.7,95.1-53.2c-5-7.2-10.6-14.2-16.5-20.8
			c8,5.5,14.2,13.4,21.6,19.7c19.4-4.9,38.9-8.7,58.6-11.5c-21.3-43.5-54.8-80.6-95.7-106.3c-12.9,1.1-25.7,3-38.3,5.8
			c-0.8-1.3-1.6-2.7-2.2-4.1c-3.1-8.2-7.6-16.1-11.2-24.1c-0.2,1.6,0,3.1,0.8,4.6C372,91,379.8,115.3,386.1,140z"/>
		<path fill="#1F0D09" d="M364.6,145.2c2.2-0.6,4.3-1.3,6.5-1.7c-0.6-3.6-0.9-7.4-1.3-11.2c-2-12.8-4.3-25.5-7.9-38
			c-39.5,12.3-75.4,35.7-102.2,67.4c-16.9,19.8-29.9,43-38.6,67.7c-0.8,1.9-1.3,3.9-1.3,6.1C257.3,191.7,308.8,160.5,364.6,145.2z"
			/>
		<path fill="#1F0D09" d="M543.8,159.1c17.2,26.3,29.1,55.7,37.8,85.8c16.1-1.6,31.8-4.6,47.6-8.3C616.9,198,594,162.7,563,136.7
			c-21.3-18.3-46.3-32.1-72.9-40.9C510.2,114.8,529,135.4,543.8,159.1z"/>
		<path fill="#1F0D09" d="M290.1,414.3c-9.4-18.9-17.2-38.6-22.4-59.1c-15.7,1.3-31.3,3.8-46.8,7.7c-0.6,0.3-1.9,0.9-2.4,1.3
			c5.2,15.4,11.7,30.4,20,44.3c26.1,44.7,69.1,78.9,118.3,95.3l1.9-0.5C330.9,478.1,307.4,447.9,290.1,414.3z"/>
		<path fill="#1F0D09" d="M492.9,542.7c-0.3-0.2-1.3-0.5-1.6-0.6c-16.1-6.3-31.8-14-46.6-22.8c-2.8-1.7-5.5-3.5-8.3-5.2
			c13.4-0.8,26.6-2.8,39.7-6c0.6,1.6,1.3,3.1,1.9,4.7c3.9,9.6,8.5,18.9,13.2,28c-0.2-3.9-2.8-7.1-3.9-10.9
			c-9.1-21.9-17.2-44.4-21.7-67.6c-0.3-1.1-0.8-2.4-1.3-3.5l-2.5,0.6c-17,2.5-34,6.1-51.3,7.2c2.8-2.8,6.3-4.7,9.6-6.9
			c3.8-2.4,7.4-5.2,11-7.9c14.2-9.9,27.1-21.4,39.4-33.5c0.2-0.3,0.3-1.3,0.3-1.6c-1.7-1.6-3.5-3.1-5.5-4.4c-0.6-0.5-2-1.4-2.8-1.9
			c-3.9-2.7-7.9-5.2-12-7.6c-2.2-1.4-4.4-2.7-6.5-4.3c-0.8-0.6-2.4-1.7-3.1-2.4c-1.7-1.3-3.5-2.7-4.9-4.1c0.8-0.3,2.4-0.8,3.1-1.1
			c-1.7-2-1.7-2,0,0c11.8-4.4,22.7-11.2,33.7-17.2c0.9,0.5,3,1.4,3.9,1.9c3.9,2.2,7.9,4.4,11.5,6.9c1.6,1.1,3.1,2,4.9,3.1v0.3
			c3.1,2,6.3,4.3,9.8,5.5c1.6-12.1,0.8-24.3,0.5-36.4c-0.5-4.7-0.8-9.4-0.8-14.2l-0.6-1.4c-1.6,1.1-3.1,2.2-4.9,3.5
			c-0.6,0.5-1.9,1.6-2.5,2c0.5,3.5,0.5,3.5,0,0c-22.5,15.7-46.5,29.4-71.7,40.5c-5.4,2.4-10.7,5-16.4,6.3c-3.1,0.6-2.4,3.3-0.3,4.9
			c4.4,6.5,9.8,12.1,14.2,18.6c-8.2-5.5-14.8-13.2-21.6-20.5c-20.9,4.1-41.7,9.9-62.8,12.9c-1.6,0.3-3.1,0.5-4.7,0.8
			c-0.3,2.4,1.6,4.3,2.4,6.3c24.9,48.5,63,90.2,109.8,118.4c9.3,5.2,18.1,11.7,28.5,14.5c9,3.1,18.4,5,27.7,6.9
			c-0.5-0.9-1.4-2.7-1.9-3.6C495.9,548.7,494.5,545.5,492.9,542.7z"/>
		<path fill="#1F0D09" d="M562.8,419.2c-5.8,3.9-12,7.4-18.1,10.7c-20.5,10.6-41.7,19.8-64.1,25.2l-0.8,0.6
			c0.3,4.1,0.8,8.2,0.9,12.3c1.7,12.3,4.1,24.4,6.8,36.4c0.6-0.2,2-0.5,2.7-0.5c38.4-12.4,73.2-35.9,98.9-67.1l0.6-0.8
			c16.5-20,29.3-43.1,37.8-67.7c0-0.9,0.2-3,0.3-4.1C608.5,385,587.4,404.7,562.8,419.2z"/>
		<path fill="#1F0D09" d="M499.8,545c0.8,1.9,1.4,3.8,2,5.7c0.6,1.7,1.3,3.5,2,5.2c21.4,3.9,43.5,4.3,65.2,4.1
			c-7.2-1.7-14.8-1.9-22.2-3.1C530.9,554.2,515.1,550.4,499.8,545z"/>
	</g>
</g>
</svg>
