<?xml version="1.0" encoding="utf-8"?>
<!-- Generator: Adobe Illustrator 18.1.1, SVG Export Plug-In . SVG Version: 6.00 Build 0)  -->
<svg version="1.1" id="Layer_2" xmlns="http://www.w3.org/2000/svg" xmlns:xlink="http://www.w3.org/1999/xlink" x="0px" y="0px"
	 viewBox="419.4 178.6 55.2 52.5" enable-background="new 419.4 178.6 55.2 52.5" xml:space="preserve">
<g>
	<g>
		<polygon fill="none" points="442.5,206.8 447.5,203.7 446.6,202.7 444.7,203.9 443.5,202.5 445.5,201.3 444.5,200.2 439.5,203.2 
			440.5,204.3 442.4,203.1 443.6,204.5 441.7,205.7 		"/>
		<polygon fill="none" points="445.7,208.6 444.7,207.4 448.6,205 447.7,204 442.7,207 444.6,209.2 		"/>
		<g>
			<polygon fill="none" points="451.3,208.3 448.9,205.5 447.8,206.1 448.6,207.1 445.8,208.7 445.8,208.7 444.7,209.4 444.7,209.4 
				444.7,209.4 445.7,210.5 449.6,208.2 450.2,208.9 			"/>
			<polygon fill="none" points="453.8,211.3 449.9,212.1 452,209.2 451.5,208.5 451.4,208.5 450.1,209.2 447.6,212.8 448.3,213.7 
				454.8,212.6 			"/>
		</g>
	</g>
	<g>
		<path fill="none" d="M450.4,215.4c-0.3,0.1-0.6,0.1-0.9-0.1c-0.2-0.3-0.1-0.5,0.1-0.8c0.3-0.1,0.6-0.1,0.9,0.1
			C450.7,214.9,450.6,215.3,450.4,215.4z"/>
		<path fill="none" d="M452.9,216.9c-0.6,0.4-1.5,0.6-2-0.1c-0.6-0.7-0.1-1.3,0.6-1.7c0.6-0.4,1.5-0.6,2.1,0
			C454.1,215.9,453.6,216.5,452.9,216.9z M452,215.8c-0.2,0.1-0.7,0.4-0.5,0.6c0.2,0.2,0.8-0.1,0.9-0.2c0.1-0.1,0.7-0.4,0.5-0.6
			C452.7,215.4,452.1,215.7,452,215.8z"/>
		<path fill="none" d="M455,217l-0.3,0.2l0,0c0.3,0,0.6,0.1,0.9,0.3l-0.7,0.4c0,0,0-0.1-0.1-0.1c-0.4-0.4-0.7-0.2-1.1,0l-1.3,0.8
			l-0.5-0.6l2.6-1.5L455,217z"/>
		<path fill="none" d="M453.2,220.1c-0.2,0.1-0.3,0.3-0.2,0.5c0.3,0.3,0.7,0,0.9-0.2l0.4-0.2l0,0c-0.1,0-0.3,0-0.4,0
			c-0.1,0-0.3-0.1-0.3-0.2c-0.2-0.3-0.1-0.5,0-0.8c0.1-0.3,0.5-0.5,0.8-0.7c0.5-0.3,1.4-0.8,1.9-0.2c0.2,0.2,0.1,0.5,0,0.6l0,0
			l0.3-0.2l0.5,0.6l-2.8,1.7c-0.8,0.5-1.3,0.4-1.8-0.2c-0.5-0.6-0.3-1,0.3-1.4L453.2,220.1L453.2,220.1z M455.2,219.6
			c0.1-0.1,0.7-0.4,0.5-0.6c-0.2-0.2-0.8,0.1-0.9,0.2c-0.2,0.1-0.7,0.4-0.5,0.6C454.5,220,455.1,219.7,455.2,219.6z"/>
	</g>
</g>
<g>
	
		<radialGradient id="SVGID_1_" cx="446.9889" cy="204.8965" r="35.8613" fx="462.2924" fy="195.9682" gradientUnits="userSpaceOnUse">
		<stop  offset="0" style="stop-color:#333332"/>
		<stop  offset="1" style="stop-color:#000000"/>
	</radialGradient>
	<path fill="url(#SVGID_1_)" d="M470.9,178.6c0.4,6.8-2.7,9.1-5.5,10.1c-4.4-4.2-10.4-6.8-17-6.8c-7.9,0-15,3.8-19.5,9.6
		c-2.8-0.9-6.2-3.1-5.8-10.2c0,0-9,9.5,1.1,20.8c-0.3,1.5-0.4,3-0.4,4.5c0,13.6,11,24.7,24.7,24.7c13.6,0,24.7-11,24.7-24.7
		c0-3.2-0.6-6.2-1.7-9C478.9,187,470.9,178.6,470.9,178.6z"/>
	<path fill="#FFFFFF" d="M443.5,223.5c1.8,0.5,5.5,0.7,10.2-3.1c0,0,1.1,2.6,1,3.4c-0.1,0.8-1.6,4.1-6.1,4.1
		S443.5,223.5,443.5,223.5z"/>
	<g>
		<path d="M450.7,224.8c-0.3,0.1-0.3,0.1-0.1-0.1c0.2-0.1,0.4-0.4,0.4-0.6s0.1-0.2,0.3-0.1s0.3,0.2,0.3,0s0.2-0.2,0.3-0.1
			c0.2,0.1,0.5,0.1,0.8,0c0.2-0.1,0.3,0,0.1,0.1s-0.4,0.4-0.4,0.5c0,0.1-0.1,0.1-0.2,0c-0.1-0.1-0.2,0-0.3,0.1s-0.2,0.2-0.3,0.1
			C451.4,224.7,451,224.7,450.7,224.8L450.7,224.8z"/>
	</g>
	<linearGradient id="SVGID_2_" gradientUnits="userSpaceOnUse" x1="458.3739" y1="219.5314" x2="458.3739" y2="206.529">
		<stop  offset="0" style="stop-color:#A70200"/>
		<stop  offset="0.528" style="stop-color:#C97776"/>
		<stop  offset="1" style="stop-color:#E7DBDB"/>
	</linearGradient>
	<path fill="url(#SVGID_2_)" d="M449.1,219.5c5.6-3.1,7.2-13,13-13s5.8,3.2,5.3,3.8C467,211,463,216.9,449.1,219.5z"/>
	<linearGradient id="SVGID_3_" gradientUnits="userSpaceOnUse" x1="433.0167" y1="220.5484" x2="433.0167" y2="213.0302">
		<stop  offset="0" style="stop-color:#A70200"/>
		<stop  offset="0.528" style="stop-color:#C97776"/>
		<stop  offset="1" style="stop-color:#E7DBDB"/>
	</linearGradient>
	<path fill="url(#SVGID_3_)" d="M439.2,220c-5.4-1.7-7.9-7-10.8-7S425.6,223,439.2,220z"/>
</g>
</svg>
