<?xml version="1.0" encoding="utf-8"?>
<!-- Generator: Adobe Illustrator 18.1.1, SVG Export Plug-In . SVG Version: 6.00 Build 0)  -->
<svg version="1.1" id="Layer_2" xmlns="http://www.w3.org/2000/svg" xmlns:xlink="http://www.w3.org/1999/xlink" x="0px" y="0px"
	 viewBox="128 7.1 585.8 581.1" enable-background="new 128 7.1 585.8 581.1" xml:space="preserve">
<g>
	<g>
		<polygon fill="none" points="294.4,501.6 306.7,453.9 295,452.8 290.1,471.2 274.7,469.6 279.5,451.3 267,450.1 254.5,497.7 
			267.1,499 272,480 287.5,481.5 282.6,500.5 		"/>
		<polygon fill="none" points="324.3,493.7 310.8,492.6 320.6,455.3 308.9,454.1 296.5,502 321.5,504.4 		"/>
		<g>
			<polygon fill="none" points="356.5,459 325.1,455.9 322.4,466.3 332.9,467.3 325.9,494.1 325.9,494.1 323.1,504.5 323.1,504.5 
				323.2,504.4 335.7,505.8 345.5,468.5 353.7,469.4 			"/>
			<polygon fill="none" points="389.9,462.2 370.7,490 366.5,459.9 358.6,459.1 358.1,459.1 354.8,471.4 360.8,508.3 370.6,509.2 
				403.6,463.6 			"/>
		</g>
	</g>
	<g>
		<path fill="none" d="M393.5,508c-0.6,2.5-3.3,4.4-6,4.2c-2.7-0.2-4.1-2.6-3.6-5.2c0.6-2.5,3.3-4.4,6-4.2
			C392.6,503,394.1,505.4,393.5,508z"/>
		<path fill="none" d="M417.7,501.8c-1.6,6.3-5.4,12.7-13,11.9s-8-7.5-6.1-13.8c1.6-6.3,5.5-12.8,12.9-12
			C418.9,488.8,419.3,495.5,417.7,501.8z M405.4,500.7c-0.5,1.5-1.7,6.7,0.8,7c2.4,0.2,3.9-5,4.4-6.5c0.5-1.5,1.6-6.8-0.8-7
			C407.3,493.9,405.9,499.2,405.4,500.7z"/>
		<path fill="none" d="M430.9,490.4l-0.8,3l0,0c1.9-2,3.9-3.3,6.9-3.4l-1.7,6.7c-0.4-0.1-0.6-0.1-1-0.2c-4.7-0.5-5.5,2.5-6.6,6.3
			l-3.2,12.4l-7-0.6l6.5-24.8L430.9,490.4z"/>
		<path fill="none" d="M438.2,520c-0.3,1.6-0.4,3.6,1.6,3.7c3.1,0.2,3.8-4.4,4.5-6.6l0.9-3.2l0,0c-0.6,0.9-1.4,1.7-2.3,2.3
			s-1.9,1-3.1,0.8c-2.7-0.2-3.8-2.5-4.3-4.7c-0.6-2.5-0.2-5.9,0.5-8.6c1.2-4.4,4.3-13.2,10.4-12.6c2.4,0.2,3.7,1.9,3.9,4.1l0,0
			l0.8-3l7,0.6l-7,27.1c-1.8,7.3-6,9.9-12.1,9.2c-6.1-0.6-7.8-4.3-6.8-10L438.2,520z M448.1,504.7c0.3-1.3,1.7-6.7-0.7-6.9
			c-2.4-0.2-3.9,5-4.3,6.3c-0.3,1.6-1.6,6.8,0.9,6.9C446.1,511.4,447.7,506,448.1,504.7z"/>
	</g>
</g>
<g>
	<polygon fill="#1D1D1B" points="128,260.9 202.1,412.6 152.9,236.8 	"/>
	<polygon fill="#1D1D1B" points="390.5,7.1 237.7,154.8 428.9,27.5 	"/>
	<polygon fill="#1D1D1B" points="288.4,588.9 428.5,569.1 275.6,562.9 	"/>
	<polygon fill="#1D1D1B" points="649.9,537.8 678.9,372.1 615.7,542.6 	"/>
	<polygon fill="#1D1D1B" points="525.6,78.8 705.4,221.1 713,178.2 	"/>
	<g>
		<path fill="#1D1D1B" d="M414,281.5c-0.2-8.9-1.8-17.9-1.6-26.8c0.2-15.2,0.6-30.5,2.2-45.7c1-9.6,1.5-10.3-7.9-12.7
			c-1.3-0.3-2.5-0.6-3.8-0.8c-16.1-2.9-31.5-0.1-46.8,4.8c-6.9,2.2-10.7,6.4-11.2,13.7c-1.1,17.1-2.2,34.2-3.3,51.4
			c1.4,26.3,2.4,52.5,4.4,78.8c1.5,19.3,4,38.6,6.5,57.8c1.1,8.6,2.4,9.9,11,10.6c13.6,1,27.2,0.9,40.8,1.5c5.8,0.2,8.3-2.4,9.5-7.9
			c2.1-9.9,2.2-19.8,1.8-30C414.5,344.6,414.6,313,414,281.5z"/>
		<path fill="#1D1D1B" d="M499.1,399c1.8-8.5,3.2-17.2,3.8-25.9c1.4-20.8,5.6-41.4,3.3-62.5c-2.9-26.1-5.2-52.3-7.6-78.5
			c-1-11.1-2-22.3-2-33.4c0-7.3-1.3-12.4-7.8-15.7c-3.9-2-8.3-3.6-12.7-4.2c-11.8-1.4-23.8-2.2-35.6-3.2c-0.2-0.4-0.4-0.8-0.6-1.2
			c-2,1.4-4.9,2.3-5.7,4.2c-3.7,8.7-7.3,17.6-6.2,27.5c0.5,4.4,0.8,8.9,0.9,13.4c0.8,33.2,1.6,66.4,2.3,99.7
			c0.4,19.8,0.7,39.6,1.1,59.4c0.3,12.8,0.4,25.7,1.2,38.4c0.4,6.7,1.4,7,7.8,4.9c17.4-5.6,34.9-11.2,52.2-17.2
			C495.7,404,498.6,401.3,499.1,399z"/>
		<path fill="#1D1D1B" d="M319.3,218.9c-10.6,2.5-21,5.2-31.6,7.4c-4.2,0.9-6.1,2.9-6.8,6.9c-3.3,17.6-7.5,35.1-9.6,52.8
			c-1.6,13.6-1.9,27.6-0.6,41.3c2.3,24.3,13.9,46,22.1,68.6c0.6,1.6,3.1,3.2,4.9,3.5c7.4,1,14.8,1.7,22.3,2.2
			c7.4,0.5,7.8-0.1,7.8-7.7c0-27.8,0-55.7,0-83.5c0,0,0,0,0,0c0-28.2,0-56.4,0-84.6C327.7,218.6,326.1,217.3,319.3,218.9z"/>
		<path fill="#1D1D1B" d="M701.6,242.7L445.2,39.9L169.4,223.6l80.1,285.7l9.4,33.4l7.1,0.3l268.9,11h0.1l58.9-8.3l103.7-279.6
			l7.6-20.6L701.6,242.7z M594.3,291.2c-3.4,24-7.1,47.9-6.5,72.4c0.4,15.5-0.9,31-1.1,46.4c0,1.5,1.4,3.9,2.7,4.4
			c3.4,1.4,4.6,3.5,4.2,7c-0.8,7.8-0.8,15.8-2.6,23.3c-0.8,3.3-4.4,7.1-7.7,8.6C560,463.8,536.5,474,513,484
			c-7.5,3.2-15.5,5.3-23.4,7.7c-4.4,1.3-7.9-0.2-10.7-4c-4.2-5.5-8.5-10.9-13.1-16c-8.6-9.4-9.3-21.3-11.1-32.8
			c-0.2-1.1-0.2-2.2-0.4-3.3c-0.1-0.3-0.4-0.6-0.9-1.4c-5.9,1.5-12,3.2-18.1,4.7c-6.9,1.7-10.9,0-13.2-6.7c-1.6-4.6-3.9-5.2-8.3-4.7
			c-19,2.2-38,2.5-56.9-1.1c-4.6-0.9-8.6-4.3-13.2-5.6c-6.9-1.9-14-3.5-21.1-4.2c-11.7-1.2-23.4-1.5-35.1-2.6
			c-1.8-0.2-4.6-1.7-5.1-3.2c-8.5-23.7-17.8-47.2-24.6-71.4c-5.9-20.9-3.3-42.7,0.1-64c2.9-18.2,7.2-36.2,10.7-54.4
			c0.8-4,2.7-6.1,6.8-7c14.6-3.3,29-8,43.7-9.8c8.4-1,13.6-3,19-9.9c6.5-8.2,17.6-10,27.8-12c15.5-3,31.1-4.1,46.6,0.3
			c3,0.9,4.6,0,5.3-3c0.4-1.4,0.9-2.8,1.5-4.2c4.8-12,11.6-16.1,24.4-14.8c10.8,1.1,21.5,2.3,32.3,3.2c10.2,0.9,19.1,4.4,27,11
			c2,1.6,5.2,2.3,7.8,2.5c13.4,0.7,26.9,0,40.1,1.8c25.3,3.4,40.7,20,45.2,45.3C599.9,246.8,597.4,269,594.3,291.2z"/>
		<path fill="#1D1D1B" d="M569.7,203.4c-7.1-7-16-9.4-25.4-10.5c-9.5-1.1-19.1-1.6-28.1-2.3c2.4,21,6,40.2,6.5,59.5
			c0.8,33-0.4,66.1-1,99.2c-0.1,6.9-0.9,13.8-1.7,20.6c-1.5,12-3.7,24-4.7,36.1c-0.8,10.9,13.6,22,23.9,18.3
			c8.9-3.2,17.4-7.6,25.8-12.1c3.8-2.1,7.2-5.2,7.3-10.5c0.2-14.9,1.2-29.9,0.9-44.8c-0.4-19.4,2.5-38.3,5.1-57.4
			c3.1-22.1,7.2-44.3,3.9-66.8C580.7,221.8,577.9,211.5,569.7,203.4z"/>
		<path fill="#1D1D1B" d="M540,442.7c-4,1.6-6.9,2.1-10.8-0.1c-13.6-7.5-27.6-14.2-43.1-16.9c-12.7-2.2-18.1,3.8-16.5,16.5
			c1.5,12.1,8.1,20.9,15.5,29.7c3,3.5,5.6,4.7,10,2.9c25.5-10.7,51-21.2,76.5-31.9c5.7-2.4,6.9-6,5-13.6
			C564.4,433.7,552.1,437.9,540,442.7z"/>
	</g>
</g>
</svg>
