<?xml version="1.0" encoding="utf-8"?>
<!-- Generator: Adobe Illustrator 18.1.1, SVG Export Plug-In . SVG Version: 6.00 Build 0)  -->
<svg version="1.1" id="Layer_2" xmlns="http://www.w3.org/2000/svg" xmlns:xlink="http://www.w3.org/1999/xlink" x="0px" y="0px"
	 viewBox="87.2 79.3 463.1 462.8" enable-background="new 87.2 79.3 463.1 462.8" xml:space="preserve">
<g>
	<g>
		<g>
			<polygon fill="none" points="209.6,375.3 226.8,364.6 223.7,361.2 217.2,365.3 213,360.5 219.6,356.3 216.5,352.5 199.2,362.9 
				202.7,366.7 209.2,362.5 213.4,367.4 206.8,371.5 			"/>
			<polygon fill="none" points="220.6,381.5 216.8,377.4 230.3,369.1 227.5,365.6 210.3,376 216.8,383.6 			"/>
			<g>
				<polygon fill="none" points="239.9,380.5 231.6,370.8 227.8,372.9 230.6,376.3 220.9,381.9 220.9,381.9 217.2,384.3 
					217.2,384.3 217.2,384.3 220.6,388.1 233.7,380.1 236.1,382.5 				"/>
				<polygon fill="none" points="248.5,390.8 235.1,393.2 242.3,383.6 240.3,381.2 240.3,381.2 235.8,383.6 227.2,396 229.6,399.1 
					252,395.3 				"/>
			</g>
		</g>
		<g>
			<path fill="none" d="M236.5,405c-1,0.3-2.1,0.3-3.1-0.3c-0.7-1-0.3-1.7,0.3-2.8c1-0.3,2.1-0.3,3.1,0.3S237.5,404.6,236.5,405z"/>
			<path fill="none" d="M245.4,410.1c-2.1,1.4-5.2,2.1-6.9-0.3c-2.1-2.4-0.3-4.5,2.1-5.9c2.1-1.4,5.2-2.1,7.2,0
				C249.6,406.7,247.5,408.7,245.4,410.1z M242,406.3c-0.7,0.3-2.4,1.4-1.7,2.1c0.7,0.7,2.8-0.3,3.1-0.7c0.3-0.3,2.4-1.4,1.7-2.1
				C244.7,405,242.7,406,242,406.3z"/>
			<path fill="none" d="M252.3,410.5l-1,0.7l0,0c1,0,2.1,0.3,3.1,1l-2.4,1.4c0,0,0-0.3-0.3-0.3c-1.4-1.4-2.4-0.7-3.8,0l-4.5,2.8
				l-1.7-2.1l9-5.2L252.3,410.5z"/>
			<path fill="none" d="M246.1,421.2c-0.7,0.3-1,1-0.7,1.7c1,1,2.4,0,3.1-0.7l1.4-0.7l0,0c-0.3,0-1,0-1.4,0c-0.3,0-1-0.3-1-0.7
				c-0.7-1-0.3-1.7,0-2.8s1.7-1.7,2.8-2.4c1.7-1,4.8-2.8,6.6-0.7c0.7,0.7,0.3,1.7,0,2.1l0,0l1-0.7l1.7,2.1l-9.7,5.9
				c-2.8,1.7-4.5,1.4-6.2-0.7c-1.7-2.1-1-3.4,1-4.8L246.1,421.2L246.1,421.2z M253.4,419.4c0.3-0.3,2.4-1.4,1.7-2.1
				c-0.7-0.7-2.8,0.3-3.1,0.7c-0.7,0.3-2.4,1.4-1.7,2.1C250.9,420.8,253,419.8,253.4,419.4z"/>
		</g>
	</g>
	<g>
		<linearGradient id="SVGID_1_" gradientUnits="userSpaceOnUse" x1="150.3933" y1="178.1496" x2="466.9999" y2="457.4038">
			<stop  offset="0" style="stop-color:#B3B3B3"/>
			<stop  offset="1" style="stop-color:#000000"/>
		</linearGradient>
		<path fill="url(#SVGID_1_)" d="M503.6,329.2c-8.7,88.7-79.9,159.1-169,166.6v46.4c114.6-7.7,206.4-98.7,215.4-213H503.6z"/>
		<linearGradient id="SVGID_2_" gradientUnits="userSpaceOnUse" x1="278.8335" y1="32.5295" x2="595.4402" y2="311.7837">
			<stop  offset="0" style="stop-color:#B3B3B3"/>
			<stop  offset="1" style="stop-color:#000000"/>
		</linearGradient>
		<path fill="url(#SVGID_2_)" d="M334.7,125.7c90.8,7.7,163,80.6,169.4,171.8h46.3C543.8,180.8,451,87.2,334.7,79.3V125.7z"/>
		<linearGradient id="SVGID_3_" gradientUnits="userSpaceOnUse" x1="164.8668" y1="161.7402" x2="481.4734" y2="440.9944">
			<stop  offset="0" style="stop-color:#B3B3B3"/>
			<stop  offset="1" style="stop-color:#000000"/>
		</linearGradient>
		<path fill="url(#SVGID_3_)" d="M133.6,297.5c6.4-91.1,78.6-164.1,169.4-171.8V79.3C186.6,87.2,93.8,180.8,87.2,297.5H133.6z"/>
		<linearGradient id="SVGID_4_" gradientUnits="userSpaceOnUse" x1="36.993" y1="306.7182" x2="353.5996" y2="585.9724">
			<stop  offset="0" style="stop-color:#B3B3B3"/>
			<stop  offset="1" style="stop-color:#000000"/>
		</linearGradient>
		<path fill="url(#SVGID_4_)" d="M303,495.8c-24.2-2-47-8.7-67.7-19.1v50.5c21.2,8.2,44,13.4,67.7,15V495.8z"/>
		<linearGradient id="SVGID_5_" gradientUnits="userSpaceOnUse" x1="36.6446" y1="307.1131" x2="353.2512" y2="586.3673">
			<stop  offset="0" style="stop-color:#B3B3B3"/>
			<stop  offset="1" style="stop-color:#000000"/>
		</linearGradient>
		<path fill="url(#SVGID_5_)" d="M87.6,329.2c4.6,59.2,31.5,112.1,72.2,150.4v-72.9c-13.9-23-23-49.4-25.8-77.5H87.6z"/>
	</g>
	<g>
		<path fill="#076AB7" d="M334.7,214.3c42.1,6.9,75.2,40.7,81,83.2H463c-6.2-68.5-60.2-123.2-128.3-130.7V214.3z"/>
		<path fill="#076AB7" d="M222,297.5c5.8-42.5,38.8-76.3,81-83.2v-47.5c-68.2,7.4-122.1,62.1-128.3,130.7H222z"/>
		<path fill="#076AB7" d="M414.8,329.2c-7.6,40.1-39.7,71.4-80.1,78v47.5c66.4-7.2,119.3-59.4,127.7-125.5H414.8z"/>
		<path fill="#076AB7" d="M303,407.2c-40.4-6.6-72.5-38-80.1-78H174v162.8c14.4,11.5,30.2,21.3,47.1,29.2V417.6
			c22.1,20.2,50.5,33.7,81.9,37.1V407.2z"/>
	</g>
</g>
</svg>
