<?xml version="1.0" encoding="utf-8"?>
<!-- Generator: Adobe Illustrator 18.1.1, SVG Export Plug-In . SVG Version: 6.00 Build 0)  -->
<svg version="1.1" id="Layer_2" xmlns="http://www.w3.org/2000/svg" xmlns:xlink="http://www.w3.org/1999/xlink" x="0px" y="0px"
	 viewBox="257.1 289.3 347.5 78.8" enable-background="new 257.1 289.3 347.5 78.8" xml:space="preserve">
<g>
	<g>
		<polygon fill="none" points="277.5,347.3 283.1,343.8 282.1,342.6 280,344 278.6,342.4 280.8,341 279.7,339.8 274.1,343.2 
			275.2,344.4 277.4,343.1 278.7,344.7 276.5,346 		"/>
		<polygon fill="none" points="281.1,349.3 279.8,348 284.3,345.2 283.4,344.1 277.7,347.5 279.8,350 		"/>
		<g>
			<polygon fill="none" points="287.5,349 284.8,345.8 283.5,346.5 284.4,347.6 281.2,349.5 281.2,349.5 280,350.3 280,350.3 
				280,350.3 281.1,351.5 285.4,348.9 286.2,349.7 			"/>
			<polygon fill="none" points="290.3,352.4 285.9,353.2 288.3,350 287.6,349.2 287.6,349.2 286.1,350 283.3,354.1 284.1,355.1 
				291.5,353.9 			"/>
		</g>
	</g>
	<g>
		<path fill="none" d="M286.3,357.1c-0.3,0.1-0.7,0.1-1-0.1c-0.2-0.3-0.1-0.6,0.1-0.9c0.3-0.1,0.7-0.1,1,0.1
			C286.8,356.4,286.7,357,286.3,357.1z"/>
		<path fill="none" d="M289.3,358.8c-0.7,0.5-1.7,0.7-2.3-0.1c-0.7-0.8-0.1-1.5,0.7-1.9c0.7-0.5,1.7-0.7,2.4,0
			C290.7,357.7,290,358.3,289.3,358.8z M288.2,357.6c-0.2,0.1-0.8,0.5-0.6,0.7c0.2,0.2,0.9-0.1,1-0.2c0.1-0.1,0.8-0.5,0.6-0.7
			C289.1,357.1,288.4,357.4,288.2,357.6z"/>
		<path fill="none" d="M291.6,358.9l-0.3,0.2l0,0c0.3,0,0.7,0.1,1,0.3l-0.8,0.5c0,0,0-0.1-0.1-0.1c-0.5-0.5-0.8-0.2-1.3,0l-1.5,0.9
			l-0.6-0.7l3-1.7L291.6,358.9z"/>
		<path fill="none" d="M289.6,362.4c-0.2,0.1-0.3,0.3-0.2,0.6c0.3,0.3,0.8,0,1-0.2l0.5-0.2l0,0c-0.1,0-0.3,0-0.5,0
			c-0.1,0-0.3-0.1-0.3-0.2c-0.2-0.3-0.1-0.6,0-0.9c0.1-0.4,0.6-0.6,0.9-0.8c0.6-0.3,1.6-0.9,2.2-0.2c0.2,0.2,0.1,0.6,0,0.7l0,0
			l0.3-0.2l0.6,0.7l-3.2,1.9c-0.9,0.6-1.5,0.5-2-0.2c-0.6-0.7-0.3-1.1,0.3-1.6L289.6,362.4L289.6,362.4z M291.9,361.9
			c0.1-0.1,0.8-0.5,0.6-0.7s-0.9,0.1-1,0.2c-0.2,0.1-0.8,0.5-0.6,0.7C291.1,362.3,291.8,362,291.9,361.9z"/>
	</g>
</g>
<path d="M257.1,368.1l30.2-78.8h65.8c11.6,0,19.3,8.1,19.3,20.2c0,5.7-5.2,20.4-16.3,33.7c-9.5,11.4-26.1,24.9-50.9,24.9H257.1z
	 M302.1,343.4c11.9,0,33.9-14,33.9-27.3c0-0.9,0-2.1-3.9-2.1h-19.2l-11.4,29.4H302.1z"/>
<path d="M391.1,368.1c-9.2,0-15.3-2.1-18.2-6.2c-2.1-3.1-2.3-7-0.5-11.6c2.9-7.6,7.6-16.8,14.6-21c-1.4-3.3-2.5-9,0.7-17.6
	c5.4-14.8,16.9-22.4,34.2-22.4h62l-20.7,24.9h-35.1c-2.9,0-5,1.3-5.3,1.9c-0.2,0.9-1.6,4.6-4.1,11l12.3-10.9h74.6l-27.7,25h-2.7
	c-0.7,3.3-2.3,9.1-4.9,12.2c-0.3,0.4-0.6,0.8-1,1.3c-3.5,4.6-10.1,13.3-28.1,13.3H391.1z M434.5,343.2l4.8-2.1l0.2-0.6l-26,0.1
	c-0.4,0.9-0.7,1.7-0.9,2.3l0.2,0.3H434.5z"/>
<g>
	<path d="M604.7,292.4L589,311.2h-37.6c-6.8,0-16.5,7.5-16.5,18.5s13.7,17,13.7,17H559l2.8-9.2h-15.7c0.2-1.5,14.8-17.6,14.8-17.6
		h34.3l-18,45.3h-14.6c-50,0-56.4-23.2-53.9-37.8c4.1-23,23.4-35,40.3-35S604.7,292.4,604.7,292.4"/>
</g>
</svg>
