<?xml version="1.0" encoding="utf-8"?>
<!-- Generator: Adobe Illustrator 18.1.1, SVG Export Plug-In . SVG Version: 6.00 Build 0)  -->
<svg version="1.1" id="Layer_2" xmlns="http://www.w3.org/2000/svg" xmlns:xlink="http://www.w3.org/1999/xlink" x="0px" y="0px"
	 viewBox="82.3 -97.6 720.1 629.8" enable-background="new 82.3 -97.6 720.1 629.8" xml:space="preserve">
<g>
	<g>
		<polygon fill="none" points="262.6,455.3 278.5,393.8 263.4,392.4 257,416.1 237.2,414 243.4,390.4 227.3,388.9 211.1,450.3 
			227.4,452 233.7,427.5 253.7,429.4 247.4,453.9 		"/>
		<polygon fill="none" points="301.2,445.1 283.7,443.7 296.4,395.6 281.3,394 265.3,455.8 297.5,458.9 		"/>
		<g>
			<polygon fill="none" points="342.7,400.4 302.2,396.4 298.7,409.8 312.2,411.1 303.2,445.6 303.2,445.6 299.6,459 299.6,459 
				299.7,458.9 315.9,460.7 328.5,412.6 339.1,413.8 			"/>
			<polygon fill="none" points="385.8,404.5 361,440.3 355.6,401.5 345.4,400.5 344.7,400.5 340.5,416.4 348.2,463.9 360.9,465.1 
				403.4,406.3 			"/>
		</g>
	</g>
	<g>
		<path fill="none" d="M390.4,463.6c-0.8,3.2-4.3,5.7-7.7,5.4c-3.5-0.3-5.3-3.4-4.6-6.7c0.8-3.2,4.3-5.7,7.7-5.4
			C389.2,457.1,391.2,460.2,390.4,463.6z"/>
		<path fill="none" d="M421.6,455.6c-2.1,8.1-7,16.4-16.8,15.3c-9.8-1-10.3-9.7-7.9-17.8c2.1-8.1,7.1-16.5,16.6-15.5
			C423.2,438.8,423.7,447.4,421.6,455.6z M405.8,454.1c-0.6,1.9-2.2,8.6,1,9c3.1,0.3,5-6.4,5.7-8.4s2.1-8.8-1-9
			C408.2,445.4,406.4,452.2,405.8,454.1z"/>
		<path fill="none" d="M438.6,440.9l-1,3.9l0,0c2.5-2.6,5-4.3,8.9-4.4l-2.2,8.6c-0.5-0.1-0.8-0.1-1.3-0.3c-6.1-0.6-7.1,3.2-8.5,8.1
			l-4.1,16l-9-0.8l8.4-32L438.6,440.9z"/>
		<path fill="none" d="M448.1,479c-0.4,2.1-0.5,4.6,2.1,4.8c4,0.3,4.9-5.7,5.8-8.5l1.2-4.1l0,0c-0.8,1.2-1.8,2.2-3,3s-2.5,1.3-4,1
			c-3.5-0.3-4.9-3.2-5.5-6.1c-0.8-3.2-0.3-7.6,0.6-11.1c1.5-5.7,5.5-17,13.4-16.3c3.1,0.3,4.8,2.5,5,5.3l0,0l1-3.9l9,0.8l-9,35
			c-2.3,9.4-7.7,12.8-15.6,11.9c-7.9-0.8-10.1-5.5-8.8-12.9L448.1,479z M460.8,459.3c0.4-1.7,2.2-8.6-0.9-8.9
			c-3.1-0.3-5,6.4-5.5,8.1c-0.4,2.1-2.1,8.8,1.2,8.9C458.2,467.9,460.3,461,460.8,459.3z"/>
	</g>
</g>
<g>
	<g>
		<polygon fill="#1D1D1B" points="95.9,524.3 442.3,-81.5 788.7,524.3 		"/>
		<path fill="#F03EB0" d="M442.3-65.5L775,516.4H109.6L442.3-65.5 M442.3-97.6l-13.8,24.1L95.8,508.5l-13.6,23.8h27.4H775h27.4
			l-13.6-23.8L456.1-73.4L442.3-97.6L442.3-97.6z"/>
	</g>
	<path fill="none" d="M393.4,334.7l2.5-2.2c0,0,34.7-55.3,42-60.9c0.7-0.5,1.5-1.1,2.3-1.8c7.7-6.2,20-17,23.9-23
		c0.9-1.4,2.4-3.7,4.2-6.4c-8.2-2.7-17-4.2-26.1-4.2c-46.2,0-83.6,37.5-83.6,83.6c0,3.1,0.2,6.1,0.5,9.1c5.3,0.4,10,0.7,12.8,0.8
		C377.7,330.1,386,332.3,393.4,334.7z"/>
	<path fill="none" d="M488.6,231.8c31.6,16.7,53.2,49.9,53.2,88.1c0,31.5-14.7,59.6-37.6,77.8c3.5,7.3,6.6,13.9,7.4,16.1
		c1.1,3,2.7,17.4,4.1,30.7c0.9,8.6,1.6,16.7,2,20.9c0.9,10.5,4.9,17,8.5,17c0.1,0,0.3,0,0.4,0c3.7-0.5,2.8-4.1,2.8-4.1
		s-0.1-5.8-0.6-20.2c-0.5-14.4-2.9-38.9,5-41.1c0.7-0.2,1.3-0.3,1.9-0.3c6.9,0,11.7,9.7,11.7,9.7s19,61.8,21.5,69.3
		c2.2,6.5,7.8,13.6,12,13.6c0.7,0,1.3-0.2,1.9-0.6c4.2-2.9,0.3-13.2,0.3-13.2s-18.2-57.9-20.6-65c-2.4-7.1-3.3-18.7,4.3-22.7
		c1-0.5,2.1-0.8,3.2-0.8c6.9,0,13.9,9.5,13.9,9.5s34.1,58.7,36.9,63.7c2,3.6,4.4,6.3,7.8,6.3c1.4,0,2.9-0.4,4.7-1.4
		c6.1-3.3,0.8-14,0.8-14s-26.8-49.5-33.8-59.3c-7-9.8-7.9-18.7-5.9-22.1c2-3.4,3.5-4.1,6.7-5.7c0.2-0.1,0.6-0.1,1-0.1
		c7,0,41.9,10.4,45.9,11.6c1,0.3,1.8,0.5,2.5,0.5c2.5,0,3.9-1.7,6.2-5.7c4.6-8,10.9-31.5,10.6-33.6c-0.1-1-1.4-1.3-3-1.3
		c-1.9,0-4.2,0.5-6,1.1c-3.3,1.1-3.5,6-7.9,13.8c-3.7,6.5-6.2,7-6.9,7c-0.1,0-0.2,0-0.2,0s-12.4-3.1-18.1-3.8
		c-5.7-0.7-17.1-9.1-17.1-9.1s-6.8-20-8.4-23.2c-1.5-3.1-0.8-12.8,1.4-12.8c0.1,0,0.2,0,0.3,0c0.2,0.1,0.6,0.1,1.1,0.1
		c4.9,0,21-3.1,24.7-4.1c0.6-0.2,1.2-0.2,1.9-0.2c3.6,0,7.6,2.6,13.7,8.1c3.2,2.8,6.3,3.9,8.9,3.9c3.2,0,5.6-1.6,6.2-3.2
		c1.1-2.8-6.6-15.3-8.3-20.3c-1.7-5-3.8-10.2-7.5-11.8c-3.7-1.6-14.8-2.2-21.3-3.7c-6.6-1.5-28.2-3.7-45.8-4.1
		c-17.6-0.4-30.1-13.3-30.1-13.3L505,213.3c-4.2,3.2-6.8,5.2-7.7,6.2C496,221.1,492.5,226,488.6,231.8z"/>
	<path fill="none" d="M343.1,327.7c-0.2-2.6-0.3-5.2-0.3-7.8c0-54.9,44.7-99.5,99.5-99.5c12.4,0,24.3,2.3,35.3,6.5
		c4.7-6.9,9.2-13.3,10.7-15.1c1.6-2,9.6-8,18.3-14.3c9-6.6,18.9-13.6,23.4-16.8c8.9-6.3,12.6-13.2,10.3-16.2
		c-0.8-1.1-1.7-1.4-2.5-1.4c-1.4,0-2.5,1.1-2.5,1.1s-5,3-17.2,10.6c-10.3,6.4-26,17.6-34.3,17.6c-1.6,0-2.9-0.4-3.8-1.3
		c-5.8-5.8,1.3-16.5,1.3-16.5s44-47.3,49.3-53.3c5.3-6,8.9-16.4,4.3-18.5c-0.5-0.2-1.1-0.4-1.6-0.4c-4.5,0-9.9,6.6-9.9,6.6
		s-41,44.7-46,50.3c-3.8,4.3-10.3,9.2-16.4,9.2c-1.9,0-3.7-0.5-5.5-1.6c-7.3-4.6-1-19.2-1-19.2s33.8-58.9,36.7-63.9
		c3-5,4-9.6-2-13.2c-0.9-0.6-1.9-0.8-2.8-0.8c-5.1,0-9.8,7.1-9.8,7.1s-29.5,48-34.4,58.9c-5,10.9-12.2,16.2-16.2,16.2s-5.3-1-8.3-3
		s-12.6-42-13.6-46.3c-1-4.3-3-5-8.9-5c-9.3,0-32.8,6.3-34.4,7.6c-1.7,1.3,1.7,5.6,4.3,7.9c0.9,0.8,1.9,1,3.3,1c2.7,0,6.6-1,12.6-1
		c8.9,0,9.6,2.6,9.6,2.6s3.5,12.3,5.8,17.5c2.2,5.3,0.7,19.4,0.7,19.4s-13.9,15.9-15.9,18.9c-1.6,2.4-7.9,5.7-10.6,5.7
		c-0.7,0-1.2-0.2-1.3-0.7c-0.5-2.5-13.4-17.4-16.4-20.4c-3-3-3-7.9-1-17.4c1.9-9-3.4-13.4-6.5-13.4c-0.2,0-0.3,0-0.5,0
		c-3,0.5-9.9,13.4-13.4,17.4c-3.5,4-6.9,8.4-6.5,12.4c0.5,4,5.5,13.9,7.4,20.4c2,6.5,10.9,26.3,19.4,41.8
		c8.4,15.4,3.5,32.7,3.5,32.7l-38.7,70l2.2,1.8c6.6,2.8,10.7,4.5,12.3,4.9C332.9,326.8,337.5,327.3,343.1,327.7z"/>
	<path fill="none" d="M475.8,357.7c-14-0.6-62.7-2.8-69.9-5.8c-2.6-1.1-6-2.4-9.8-3.7c-8.8-3.1-19.3-6.3-24.8-6.5
		c-2.1-0.1-5.7-0.3-10-0.6c9.4,36,42.1,62.5,80.9,62.5c16.6,0,32.1-4.9,45.1-13.2c-1.9-3.9-3.6-7.3-4.7-9.5
		C479.9,375.2,477.5,365.8,475.8,357.7z"/>
	<path fill="none" d="M453.6,274.2c3.5,6.7,30.2,57.6,31.3,66.1c0.3,2,0.6,4.4,1.1,7.1c1.3,7.5,3.3,17,5.5,23.4l3.7,8.3
		c0.6,1.2,1.2,2.5,1.9,3.9c17.7-15.3,28.8-37.9,28.8-63.2c0-32.8-18.9-61.2-46.3-74.9c-2.3,3.4-4.2,6.3-5.5,8.2
		C470,259.7,460.5,268.3,453.6,274.2z"/>
	<path fill="none" d="M494.3,404.7c-15.2,9.3-33,14.7-52,14.7c-48.1,0-88.3-34.2-97.5-79.6c-7.3-0.6-13.7-1.2-15.9-1.5
		c-2-0.4-8.6-3-16.2-6.3c-11.5-5-25.6-11.5-31.5-14.2c-5.1-2.4-9.6-3.4-13.1-3.4c-3.2,0-5.4,0.9-6.1,2.6c-1.4,3.5,2.2,4.5,2.2,4.5
		s5.1,2.8,17.8,9.6c12.7,6.8,35.2,16.9,33.1,24.8c-1.8,6.6-11,7.1-14,7.1c-0.6,0-0.9,0-0.9,0s-63-14.5-70.8-16.1
		c-1.7-0.4-3.6-0.5-5.5-0.5c-6.6,0-13,2.1-12.7,6.1c0.5,5.1,11.2,6.9,11.2,6.9s59.2,13.2,66.6,14.7c7.4,1.5,17.9,6.5,17.5,15.1
		c-0.4,8.6-16.1,10.5-16.1,10.5s-45.5,0.1-65.2,0.1c-4.3,0-7.4,0-8.5,0c-0.2,0-0.3,0-0.5,0c-5.5,0-9.8,1.6-9.9,8.3
		c-0.2,7,11.7,7.7,11.7,7.7s29.4,0.8,50.2,0.8c8,0,14.7-0.1,18-0.4c1.5-0.2,3-0.2,4.4-0.2c9.5,0,16,3.2,17.7,6.2
		c2,3.4,1.8,5.1,1.6,8.7c-0.2,3.6-30.1,31.9-33.3,34.9c-3.2,3-2.8,5.1,0.2,10.2c4.6,8,21.8,25.2,23.8,26c0.1,0.1,0.3,0.1,0.4,0.1
		c1.8,0,3.7-4.6,4.3-7.8c0.7-3.5-3.5-6-7.9-13.8c-4.5-7.7-2.5-9.6-2.5-9.6s8.9-9.2,12.3-13.8c3.5-4.6,16.4-10.3,16.4-10.3
		s20.7,4.1,24.3,4.3c3.6,0.2,12.2,6.2,10.3,7.8c-1.9,1.7-8.3,20.3-9.4,24.4c-1.1,4.1-5.4,6.5-14.5,9.5c-9.2,3-10.1,10.4-8.1,12.7
		c1.9,2.3,16.6,1.9,21.7,2.9c2.6,0.5,5.4,1,7.9,1c2.4,0,4.5-0.4,6.1-1.6c3.2-2.4,9.3-11.7,13.9-16.6c4.6-4.9,17.3-22.6,26.5-37.6
		c9.2-15,26.6-19.4,26.6-19.4l74-1.3c-1-8.4-1.7-13.5-2.1-15.2C499.6,415.9,497.2,410.7,494.3,404.7z"/>
	<path fill="none" d="M337.4,478.7c0.9-3.1,2.7-8.1,4.3-12.6c0.5-1.3,0.9-2.5,1.4-3.6c-4.8-0.7-12.2-2.1-18.2-3.3
		c-3.8,1.9-7.4,4.1-8.6,5.2c-2.2,2.9-5.9,7-8.8,10.1c1.4,2.4,2.7,4.1,4,5.8c2.1,2.7,4.7,6.1,5.4,10.6c3-4.3,7.6-7.6,13.3-9.4
		C334.4,480.1,336.4,479.2,337.4,478.7z"/>
	<path fill="none" d="M363.6,141.2c-0.9,4.4-1.1,6.6-1.1,7.6c2.2,2.3,5.7,6.4,8.8,10c0.9,1.1,1.7,2.1,2.4,3c3-3.8,7.9-9.5,11.9-14.1
		c0.3-4.2,0.2-8.5-0.2-10c-1.4-3.4-3.1-8.6-4.4-12.7c-2.8,0-4.9,0.3-7.1,0.6c-1.8,0.2-3.6,0.5-5.5,0.5c-2.3,0-4.5-0.4-6.4-1.1
		C364.3,129.7,364.9,135.3,363.6,141.2z"/>
	<path fill="none" d="M495.2,379.1l-3.7-8.3c0.6,1.8,1.2,3.4,1.8,4.6C493.8,376.3,494.4,377.6,495.2,379.1z"/>
	<path fill="none" d="M473.7,345.7c-0.3-1.8-0.5-3-0.5-3.5c-1.4-5.9-15.7-35-28.8-60c-6.1,7.1-23.8,33.8-38.2,56.6l-0.2,0.3
		c2.2,0.8,3.8,1.5,4.3,1.7C415.8,342.4,446.1,344.5,473.7,345.7z"/>
	<path fill="none" d="M628.9,336.3c-3.5,0.8-10.6,2.2-16.8,3.2c1.7,4.5,4.3,11.6,6.2,17.4c3.5,2.3,7.3,4.4,8.8,4.8
		c3.6,0.5,9,1.6,13.2,2.6c1.4-2.4,2.2-4.4,3-6.4c1.3-3.1,3-7.1,6.5-10c-4-0.4-9.4-2-14.8-6.8C631.7,338.1,629.9,336.8,628.9,336.3z"
		/>
	<path fill="#FFFFFF" d="M679.4,355c-0.9-5.7-5.8-11.4-14.7-11.5c2.1-1.7,3.7-3.9,4.6-6.4c2.5-6.7-0.8-13.2-5.3-22.2
		c-1.1-2.1-2.5-5-2.9-6.1c-1.8-5.3-5.2-15.1-14.2-18.9c-3.4-1.4-7.6-2-14.3-2.9c-3.3-0.4-6.7-0.9-9.1-1.4c-7.5-1.7-29.7-4-48.2-4.4
		c-10.2-0.2-18.4-6.7-21-9l-39.7-65.9c5.9-4.3,13.3-9.6,22.2-15.9c9.1-6.4,14.7-13.9,15.8-21.2c0.7-4.5-0.4-8.7-3-12.1
		c-3-3.8-7.3-6-11.9-6c-4.2,0-7.4,1.8-9.3,3.2c-1.8,1.1-6.9,4.2-16.7,10.3c-1.8,1.1-3.7,2.3-5.7,3.6c-1.8,1.1-4.2,2.7-6.7,4.2
		c13.3-14.3,36.3-39.1,40.1-43.4c5.6-6.4,10.9-17.2,9-26.1c-1-5-4.2-9-8.6-11.1c-2.1-1-4.3-1.5-6.7-1.5c-8.9,0-16,7.3-18.9,10.7
		c-3.4,3.8-41.1,44.8-46,50.3c-1.2,1.4-2.6,2.5-3.8,3.4c0.2-0.7,0.4-1.3,0.6-1.8c11.8-20.5,33.9-59.2,36.2-63c1.9-3.1,4.4-8,4-13.9
		c-0.2-3.7-1.8-10.6-10-15.6c-2.7-1.7-5.8-2.6-9-2.6c-10.6,0-17.8,9.5-19.7,12.4l-0.1,0.2l-0.1,0.2c-3.1,5-30,48.9-35.1,60.2
		c-1.8,4-3.8,6.5-5.3,7.9c-2.9-8.7-8-28.7-10.3-38.8c-3.3-14.2-15.8-14.2-20.5-14.2c-6.4,0-15.9,2-22.8,3.6
		c-15.4,3.7-17.6,5.4-19,6.6c-3,2.4-4.8,6.1-4.9,10c-0.1,3.1,1,6,2.4,8.5c-1.8-0.6-3.6-1-5.4-1c-0.8,0-1.6,0.1-2.4,0.2
		c-7,1.2-11,7.3-16.6,15.7c-1.3,2-3.1,4.7-3.8,5.5c-3.7,4.2-10.5,12-9.3,21.7c0.5,3.6,2,7.6,4.6,13.8c1.3,3.1,2.6,6.3,3.3,8.6
		c2.3,7.4,11.4,27.7,20.3,44c4.9,8.9,3.4,19.4,2.7,22.7l-37.9,68.5l-0.9,1.6c-5.6-2.5-12-5.4-19.3-8.8c-6.4-3-12.6-4.5-18.1-4.5h0
		c-8.2,0-14.6,3.8-17.2,10.1c-1.7,4.2-1.6,8.7,0.3,12.5c2.1,4.2,5.5,6.3,7.9,7.3c1.8,1,7.1,3.9,17.2,9.3c1.8,1,3.8,2,5.9,3.1
		c1.9,1,4.4,2.3,7,3.7c-19-4.4-52-11.9-57.7-13.1c-2.5-0.5-5.2-0.8-7.9-0.8c-5.2,0-14.7,0.9-20.5,7.2c-3,3.3-4.4,7.5-4.1,11.8
		c0.3,3.3,2.7,14.4,20.8,17.5c5,1.1,59.3,13.2,66.5,14.7c1.8,0.4,3.5,1,4.8,1.6c-0.6,0.2-1.3,0.3-1.9,0.4c-6.2,0-46.4,0.1-64.3,0.1
		c-5.7,0-7.7,0-8.3,0c-0.2,0-0.5,0-0.7,0c-5.7,0-10.2,1.2-13.8,3.8c-3.5,2.5-7.8,7.3-8,16.2c-0.3,10.8,9.1,19,22.9,19.9l0.2,0l0.2,0
		c0.3,0,29.8,0.8,50.5,0.8c9.5,0,15.7-0.2,19.2-0.5c1.1-0.1,2.2-0.2,3.3-0.2c2.7,0,4.8,0.4,6.2,0.7c-6.1,6.9-20.8,21.3-28.4,28.3
		c-10.7,9.9-4.4,20.8-2,24.9c3.2,5.5,9.7,12.8,14.6,18c10.9,11.5,13.5,12.5,15.2,13.2c1.5,0.6,3.1,0.9,4.7,0.9
		c5.2,0,9.6-2.8,12.6-7.9c0.5,2.7,1.6,5.1,3.3,7.1c4.5,5.5,11.8,5.9,21.9,6.5c2.4,0.1,5.6,0.3,6.7,0.5c3,0.6,6.6,1.2,10.2,1.2
		c5.3,0,9.7-1.4,13.3-4c2.9-2.2,5.6-5.6,9.7-10.9c2-2.7,4.2-5.4,5.8-7.1c5.2-5.6,18.3-23.8,27.9-39.6c5.3-8.7,15-12.6,18.3-13.7
		l73.5-1.3c0.6,6.2,1.3,13.5,2.1,21.8c1.5,16.9,9.5,27.9,20.4,27.9c0.7,0,1.4,0,2-0.1c4.5-0.6,8.3-2.9,10.7-6.5
		c2.6-3.9,2.7-7.9,2.4-10.4c0-2.1-0.2-8.1-0.6-19.5c-0.1-2.1-0.2-4.3-0.3-6.7c-0.1-2.1-0.2-4.9-0.3-7.9c5.7,18.6,15.7,51,17.5,56.5
		c2.9,8.7,11.5,21.8,23.3,21.8c3.2,0,6.2-1,8.8-2.8c2.7-1.9,11.1-9.5,4.8-26.8c-1.5-4.9-18.2-58-20.5-64.9c-0.6-1.8-0.9-3.5-1-4.9
		c0.5,0.5,0.9,1,1.3,1.4c11.9,20.4,34.3,59,36.4,62.9c4.6,8.2,10.7,12.4,18.2,12.4c3.4,0,6.9-1,10.3-2.8c9.5-5.2,11.9-17.4,5.8-29.8
		l-0.1-0.2l-0.1-0.2c-2.8-5.1-27.4-50.4-34.6-60.5c-2.5-3.5-3.7-6.5-4.2-8.5c9,1.8,28.8,7.4,38.8,10.4c2.1,0.7,4.1,1,6,1
		c9.8,0,14.4-7.9,16.5-11.7c3.2-5.5,6.2-14.8,8.3-21.6C680.1,359.5,679.6,356.8,679.4,355z M316.9,490.9c-0.7-4.5-3.3-7.9-5.4-10.6
		c-1.3-1.7-2.6-3.4-4-5.8c2.9-3.1,6.6-7.2,8.8-10.1c1.2-1.1,4.8-3.3,8.6-5.2c6,1.2,13.4,2.6,18.2,3.3c-0.4,1.1-0.9,2.3-1.4,3.6
		c-1.6,4.5-3.4,9.5-4.3,12.6c-0.9,0.5-2.9,1.4-7.2,2.8C324.5,483.4,319.9,486.7,316.9,490.9z M657,390.4c-2.3,4-3.7,5.7-6.2,5.7
		c-0.7,0-1.6-0.2-2.5-0.5c-4-1.2-38.8-11.6-45.9-11.6c-0.5,0-0.8,0-1,0.1c-3.2,1.6-4.7,2.2-6.7,5.7c-2,3.4-1,12.4,5.9,22.1
		c7,9.8,33.8,59.3,33.8,59.3s5.3,10.7-0.8,14c-1.7,1-3.3,1.4-4.7,1.4c-3.4,0-5.8-2.7-7.8-6.3c-2.8-5.1-36.9-63.7-36.9-63.7
		s-7.1-9.5-13.9-9.5c-1.1,0-2.1,0.2-3.2,0.8c-7.7,4-6.7,15.6-4.3,22.7c2.4,7.1,20.6,65,20.6,65s3.8,10.2-0.3,13.2
		c-0.6,0.4-1.2,0.6-1.9,0.6c-4.2,0-9.8-7.1-12-13.6c-2.5-7.6-21.5-69.3-21.5-69.3s-4.8-9.7-11.7-9.7c-0.6,0-1.3,0.1-1.9,0.3
		c-7.9,2.1-5.5,26.7-5,41.1c0.5,14.4,0.6,20.2,0.6,20.2s1,3.6-2.8,4.1c-0.1,0-0.3,0-0.4,0c-3.6,0-7.6-6.5-8.5-17
		c-0.4-4.3-1.1-12.4-2-20.9c-1.4-13.3-3-27.8-4.1-30.7c-0.8-2.2-3.9-8.9-7.4-16.1c-0.2,0.1-0.4,0.3-0.6,0.4c-3,2.3-6.1,4.5-9.3,6.5
		c2.9,6,5.3,11.2,6,13.1c0.4,1.7,1.2,6.8,2.1,15.2l-74,1.3c0,0-17.4,4.3-26.6,19.4c-9.2,15-21.9,32.7-26.5,37.6
		c-4.6,4.9-10.7,14.2-13.9,16.6c-1.6,1.2-3.7,1.6-6.1,1.6c-2.5,0-5.3-0.5-7.9-1c-5.2-1-19.8-0.6-21.7-2.9c-1.9-2.3-1-9.7,8.1-12.7
		c9.2-3,13.5-5.5,14.5-9.5c1.1-4.1,7.5-22.7,9.4-24.4c1.9-1.7-6.7-7.6-10.3-7.8c-3.6-0.2-24.3-4.3-24.3-4.3s-13,5.7-16.4,10.3
		c-3.5,4.6-12.3,13.8-12.3,13.8s-2,1.9,2.5,9.6c4.5,7.7,8.6,10.3,7.9,13.8c-0.6,3.2-2.5,7.8-4.3,7.8c-0.1,0-0.3,0-0.4-0.1
		c-2-0.8-19.2-18-23.8-26c-3-5.2-3.4-7.2-0.2-10.2c3.2-3,33.1-31.3,33.3-34.9c0.2-3.6,0.4-5.2-1.6-8.7c-1.7-3-8.2-6.2-17.7-6.2
		c-1.4,0-2.9,0.1-4.4,0.2c-3.3,0.3-10,0.4-18,0.4c-20.8,0-50.2-0.8-50.2-0.8s-11.9-0.8-11.7-7.7c0.2-6.8,4.4-8.3,9.9-8.3
		c0.2,0,0.3,0,0.5,0c1,0,4.1,0,8.5,0c19.7,0,65.2-0.1,65.2-0.1s15.8-1.8,16.1-10.5c0.4-8.6-10.2-13.6-17.5-15.1
		c-7.4-1.5-66.6-14.7-66.6-14.7s-10.8-1.8-11.2-6.9c-0.3-4,6.1-6.1,12.7-6.1c1.9,0,3.8,0.2,5.5,0.5C237,348.5,300,363,300,363
		s0.4,0,0.9,0c3,0,12.3-0.5,14-7.1c2.1-7.9-20.4-18.1-33.1-24.8c-12.7-6.8-17.8-9.6-17.8-9.6s-3.6-1-2.2-4.5
		c0.7-1.7,2.9-2.6,6.1-2.6c3.4,0,8,1.1,13.1,3.4c5.9,2.8,20.1,9.3,31.5,14.2c7.7,3.3,14.2,6,16.2,6.3c2.1,0.4,8.6,0.9,15.9,1.5
		c-0.5-2.4-0.9-4.8-1.2-7.3c-0.2-1.6-0.4-3.2-0.5-4.8c-5.6-0.5-10.2-0.9-11.9-1.1c-1.5-0.4-5.7-2.1-12.3-4.9l-2.2-1.8l38.7-70
		c0,0,5-17.3-3.5-32.7c-8.4-15.4-17.4-35.3-19.4-41.8c-2-6.5-6.9-16.4-7.4-20.4c-0.5-4,3-8.4,6.5-12.4c3.5-4,10.4-16.9,13.4-17.4
		c0.1,0,0.3,0,0.5,0c3.1,0,8.4,4.5,6.5,13.4c-2,9.4-2,14.4,1,17.4c3,3,15.9,17.9,16.4,20.4c0.1,0.5,0.6,0.7,1.3,0.7
		c2.8,0,9.1-3.3,10.6-5.7c2-3,15.9-18.9,15.9-18.9s1.6-14.1-0.7-19.4c-2.2-5.3-5.8-17.5-5.8-17.5s-0.7-2.6-9.6-2.6
		c-6,0-9.9,1-12.6,1c-1.4,0-2.4-0.3-3.3-1c-2.6-2.3-6-6.6-4.3-7.9c1.7-1.3,25.1-7.6,34.4-7.6c6,0,7.9,0.7,8.9,5
		c1,4.3,10.6,44.3,13.6,46.3s4.3,3,8.3,3s11.3-5.3,16.2-16.2c5-10.9,34.4-58.9,34.4-58.9s4.7-7.1,9.8-7.1c0.9,0,1.9,0.2,2.8,0.8
		c6,3.6,5,8.3,2,13.2c-3,5-36.7,63.9-36.7,63.9s-6.3,14.6,1,19.2c1.7,1.1,3.6,1.6,5.5,1.6c6.1,0,12.6-4.9,16.4-9.2
		c5-5.6,46-50.3,46-50.3s5.5-6.6,9.9-6.6c0.6,0,1.1,0.1,1.6,0.4c4.6,2.2,1,12.6-4.3,18.5c-5.3,6-49.3,53.3-49.3,53.3
		s-7.1,10.8-1.3,16.5c0.9,0.9,2.2,1.3,3.8,1.3c8.2,0,24-11.2,34.3-17.6c12.2-7.6,17.2-10.6,17.2-10.6s1.1-1.1,2.5-1.1
		c0.8,0,1.7,0.3,2.5,1.4c2.3,3-1.3,9.9-10.3,16.2c-4.5,3.2-14.4,10.2-23.4,16.8c-8.7,6.4-16.6,12.4-18.3,14.3
		c-1.5,1.9-6,8.2-10.7,15.1c0.7,0.3,1.4,0.5,2.1,0.8c3.1,1.2,6,2.6,8.9,4.2c4-5.7,7.4-10.7,8.7-12.3c1-0.9,3.5-3,7.7-6.2l39.9,66.3
		c0,0,12.5,12.9,30.1,13.3c17.6,0.4,39.3,2.6,45.8,4.1c6.6,1.5,17.7,2.2,21.3,3.7c3.7,1.6,5.8,6.8,7.5,11.8c1.7,5,9.4,17.5,8.3,20.3
		c-0.6,1.6-3,3.2-6.2,3.2c-2.6,0-5.7-1-8.9-3.9c-6.1-5.5-10.1-8.1-13.7-8.1c-0.6,0-1.3,0.1-1.9,0.2c-3.7,1-19.8,4.1-24.7,4.1
		c-0.5,0-0.9,0-1.1-0.1c-0.1,0-0.2,0-0.3,0c-2.2,0-2.9,9.8-1.4,12.8c1.6,3.2,8.4,23.2,8.4,23.2s11.4,8.4,17.1,9.1
		c5.7,0.7,18.1,3.8,18.1,3.8s0.1,0,0.2,0c0.7,0,3.1-0.5,6.9-7c4.5-7.7,4.6-12.6,7.9-13.8c1.8-0.6,4.2-1.1,6-1.1c1.6,0,2.9,0.4,3,1.3
		C667.9,358.9,661.6,382.4,657,390.4z M362.1,124.9c1.9,0.7,4.1,1.1,6.4,1.1c1.9,0,3.6-0.2,5.5-0.5c2.1-0.3,4.3-0.6,7.1-0.6
		c1.3,4.1,3,9.3,4.4,12.7c0.4,1.5,0.5,5.8,0.2,10c-4,4.6-8.9,10.3-11.9,14.1c-0.7-0.9-1.5-1.9-2.4-3c-3-3.6-6.6-7.7-8.8-10
		c0-1.1,0.2-3.3,1.1-7.6C364.9,135.3,364.3,129.7,362.1,124.9z M649.8,347.9c-3.5,2.9-5.2,6.8-6.5,10c-0.8,2-1.7,4-3,6.4
		c-4.2-1-9.6-2.1-13.2-2.6c-1.5-0.4-5.3-2.5-8.8-4.8c-2-5.8-4.5-12.9-6.2-17.4c6.3-1,13.4-2.4,16.8-3.2c0.9,0.5,2.7,1.8,6.1,4.8
		C640.4,346,645.8,347.6,649.8,347.9z"/>
	<path fill="#F03EB0" d="M497,383.1c0,0,0.1-0.1,0.1-0.1c-0.7-1.4-1.4-2.7-1.9-3.9L497,383.1z"/>
	<path fill="#F03EB0" d="M488.6,231.8c-2.9-1.5-5.9-2.9-8.9-4.2c-0.7-0.3-1.4-0.6-2.1-0.8c-11-4.2-22.8-6.5-35.3-6.5
		c-54.9,0-99.5,44.7-99.5,99.5c0,2.6,0.1,5.3,0.3,7.8c0.1,1.6,0.3,3.2,0.5,4.8c0.3,2.5,0.7,4.9,1.2,7.3
		c9.3,45.4,49.5,79.6,97.5,79.6c19.1,0,36.9-5.4,52-14.7c3.2-2,6.3-4.2,9.3-6.5c0.2-0.1,0.4-0.3,0.6-0.4
		c22.9-18.3,37.6-46.4,37.6-77.8C541.8,281.7,520.2,248.5,488.6,231.8z M358.7,319.9c0-46.2,37.5-83.6,83.6-83.6
		c9.1,0,17.9,1.5,26.1,4.2c-1.8,2.7-3.3,5-4.2,6.4c-3.9,6-16.2,16.8-23.9,23c-0.8,0.6-1.6,1.3-2.3,1.8c-7.3,5.6-42,60.9-42,60.9
		l-2.5,2.2c-7.4-2.4-15.7-4.7-21.4-5c-2.9-0.2-7.6-0.5-12.8-0.8C358.8,325.9,358.7,322.9,358.7,319.9z M444.3,282.2
		c13.1,25,27.4,54.1,28.8,60c0.1,0.5,0.3,1.7,0.5,3.5c-27.5-1.2-57.8-3.2-63.4-4.9c-0.5-0.2-2.1-0.8-4.3-1.7l0.2-0.3
		C420.4,316,438.2,289.3,444.3,282.2z M442.3,403.5c-38.9,0-71.6-26.5-80.9-62.5c4.3,0.3,7.9,0.5,10,0.6c5.5,0.3,16,3.5,24.8,6.5
		c3.8,1.3,7.2,2.6,9.8,3.7c7.3,3,55.9,5.2,69.9,5.8c1.7,8.2,4,17.5,6.9,23.1c1.1,2.2,2.8,5.6,4.7,9.5
		C474.4,398.7,458.9,403.5,442.3,403.5z M497.1,383c0,0-0.1,0.1-0.1,0.1l-1.8-4c-0.8-1.5-1.4-2.8-1.9-3.7c-0.6-1.2-1.2-2.8-1.8-4.6
		c-2.2-6.4-4.2-15.8-5.5-23.4c-0.5-2.7-0.8-5.1-1.1-7.1c-1.2-8.5-27.8-59.4-31.3-66.1c7-5.9,16.4-14.6,20.6-21
		c1.3-1.9,3.2-4.9,5.5-8.2c27.5,13.7,46.3,42.1,46.3,74.9C526,345.1,514.8,367.7,497.1,383z"/>
</g>
</svg>
