<?xml version="1.0" encoding="utf-8"?>
<!-- Generator: Adobe Illustrator 18.1.1, SVG Export Plug-In . SVG Version: 6.00 Build 0)  -->
<svg version="1.1" id="Layer_2" xmlns="http://www.w3.org/2000/svg" xmlns:xlink="http://www.w3.org/1999/xlink" x="0px" y="0px"
	 viewBox="-49.9 196.3 1069.9 537.4" enable-background="new -49.9 196.3 1069.9 537.4" xml:space="preserve">
<g>
	<g>
		<polygon fill="none" points="387.5,453.5 398.6,382.1 381.4,382.1 376.9,410 354.6,410 358.5,382.1 340.1,382.1 329,453.5 
			347.3,453.5 351.8,425.6 374.7,425.6 370.2,453.5 		"/>
		<polygon fill="none" points="430.4,438.4 410.4,438.4 419.3,382.1 402,382.1 390.3,453.5 427.6,453.5 		"/>
		<g>
			<polygon fill="none" points="472.2,382.1 426,382.1 423.2,397.7 438.8,397.7 432.7,438.4 432.7,438.4 429.9,453.5 429.9,453.5 
				429.9,453.5 448.8,453.5 457.2,397.7 469.5,397.7 			"/>
			<polygon fill="none" points="521.3,382.1 497.3,425.6 486.7,382.1 475,382.1 474.5,382.1 471.7,401.1 485.6,453.5 499.6,453.5 
				541.9,382.1 			"/>
		</g>
	</g>
	<g>
		<path fill="none" d="M533.6,448.5c-0.6,3.9-4.5,7.2-7.8,7.2c-3.9,0-6.7-3.3-5.6-7.2c0.6-3.9,4.5-7.2,7.8-7.2
			C531.3,441.2,534.1,445.1,533.6,448.5z"/>
		<path fill="none" d="M567.6,436.2c-1.7,9.5-6.1,19.5-17.3,19.5c-11.2,0-12.8-10-11.2-19.5c1.7-9.5,6.1-19.5,17.3-19.5
			S569.3,426.7,567.6,436.2z M549.7,436.2c0,2.2-1.7,10,2.2,10c3.3,0,5-7.8,5-10c0-2.2,1.7-10-2.2-10S550.3,434,549.7,436.2z"/>
		<path fill="none" d="M585.4,417.8l-0.6,4.5l0,0c2.8-3.3,5-5.6,9.5-5.6l-1.7,10c-0.6,0-1.1,0-1.7,0c-7.2,0-7.8,4.5-8.4,10
			l-2.8,18.4h-10l5.6-37.4L585.4,417.8L585.4,417.8z"/>
		<path fill="none" d="M600.5,459.6c0,2.2,0,5,2.8,5c4.5,0,5-7.2,5.6-10l0.6-5l0,0c-1.1,1.1-2.2,2.8-2.8,3.9
			c-1.1,1.1-2.8,1.7-4.5,1.7c-3.9,0-5.6-2.8-7.2-6.1c-1.1-3.9-1.1-8.4-0.6-12.8c1.1-6.7,4.5-20.1,13.4-20.1c3.3,0,5.6,2.2,6.1,5l0,0
			l0.6-4.5h10l-6.7,40.7c-1.7,10.6-7.2,15.1-16.2,15.1c-8.9,0-12.3-5-11.2-13.4L600.5,459.6L600.5,459.6z M612.7,436.2
			c0-2.2,1.7-10-2.2-10c-3.3,0-5,7.8-5,10c0,2.2-1.7,10,2.2,10C611.1,446.2,612.2,438.4,612.7,436.2z"/>
	</g>
</g>
<g>
	<g>
		<polygon fill="#00ACF2" points="659.3,314.2 1020,243 954.7,327 666.7,383.7 		"/>
		<polygon fill="#00ACF2" points="559.8,419 920.4,347.8 855.1,431.8 567.1,488.5 		"/>
		<polygon fill="#00ACF2" points="451.1,524.8 811.8,453.7 746.4,537.7 458.4,594.3 		"/>
	</g>
	<g>
		<polygon fill="#00ACF2" points="310.8,314.2 -49.9,243 15.5,327 303.5,383.7 		"/>
		<polygon fill="#00ACF2" points="410.4,419 49.7,347.8 115,431.8 403,488.5 		"/>
		<polygon fill="#00ACF2" points="519,524.8 158.4,453.7 223.7,537.7 511.7,594.3 		"/>
	</g>
	<path fill="#1D1D1B" d="M486.3,708.6c-2,0-4.1-0.4-6-1.3c-1.3-0.6-2.5-1.4-3.6-2.3c-7.1-5.6-57.9-46.3-108.1-110.6
		c-30.9-39.6-55.5-80.4-73.2-121.2c-22.2-51.3-33.5-102.8-33.5-153.2c0-4.7,2.2-9,6-11.8c4.8-3.4,118.4-84.5,216.2-97.2
		c0.7-0.1,1.5-0.2,2.2-0.2c0,0,0.1,0,0.1,0c0.8,0,1.5,0.1,2.3,0.2c97.8,12.7,211.3,93.7,216.1,97.2c3.8,2.7,6,7.1,6,11.8
		c0,50.3-11.3,101.9-33.5,153.2c-17.7,40.8-42.3,81.6-73.2,121.2c-50.8,65.2-102.3,106.1-108.4,110.8c-1,0.8-2.1,1.6-3.3,2.1
		c-0.3,0.1-0.5,0.2-0.8,0.3C489.9,708.2,488.1,708.6,486.3,708.6z"/>
	<polygon fill="#00ACF2" points="424,278.7 461.3,294 461.3,340 423,365.7 384.7,346 388,302.7 	"/>
	<polygon fill="#00ACF2" points="519.3,266.7 565.3,285.3 566.7,334.2 521,361.7 476.8,339.3 477.5,293.8 	"/>
	<polygon fill="#00ACF2" points="577.8,347.8 631.2,372.7 636.2,430.2 582.7,458 531,427.7 530,376 	"/>
	<polygon fill="#00ACF2" points="468.8,352.8 512,376.3 512,428.2 467.5,453.7 425.5,426 427.5,378.7 	"/>
	<path fill="#00ACF2" d="M376.7,358l35.2,20.8l-2,47.8c0,0-40,24.8-39.7,24.3c0.3-0.5-33.7-25.7-33.7-25.7l3.7-44.3L376.7,358z"/>
	<polygon fill="#00ACF2" points="416.7,441 376.3,464.5 372.3,516.5 411.8,548.7 455.7,525 457.3,468.2 	"/>
	<path fill="#3C3C3B" d="M713.3,296.4c-4.9-3.5-121.2-86.5-222.6-99.8c-1.4-0.2-2.8-0.3-4.2-0.3c-0.1,0-0.1,0-0.2,0
		c-1.5,0-2.9,0.1-4.3,0.3c-101.3,13.2-217.6,96.2-222.6,99.8c-7.6,5.4-12.1,14.2-12.1,23.5c0,52.3,11.7,105.8,34.7,158.9
		c18.2,41.9,43.4,83.8,75.1,124.3c45.5,58.3,91.6,97.8,106.6,109.9v0l22.6,20.6l24.6-22.2h0c16.7-13.7,60.9-52.3,104.6-108.3
		c31.7-40.6,56.9-82.4,75.1-124.3c23-53.1,34.7-106.6,34.7-158.9C725.3,310.6,720.8,301.9,713.3,296.4z M486.4,694L486.4,694
		C486.4,694.1,486.4,694.1,486.4,694C486.3,694.1,486.3,694.1,486.4,694L486.4,694c-3.6-2.7-210-162.4-210-374.1
		c0,0,114.6-82.4,209.9-94.6v0c0,0,0,0,0,0c0,0,0,0,0,0v0c95.4,12.2,209.9,94.6,209.9,94.6C696.3,531.7,489.9,691.3,486.4,694z"/>
	<path fill="#FFFFFF" d="M486.4,225.3L486.4,225.3c95.4,12.2,209.9,94.6,209.9,94.6c0,211.7-206.4,371.4-209.9,374.1v0c0,0,0,0,0,0
		c0,0,0,0,0,0v0c-3.5-2.7-209.9-162.4-209.9-374.1C276.4,320,391,237.5,486.4,225.3L486.4,225.3
		C486.3,225.3,486.3,225.3,486.4,225.3C486.4,225.3,486.4,225.3,486.4,225.3 M486.3,212.3c-0.7,0-1.4,0.1-2.1,0.2
		c-41.1,5.3-89.8,23.3-144.9,53.3c-40.8,22.3-69.4,42.7-70.6,43.6c-3.4,2.4-5.4,6.4-5.4,10.6c0,50.1,11.2,101.5,33.4,152.6
		c17.6,40.7,42.2,81.4,73,120.9C420.6,658.5,472,699.3,477.9,704c0.8,0.7,1.7,1.3,2.7,1.8c0.2,0.1,0.5,0.2,0.7,0.3
		c1.6,0.7,3.3,1,5.1,1c2,0,3.9-0.4,5.8-1.3c1.1-0.5,2.1-1.2,2.9-2c7.1-5.5,57.7-46.1,107.9-110.4c30.8-39.5,55.4-80.2,73-120.9
		c22.2-51.1,33.4-102.4,33.4-152.6c0-4.2-2-8.1-5.4-10.6c-1.2-0.9-29.8-21.3-70.6-43.6c-55.1-30.1-103.8-48-144.9-53.3
		C487.8,212.4,487.1,212.3,486.3,212.3C486.4,212.3,486.3,212.3,486.3,212.3L486.3,212.3z"/>
</g>
</svg>
