<?xml version="1.0" encoding="utf-8"?>
<!-- Generator: Adobe Illustrator 18.1.1, SVG Export Plug-In . SVG Version: 6.00 Build 0)  -->
<svg version="1.1" id="Layer_2" xmlns="http://www.w3.org/2000/svg" xmlns:xlink="http://www.w3.org/1999/xlink" x="0px" y="0px"
	 viewBox="419.4 178.6 51.1 52.5" enable-background="new 419.4 178.6 51.1 52.5" xml:space="preserve">
<g>
	<g>
		<polygon fill="none" points="442.5,206.8 447.5,203.7 446.6,202.7 444.7,203.9 443.5,202.5 445.5,201.3 444.5,200.2 439.5,203.2 
			440.5,204.3 442.4,203.1 443.6,204.5 441.7,205.7 		"/>
		<polygon fill="none" points="445.7,208.6 444.7,207.4 448.6,205 447.7,204 442.7,207 444.6,209.2 		"/>
		<g>
			<polygon fill="none" points="451.3,208.3 448.9,205.5 447.8,206.1 448.6,207.1 445.8,208.7 445.8,208.7 444.7,209.4 444.7,209.4 
				444.7,209.4 445.7,210.5 449.6,208.2 450.2,208.9 			"/>
			<polygon fill="none" points="453.8,211.3 449.9,212.1 452,209.2 451.5,208.5 451.4,208.5 450.1,209.2 447.6,212.8 448.3,213.7 
				454.8,212.6 			"/>
		</g>
	</g>
	<g>
		<path fill="none" d="M450.4,215.4c-0.3,0.1-0.6,0.1-0.9-0.1c-0.2-0.3-0.1-0.5,0.1-0.8c0.3-0.1,0.6-0.1,0.9,0.1
			C450.7,214.9,450.6,215.3,450.4,215.4z"/>
		<path fill="none" d="M452.9,216.9c-0.6,0.4-1.5,0.6-2-0.1c-0.6-0.7-0.1-1.3,0.6-1.7c0.6-0.4,1.5-0.6,2.1,0
			C454.1,215.9,453.6,216.5,452.9,216.9z M452,215.8c-0.2,0.1-0.7,0.4-0.5,0.6c0.2,0.2,0.8-0.1,0.9-0.2c0.1-0.1,0.7-0.4,0.5-0.6
			C452.7,215.4,452.1,215.7,452,215.8z"/>
		<path fill="none" d="M455,217l-0.3,0.2l0,0c0.3,0,0.6,0.1,0.9,0.3l-0.7,0.4c0,0,0-0.1-0.1-0.1c-0.4-0.4-0.7-0.2-1.1,0l-1.3,0.8
			l-0.5-0.6l2.6-1.5L455,217z"/>
		<path fill="none" d="M453.2,220.1c-0.2,0.1-0.3,0.3-0.2,0.5c0.3,0.3,0.7,0,0.9-0.2l0.4-0.2l0,0c-0.1,0-0.3,0-0.4,0
			c-0.1,0-0.3-0.1-0.3-0.2c-0.2-0.3-0.1-0.5,0-0.8c0.1-0.3,0.5-0.5,0.8-0.7c0.5-0.3,1.4-0.8,1.9-0.2c0.2,0.2,0.1,0.5,0,0.6l0,0
			l0.3-0.2l0.5,0.6l-2.8,1.7c-0.8,0.5-1.3,0.4-1.8-0.2c-0.5-0.6-0.3-1,0.3-1.4L453.2,220.1L453.2,220.1z M455.2,219.6
			c0.1-0.1,0.7-0.4,0.5-0.6c-0.2-0.2-0.8,0.1-0.9,0.2c-0.2,0.1-0.7,0.4-0.5,0.6C454.5,220,455.1,219.7,455.2,219.6z"/>
	</g>
</g>
<g>
	<polygon fill="#4B4B4B" points="439.2,230.6 434,221.7 425.4,221.7 419.9,212.1 424.4,204.3 419.9,196.4 425.4,186.8 434.7,186.8 
		439.2,179 450.2,179 454.7,186.8 464.5,186.8 470,196.4 465.5,204.3 470,212.1 464.5,221.7 455.4,221.7 450.2,230.6 	"/>
	<path fill="#FFFFFF" d="M450,179.4l4.5,7.8h9.8l5.3,9.1l-4.6,7.9l4.6,7.9l-5.3,9.1h-9.1l-5.2,8.9h-10.5l-5.2-8.9h-8.7l-5.3-9.1
		l4.6-7.9l-4.6-7.9l5.3-9.1h9.3l4.5-7.8H450 M450.5,178.6H450h-10.5H439l-0.2,0.4l-4.3,7.4h-8.9h-0.5l-0.2,0.4l-5.3,9.1l-0.2,0.4
		l0.2,0.4l4.3,7.5l-4.3,7.5l-0.2,0.4l0.2,0.4l5.3,9.1l0.2,0.4h0.5h8.2l4.9,8.5l0.2,0.4h0.5H450h0.5l0.2-0.4l4.9-8.5h8.7h0.5l0.2-0.4
		l5.3-9.1l0.2-0.4l-0.2-0.4l-4.3-7.5l4.3-7.5l0.2-0.4l-0.2-0.4l-5.3-9.1l-0.2-0.4h-0.5H455l-4.3-7.4L450.5,178.6L450.5,178.6z"/>
</g>
<g>
	<polygon fill="#FCD532" points="437.4,186.2 440.5,185.9 442,183.5 447.3,183.5 448.9,186.2 436.5,188.2 440.4,195.4 448.9,195.4 
		451.9,190.3 448.9,190.5 447.5,192.9 442.2,192.9 440.7,190.2 453.2,188.2 449.1,180.9 440.5,180.9 	"/>
</g>
<g>
	<polygon fill="#FCD532" points="437.4,218.8 440.5,218.4 442,216.1 447.3,216.1 448.9,218.8 436.5,220.7 440.4,227.9 448.9,227.9 
		451.9,222.8 448.9,223.1 447.5,225.4 442.2,225.4 440.7,222.8 453.2,220.8 449.1,213.5 440.5,213.5 	"/>
</g>
<g>
	<polygon fill="#FCD532" points="452.2,202.4 449.1,202.1 447.6,199.7 442.3,199.7 440.6,202.4 453.1,204.4 449.1,211.6 
		440.6,211.6 437.6,206.5 440.6,206.7 442,209.1 447.3,209.1 448.8,206.4 436.3,204.4 440.5,197.1 449.1,197.1 	"/>
</g>
<g>
	<polygon fill="#FCD532" points="437.9,194.5 434.8,194.1 433.3,191.7 428,191.7 426.4,194.5 438.8,196.4 434.8,203.6 426.4,203.6 
		423.4,198.5 426.4,198.8 427.7,201.1 433.1,201.1 434.6,198.4 422.1,196.4 426.2,189.1 434.8,189.1 	"/>
</g>
<g>
	<polygon fill="#FCD532" points="437.9,210.6 434.8,210.3 433.3,207.9 428,207.9 426.4,210.6 438.8,212.5 434.8,219.8 426.4,219.8 
		423.4,214.6 426.4,214.9 427.7,217.2 433.1,217.2 434.6,214.6 422.1,212.6 426.2,205.3 434.8,205.3 	"/>
</g>
<g>
	<polygon fill="#FCD532" points="451.8,194.5 455,194.1 456.5,191.7 461.7,191.7 463.4,194.5 450.9,196.4 454.9,203.6 463.4,203.6 
		466.4,198.5 463.4,198.8 462,201.1 456.7,201.1 455.2,198.4 467.7,196.4 463.5,189.1 455,189.1 	"/>
</g>
<g>
	<polygon fill="#FCD532" points="451.5,210.4 454.7,210 456.2,207.6 461.5,207.6 463.1,210.4 450.7,212.3 454.6,219.5 463.1,219.5 
		466.1,214.4 463.1,214.7 461.7,217 456.4,217 454.9,214.3 467.4,212.3 463.2,205 454.7,205 	"/>
</g>
</svg>
