<?xml version="1.0" standalone="no"?>
<!DOCTYPE svg PUBLIC "-//W3C//DTD SVG 20010904//EN"
 "http://www.w3.org/TR/2001/REC-SVG-20010904/DTD/svg10.dtd">
<svg version="1.0" xmlns="http://www.w3.org/2000/svg"
 width="300.000000pt" height="253.000000pt" viewBox="0 0 300.000000 253.000000"
 preserveAspectRatio="xMidYMid meet">
<metadata>
Created by potrace 1.10, written by Peter Selinger 2001-2011
</metadata>
<g transform="translate(0.000000,253.000000) scale(0.100000,-0.100000)"
fill="#000000" stroke="none">
<path d="M200 2516 c0 -8 8 -17 18 -20 9 -4 36 -23 58 -44 23 -20 120 -102
217 -182 l176 -145 -32 -59 c-18 -32 -38 -60 -45 -63 -11 -5 -463 140 -540
173 -42 18 -42 18 -42 -6 0 -12 7 -20 16 -20 9 0 42 -13 73 -29 64 -33 350
-167 427 -200 45 -20 56 -31 98 -100 46 -76 47 -80 36 -118 -15 -49 -30 -18
178 -353 242 -388 236 -380 277 -380 19 0 37 -4 40 -10 3 -6 -5 -10 -18 -10
-58 0 -27 -64 37 -77 36 -8 44 -16 103 -112 l64 -103 -1 -322 c-1 -176 -1
-325 -1 -330 2 -26 26 19 28 52 1 20 18 158 38 306 19 147 35 269 35 270 0 0
29 1 65 1 43 0 65 -4 65 -12 0 -6 14 -118 30 -249 17 -130 32 -262 33 -291 2
-33 10 -60 20 -71 16 -15 17 6 17 321 l0 338 62 98 c56 91 64 99 98 105 25 4
43 14 54 31 20 31 14 45 -22 45 -40 0 -14 18 32 22 l38 3 215 344 215 343 -15
39 c-16 42 -20 31 64 167 8 13 37 34 64 46 28 13 124 58 215 101 91 43 198 94
238 112 68 32 80 42 67 55 -3 3 -136 -39 -294 -93 l-289 -98 -35 67 -35 67 31
25 c195 158 404 324 423 337 27 17 34 49 8 39 -9 -3 -20 -6 -26 -6 -6 0 -8 -6
-5 -14 4 -9 -62 -67 -191 -169 -108 -86 -212 -168 -230 -184 l-34 -28 42 -75
c24 -41 43 -76 44 -77 0 -1 118 39 261 87 143 49 261 88 262 86 1 -1 -114 -56
-255 -121 l-258 -118 -52 -84 c-51 -81 -52 -84 -37 -113 8 -16 15 -35 14 -42
0 -7 -93 -161 -207 -343 l-207 -330 -37 -3 c-25 -2 -43 -11 -53 -25 -22 -32
-19 -40 15 -34 33 7 35 5 20 -24 -8 -13 -21 -19 -48 -19 -36 0 -38 -2 -106
-112 l-69 -112 5 -308 c2 -169 3 -307 3 -305 -1 1 -17 136 -36 300 l-34 297
-81 0 -82 0 -12 -97 c-6 -54 -22 -183 -35 -288 l-24 -190 5 291 6 291 -72 117
c-70 113 -73 116 -107 116 -22 0 -41 7 -49 18 -21 27 -17 31 21 25 20 -3 35
-1 35 4 0 19 -41 47 -71 47 -29 1 -41 17 -245 341 -132 210 -211 346 -208 355
27 67 28 62 -20 140 -26 41 -52 80 -59 86 -10 10 -452 216 -507 237 -8 3 -10
6 -5 6 6 0 125 -39 265 -88 291 -101 258 -101 318 9 l33 59 -83 69 c-46 38
-145 119 -221 180 -76 62 -136 112 -133 112 2 0 113 -72 245 -160 l240 -159
182 -1 182 -2 37 43 36 42 94 -6 c69 -4 98 -10 106 -21 9 -13 35 -16 136 -16
112 0 127 2 143 20 15 17 31 20 106 20 l87 0 35 -40 34 -40 173 0 173 0 51 31
c152 93 456 292 452 296 -5 6 -56 -25 -309 -184 l-193 -123 -169 0 -169 0 -37
36 c-37 36 -37 36 -131 38 -73 1 -97 -2 -111 -15 -13 -12 -48 -18 -128 -24
-103 -6 -112 -5 -133 14 -18 17 -37 21 -121 23 l-99 3 -39 -42 -40 -43 -154 0
c-106 0 -164 4 -186 13 -18 8 -115 69 -216 135 -102 67 -189 122 -193 122 -4
0 -8 5 -8 10 0 6 -5 10 -11 10 -6 0 -22 9 -36 20 -29 23 -48 26 -37 8 4 -8 3
-10 -2 -5 -5 5 -9 14 -9 20 0 7 -8 13 -17 15 -11 2 -18 -3 -18 -12z"/>
<path d="M777 1989 c-32 -50 -56 -97 -53 -105 5 -13 118 -194 519 -834 l186
-295 70 -3 69 -3 30 43 c16 24 130 205 254 403 124 198 273 436 332 529 58 92
103 173 99 180 -4 6 -31 48 -60 94 l-54 82 -667 0 -667 0 -58 -91z m843 72
l545 -1 32 -52 c18 -29 42 -67 53 -84 l20 -30 -291 -465 c-161 -255 -319 -508
-353 -562 l-61 -98 -64 3 -65 3 -82 130 c-287 456 -604 965 -609 977 -4 9 16
50 45 96 l51 81 62 3 c34 2 87 2 117 1 30 -1 300 -2 600 -2z"/>
<path d="M820 1979 c-22 -28 -40 -56 -40 -63 0 -7 30 -59 66 -117 96 -152 115
-179 129 -179 13 0 227 362 229 388 1 15 -16 17 -171 20 l-172 2 -41 -51z
m370 26 c0 -4 -208 -365 -215 -373 -1 -1 -22 28 -45 65 -23 37 -64 102 -91
145 l-48 76 36 46 36 46 163 0 c90 0 164 -2 164 -5z"/>
<path d="M1248 2013 c-8 -10 -68 -108 -132 -218 -81 -137 -115 -206 -112 -220
3 -11 61 -112 129 -225 l123 -205 249 0 249 0 113 180 c62 99 122 198 134 221
l22 40 -118 205 c-65 112 -125 212 -133 222 -14 15 -39 17 -262 17 -223 0
-248 -2 -262 -17z m636 -219 l123 -211 -135 -216 -134 -217 -233 0 -232 0
-128 213 c-70 116 -128 217 -128 222 0 6 55 103 123 218 l122 207 250 -2 249
-3 123 -211z"/>
<path d="M1456 1895 c-16 -8 -34 -23 -41 -32 -10 -13 -29 -15 -107 -14 l-96 2
-40 -76 -40 -77 47 -81 c46 -77 47 -81 33 -109 -27 -54 13 -124 77 -134 35 -6
42 -13 91 -95 l53 -90 70 3 71 3 50 87 c34 59 57 88 69 88 27 0 75 28 87 49
13 24 13 77 1 100 -7 13 3 39 45 109 30 51 54 95 54 97 0 9 -64 110 -74 117
-6 4 -56 8 -110 8 -93 0 -102 2 -126 25 -34 32 -77 40 -114 20z m83 -20 c16
-8 31 -21 34 -30 5 -12 27 -15 116 -15 l109 0 32 -51 31 -51 -51 -91 c-48 -87
-51 -94 -41 -129 18 -60 -8 -104 -72 -117 -28 -6 -39 -19 -82 -94 l-50 -87
-62 0 -61 0 -54 88 c-47 77 -57 87 -85 90 -21 2 -41 14 -58 33 -28 34 -31 55
-14 93 11 23 7 35 -34 105 l-46 79 35 66 35 66 91 0 c86 0 92 1 125 30 38 33
61 37 102 15z"/>
<path d="M1274 1746 c-60 -60 -40 -151 42 -187 57 -26 78 -57 70 -105 -20
-105 84 -181 174 -127 37 21 50 52 50 116 0 63 16 88 73 116 70 34 95 98 62
161 -34 65 -116 76 -190 26 -46 -32 -73 -30 -130 9 -56 37 -108 34 -151 -9z
m153 -13 c51 -38 81 -39 133 -5 66 44 113 46 154 6 18 -19 26 -37 26 -63 0
-48 -23 -79 -76 -101 -55 -24 -74 -59 -71 -133 2 -50 -1 -60 -25 -84 -42 -41
-100 -39 -140 6 -28 31 -30 38 -24 83 9 62 -12 100 -69 127 -75 35 -97 82 -68
141 12 24 29 39 52 46 42 14 66 9 108 -23z"/>
<path d="M1814 2017 c-8 -21 208 -398 226 -394 14 2 112 150 162 243 l21 41
-37 61 -37 62 -165 0 c-127 0 -166 -3 -170 -13z m362 -61 l30 -52 -84 -138
-84 -137 -100 178 c-55 98 -105 184 -110 191 -8 9 24 12 153 12 l164 -1 31
-53z"/>
<path d="M1296 1102 c-3 -5 23 -56 57 -113 l63 -104 81 -3 82 -3 39 58 c53 79
92 147 92 161 0 14 -406 17 -414 4z m391 -25 c-8 -13 -37 -58 -63 -100 l-47
-77 -76 0 -76 0 -55 92 c-30 50 -56 95 -58 99 -2 5 85 9 193 9 l197 0 -15 -23z"/>
</g>
</svg>
