<?xml version="1.0" encoding="utf-8"?>
<!-- Generator: Adobe Illustrator 18.1.1, SVG Export Plug-In . SVG Version: 6.00 Build 0)  -->
<svg version="1.1" id="Layer_2" xmlns="http://www.w3.org/2000/svg" xmlns:xlink="http://www.w3.org/1999/xlink" x="0px" y="0px"
	 viewBox="206.6 93.1 444.6 402.4" enable-background="new 206.6 93.1 444.6 402.4" xml:space="preserve">
<g>
	<g>
		<polygon fill="none" points="308.3,197.7 312.8,169.3 305.9,169.3 304.1,180.2 295.1,180.2 296.8,169.3 289.4,169.3 284.9,197.7 
			292.3,197.7 294.1,186.4 303.2,186.4 301.4,197.7 		"/>
		<polygon fill="none" points="325.3,191.4 317.4,191.4 320.9,169.3 314,169.3 309.5,197.7 324.3,197.7 		"/>
		<g>
			<polygon fill="none" points="342,169.3 323.6,169.3 322.6,175.5 328.7,175.5 326.2,191.4 326.2,191.4 325.2,197.7 325.2,197.7 
				325.3,197.7 332.6,197.7 336.1,175.5 341,175.5 			"/>
			<polygon fill="none" points="361.7,169.3 352,186.5 347.9,169.3 343.2,169.3 342.9,169.3 341.8,176.7 347.3,197.7 353,197.7 
				369.7,169.3 			"/>
		</g>
	</g>
	<g>
		<path fill="none" d="M366.4,195.7c-0.2,1.5-1.7,2.8-3.2,2.8s-2.6-1.3-2.3-2.8c0.2-1.5,1.7-2.8,3.2-2.8
			C365.6,192.9,366.6,194.2,366.4,195.7z"/>
		<path fill="none" d="M380,190.7c-0.6,3.8-2.4,7.7-6.9,7.7c-4.4,0-5-3.9-4.4-7.7c0.6-3.8,2.4-7.7,6.9-7.7
			C380,183,380.6,186.9,380,190.7z M372.9,190.7c-0.1,0.9-0.6,4,0.9,4c1.4,0,2-3.1,2.1-4c0.1-0.9,0.6-4-0.9-4
			C373.6,186.7,373,189.9,372.9,190.7z"/>
		<path fill="none" d="M387.1,183.3l-0.3,1.8h0.1c1-1.3,2.1-2.2,3.8-2.3l-0.6,4c-0.2,0-0.4-0.1-0.6-0.1c-2.8,0-3.1,1.8-3.4,4
			l-1.2,7.4h-4.1l2.3-14.8H387.1z"/>
		<path fill="none" d="M393.1,200.1c-0.1,0.9,0,2.1,1.2,2.1c1.8,0,2-2.8,2.2-4.1l0.3-1.9h-0.1c-0.4,0.5-0.8,1.1-1.2,1.5
			c-0.5,0.4-1.1,0.7-1.8,0.7c-1.5,0-2.3-1.2-2.8-2.5c-0.5-1.5-0.4-3.4-0.2-5c0.4-2.6,1.7-7.9,5.3-7.9c1.4,0,2.2,0.9,2.5,2.1h0.1
			l0.3-1.8h4.1l-2.6,16.1c-0.7,4.3-2.9,6.1-6.5,6.1c-3.5,0-4.8-2-4.5-5.4H393.1z M397.9,190.6c0.1-0.8,0.6-4-0.8-4
			c-1.4,0-2,3.1-2.1,4c-0.1,0.9-0.6,4,0.9,4C397.2,194.6,397.8,191.4,397.9,190.6z"/>
	</g>
</g>
<g id="cAbiUY.tif_1_">
	<g>
		
			<linearGradient id="SVGID_1_" gradientUnits="userSpaceOnUse" x1="121.9523" y1="286.0584" x2="121.9523" y2="498.1628" gradientTransform="matrix(1.5748 0 0 -1.5748 123.305 937.4558)">
			<stop  offset="0" style="stop-color:#F88B2F"/>
			<stop  offset="1" style="stop-color:#FFC524"/>
		</linearGradient>
		<path fill="url(#SVGID_1_)" d="M206.6,235c1.6-6,2.8-12.3,5-18c5.5-13.9,14.8-24.4,25.8-33.2c12.9-10.4,27.4-17.5,42.5-23.5
			c8.5-3.3,17.2-4.3,26-4.9c13.2-0.9,26.5-1.9,39.8-2.4c8-0.3,15.9,0,23.9,0.3c7.4,0.2,14.8,0.8,22.4,1.1c7.2,0.3,13.9,1.9,19.2,7.6
			c4.4,4.7,7.6,10.2,9.4,16.7c3.9,13.1,3.8,26.6,2.5,40c-1.6,16.1-5.2,31.5-10.4,46.5c-3.8,10.9-7.7,21.4-12.1,32
			c-9.9,24.3-21.4,47.6-34.2,70.2c-13.7,24.6-28.5,48.2-45.5,70.1c-9.9,12.8-20.3,24.7-32.6,34.8c-7.2,6-15,11-23.8,13.5
			c-6,1.7-11.8,1.6-17.6-1.1c-1.6-0.8-2.2-1.9-1.9-3.6c2.2-16.7,3.9-33.4,6.5-50.1c1.3-9.1,3.8-18,7.2-26.5
			c3-7.6,8.2-11.5,15.4-12.6c6.3-0.8,12.4-1.7,18.7-2.8c14.8-2.7,24.1-12.3,28.2-28.2c0.6-2.4,1.1-4.9,1.6-7.4
			c0.2-0.8,0.2-1.6,0.2-2.8c-3,0.9-5.7,1.7-8.2,2.7c-18.3,6.1-36.5,12.4-54.8,18.4c-7.7,2.5-15.6,4.1-23.6,2.4
			c-8.8-1.9-13.9-10.1-12.1-20c1.3-7.1,5.2-12,10.2-16.1c6.5-5.4,13.7-8.5,21.4-11c18.6-6.1,37.6-8.8,56.9-9.6
			c11.2-0.5,22.2-2.5,32.6-7.4c5.2-2.5,9.1-6.6,12.4-11.5c9.8-14,15.3-29.9,18.3-47.2c1.3-7.7,1.6-15.4,0.9-23.3
			c-0.8-8.3-4.7-13.7-11.7-16.7c-8.3-3.8-17.2-5.4-26-6c-9.8-0.6-19.7-0.9-29.4-0.5c-16.7,0.6-33.4,2.5-49.6,7.4
			c-5,1.6-9.6,3.8-13.4,7.7c-3.5,3.6-3.3,6.8,0.6,9.8c1.6,1.3,3.5,2.2,5.2,3.1c2.5,1.3,3,2.8,1.1,5.2c-3.3,4.3-7.7,6.6-12.6,8
			c-11,3.1-21.6,0.9-32-3.1c-0.8-0.3-1.7-0.6-2.7-0.9C206.6,239.7,206.6,237.3,206.6,235z"/>
		
			<linearGradient id="SVGID_2_" gradientUnits="userSpaceOnUse" x1="193.7629" y1="506.8839" x2="193.7629" y2="536.5318" gradientTransform="matrix(1.5748 0 0 -1.5748 123.305 937.4558)">
			<stop  offset="0" style="stop-color:#FEC125"/>
			<stop  offset="1" style="stop-color:#FFC524"/>
		</linearGradient>
		<path fill="url(#SVGID_2_)" d="M429.8,92.4c1.3,0.2,2.5,0.5,3.8,0.6c8.3,1.7,14.6,9.6,14.8,19.4c0.2,6.9-1.3,13.5-5.4,19.2
			c-8,11.2-25,9.3-31.2-3.1c-3-6.1-3.8-12.6-3-19.2c0.9-8.3,8.7-15.7,16.5-16.4c0.8,0,1.6-0.3,2.5-0.5
			C428.7,92.4,429.3,92.4,429.8,92.4z"/>
		
			<linearGradient id="SVGID_3_" gradientUnits="userSpaceOnUse" x1="265.7075" y1="283.4677" x2="265.7075" y2="498.6066" gradientTransform="matrix(1.5748 0 0 -1.5748 123.305 937.4558)">
			<stop  offset="0" style="stop-color:#F88B2F"/>
			<stop  offset="1" style="stop-color:#FFC524"/>
		</linearGradient>
		<path fill="url(#SVGID_3_)" d="M517.3,206.5c-5.7,0.5-11.5,0.5-17,1.4c-11.2,2-17.8,11-18,23.5c-0.2,6.9,0.9,13.5,2.8,20
			c7.4,26,16.9,50.9,28.3,75c10.6,22.2,23.6,42.7,38.4,61.6c3.3,4.3,7.2,8.2,11,12c3.5,3.5,6.1,3.6,11,0.6c2.4-1.4,4.4-3.8,6.5-5.8
			c3.5-3.6,6.9-4.6,10.9-1.6c3.3,2.5,6.5,5.7,8.8,9.1c6.8,9.9,10.1,21.3,11.3,33.5c1.7,19.1-2.7,36.4-12.4,52.1
			c-1.9,3.1-3,3.6-6.3,2.8c-6-1.6-11.2-5-15.9-9.1c-7.2-6.3-14.3-12.9-21.3-19.7c-6.8-6.8-13.2-13.7-19.4-20.9
			c-14.6-16.9-28-34.8-40.2-54c-11.3-18.1-21.6-37-30.2-56.9c-9.1-20.8-16.5-42.4-22.2-64.6c-4.3-16.4-7.4-32.9-9.6-49.6
			c-1.7-12.6-2.7-25.2-0.2-37.8c1.1-5.5,2.8-10.6,6.1-15.1c4.1-5.7,9.8-8,16.1-8.7c7.6-0.6,15-1.1,22.5-1.6
			c5.4-0.3,10.9-0.6,16.2-0.5c12.3,0.5,24.4,0.9,36.7,1.9c11.5,0.9,23,1.7,34.2,3.8c7.6,1.3,15,4.4,22.4,7.1
			c14.2,5.2,27.9,11.7,40.3,20.9c8.7,6.6,15.9,14.6,20.5,25.2c2.4,5.7,3.6,11.5,0.5,17.3c-2.5,4.7-6.6,7.1-11,8.7
			c-9.6,3.3-19.4,3.3-29.1,1.3c-3-0.6-6-1.4-8.8-2.4c-1.9-0.6-3.9-1.4-5.7-2.5c-1.1-0.8-1.9-2.2-2.8-3.3c1.1-0.6,2-1.1,3.1-1.7
			c1.3-0.6,2.5-0.9,3.8-1.7c2.4-1.4,2.5-3.3,0.2-4.7c-3.3-1.9-6.6-3.9-10.2-4.9c-9.6-2.7-19.2-5.2-29-6.9
			C545.7,208,531.5,206.6,517.3,206.5z"/>
		
			<linearGradient id="SVGID_4_" gradientUnits="userSpaceOnUse" x1="190.775" y1="280.5272" x2="190.775" y2="398.6367" gradientTransform="matrix(1.5748 0 0 -1.5748 123.305 937.4558)">
			<stop  offset="0" style="stop-color:#F88B2F"/>
			<stop  offset="0.5017" style="stop-color:#F88D2F"/>
			<stop  offset="0.6824" style="stop-color:#F9942D"/>
			<stop  offset="0.8113" style="stop-color:#FA9F2B"/>
			<stop  offset="0.9147" style="stop-color:#FCB028"/>
			<stop  offset="1" style="stop-color:#FFC524"/>
		</linearGradient>
		<path fill="url(#SVGID_4_)" d="M441.4,354.3c-0.5,15.7-0.6,29.4-1.1,43c-0.3,10.4-0.8,20.8-1.4,31.2c-0.8,15.1-1.7,30.2-2.7,45.4
			c-0.2,3.6-0.2,7.2-0.6,10.7c-0.2,1.4-0.8,3.1-1.6,4.1c-2.8,3.3-6.3,5.8-10.6,6.6c-3,0.6-5.8-0.2-8.2-2.2
			c-3.8-3.3-6.5-7.6-7.1-12.9c-0.9-8.5-1.6-17-1.9-25.5c-0.3-12.6-0.3-25.4,0-38c0.3-14,1.1-28,1.7-41.9c0.6-12.3,1.3-24.4,1.9-36.7
			c0.3-6.1,0.6-12.3,1.1-18.3c0.2-1.4,0.8-3.3,1.7-4.1c3.1-2.8,6.8-5.2,10.9-6c5.7-1.1,10.1,1.1,13.1,6.6c2,3.9,3.1,8.3,3.3,12.9
			C440.8,338.4,441.1,347.4,441.4,354.3z"/>
	</g>
</g>
</svg>
