<?xml version="1.0" encoding="utf-8"?>
<!-- Generator: Adobe Illustrator 18.1.1, SVG Export Plug-In . SVG Version: 6.00 Build 0)  -->
<svg version="1.1" id="Layer_3" xmlns="http://www.w3.org/2000/svg" xmlns:xlink="http://www.w3.org/1999/xlink" x="0px" y="0px"
	 viewBox="168.3 40.6 526.7 513.2" enable-background="new 168.3 40.6 526.7 513.2" xml:space="preserve">
<g>
	<g>
		<polygon fill="none" points="396,78 400.5,49.6 393.6,49.6 391.9,60.6 382.8,60.6 384.5,49.6 377.1,49.6 372.6,78 380,78 
			381.8,66.7 390.9,66.7 389.1,78 		"/>
		<polygon fill="none" points="413,71.8 405.1,71.8 408.6,49.6 401.8,49.6 397.3,78 412,78 		"/>
		<g>
			<polygon fill="none" points="429.7,49.6 411.3,49.6 410.3,55.8 416.4,55.8 413.9,71.8 413.9,71.8 412.9,78 412.9,78 413,78 
				420.3,78 423.8,55.8 428.7,55.8 			"/>
			<polygon fill="none" points="449.4,49.6 439.8,66.9 435.6,49.6 430.9,49.6 430.6,49.6 429.5,57 435,78 440.8,78 457.4,49.6 			
				"/>
		</g>
	</g>
	<g>
		<path fill="none" d="M454.1,76c-0.2,1.5-1.7,2.8-3.2,2.8s-2.6-1.3-2.3-2.8c0.2-1.5,1.7-2.8,3.2-2.8
			C453.3,73.2,454.3,74.5,454.1,76z"/>
		<path fill="none" d="M467.7,71.1c-0.6,3.8-2.4,7.7-6.9,7.7c-4.4,0-5-3.9-4.4-7.7c0.6-3.8,2.4-7.7,6.9-7.7
			C467.8,63.3,468.3,67.3,467.7,71.1z M460.6,71.1c-0.1,0.9-0.6,4,0.9,4c1.4,0,2-3.1,2.1-4c0.1-0.9,0.6-4-0.9-4
			C461.3,67.1,460.7,70.2,460.6,71.1z"/>
		<path fill="none" d="M474.8,63.6l-0.3,1.8h0.1c1-1.3,2.1-2.2,3.8-2.3l-0.6,4c-0.2,0-0.4-0.1-0.6-0.1c-2.8,0-3.1,1.8-3.4,4
			l-1.2,7.4h-4.1l2.3-14.8H474.8z"/>
		<path fill="none" d="M480.8,80.4c-0.1,0.9,0,2.1,1.2,2.1c1.8,0,2-2.8,2.2-4.1l0.3-1.9h-0.1c-0.4,0.5-0.8,1.1-1.2,1.5
			c-0.5,0.4-1.1,0.7-1.8,0.7c-1.5,0-2.3-1.2-2.8-2.5c-0.5-1.5-0.4-3.4-0.2-5c0.4-2.6,1.7-7.9,5.3-7.9c1.4,0,2.2,0.9,2.5,2.1h0.1
			l0.3-1.8h4.1l-2.6,16.1c-0.7,4.3-2.9,6.1-6.5,6.1c-3.5,0-4.8-2-4.5-5.4H480.8z M485.6,71c0.1-0.8,0.6-4-0.8-4c-1.4,0-2,3.1-2.1,4
			c-0.1,0.9-0.6,4,0.9,4C484.9,75,485.5,71.8,485.6,71z"/>
	</g>
</g>
<g id="_x34_wHkN5.tif">
	<g>
		<path d="M445.7,43c2.2,0.2,4.6,0.5,6.8,0.6c47.6,3.1,89.4,20.8,128,48.2c34.6,24.7,60.8,56.2,79.8,94c11.2,22.4,18.3,46,22.2,70.6
			c2.5,16.2,3.8,32.4,3.5,48.8c-0.8,34.8-8.5,67.9-23.6,99.2c-10.4,21.9-23.6,42-39.2,60.6c-8.8,10.4-19.1,19.5-29.4,28.2
			c-23.9,20-50.4,35.1-80,44.9c-18.1,6-36.9,9.8-55.9,12c-0.3,0-0.5,0-0.9,0c0-0.6-0.2-1.3-0.2-1.7c0-11.5,0-22.8,0-34.3
			c0-1.4,0.3-2,1.9-2.2c37.6-5.5,72.1-18.6,102.5-41.7c43.5-33.1,70.6-76.4,81.6-129.9c2.5-12.4,3.9-25,3.9-37.8
			c0.5-53.5-15.4-101.4-49-143.2c-24.1-29.9-55-50.6-91-63.5c-19.7-7.1-40.2-11.2-60.9-13.4c-0.2,0-0.3,0-0.9,0.2c0,2.8,0,5.7,0,8.5
			c0,7.1-0.2,14.2-0.2,21.3c-0.2,19.4-0.3,38.7-0.3,58.1c0,13.1,0,26.1,0,39.2c0,41.6-0.2,83.2-0.2,124.7
			c0,67.1,0.2,134.3,0.2,201.4c0,5.2,0,10.2,0,15.6c-8.7,0-17,0-25.7,0c0-156.2,0-312.6,0-469.1c-4.9,0.6-9.3,1.1-13.9,1.7
			c-19.4,2.8-38.3,7.6-56.5,14.8c-46,18.6-80.9,49.8-104.9,93.4c-13.4,24.6-21.7,50.7-25.2,78.3c-6.6,52.9,4.3,102.2,34,146.6
			c21.3,31.5,48.7,56.7,83,73.5c20.6,10.1,42.4,16.7,64.9,20.5c1.6,0.3,3.3,0.5,4.9,0.8c0.5,0.2,1.3,0.8,1.3,1.3
			c0,12.3,0,24.6,0,37.2c-3.5-0.5-6.6-0.8-9.9-1.3c-23-3.3-45.4-9.1-66.8-18.4c-27.1-11.7-51-28-72.3-48.2
			c-30.7-28.8-52.9-63.3-66.6-103.2c-6.8-19.8-10.9-40.3-12.4-61.4c-0.2-2.5-0.5-5-0.8-7.6c0-8.3,0-16.7,0-25
			c0.2-0.3,0.3-0.8,0.3-1.1c1.1-10.1,1.7-20.3,3.3-30.2c3.6-23.3,10.4-45.8,21.1-66.9c26.8-53.2,66.5-93.4,120-119.5
			C352,52.8,383.8,45,417,43.3c0.8,0,1.6-0.3,2.2-0.3C428.2,43,436.9,43,445.7,43z"/>
		<path d="M495.3,145.4c0,1.1,0,2,0,2.8c0,113.4,0,226.9,0,340.3c0,1.9-0.5,2.7-2.4,3.1c-11.5,3.3-23,6.1-34.8,7.6
			c-0.3,0-0.6,0-1.1,0c0-134.5,0-269,0-403.8c1.4,0.2,2.5,0.3,3.8,0.5c29.8,5.2,57.8,15,83.3,31.7c22,14.5,40.2,32.8,55,54.5
			c10.4,15.3,19.1,31.3,25.5,48.7c6.5,17.5,9.3,35.6,9.9,54.2c0.9,28.2-3,55.7-12,82.5c-6.1,18.4-14.3,35.9-26.6,51.2
			c-3.5,4.3-7.4,8.2-11.2,12.3c-0.2-0.2-0.3-0.2-0.5-0.3c0-0.5-0.2-0.9-0.2-1.4c0-15.7-0.2-31.7-0.2-47.4c0-0.8,0.2-1.6,0.2-2.4
			c0-6-0.6-12,0.3-17.8c0.9-5.8,3.9-11.2,5.7-16.9c6-19.7,7.9-39.7,6-60.2c-2.4-26.6-9.9-51.5-23.9-74.3
			c-3.8-6.1-8.3-11.8-12.6-17.8c-0.3,0.2-0.5,0.2-0.8,0.3c0,0.8,0,1.4,0,2.2c0,86,0,171.8,0,257.8c0,2-0.6,3.3-2.2,4.7
			c-10.1,8.7-21.1,15.9-33.4,20.9c-0.8,0.3-1.6,0.6-2.7,0.9c0-1.1,0-1.9,0-2.7c0-104.7,0-209.6,0-314.3c0-2-0.6-3.3-2.2-4.6
			c-5.2-4.3-11.3-7.1-17.3-9.9C499.2,147.2,497.3,146.3,495.3,145.4z"/>
		<path d="M368,146c-22.2,9.3-41.4,22-57.6,39.4c-19.4,20.9-31.8,45.5-39.1,73.7c22.7,0.2,45.2,0.5,67.6,0.5c22.4,0.2,44.7,0,67.2,0
			c0,80,0,159.7,0,240c-2.7-0.5-5.4-0.9-7.9-1.4c-20.8-4.3-40.9-10.6-60-19.8c-33.1-16.2-59.4-40-78.4-71.7
			c-13.2-21.7-21.9-45.4-27.9-69.9c0-0.2,0-0.3,0-0.6c32.6,0,65.2,0,98,0c0,12.6,0,25.2,0,38c-14.3,0-28.8,0-43.6,0
			c17.5,36.2,45.8,59.8,81.6,76.2c0-50.7,0-101.1,0-152c-23.3-0.2-46.5-0.3-69.6-0.5c-23.1-0.2-46.5,0-69.9,0
			c0.9-50.4,16.2-95.7,49.8-134c33.9-38.9,77.5-59.8,128.2-68.2c0,42.4,0,84.1,0,126c-12.8,0-25.4,0-38.1,0
			C368,196.2,368,171.3,368,146z"/>
	</g>
</g>
</svg>
