<?xml version="1.0" encoding="utf-8"?>
<!-- Generator: Adobe Illustrator 18.1.1, SVG Export Plug-In . SVG Version: 6.00 Build 0)  -->
<svg version="1.1" id="Layer_2" xmlns="http://www.w3.org/2000/svg" xmlns:xlink="http://www.w3.org/1999/xlink" x="0px" y="0px"
	 viewBox="208.2 77.7 423.6 443.1" enable-background="new 208.2 77.7 423.6 443.1" xml:space="preserve">
<g>
	<g>
		<polygon fill="none" points="398.6,338.2 403.5,306.6 395.9,306.6 393.9,318.9 384.1,318.9 385.7,306.6 377.7,306.6 372.7,338.2 
			380.8,338.2 382.8,325.8 392.9,325.8 390.9,338.2 		"/>
		<polygon fill="none" points="417.6,331.5 408.7,331.5 412.6,306.6 405,306.6 399.8,338.2 416.2,338.2 		"/>
		<g>
			<polygon fill="none" points="435.9,306.6 415.6,306.6 414.4,313.5 421.2,313.5 418.5,331.5 418.5,331.5 417.3,338.2 417.3,338.2 
				417.3,338.2 425.6,338.2 429.4,313.5 434.9,313.5 			"/>
			<polygon fill="none" points="457.6,306.6 447,325.8 442.3,306.6 437.3,306.6 437,306.6 435.8,315 441.9,338.2 448.1,338.2 
				466.7,306.6 			"/>
		</g>
	</g>
	<g>
		<path fill="none" d="M463.1,335.9c-0.3,1.7-2,3.2-3.5,3.2c-1.7,0-2.9-1.5-2.4-3.2c0.3-1.7,2-3.2,3.5-3.2
			C462,332.7,463.4,334.4,463.1,335.9z"/>
		<path fill="none" d="M478.1,330.5c-0.8,4.2-2.7,8.6-7.6,8.6c-5,0-5.6-4.4-5-8.6c0.8-4.2,2.7-8.6,7.6-8.6
			C478.1,322,478.9,326.2,478.1,330.5z M470.2,330.5c0,0.9-0.8,4.4,0.9,4.4c1.5,0,2.1-3.5,2.1-4.4s0.8-4.4-0.9-4.4
			C470.7,326.1,470.5,329.4,470.2,330.5z"/>
		<path fill="none" d="M486,322.4l-0.3,2l0,0c1.2-1.5,2.1-2.4,4.2-2.4l-0.8,4.4c-0.3,0-0.5,0-0.8,0c-3.2,0-3.5,2-3.7,4.4l-1.2,8.2
			h-4.4l2.4-16.5L486,322.4L486,322.4z"/>
		<path fill="none" d="M492.7,340.8c0,0.9,0,2.1,1.2,2.1c2,0,2.1-3.2,2.4-4.4l0.3-2.1l0,0c-0.5,0.5-0.9,1.2-1.2,1.7
			c-0.5,0.5-1.2,0.8-2,0.8c-1.7,0-2.4-1.2-3.2-2.7c-0.5-1.7-0.5-3.7-0.3-5.6c0.5-2.9,2-8.8,5.9-8.8c1.5,0,2.4,0.9,2.7,2.1l0,0l0.3-2
			h4.4l-2.9,17.9c-0.8,4.7-3.2,6.7-7.1,6.7c-3.9,0-5.5-2.1-5-5.9L492.7,340.8L492.7,340.8z M498,330.5c0-0.9,0.8-4.4-0.9-4.4
			c-1.5,0-2.1,3.5-2.1,4.4s-0.8,4.4,0.9,4.4C497.4,334.9,497.8,331.5,498,330.5z"/>
	</g>
</g>
<g>
	<path fill="#FEFDFB" d="M445.8,184.7c-8.3-5.5-12.3-16.9-6.9-25.7c5,9,14.3,14.8,24,17.6c1.6-3.7,4-7,7.1-9.5
		c8.5,0.9,16.6,3.5,24.9,5.6c-3.1-2.1-6.3-4.1-9.6-6c8.6,1,16.3,5.5,24.3,8.7c-3.1,0.2-6.2,0.6-9.2,1.1c-3.6,0.1-7.2-0.8-10.8-0.9
		c2.7,3.5,4.4,8.3,8.7,10.2c2.7,1.5,5.3,3.1,8,4.8c-2.2,2.9-4.6,5.7-7.1,8.3c-12.3-2.4-24.7-5.6-37.3-5.3
		c-9.2-1.3-18.6-2.1-27.9-2.6c2,2,4.3,3.7,6.6,5.3c-14.8-1.2-29.7,2.3-43.1,8.2c7.2-7,17.4-9.6,26.8-12.2c-2.1-1.5-4.3-2.9-6.5-4.3
		C426.9,185.4,436.4,185,445.8,184.7z"/>
	<path fill="#FEFDFB" d="M403.7,261.5c1.7-0.1,3.3-0.2,5-0.2c0,7.4,0.1,14.8-0.1,22.2c-1.5,0-3-0.1-4.5-0.1c-2.4-4-4.7-8-7.3-11.9
		c-0.1,4.1,0,8.1-0.1,12.2c-1.7,0-3.4-0.1-5.1-0.1c0.1-7.3-0.1-14.5,0.1-21.8c1.5-0.1,3.1-0.2,4.6-0.2c2.7,3.9,5,7.9,7.3,12
		C403.8,269.5,403.7,265.5,403.7,261.5z"/>
	<path fill="#FEFDFB" d="M429.4,261.3c1.7,0,3.4,0.1,5.1,0.1c0,2.8,0,5.5,0,8.3c2.3,0.1,4.6,0.2,7,0.4c0-2.9,0-5.7,0.1-8.6
		c1.7,0,3.3,0,5,0c0.2,7.3,0.1,14.7,0.1,22c-1.7,0-3.4-0.1-5.1-0.1c0-2.7,0-5.5,0.1-8.2c-2.3-0.5-4.7-0.6-7.1-0.2c0,2.8,0,5.5,0,8.2
		c-1.7,0-3.3,0-5,0.1C429.2,276.1,429.4,268.7,429.4,261.3z"/>
	<path fill="#FEFDFB" d="M355.6,264.4c5.1-1.4,10.5-0.9,15.8-1.6c0.1,1.5,0.1,3.1,0.1,4.7c-3.6,0.3-7.1,0.7-10.6,1
		c0,1.1-0.1,2.2-0.1,3.3c3.1-0.2,6.3-0.4,9.4-0.6c0.1,1.4,0.2,2.9,0.4,4.3c-3.2,0.6-6.5,0.9-9.8,1c0,1.4,0,2.8,0,4.1
		c3.8-0.2,7.5-0.5,11.3-0.5c0,1.5,0,2.9-0.1,4.4c-5.4,0.8-10.8,0.9-16.3,1.2C355.6,278.6,355.9,271.5,355.6,264.4z"/>
	<g>
		<path fill="#FEFDFB" d="M465,284.5c4.4-6.6,2.9-21.9,12.7-21.1c2.8,7.4,5.2,15,7.8,22.4c-1.7-0.1-3.3-0.1-4.9-0.2
			c-0.6-4.8-5.5-4-9.1-4.1c-0.4,1.1-0.8,2.2-1.2,3.3C468.5,284.7,466.8,284.6,465,284.5z M473.1,276.5c1.5,0.1,3,0.2,4.5,0.3
			C476.8,270.8,473.9,270.1,473.1,276.5z"/>
	</g>
	<path fill="#FEFDFB" d="M503.5,270.4c3.5-7.8,17.3-3.9,17.1,4.5c-1.6-0.1-3.1-0.2-4.6-0.3c-7.1-12.5-12.9,12.1-1.9,9.9
		c0.4-0.9,0.8-1.9,1.2-2.8c-1.3-0.3-2.6-0.5-3.9-0.8c0-1.5,0-3,0.1-4.5c3,0.2,5.9,0.6,8.9,1.2c3.5,9.6-8.2,15.9-14.8,8.9
		C501.4,282.3,503.7,275.6,503.5,270.4z"/>
	<g>
		<path fill="#FEFDFB" d="M320.2,267.7c5.4-0.4,13.6-3.5,16,3.3c2.3,7-4.6,12.2-11.1,11.7c0.8,3.9-0.2,8-5,7
			C319.7,282.4,319.7,275,320.2,267.7z M325.2,271.8c0,2.1,0,4.1,0,6.2C332.7,279.5,333.2,268.8,325.2,271.8z"/>
	</g>
	<g>
		<path fill="#FEFDFB" d="M290.5,271.7c10.7-3.4,11.4,10.1,9.2,17c-2.5,5.8-12.3,8.5-15.9,2.5C282.9,284.4,281.5,273.8,290.5,271.7z
			 M290.4,276.6c-3.6,2.8-2.1,8.6-1.5,12.5C297.1,293.5,298.5,273.8,290.4,276.6z"/>
	</g>
	<path fill="#FEFDFB" d="M540.2,270.6c5.1,0.8,10.3,1.6,15.4,2.7c0,1.5-0.1,3-0.1,4.6c-3.4-0.4-6.8-1.1-10.2-1.6
		c0,1.1-0.1,2.2-0.1,3.4c3.1,0.6,6.2,1.1,9.3,1.8c0,1.1,0,3.2,0,4.3c-3.1-0.3-6.1-0.8-9.2-1.4c-0.1,1.4-0.1,2.8-0.1,4.2
		c3.7,0.7,7.4,1.3,11.1,2.1c0,1.4,0,2.9-0.1,4.3c-5.4-0.5-10.7-1.5-16-2.5C540.2,285.2,540.2,277.9,540.2,270.6z"/>
	<path fill="#FEFDFB" d="M575.6,277.1c1.5,0.2,3,0.5,4.5,0.8c2.6,4.5,4.8,9.2,7.3,13.7c0.1-4,0-8,0.1-12c1.6,0.4,3.3,0.8,5,1.2
		c0,7.3,0.1,14.6,0,21.9c-1.6-0.4-3.2-0.8-4.7-1.2c-2.4-4.5-4.6-9-7-13.5c-0.1,4,0,7.9-0.1,11.9c-1.7-0.2-3.3-0.5-5-0.7
		C575.4,291.8,575.5,284.4,575.6,277.1z"/>
	<path fill="#FEFDFB" d="M247.6,287c0.2-8.3,14.9-13.2,17.2-3.6c-1.5,0.6-3.1,1.1-4.7,1.5c-0.7-0.7-1.4-1.3-2-2
		c-10.9-0.9-4,22.8,1.8,9.4c1.6-0.4,3.1-0.7,4.7-1c0.3,7.2-8.7,12.7-14.9,8.9C246.1,296.9,247.9,291.3,247.6,287z"/>
	<path fill="#FEFDFB" d="M517.6,361.5c2.1-10-4.5-24,4.1-31.1c17.1,1.5,34,5.5,50.5,10.4c-9.8,3.3-19.6,6.8-29.5,9.9
		c0-4.2,0-8.4,0-12.5c-2.3-0.7-4.5-0.4-6.4,1.1c-0.7,0.4-2.1,1.2-2.8,1.6c-0.2,5.5-0.2,11,0,16.5c8.3,1.7,16.7,3.1,24.9,5.4
		c0,0.8,0.1,2.5,0.1,3.4c-4.3,0.5-8.6,1-12.9,1.5c-0.2,13.4,0.2,26.9-0.2,40.3c-0.7,0.3-2,0.9-2.6,1.2c0.1-14.3,0-28.5,0-42.8
		C534.4,364.5,526,363.1,517.6,361.5z"/>
	<path fill="#FEFDFB" d="M304.8,341.7c4.8-3.7,9.9-6.9,15-10.2c0.5,12.7,0.1,25.4,0.3,38c-4.1-0.2-8.2-0.5-12.3-0.9
		c-1.3,8.6,2.7,18.6-2.6,26.1C304.5,377.1,305.1,359.4,304.8,341.7z"/>
	<path fill="#FEFDFB" d="M369.9,332.5c1.1-0.2,2.1-0.2,3.2-0.2c3.4,0.1,6.8,0.2,10.1,0.2c0,16.7,0.1,33.5-0.1,50.2
		c-2.6,0-5.2,0.1-7.8,0.1c-0.2,3,0.4,6.8-2.8,8.4c-0.1-17.9,0-35.7,0-53.6c-1.7,0.1-3.3,0.2-5,0.4c-1.3,0.8-3.4,1.3-3.1,3.2
		c-0.4,13.7,0.1,27.4-0.2,41.1c-2.6,0-5.1,0-7.6-0.1c-0.1,4.4-0.1,8.8,0,13.2c9.8-0.7,19.6-1.4,29.3-3.1c-7.8,9.1-21.6,5.1-32.1,7.3
		c0-19.2,0-38.3,0-57.5c-0.3-4,2.9-8.5,7-8.7C363.9,333.3,366.9,333,369.9,332.5z"/>
	<path fill="#FEFDFB" d="M393.4,331.5c4,0.3,7.9,0.1,11.9,0.1c0,17.2,0.1,34.4,0,51.6c-3.1,0-6.3,0.1-9.4,0.1c0,3.1,0,6.2,0,9.4
		c10.4-0.1,20.7-0.4,31.1-0.2c0.1,1.4,0.2,2.8,0.3,4.2c-11.3,0-22.7,0-34,0.1c0-10.6,0.1-21.2,0-31.8c-0.9-7.4,5.5-12.6,8.4-18.8
		c-1.8,0.1-3.5,0.3-5.3,0.4c1.2-1.8,2.4-3.5,3.7-5.3c-2.3,0.1-4.6,0.3-6.8,0.5C393.2,338.4,393.1,334.9,393.4,331.5z"/>
	<path fill="#FEFDFB" d="M419.1,332.5c9-1.8,18.2,0.4,27.3,0.1c0.1,16.8,0.1,33.7,0,50.5c-3.1,0.1-6.1,0.2-9.2,0.2
		c0,3.1,0,6.2,0,9.3c5.8-0.1,11.6,0.1,17.4,0c-1,1.3-2,2.6-3,3.9c-5.7,0.1-11.5,0-17.2,0.1c0-15.6,0-31.2,0-46.9
		c2.7-1.6,5.4-3.2,8.2-4.9C434.9,340.6,427,336.5,419.1,332.5z"/>
	<path fill="#FEFDFB" d="M262.1,339.7c11-3.2,22.3-5.2,33.5-7.5c0.4,11.7,0,23.5,0.2,35.2c-4.8-0.3-9.6-0.7-14.4-1.3
		c-0.3,16.6-0.1,33.1-0.1,49.7c7.5-1.4,15-3,22.5-4.2c-0.2,0.5-0.6,1.6-0.8,2.2c-6.6,4.6-16.5,3.8-24.4,6.2c0-23.1,0-46.2,0-69.2
		c2.7-1.7,5.3-3.4,7.9-5.2C278.5,343.3,270.2,341.8,262.1,339.7z"/>
	<path fill="#FEFDFB" d="M454.9,346c-1.3-6.6,6.7-8.1,10.5-11.7c0.1,14.2,0.3,28.5-0.1,42.8c-1.3,6.9-9.2,6-14.4,5.7
		c0-0.4-0.1-1.1-0.1-1.5C456.9,370.4,455.1,357.9,454.9,346z"/>
	<path fill="#FEFDFB" d="M476.9,335.1c10.2,0.8,20.4,2.3,30.5,3.8c0,2.8,0,5.6,0,8.4c-3.6,0.5-7.2,1.4-10.7,2.2c0-2.4,0-4.8-0.1-7.2
		c-1.6,0.1-3.2,0.2-4.8,0.4c-0.6,0.1-2,0.3-2.6,0.4c-0.1,4-0.2,8-0.1,12c6.1,0.8,12.1,1.5,18.1,2.5c0.1,1.6,0.3,3.2,0.5,4.8
		c-5.2-0.7-10.4-1.7-15.7-2.1c-0.7-0.1-2.2-0.2-3-0.2c-0.1,7.2,0.1,14.4-0.2,21.6c-3.2,0.2-6.4,0.4-9.6,0.7c0,4.4,0,8.8,0,13.2
		c10.4,0.5,20.8,4,31.3,2c-1.4,3.9-5.7,5.5-9.6,4.9c-8.2-1-16.4-1.9-24.6-3c2-16.7-5.3-36.2,7.2-49.9c-1.8-0.1-3.6-0.2-5.3-0.3
		c1.2-1.6,2.5-3.2,3.7-4.8c-1.9-0.1-3.7-0.1-5.5-0.2C476.6,341.2,476.8,338.1,476.9,335.1z"/>
	<path fill="#FEFDFB" d="M328.6,345.6c4.6-3.6,9.5-6.9,14.2-10.4c0.9,11.9,0.4,23.9,0.4,35.8c-3.9-0.1-7.8-0.2-11.6-0.4
		c-0.3,11.8,0.2,23.6-0.3,35.4c-0.9-1.6-1.8-3.2-2.6-4.9C328.7,382.6,328.6,364.1,328.6,345.6z"/>
	<path fill="#FEFDFB" d="M413.7,372.1c3.4-1.7,6.8-3.5,10-5.4c0.2,5.5,0.2,11,0.1,16.5c-2.3,0.1-4.6,0.1-7,0.2
		c-0.2,1.3-0.5,2.6-0.7,3.9c-0.6,0.1-1.8,0.2-2.4,0.3C413.6,382.5,413.6,377.3,413.7,372.1z"/>
	<path fill="#FEFDFB" d="M496.6,374.6c3.4-0.8,6.9-1.6,10.3-2.4c0.4,2.8,0.5,5.6,0.5,8.4c-2.7,0.2-5.4,0.4-8.1,0.6
		c0,4.3,0,8.6,0,12.8c-0.7,0.2-2,0.8-2.6,1C496.7,388.3,496.7,381.4,496.6,374.6z"/>
	<path fill="#FEFDFB" d="M517.8,379.4c7.9,7.1-4,25.1,7.8,31c11.7,3.2,23.9,4.8,35.8,7.5c0,1.6,0,3.2,0,4.9
		c-11.8-2.5-23.7-5.1-35.6-7.2c-4.1-0.6-8.4-4-8.1-8.5C517.7,397.8,517.5,388.6,517.8,379.4z"/>
	<path fill="#FEFDFB" d="M315.2,394.4c0.9-1.4,1.8-2.9,2.6-4.3c3.8,5.7,7.4,11.7,11.2,17.4c5.9-0.2,11.7-1.8,16.8-4.9
		c-3.8,7.1-12.2,8.7-19.5,9.1C322.6,406,319,400.1,315.2,394.4z"/>
	<path fill="#FEFDFB" d="M414.3,447c0.8,0,2.4-0.1,3.2-0.2c0,2.9,0.1,5.7,0.1,8.6c8.3,0,16.7-0.1,25,0.1c-1.5,1.1-3.1,2.1-4.7,3.2
		c-6.8-0.2-13.6-0.1-20.4-0.1c0,3.4,0,6.8-0.1,10.1c-1.1-0.6-2.2-1.2-3.2-1.9c0-2.8,0-5.5,0-8.3c-4,0-8,0-12,0.1
		c-1.7-1-3.3-2.1-4.9-3.2c5.6-0.1,11.2-0.1,16.8-0.1C414.2,452.5,414.3,449.8,414.3,447z"/>
</g>
<g>
	<g>
		<path fill="#FDB930" d="M417,93.8c22.2-12.6,48.6-19.6,74-14.2c-5.1,5.9-10.2,12.1-13,19.5c3.6,0.6,7.2,1.9,10.8,1
			c16.7-4.1,34.8-5.6,51.4,0c-5.6,3.8-11.9,6.7-17.3,10.9c18,6.7,35.5,15,51.4,26c0,19.7,0,39.5,0,59.2c14.7-2.6,12.2-20.3,3.3-28.1
			c17.8,2.3,34.4,13.6,42.2,29.8c1.6-0.2,3.2-0.4,4.8-0.6c2,15.2-6.6,30.5-20.3,37.2c-9.8,2.8-4.7,15.2-7,22.7
			c11.5,2.4,22.8,5.6,34.2,8.6c0.2,25.7,0.1,51.4,0.1,77c-14.1,6-28.3,11.7-42.5,17.5c-0.2,25.2,0,50.5-0.1,75.8
			c0,1.5-0.2,3.5-2,3.9c-16.4,7.1-32.8,14.6-49.2,21.7c-6.6-6.7-14-12.7-22.7-16.6c-26.2,29.8-57.1,55.6-91.4,75.7
			c-1.6,1.1-3.5,1.4-5.1,0.2c-34.8-20.3-66-46.5-92.6-76.7c-8.9,4.5-17.2,10.3-24.1,17.5c-17-7.4-33.8-15.1-50.8-22.4
			c-1.2-26.3-0.1-52.7-0.5-79.1c-14.2-5.8-28.4-11.6-42.5-17.5c-0.1-25.6,0-51.3,0-76.9c12.1-3.4,24.3-6.4,36.5-9.3
			c-0.5-10.8-1.8-21.6-1.5-32.4c6.5-8.3,27.7-4.6,25-19.1c-0.1-22.6,0-45.2,0-67.8C311.8,107.5,365,95.2,417,93.8z M398.1,121.1
			c-18,6.6-36.9,12.4-52.4,24c1.8,0.3,3.5,0.6,5.3,0.9c-9.5,5.3-19.3,10.4-27.9,17.2c3.3,0.1,6.7,0.1,10,0.1
			c-9.5,4.7-18.9,10.2-26.4,17.8c2.5,0.2,5,0.4,7.5,0.6c-12.2,9.2-22.1,21.2-28.8,35.1c2-8.7,5.3-17.1,9.3-25.1
			c0.3-14,0.1-28.1,0.1-42.1c0.2-0.2,0.7-0.7,1-0.9c3,1,6.1,1.9,9.2,2.6c0.6,7.8,0,15.7,0.4,23.5c2.7-2.2,5.2-4.7,7.5-7.3
			c-0.8-0.7-1.7-1.4-2.5-2.1c7.3-6.9,15.3-13.1,23.7-18.7c-0.9-0.8-1.9-1.5-2.8-2.3c16.2-13,35.5-20.9,54.5-28.7l-1.2-0.4
			c9.7,1.1,14.2-8.5,21.3-13.2c-45,2.2-90.5,14-128.7,38.6c0.1,25.8,0,51.5,0.1,77.2c-8.3,3.1-16.7,6.1-24.9,9.5
			c-0.1,11.6,1.4,23.2,2.5,34.8c-12.6,2.8-25.1,5.7-37.6,9.2c0,18.3-0.1,36.6,0.1,54.9c131.9-35.9,273.3-35.9,405.2,0
			c0.2-18.3,0-36.6,0.1-54.9c-11.7-3.3-23.5-5.9-35.3-8.7c1.4-10.1,1.6-20.5,3-30.6c13.4-3,26.1-12.9,27.9-27.2c-2.7,1-5.5,2-8.2,3
			c6.6-17.4-10.5-30.9-25.2-35.5c4.8,5.2,10.7,12.4,7.5,19.9c-3.8,8-13,10.8-20.8,13.6c3.7,2.7,8.4,3.1,12.9,3.5
			c-6,2.8-12.5,4.2-19.1,5.2c-0.1-24.7-0.1-49.4,0-74c-15.6-10.2-32.7-18.1-50.3-23.9c-3.8,3-7.3,6.4-10.5,10.1
			c14.3,5.6,28.3,12.3,40.3,22c-3.2,0.8-6.4,1.6-9.7,2.3c-0.3,20.1-0.5,40.2,0.1,60.3c3.3,0.9,6.7,1.4,10.1,1.5v0.4
			c3.9,0.8,7.8,1.6,11.7,2.5c-10.3,0.7-20.7,0.5-31,0.9c-11.8,0.6-23.8,7.1-28.7,18.2c-0.2,5,4,8.8,6.8,12.7
			c-10.5-7.5-18.2-18.2-24.6-29.2c-17.1-4.5-36-6-52.6,1.1c-3.2,1.6-8.1,3.8-7.3,8.2c4.1,5.9,12.1,6.3,18.4,8.3
			c-13.1-0.7-28-1.6-38-11.2c28.6-23.1,68.4-18.8,102-11.5c6.9-4.8,13.1-10.5,19-16.6c6.8-6.1,5.9-16.1,6.8-24.4
			c-11.8-6.4-24.2-11.5-36.7-16.3c2.5-3.6,6.3-5.8,10.2-7.4c-2.1-4.8-5.6-8.7-9.4-12.2c6-16.5,22.1-26.1,36.3-34.9
			c-22.4-1.7-45.6,3.7-64.4,16.3c2.6-13.3,9.7-25.5,18.4-35.8C449.7,79.2,418.8,97.1,398.1,121.1z M217.7,334.7
			c14,6.4,28.6,11.5,42.6,17.9c-0.1,26.2-0.1,52.5,0,78.8c13.3,5.6,26.4,11.9,39.7,17.4c8.8-6.6,18.2-14.2,28.8-17.1
			c26.4,30.7,57.4,57.6,92.3,78.2c34.8-20.6,66-47.1,92-78.1c9.8,4.2,19,9.9,26.9,17.1c13.3-5.9,26.7-11.7,39.9-17.7
			c0.2-26.2-0.7-52.7,0.4-78.8c13.8-6.3,28.2-11.4,42-17.7C490.6,298.8,349.4,298.8,217.7,334.7z"/>
	</g>
	<path fill="#FDB930" d="M524.7,238.6c15.2-3.3,31.1-1.6,46.1,1.8c-8.5,0.2-17.1,0-25.5,1.9c-3.4,0.6-6.7,1.3-10,2
		c-0.1,3-0.1,6-0.2,9c-7.6-1.1-15.3-2.2-23-3.1C513.2,244,518.6,239.7,524.7,238.6z"/>
	<g>
		<path fill="#FDB930" d="M419.9,414.2c20.7-0.1,41.5,2,61.7,6.9c-13.5,20.4-32,36.7-49.8,53.2c-3.7,3-7.9,5.3-11.9,7.8
			c0.1-3.9,0.3-7.9,0.5-11.8c6-3.7,11.9-7.4,17.5-11.6c1.5-1.1,3.1-2.1,4.7-3.2c2.1-1.5,4.1-3.2,6.1-4.8c-9.2-2.9-18.9-3.5-28.5-3.9
			c-0.2-2.5-0.3-5-0.5-7.5c9.1-0.2,18.2,0.9,27.3,1.6c-1.2-0.7-2.4-1.4-3.6-2.1c1.3-1.6,2.7-3.1,4.1-4.7c1.4,2,2.8,4.1,4.2,6.1
			c-0.9,0.4-1.9,0.7-2.8,1.1c3.2,0.6,6.4,1.2,9.6,1.9c-3.5-3.3-6.3-7.2-8.9-11.2c2.5-2.4,5.5-4.2,8.7-5.4c-2.8-0.5-5.5-1-8.3-1.6
			c0.9,1,1.8,2,2.8,3c-1.2,1.2-2.4,2.5-3.5,3.8c-1.7-2.3-3.1-4.7-4-7.4c-7.6-0.9-15.2-1.6-22.8-1.8c-0.5,1.1-1.1,2.2-1.6,3.3
			C420.2,422,420,418.1,419.9,414.2z M446.8,424.2"/>
	</g>
	<path fill="#FDB930" d="M349.9,423.6c2.8-0.9,5.7-1.7,8.6-2.3c12.6,19.9,31.1,35.1,47.3,51.6C384.9,459.2,366.1,442.4,349.9,423.6z
		"/>
	<path fill="#FDB930" d="M430.4,438.9c-7.8,1.2-7.7-17.1-0.1-15.8C432.1,428.1,432,433.9,430.4,438.9z"/>
	<path fill="#FDB930" d="M435.4,424.2c6.2-1,8.8,5.8,11.8,9.8c-2.9,2.8-6.4,5.2-10.4,5.9C433.4,435.4,434.9,429.4,435.4,424.2z"/>
	<path fill="#FDB930" d="M419.5,430.5c0.8-1.8,1.6-3.5,2.5-5.2c0.2,4.2,0.7,8.6-0.7,12.6l-1.1,0.5
		C420,435.8,419.6,433.1,419.5,430.5z"/>
</g>
<g>
	<g>
		<path fill="#060704" d="M398.1,121.1c20.7-24,51.6-42,84.2-38.8c-8.8,10.2-15.9,22.4-18.4,35.8c18.7-12.7,41.9-18,64.4-16.3
			c-14.2,8.8-30.3,18.4-36.3,34.9c3.8,3.5,7.4,7.4,9.4,12.2c-3.9,1.7-7.8,3.8-10.2,7.4c12.5,4.8,24.9,9.9,36.7,16.3
			c-0.9,8.3,0,18.4-6.8,24.4c-5.8,6.1-12.1,11.8-19,16.6c-33.6-7.2-73.4-11.6-102,11.5c10,9.6,24.9,10.5,38,11.2
			c-6.3-2-14.3-2.4-18.4-8.3c-0.9-4.3,4.1-6.5,7.3-8.2c16.6-7.1,35.5-5.7,52.6-1.1c6.4,11,14.1,21.7,24.6,29.2
			c-2.7-3.9-6.9-7.7-6.8-12.7c4.8-11.1,16.9-17.7,28.7-18.2c10.3-0.4,20.7-0.2,31-0.9c-3.9-1-7.8-1.8-11.7-2.5v-0.4
			c0-21.2,0.2-42.4-0.1-63.6l-0.5-0.5c-12-9.7-26-16.4-40.3-22c3.2-3.7,6.7-7.1,10.5-10.1c17.7,5.8,34.8,13.6,50.3,23.9
			c-0.1,24.7-0.1,49.4,0,74c6.5-0.9,13.1-2.4,19.1-5.2c-4.4-0.4-9.1-0.8-12.9-3.5c7.8-2.8,17-5.6,20.8-13.6
			c3.2-7.5-2.7-14.6-7.5-19.9c14.7,4.6,31.8,18.1,25.2,35.5c2.7-1,5.4-2,8.2-3c-1.8,14.3-14.5,24.3-27.9,27.2
			c-1.4,10-1.6,20.4-3,30.6c11.8,2.8,23.6,5.4,35.3,8.7c0,18.3,0.1,36.6-0.1,54.9c-131.9-35.9-273.3-35.9-405.2,0
			c-0.2-18.3-0.1-36.6-0.1-54.9c12.4-3.5,25-6.3,37.6-9.2c-1.1-11.6-2.6-23.1-2.5-34.8c8.2-3.4,16.6-6.3,24.9-9.5
			c-0.1-25.8,0-51.5-0.1-77.2c38.1-24.6,83.6-36.4,128.7-38.6c-7.1,4.7-11.6,14.3-21.3,13.2c-31.5,3.8-63.9,12.9-88.9,33.3
			c-0.2,0.2-0.8,0.7-1,0.9c0.1,14,0.2,28.1-0.1,42.1c-3.9,8-7.3,16.3-9.3,25.1c6.6-13.8,16.5-25.9,28.8-35.1c-2.5-0.2-5-0.4-7.5-0.6
			c7.5-7.6,16.9-13.1,26.4-17.8c-3.3,0-6.7,0-10-0.1c8.6-6.8,18.4-11.9,27.9-17.2c-1.8-0.3-3.5-0.6-5.3-0.9
			C361.3,133.5,380.1,127.7,398.1,121.1z M396.1,145.5c-0.9-3.9-0.8-7.9-0.6-11.9c-7.3,2.9-15.2,4.5-21.8,8.9
			c5.5,1.7,11.2,3.3,16.1,6.6c-13.4-0.4-27.4,2.5-38.3,10.6c8.9,1.7,17.9,3.5,26.8,5.6c-27.2,4.2-53.6,17.4-70.5,39.5
			c6-3.8,12.3-7.3,19.1-9.7c-15.5,12.2-29.4,27.9-34.9,47.2c16.5-23.9,42.7-42.1,72.2-44.2c-9.6,4.3-18.8,11-23.6,20.7
			c15.3,21.1,44.4,25.1,68.6,22.4c-14.6-3.6-34.1-6.6-40.4-22.3c-2.5-14.8,13.8-20.7,24.8-24.8c-14.8-5.6-31-5.7-46.4-3.3
			c14.1-9.4,31.3-12.4,47.8-14.1c2.8,2.5,5.7,4.8,9,6.6c-3.9-5.1-6.1-11.5-4.7-18c3.2,6.8,10.1,11.1,17.5,12.2
			c5.3,2.1,11.1,2.3,16.7,2.5c-7.9-8.4-9-21.3-1.7-30.5c-7.1-0.2-13.9,2.2-19.5,6.6c0-22,14.6-40.2,30.8-53.5
			c4.7-2.6,9.1-5.6,13.9-7.9c-11.9,10.2-19.3,25.4-19.5,41.1c-3.6,0.8-7.2,1.9-10.5,3.5c10.1,0.9,20,3.6,29,8.6
			c9.3,6.1,23.4,7.8,32.3,0c-6.5-5.8-15-8.2-22.7-11.9c4.6-0.5,9.3-0.1,13.9,0c-5.3-3.5-11.3-6.4-17.6-7.4
			c-6.8-5.5-12.6,1.6-12.8,8.6c-6.8-19.5,10.2-36.8,21.4-51.1C437.4,91.3,408.4,114.5,396.1,145.5z M470.6,121.5c2.2,1,4.4,2,6.6,3
			c5.7-9.4,16.1-14,26-17.4C491.2,108.1,479.6,113.6,470.6,121.5z M453.9,156.1c0.8,4.9,7.8,10,11.6,5
			C461.3,160,457.5,158.3,453.9,156.1z M445.8,184.7c-9.4,0.3-18.9,0.7-28,3.2c2.1,1.4,4.3,2.9,6.5,4.3c-9.4,2.6-19.6,5.2-26.8,12.2
			c13.5-5.9,28.4-9.5,43.1-8.2c-2.3-1.7-4.6-3.4-6.6-5.3c9.3,0.4,18.6,1.3,27.9,2.6c12.6,3.3,25.5,6,38.1,9.3
			c5.8-3.9,10.5-9.8,15.7-14.8c-0.2-2-0.4-4-0.6-6c-2.1,0.6-4.1,1.2-6.1,1.9c-0.1,0.8-0.2,2.5-0.3,3.3c-3.4-0.6-6.8-1.4-10.2-1.4
			c-4.3-1.9-6-6.7-8.7-10.2c3.6,0,7.2,1,10.8,0.9c4.6,1.8,9.5,1.8,14.3,2.5c1.3-1.2,2.7-2.4,4-3.6c-14.4-6.6-29.8-10.8-45-15.1
			c3.7,2.4,7.3,5.3,11.6,6.4c3.2,1.9,6.5,3.9,9.6,6c-8.2-2.1-16.4-4.6-24.9-5.6c-3.1,2.6-5.5,5.8-7.1,9.5c-9.7-2.7-19-8.6-24-17.6
			C433.6,167.9,437.6,179.2,445.8,184.7z M524.7,238.6c-6,1.1-11.4,5.3-12.6,11.6c7.7,0.8,15.3,1.9,23,3.1c3.4,0.5,6.8,1.1,10.1,1.6
			c0.2-4.2,0.2-8.4,0.1-12.6c8.4-1.9,17-1.7,25.5-1.9C555.7,237.1,539.8,235.4,524.7,238.6z M403.7,261.5c0,4,0.1,8-0.1,12
			c-2.4-4-4.7-8.1-7.3-12c-1.5,0.1-3.1,0.2-4.6,0.2c-0.2,7.3,0,14.5-0.1,21.8c1.7,0,3.4,0.1,5.1,0.1c0.1-4.1,0-8.1,0.1-12.2
			c2.6,3.9,4.9,7.9,7.3,11.9c1.5,0,3,0.1,4.5,0.1c0.2-7.4,0.1-14.8,0.1-22.2C407,261.4,405.3,261.4,403.7,261.5z M429.4,261.3
			c0,7.4-0.2,14.7,0.1,22.1c1.6,0,3.3,0,5-0.1c0-2.8,0-5.5,0-8.2c2.3-0.4,4.7-0.3,7.1,0.2c-0.1,2.7-0.1,5.5-0.1,8.2
			c1.7,0.1,3.4,0.1,5.1,0.1c0-7.4,0.1-14.7-0.1-22c-1.7,0-3.3,0-5,0c0,2.8,0,5.7-0.1,8.6c-2.3-0.2-4.6-0.3-7-0.4c0-2.8,0-5.5,0-8.3
			C432.8,261.4,431.1,261.4,429.4,261.3z M355.6,264.4c0.2,7.1,0,14.2,0.2,21.4c5.4-0.2,10.9-0.4,16.3-1.2c0-1.5,0.1-2.9,0.1-4.4
			c-3.8,0-7.5,0.3-11.3,0.5c0-1.4,0-2.8,0-4.1c3.3-0.1,6.6-0.4,9.8-1c-0.1-1.5-0.2-2.9-0.4-4.3c-3.1,0.2-6.3,0.4-9.4,0.6
			c0-1.1,0-2.2,0.1-3.3c3.5-0.2,7.1-0.7,10.6-1c0-1.6-0.1-3.1-0.1-4.7C366.2,263.5,360.8,263,355.6,264.4z M465,284.5
			c1.7,0.1,3.5,0.2,5.2,0.2c0.4-1.1,0.8-2.2,1.2-3.3c3.6,0.1,8.5-0.6,9.1,4.1c1.6,0.1,3.3,0.2,4.9,0.2c-2.6-7.5-5-15-7.8-22.4
			C467.9,262.6,469.4,277.9,465,284.5z M503.5,270.4c0.2,5.2-2.1,11.9,2,16.1c6.7,6.9,18.4,0.6,14.8-8.9c-2.9-0.5-5.9-1-8.9-1.2
			c0,1.5-0.1,3-0.1,4.5c1.3,0.3,2.6,0.6,3.9,0.8c-0.4,0.9-0.8,1.9-1.2,2.8c-11.1,2.2-5.2-22.3,1.9-9.9c1.5,0.1,3.1,0.2,4.6,0.3
			C520.8,266.4,507,262.6,503.5,270.4z M320.2,267.7c-0.5,7.3-0.5,14.7,0,22c4.8,1,5.8-3.1,5-7c6.4,0.5,13.3-4.7,11.1-11.7
			C333.7,264.2,325.5,267.3,320.2,267.7z M290.5,271.7c-8.9,2.1-7.6,12.6-6.7,19.5c3.7,6,13.4,3.2,15.9-2.5
			C301.9,281.8,301.1,268.3,290.5,271.7z M540.2,270.6c0,7.3,0,14.6,0,21.9c5.3,0.9,10.6,2,16,2.5c0-1.4,0-2.9,0.1-4.3
			c-3.7-0.8-7.4-1.4-11.1-2.1c0-1.4,0.1-2.8,0.1-4.2c3,0.6,6.1,1.1,9.2,1.4c0-1.1,0-3.2,0-4.3c-3.1-0.7-6.2-1.2-9.3-1.8
			c0-1.1,0.1-2.2,0.1-3.4c3.4,0.5,6.8,1.2,10.2,1.6c0-1.5,0.1-3,0.1-4.6C550.5,272.2,545.4,271.5,540.2,270.6z M575.6,277.1
			c-0.2,7.4-0.2,14.7,0,22.1c1.6,0.2,3.3,0.5,5,0.7c0-4,0-7.9,0.1-11.9c2.4,4.5,4.7,9,7,13.5c1.6,0.4,3.1,0.8,4.7,1.2
			c0.1-7.3,0.1-14.6,0-21.9c-1.6-0.4-3.3-0.8-5-1.2c-0.1,4,0,8-0.1,12c-2.5-4.5-4.7-9.2-7.3-13.7
			C578.6,277.6,577.1,277.3,575.6,277.1z M247.6,287c0.3,4.4-1.5,9.9,2.1,13.3c6.1,3.8,15.2-1.7,14.9-8.9c-1.6,0.3-3.1,0.6-4.7,1
			c-5.8,13.4-12.7-10.2-1.8-9.4c0.7,0.7,1.3,1.3,2,2c1.6-0.4,3.2-0.9,4.7-1.5C262.6,273.8,247.8,278.7,247.6,287z"/>
	</g>
	<path fill="#060704" d="M473.1,276.5c0.8-6.4,3.8-5.8,4.5,0.3C476,276.7,474.5,276.6,473.1,276.5z"/>
	<path fill="#060704" d="M325.2,271.8c8.1-2.9,7.5,7.7,0,6.2C325.2,275.9,325.2,273.8,325.2,271.8z"/>
	<path fill="#060704" d="M290.4,276.6c8-2.8,6.6,16.9-1.5,12.5C288.3,285.2,286.8,279.4,290.4,276.6z"/>
	<g>
		<path fill="#060704" d="M217.7,334.7c131.7-35.9,273-35.9,404.7,0c-13.8,6.3-28.2,11.4-42,17.7c-1.1,26.1-0.2,52.6-0.4,78.8
			c-13.2,6-26.6,11.9-39.9,17.7c-7.9-7.1-17.1-12.9-26.9-17.1c-26,30.9-57.2,57.5-92,78.1c-34.9-20.6-65.9-47.5-92.3-78.2
			c-10.6,2.9-20,10.5-28.8,17.1c-13.3-5.5-26.4-11.8-39.7-17.4c-0.2-26.2-0.1-52.5,0-78.8C246.3,346.1,231.7,341,217.7,334.7z
			 M521.8,330.4c-8.6,7.1-2,21.1-4.1,31.1c8.4,1.6,16.8,3,25.1,4.7c0,14.3,0.1,28.6,0,42.8c-0.9,0.4-1.8,0.8-2.6,1.2
			c-1.2-0.3-2.5-0.6-3.7-0.8c-0.1-10.8,0-21.6,0-32.4c-6.2,0.5-12.3,2.1-18.5,2.4c-0.3,9.2-0.1,18.4-0.1,27.6
			c-0.2,4.5,4,7.8,8.1,8.5c11.9,2.2,23.7,4.8,35.6,7.2c0-1.6,0-3.2,0-4.9c0-19,0.1-37.9-0.1-56.9c-8.3-1.9-16.6-3.6-24.9-5.3
			c0-5.5,0.1-11-0.1-16.5c1.9-1.4,4.2-1.7,6.4-1.1c0,4.2,0,8.4,0,12.5c9.9-3.2,19.7-6.6,29.5-9.9l0.3,0.1c1.6-0.6,3.1-1.3,4.7-2
			c-15-3.5-30-6.7-45.2-9.6C528.6,328.5,525,328.9,521.8,330.4z M256.3,338.4c1.9,0.5,3.8,1.2,5.8,1.3c8.1,2,16.4,3.5,24.5,5.9
			c-2.6,1.8-5.3,3.5-7.9,5.2c0,23.1,0,46.2,0,69.2c7.9-2.4,17.8-1.6,24.4-6.2c4.1-6.5,8.2-12.9,12.1-19.4
			c3.8,5.7,7.4,11.5,11.1,17.3c7.3-0.4,15.8-2,19.5-9.1l0.3-0.2c0.2-23.2,0.1-46.5,0.1-69.7c-1.2,0.8-2.3,1.6-3.5,2.3
			c-4.7,3.5-9.5,6.8-14.2,10.4c0.1,18.5,0.1,37,0,55.5c-2.1-4.2-5.7-8.1-5.7-13c0-19.5,0-38.9,0-58.4c-1,0.5-2.1,1.1-3.1,1.6l0,0.3
			c-5,3.3-10.1,6.5-15,10.2c0.3,17.7-0.3,35.4,0.3,53c-2.1,2.9-4,5.9-6.2,8.7c-0.2-24.8-0.1-49.5,0-74.3
			C284.6,331.8,270.3,334.7,256.3,338.4z M392.6,330.5c0.2,0.2,0.6,0.7,0.8,1c-0.3,3.4-0.2,6.8-0.2,10.2c2.3-0.2,4.5-0.3,6.8-0.5
			c-1.2,1.8-2.5,3.5-3.7,5.3c1.8-0.1,3.5-0.3,5.3-0.4c-2.9,6.2-9.3,11.4-8.4,18.8c0.1,10.6,0,21.2,0,31.8c11.3-0.2,22.7-0.2,34-0.1
			c-0.1-1.4-0.2-2.8-0.3-4.2c0.4-9.1,0.2-18.2,0.2-27.3c-1.2,0.5-2.3,1-3.4,1.5c-3.2,2-6.6,3.7-10,5.4c0,5.1-0.1,10.3,0,15.5
			c-1.8,0.1-3.6,0.1-5.4,0.1c0-19.2,0-38.4,0-57.6C403.1,330.3,397.8,330.3,392.6,330.5z M414.8,330.2c1.3,0.8,2.7,1.5,4,2.3
			l0.3-0.1c7.9,4,15.8,8.1,23.5,12.5c-2.7,1.6-5.5,3.3-8.2,4.9c-0.1,15.6,0,31.2,0,46.9c5.7-0.1,11.5,0,17.2-0.1c1-1.3,2-2.6,3-3.9
			c4.6-5.6,9.8-10.8,13.8-16.8c0.2-14.6,0.2-29.2,0-43.7c-1.1,0.7-2.1,1.4-3.1,2.1c-3.8,3.6-11.8,5.1-10.5,11.7
			c0.2,11.9,2.1,24.4-4.1,35.2c-0.5,0.6-1,1.2-1.4,1.8c0.3-17.4,0.1-34.7,0.1-52.1C437.9,330.6,426.3,330.2,414.8,330.2z
			 M373.1,332.3c-1.1,0-2.1,0.1-3.2,0.2c-3-1.1-6.4-0.9-9.1,0.8c-4.1,0.2-7.3,4.7-7,8.7c0,19.2,0,38.3,0,57.5
			c10.5-2.2,24.3,1.8,32.1-7.3l0.3,0c0.1-20.5,0.1-41,0.1-61.5C381.9,331,377.3,330.6,373.1,332.3z M476.3,333.3c0,3.7,0,7.3,0.2,11
			c1.8,0.1,3.7,0.1,5.5,0.2c-1.3,1.6-2.5,3.2-3.7,4.8c1.8,0.1,3.5,0.2,5.3,0.3c-12.5,13.7-5.2,33.2-7.2,49.9
			c8.2,1.1,16.4,1.9,24.6,3c3.9,0.6,8.2-1,9.6-4.9c-0.5-8.7-0.1-17.4-0.3-26.1c-1.2,0.3-2.3,0.5-3.5,0.8c-3.4,0.8-6.9,1.5-10.3,2.4
			c0,6.9,0,13.7,0,20.6c-1.4,0.5-3,0.8-4.5,1.2c-0.1-12,0.1-24.1-0.1-36.1c5.3,0.4,10.5,1.4,15.7,2.1c0.7,0.2,2,0.5,2.7,0.7
			c0-2.4,0-4.8,0-7.1c-6.1-0.8-12.1-1.7-18.2-2.5c0-3.6-0.1-7.1-0.4-10.7c1.6-0.2,3.2-0.3,4.8-0.4c0.1,2.4,0.1,4.8,0.1,7.2
			c3.6-0.8,7.1-1.7,10.7-2.2c5.1-0.3,2.4-6.5,3.1-9.8C499.2,335.5,487.8,334,476.3,333.3z M358.5,421.2c-2.9,0.6-5.8,1.4-8.6,2.3
			c16.3,18.8,35.1,35.6,55.9,49.3c4.1,3.8,9.4,6.3,14.2,9.2c4.1-2.5,8.3-4.7,11.9-7.8c21.9-13.7,41.5-31.3,58.4-50.9
			c-2.9-0.9-5.7-1.6-8.6-2.4c-20.2-4.9-41-7-61.7-6.9C399.3,414.1,378.5,416.1,358.5,421.2z"/>
	</g>
	<path fill="#060704" d="M367.6,337.9c1.7-0.1,3.3-0.3,5-0.4c0.1,17.9,0,35.7,0,53.6c-1.7,0.7-3.5,1.3-5.2,1.9
		C367.3,374.7,367,356.3,367.6,337.9z"/>
	<g>
		<path fill="#060704" d="M422.6,422.5c7.6,0.1,15.2,0.9,22.8,1.8c0.9,2.7,2.4,5.1,4,7.4c1.2-1.3,2.4-2.5,3.5-3.8
			c-0.9-1-1.8-2-2.8-3c2.8,0.6,5.5,1.1,8.3,1.6c-3.2,1.2-6.2,3-8.7,5.4c2.6,4,5.4,8,8.9,11.2c-3.2-0.7-6.4-1.3-9.6-1.9
			c0.9-0.4,1.8-0.7,2.8-1.1c-1.4-2-2.8-4.1-4.2-6.1c-1.4,1.5-2.8,3.1-4.1,4.7c1.2,0.7,2.4,1.4,3.6,2.1c-9.1-0.7-18.2-1.8-27.3-1.6
			c-0.4,0-0.9,0-1.3,0c0.5-0.2,1.3-0.6,1.8-0.8l1.1-0.5c1.4-4.1,0.9-8.4,0.7-12.6c-0.9,1.7-1.8,3.4-2.5,5.2c-1.4,3-2.9,6-4.4,9
			c-3.1-5.4-4.5-12.5-10-16c-4.7,2.6-3.9,12.5-1,15.7c1.6-0.5,2.7-1.7,4-2.7c1.1,0.9,2.2,1.9,3.4,2.8c-3.4,0.2-6.9,0.5-10.3,0.8
			c-0.7,0.1-2,0.2-2.6,0.2c0.5-4.7,0.6-9.5-0.1-14.2c0.4-0.8,0.7-1.6,1.1-2.4c3.7-0.1,7.5-1.1,11.2-0.5c2.5,3.6,3.9,7.8,6.1,11.6
			c1.4-3,2.8-6,4.2-9C421.5,424.7,422,423.6,422.6,422.5z M430.4,438.9c1.6-5,1.6-10.8-0.1-15.8
			C422.7,421.8,422.7,440.1,430.4,438.9z M435.4,424.2c-0.5,5.2-2,11.2,1.3,15.7c4.1-0.7,7.5-3.1,10.4-5.9
			C444.1,430,441.5,423.2,435.4,424.2z"/>
	</g>
	<path fill="#060704" d="M381,426.7c2.1-0.5,4.3-0.9,6.4-1.4c2,3.6,3.9,7.3,5.9,10.9l0.5,1c-3.1,8.5-5.8-5.6-8.8-8.2
		c0,4.4-1.9,10.1,2.6,13c-1.8,0.3-3.7,0.7-5.5,1.1c3.5-4.3,2-10.2,2.2-15.3C383.3,427.5,382.2,427.1,381,426.7z"/>
</g>
<g>
	<path fill="#929397" d="M396.1,145.5c12.3-31,41.3-54.2,74.3-59.3c-11.1,14.3-28.1,31.5-21.4,51.1c0.2-7,6-14,12.8-8.6
		c2.1,1.5,4.1,3.1,6.1,4.7c-4.1,0.2-8.2,0.5-12.3,1.2c7.9,3.9,16.6,6.9,22.9,13.4c-7.3,2.9-15.3,1.7-22.7,0
		c-8.9-4.9-18.8-7.7-29-8.6c3.3-1.7,6.9-2.7,10.5-3.5c0.2-15.7,7.6-30.9,19.5-41.1c-4.8,2.3-9.2,5.4-13.9,7.9
		c-19.5,10.2-36.9,27.5-42.3,49.3c2.1-1.3,4.1-2.7,6.2-4.1c-0.9,6.8-1.3,13.6,0,20.4c3.3-3.3,6.7-6.4,10.6-8.9
		c0,6.3,2.1,12.3,6.4,17.1c-2.4,0.4-4.8,0.7-7.2,1c-7.3-1.1-14.2-5.3-17.5-12.2c-1.4,6.4,0.8,12.9,4.7,18c-3.3-1.8-6.2-4.1-9-6.6
		c-16.5,1.7-33.7,4.8-47.8,14.1c15.4-2.4,31.6-2.3,46.4,3.3c-11,4.1-27.3,10-24.8,24.8c6.3,15.7,25.8,18.7,40.4,22.3
		c-24.2,2.7-53.2-1.3-68.6-22.4c4.8-9.7,13.9-16.4,23.6-20.7c-29.4,2.1-55.7,20.3-72.2,44.2c5.5-19.3,19.4-35,34.9-47.2
		c-6.8,2.4-13,5.8-19.1,9.7c16.9-22.1,43.3-35.4,70.5-39.5c-8.9-2.1-17.8-3.9-26.8-5.6c10.9-8.1,24.9-11.1,38.3-10.6
		c-4.9-3.3-10.5-4.9-16.1-6.6c6.6-4.4,14.5-6,21.8-8.9C395.3,137.5,395.1,141.6,396.1,145.5z"/>
	<path fill="#929397" d="M473.7,160.2c15.2,4.3,30.6,8.4,45,15.1c-1.3,1.2-2.7,2.4-4,3.6c-4.8-0.7-9.7-0.7-14.3-2.5
		c3.1-0.4,6.1-0.8,9.2-1.1c-8-3.2-15.7-7.7-24.3-8.7C481,165.4,477.4,162.5,473.7,160.2z"/>
	<path fill="#929397" d="M508.9,183.8c2-0.7,4.1-1.3,6.1-1.9c0.2,2,0.4,4,0.6,6c-5.2,4.9-9.9,10.8-15.7,14.8
		c-12.6-3.3-25.5-6-38.1-9.3c12.6-0.2,25,2.9,37.3,5.3c2.5-2.6,4.9-5.4,7.1-8.3c-2.6-1.6-5.3-3.2-8-4.8c3.5,0,6.8,0.8,10.2,1.4
		C508.6,186.3,508.8,184.6,508.9,183.8z"/>
	<path fill="#929397" d="M521.8,330.4c3.2-1.6,6.8-1.9,10.3-1.1c15.1,2.9,30.2,6.1,45.2,9.6c-1.6,0.7-3.1,1.3-4.7,2l-0.3-0.1
		C555.8,336,538.9,332,521.8,330.4z"/>
	<path fill="#929397" d="M256.3,338.4c14-3.8,28.3-6.7,42.6-9.2c-0.1,24.8-0.2,49.5,0,74.3c2.1-2.9,4.1-5.8,6.2-8.7
		c5.3-7.5,1.3-17.5,2.6-26.1c4.1,0.4,8.2,0.7,12.3,0.9c-0.2-12.7,0.2-25.3-0.3-38l0-0.3c1-0.6,2.1-1.1,3.1-1.6c0,19.5,0,38.9,0,58.4
		c0,5,3.6,8.8,5.7,13c0.8,1.6,1.7,3.2,2.6,4.9c0.5-11.8,0-23.6,0.3-35.4c3.9,0.2,7.8,0.4,11.6,0.4c0-11.9,0.6-23.9-0.4-35.8
		c1.1-0.8,2.3-1.6,3.5-2.3c0.1,23.2,0.1,46.5-0.1,69.7l-0.3,0.2c-5.1,3.1-10.9,4.7-16.8,4.9c-3.8-5.8-7.3-11.7-11.2-17.4
		c-0.9,1.4-1.8,2.8-2.6,4.3c-4,6.5-8.1,13-12.1,19.4c0.2-0.5,0.6-1.6,0.8-2.2c-7.5,1.2-15,2.9-22.5,4.2c0-16.6-0.2-33.1,0.1-49.7
		c4.8,0.5,9.6,1,14.4,1.3c-0.2-11.7,0.2-23.5-0.2-35.2c-11.2,2.3-22.5,4.3-33.5,7.5C260.1,339.7,258.2,338.9,256.3,338.4z"/>
	<path fill="#929397" d="M392.6,330.5c5.2-0.3,10.5-0.2,15.7-0.3c0.1,19.2,0,38.4,0,57.6c1.8,0,3.6,0,5.4-0.1
		c0.6-0.1,1.8-0.2,2.4-0.3c0.2-1.3,0.5-2.6,0.7-3.9c2.3-0.1,4.6-0.1,7-0.2c0-5.5,0-11-0.1-16.5c1.1-0.5,2.3-1,3.4-1.5
		c0,9.1,0.3,18.2-0.2,27.3c-10.4-0.2-20.7,0.1-31.1,0.2c0-3.1,0-6.2,0-9.4c3.1,0,6.3-0.1,9.4-0.1c0.1-17.2,0.1-34.4,0-51.6
		c-4,0-8,0.2-11.9-0.1C393.2,331.3,392.8,330.8,392.6,330.5z"/>
	<path fill="#929397" d="M414.8,330.2c11.5,0,23.1,0.4,34.6,0.7c0,17.4,0.2,34.7-0.1,52.1c0.5-0.6,0.9-1.2,1.4-1.8
		c0,0.4,0.1,1.1,0.1,1.5c5.3,0.3,13.2,1.2,14.4-5.7c0.4-14.2,0.1-28.5,0.1-42.8c1-0.7,2.1-1.4,3.1-2.1c0.2,14.6,0.2,29.2,0,43.7
		c-4,6-9.2,11.2-13.8,16.8c-5.8,0.1-11.6,0-17.4,0c0-3.1,0-6.2,0-9.3c3-0.1,6.1-0.1,9.2-0.2c0.1-16.8,0.1-33.7,0-50.5
		c-9.1,0.2-18.3-1.9-27.3-0.1l-0.3,0.1C417.5,331.7,416.1,331,414.8,330.2z"/>
	<path fill="#929397" d="M373.1,332.3c4.2-1.6,8.7-1.2,13.1-1.6c0,20.5,0.1,41-0.1,61.5l-0.3,0c-9.7,1.8-19.5,2.4-29.3,3.1
		c-0.1-4.4-0.1-8.8,0-13.2c2.5,0,5.1,0.1,7.6,0.1c0.2-13.7-0.2-27.4,0.2-41.1c-0.2-1.9,1.9-2.4,3.1-3.2c-0.5,18.4-0.3,36.8-0.1,55.2
		c1.7-0.6,3.5-1.2,5.2-1.9c3.2-1.7,2.6-5.4,2.8-8.4c2.6,0,5.2-0.1,7.8-0.1c0.2-16.7,0.1-33.5,0.1-50.2
		C379.9,332.4,376.5,332.4,373.1,332.3z"/>
	<path fill="#929397" d="M360.8,333.3c2.7-1.7,6.1-1.9,9.1-0.8C366.9,333,363.9,333.3,360.8,333.3z"/>
	<path fill="#929397" d="M476.3,333.3c11.5,0.7,22.9,2.2,34.2,4.2c-0.7,3.3,2,9.6-3.1,9.8c0-2.8,0-5.6,0-8.4
		c-10.1-1.5-20.3-3-30.5-3.8c-0.1,3.1-0.3,6.1-0.4,9.2C476.4,340.6,476.3,336.9,476.3,333.3z"/>
	<path fill="#929397" d="M533.4,340.8c0.7-0.4,2.1-1.2,2.8-1.6c0.2,5.5,0.1,11,0.1,16.5c8.3,1.7,16.6,3.4,24.9,5.3
		c0.1,19,0,37.9,0.1,56.9c-11.9-2.6-24-4.3-35.8-7.5c-11.8-5.9,0.1-23.9-7.8-31c6.2-0.3,12.3-1.9,18.5-2.4c0.1,10.8,0,21.6,0,32.4
		c1.2,0.3,2.4,0.6,3.7,0.8c0.9-0.4,1.8-0.8,2.6-1.2c0.7-0.3,2-0.9,2.6-1.2c0.4-13.4,0-26.9,0.2-40.3c4.3-0.5,8.6-1,12.9-1.5
		c0-0.8-0.1-2.5-0.1-3.4c-8.2-2.3-16.6-3.8-24.9-5.4C533.2,351.8,533.2,346.3,533.4,340.8z"/>
	<path fill="#929397" d="M489.2,343c0.6-0.1,2-0.3,2.6-0.4c0.3,3.5,0.4,7.1,0.4,10.7c6.1,0.8,12.1,1.7,18.2,2.5c0,2.4,0,4.7,0,7.1
		c-0.7-0.2-2-0.5-2.7-0.7c-0.2-1.6-0.4-3.2-0.5-4.8c-6-1-12.1-1.8-18.1-2.5C489,351,489.1,347,489.2,343z"/>
	<path fill="#929397" d="M489.1,360c0.7,0.1,2.2,0.2,3,0.2c0.2,12,0,24.1,0.1,36.1c1.5-0.4,3-0.6,4.5-1.2c0.7-0.2,2-0.8,2.6-1
		c0-4.3,0-8.6,0-12.8c2.7-0.2,5.4-0.4,8.1-0.6c0-2.8-0.1-5.6-0.5-8.4c1.1-0.3,2.3-0.6,3.5-0.8c0.2,8.7-0.2,17.4,0.3,26.1
		c-10.4,1.9-20.8-1.5-31.3-2c0-4.4,0-8.8,0-13.2c3.2-0.3,6.4-0.5,9.6-0.7C489.2,374.4,489,367.2,489.1,360z"/>
</g>
<g>
	<path fill="#57585A" d="M400.8,152.1c5.4-21.9,22.8-39.2,42.3-49.3c-16.2,13.3-30.8,31.5-30.8,53.5c5.5-4.4,12.4-6.8,19.5-6.6
		c-7.3,9.1-6.2,22.1,1.7,30.5c-5.6-0.2-11.4-0.5-16.7-2.5c2.4-0.3,4.8-0.6,7.2-1c-4.2-4.7-6.3-10.7-6.4-17.1
		c-3.9,2.5-7.4,5.6-10.6,8.9c-1.3-6.7-0.9-13.6,0-20.4C404.9,149.4,402.8,150.7,400.8,152.1z"/>
	<path fill="#57585A" d="M470.6,121.5c9-7.9,20.6-13.5,32.6-14.4c-10,3.4-20.4,8-26,17.4C475,123.6,472.8,122.6,470.6,121.5z"/>
	<path fill="#57585A" d="M461.8,128.7c6.4,1,12.3,3.9,17.6,7.4c-4.6-0.1-9.3-0.6-13.9,0c7.7,3.7,16.2,6.1,22.7,11.9
		c-8.9,7.8-23,6.1-32.3,0c7.4,1.7,15.4,2.9,22.7,0c-6.4-6.4-15-9.4-22.9-13.4c4.1-0.7,8.2-1.1,12.3-1.2
		C465.9,131.8,463.9,130.2,461.8,128.7z"/>
	<path fill="#57585A" d="M393.4,436.3c1.5-3.4,3.4-6.7,5-10.1c0.8,4.7,0.6,9.5,0.1,14.2c0.7-0.1,2-0.2,2.6-0.2c-2,0.2-4,0.6-6,0.9
		c1.1-1,2.3-1.9,3.2-3.1c0.5-3,0.1-6.1,0-9.1c-1.6,2.8-3.2,5.6-4.5,8.5L393.4,436.3z"/>
</g>
<g>
	<path fill="#CA8C2A" d="M295.7,148.8c24.9-20.4,57.4-29.5,88.9-33.3l1.2,0.4c-19,7.8-38.4,15.7-54.5,28.7c0.9,0.8,1.8,1.5,2.8,2.3
		c-8.4,5.5-16.4,11.8-23.7,18.7c0.8,0.7,1.7,1.4,2.5,2.1c-2.3,2.6-4.8,5-7.5,7.3c-0.4-7.8,0.2-15.7-0.4-23.5
		C301.8,150.7,298.7,149.9,295.7,148.8z"/>
	<path fill="#CA8C2A" d="M544.8,149.1l0.5,0.5c0.2,21.2,0,42.4,0.1,63.6c-3.4-0.1-6.8-0.6-10.1-1.5c-0.6-20.1-0.4-40.2-0.1-60.3
		C538.3,150.6,541.5,149.9,544.8,149.1z"/>
	<path fill="#CA8C2A" d="M453.9,156.1c3.6,2.2,7.5,3.9,11.6,5C461.7,166.1,454.6,161,453.9,156.1z"/>
	<path fill="#CA8C2A" d="M535.2,244.3c3.3-0.7,6.7-1.4,10-2c0.1,4.2,0.1,8.4-0.1,12.6c-3.4-0.5-6.8-1-10.1-1.6
		C535.1,250.3,535.2,247.3,535.2,244.3z"/>
	<path fill="#CA8C2A" d="M358.5,421.2c20-5.1,40.8-7.1,61.4-7c0.1,3.9,0.3,7.8,1.1,11.7c-1.4,3-2.8,6-4.2,9c-2.2-3.8-3.6-8-6.1-11.6
		c-3.7-0.6-7.5,0.3-11.2,0.5c-0.4,0.8-0.7,1.6-1.1,2.4c-1.6,3.4-3.4,6.7-5,10.1c-2-3.6-3.9-7.3-5.9-10.9c-2.1,0.5-4.3,0.9-6.4,1.4
		c1.1,0.4,2.2,0.7,3.4,1.1c-0.2,5.1,1.2,10.9-2.2,15.3c1.8-0.4,3.7-0.8,5.5-1.1c-4.5-2.9-2.6-8.6-2.6-13c3,2.5,5.7,16.7,8.8,8.2
		c1.3-2.9,2.8-5.8,4.5-8.5c0.1,3,0.5,6.1,0,9.1c-0.9,1.2-2.1,2.1-3.2,3.1c2-0.3,4-0.6,6-0.9c3.4-0.4,6.9-0.6,10.3-0.8
		c-1.1-0.9-2.3-1.9-3.4-2.8c-1.3,1-2.4,2.2-4,2.7c-2.9-3.3-3.7-13.2,1-15.7c5.5,3.5,6.9,10.6,10,16c1.5-3,3-6,4.4-9
		c0.2,2.7,0.5,5.3,0.7,8c-0.4,0.2-1.3,0.6-1.8,0.8c0.4,0,0.9,0,1.3,0c0.2,2.5,0.3,5,0.5,7.5c-0.7,0-2,0-2.7,0
		c-0.8,0-2.4,0.1-3.2,0.2c-7.6,0.6-15.3,1.4-22.7,3.5c1.8,1.8,3.7,3.5,5.8,5c1.6,1.1,3.2,2.2,4.9,3.2c3.9,2.9,7.8,5.7,12,8.2
		c1.1,0.6,2.1,1.2,3.2,1.9c1,0.5,2,1.1,3,1.6c-0.2,3.9-0.4,7.9-0.5,11.8c-4.8-2.9-10.1-5.4-14.2-9.2
		C389.5,456.3,371.1,441.1,358.5,421.2z"/>
	<path fill="#CA8C2A" d="M481.6,421.1c2.9,0.7,5.8,1.5,8.6,2.4c-16.8,19.6-36.4,37.2-58.4,50.9C449.6,457.7,468.1,441.5,481.6,421.1
		z"/>
	<path fill="#CA8C2A" d="M446.8,424.2"/>
</g>
<g>
	<path fill="#C71F35" d="M391.6,450.5c7.4-2.1,15-2.9,22.7-3.5c0,2.8,0,5.6-0.1,8.4c-5.6,0-11.2,0-16.8,0.1
		C395.3,453.9,393.4,452.2,391.6,450.5z"/>
	<path fill="#C71F35" d="M417.5,446.8c0.7,0,2,0,2.7,0c9.6,0.4,19.3,1,28.5,3.9c-2,1.7-4,3.3-6.1,4.8c-8.4-0.1-16.7-0.1-25-0.1
		C417.5,452.5,417.5,449.6,417.5,446.8z"/>
	<path fill="#C71F35" d="M402.2,458.6c4-0.1,8-0.1,12-0.1c0,2.8,0,5.5,0,8.3C410,464.4,406.1,461.5,402.2,458.6z"/>
	<path fill="#C71F35" d="M417.5,468.7c0-3.4,0-6.8,0.1-10.1c6.8,0,13.6-0.1,20.4,0.1c-5.6,4.2-11.6,7.9-17.5,11.6
		C419.4,469.7,418.4,469.2,417.5,468.7z"/>
</g>
</svg>
