<?xml version="1.0" encoding="utf-8"?>
<!-- Generator: Adobe Illustrator 18.1.1, SVG Export Plug-In . SVG Version: 6.00 Build 0)  -->
<svg version="1.1" id="Layer_2" xmlns="http://www.w3.org/2000/svg" xmlns:xlink="http://www.w3.org/1999/xlink" x="0px" y="0px"
	 viewBox="404.3 165.1 88 78.7" enable-background="new 404.3 165.1 88 78.7" xml:space="preserve">
<g>
	<g>
		<polygon fill="none" points="414.3,202.3 422.9,197.1 421.3,195.3 418,197.3 416,194.9 419.3,192.9 417.6,191 409,196.1 
			410.7,198.1 414.1,196 416.1,198.4 412.8,200.5 		"/>
		<polygon fill="none" points="419.7,205.4 417.9,203.4 424.7,199.3 423.2,197.5 414.5,202.7 417.9,206.5 		"/>
		<g>
			<polygon fill="none" points="429.4,204.9 425.2,200.1 423.4,201.2 424.8,202.8 419.9,205.7 419.9,205.7 418.1,206.8 418.1,206.8 
				418.1,206.8 419.7,208.8 426.4,204.8 427.5,206 			"/>
			<polygon fill="none" points="433.8,210.1 427,211.4 430.7,206.5 429.7,205.2 429.6,205.2 427.3,206.5 423,212.7 424.3,214.2 
				435.5,212.3 			"/>
		</g>
	</g>
	<g>
		<path fill="none" d="M427.8,217.3c-0.4,0.2-1.1,0.2-1.5-0.2c-0.4-0.4-0.2-0.9,0.2-1.3c0.4-0.2,1.1-0.2,1.5,0.2
			C428.5,216.4,428.3,217,427.8,217.3z"/>
		<path fill="none" d="M432.2,219.8c-1.1,0.7-2.6,1.1-3.5-0.1c-1-1.2-0.1-2.2,1.1-2.9c1.1-0.7,2.6-1.1,3.6,0.1
			C434.2,218.1,433.3,219.2,432.2,219.8z M430.6,218c-0.3,0.1-1.2,0.7-0.9,1.1s1.3-0.2,1.6-0.3c0.2-0.1,1.2-0.7,0.9-1.1
			C431.8,217.2,430.9,217.8,430.6,218z"/>
		<path fill="none" d="M435.7,220l-0.6,0.3l0,0c0.6,0,1,0.1,1.5,0.5l-1.2,0.7c-0.1-0.1-0.1-0.1-0.1-0.1c-0.6-0.7-1.2-0.4-1.9,0
			l-2.2,1.4l-0.9-1.1l4.5-2.7L435.7,220z"/>
		<path fill="none" d="M432.6,225.4c-0.3,0.2-0.6,0.5-0.3,0.8c0.4,0.5,1.2-0.1,1.6-0.3l0.6-0.3l0,0c-0.2,0-0.4,0.1-0.7,0
			c-0.2,0-0.4-0.1-0.6-0.3c-0.4-0.4-0.2-0.9,0-1.3c0.2-0.4,0.8-0.9,1.3-1.2c0.8-0.4,2.5-1.3,3.3-0.4c0.3,0.4,0.2,0.8,0,1.1l0,0
			l0.6-0.3l0.9,1.1l-4.9,2.9c-1.3,0.8-2.3,0.6-3-0.4c-0.8-1-0.5-1.7,0.4-2.4L432.6,225.4L432.6,225.4z M436.2,224.6
			c0.2-0.1,1.2-0.7,0.9-1.1c-0.3-0.4-1.3,0.2-1.6,0.3c-0.3,0.2-1.2,0.7-0.8,1.1C434.9,225.3,436,224.7,436.2,224.6z"/>
	</g>
</g>
<path fill="#242529" d="M404.3,180.6l3.2-1.5l16.5-3.5c0,0,4.3,7.7,11.8,7.7l13.2,47l-23.7,12.2l-3.3,1.3L404.3,180.6z"/>
<polygon fill="#242529" points="445,197.4 456,170.1 479.9,165.1 467,200.3 492.3,209.2 466.2,222.5 450.8,218.2 "/>
</svg>
