<?xml version="1.0" encoding="utf-8"?>
<!-- Generator: Adobe Illustrator 18.1.1, SVG Export Plug-In . SVG Version: 6.00 Build 0)  -->
<svg version="1.1" id="Layer_2" xmlns="http://www.w3.org/2000/svg" xmlns:xlink="http://www.w3.org/1999/xlink" x="0px" y="0px"
	 viewBox="156.4 31.1 505.5 505.9" enable-background="new 156.4 31.1 505.5 505.9" xml:space="preserve">
<g>
	<g>
		<polygon fill="none" points="430.4,473.8 408.2,455.4 404.7,461.4 413.3,468.4 408.6,476.3 400.1,469.2 396.3,475.5 418.5,493.9 
			422.3,487.5 413.5,480.2 418.1,472.4 426.9,479.7 		"/>
		<polygon fill="none" points="433.7,456 429.6,462.8 412.3,448.4 408.9,454.3 431.1,472.7 438.6,460 		"/>
		<g>
			<polygon fill="none" points="423.1,430.3 413.7,446.1 418.6,450.1 421.7,444.9 434.1,455.2 434.1,455.2 439,459.2 439,459.2 
				439.1,459.2 442.8,452.8 425.5,438.5 428,434.3 			"/>
			<polygon fill="none" points="433.1,413.3 443.1,430.4 426.1,425.2 423.7,429.2 423.6,429.5 429.3,434.2 450.3,440.2 453.2,435.2 
				437.2,406.4 			"/>
		</g>
	</g>
	<g>
		<path fill="none" d="M458.2,422.8c1.2,1,1.5,2.9,0.8,4.2s-2.4,1.6-3.6,0.6c-1.2-1-1.5-2.9-0.8-4.2
			C455.4,422,457.1,421.8,458.2,422.8z"/>
		<path fill="none" d="M460.9,408.5c2.9,2.5,5.4,6,3.1,9.8c-2.3,3.8-5.9,2.3-8.9-0.1c-3-2.4-5.4-6-3.1-9.8
			C454.3,404.5,458,406.1,460.9,408.5z M457.3,414.6c0.7,0.6,3.1,2.5,3.9,1.3c0.7-1.2-1.7-3.3-2.3-3.9c-0.7-0.6-3.2-2.5-3.9-1.3
			C454.2,412,456.6,414.1,457.3,414.6z"/>
		<path fill="none" d="M458.2,398.6l1.4,1.2l0-0.1c-0.6-1.5-0.8-2.9-0.1-4.4l3.1,2.6c-0.1,0.2-0.2,0.3-0.4,0.5c-1.4,2.4,0,3.6,1.7,5
			l5.8,4.8l-2.1,3.6l-11.6-9.6L458.2,398.6z"/>
		<path fill="none" d="M475.7,402c0.8,0.6,1.8,1.1,2.4,0.1c0.9-1.6-1.4-3.2-2.4-4l-1.5-1.2l0,0.1c0.3,0.6,0.5,1.2,0.6,1.8
			c0.1,0.6,0,1.3-0.3,1.9c-0.8,1.3-2.2,1.4-3.5,1.1c-1.5-0.3-3.1-1.3-4.4-2.4c-2-1.7-5.9-5.5-4.1-8.6c0.7-1.2,1.9-1.5,3.1-1.1l0-0.1
			l-1.4-1.2l2.1-3.6l12.6,10.4c3.4,2.8,3.8,5.6,1.9,8.7c-1.8,3-4.2,3.1-6.9,1.1L475.7,402z M470,393.1c-0.6-0.5-3.1-2.5-3.8-1.3
			c-0.7,1.2,1.7,3.3,2.3,3.9c0.7,0.6,3.2,2.5,3.9,1.2C473,395.7,470.6,393.6,470,393.1z"/>
	</g>
</g>
<path fill="#060403" d="M661.9,99.8c-6.1-3.3-12.4-6.6-18.9-9.4c-9.3-4.4-18.7-8.7-28.2-12.8c-2.5-0.9-5-2-7.4-3
	c-1.7-0.8-3.6-1.4-5.4-2.2c-7.4-2.8-14.8-6-22.4-8.3c-1.4-0.5-2.7-1.1-4.1-1.6c-0.5-0.2-1.6-0.3-2.2-0.5c-11.8-4.3-23.9-8-36.1-11.5
	c-1.1-0.3-2.2-0.6-3.5-0.9c-30.4-8.5-61.4-14.6-92.9-17.2c-26.6-2.5-53.4-1.3-79.8,1.7c-25.5,3.3-50.7,8.5-75.6,15.4
	c-14.5,3.8-28.7,8.5-42.7,13.4c-2,0.6-4.3,1.4-6.3,2.2c-7.6,2.7-14.8,5.5-22.2,8.5c-2,0.8-4.1,1.6-6.1,2.5
	c-17.6,7.1-35.1,14.6-51.8,23.6c20.5,35,40.6,70.2,60.9,105.4c0.5,1.1,1.9,2.4,0.9,3.6c-3.5,6-6.6,12-9.4,18.3
	c1.3,4.7,3.6,9.1,4.9,14c-0.5,4.9-3.1,9.3-5.7,13.5c-5.5,9.8-11.8,19.2-15.6,29.9c-1.6,4.4-2.4,9-3.6,13.4
	c-3.3,12.8-9.4,24.7-13.1,37.3c-1.6,6-2.7,12.8,0,18.6c2.7,6.5,6.1,12.8,11.2,17.5c2.5,2.7,6.5,2,9.3,3.9c9.1,5,16.2,12.9,24.4,19.2
	c11,8.2,22.7,16.4,35.9,20.5c4.4,1.1,9.1,2.5,13.7,1.1c7.9-2,15.4-4.9,22.8-7.9c1.7-0.8,3.5-1.4,5.4-2.2c9.1-3.9,18-8.7,26.8-13.4
	c3.5,4.6,6,9.9,9,14.8l60,103.9c4.9,8.5,9.8,17.2,14.8,25.7c6.5-11.3,13.2-22.4,19.4-33.9l79.1-136.7
	C559.2,277.6,610.4,188.7,661.9,99.8z"/>
<path fill="#F05E07" d="M251.2,89.9C301.3,70.7,354.2,57,408,56.4c46.1,0,92,10.1,135.6,24.9c26.3,9.1,52.3,19.7,76.9,32.8
	c-6,10.1-11.7,20.3-17.6,30.4c-20.6-4.9-41.3-9.9-61.9-14.6c-5.2-1.3-10.4-2.2-15.4-3.9c2.4-3.9,5-7.7,8.8-10.6
	c-28.3-9.9-58.3-13.7-88-15.6c-8.2-5.4-17.3-9.3-25.7-14.5c-7.4-4.1-16.4-8-24.9-5c-8.3,3.3-13.2,11.3-17.6,18.6
	c-19.7,4.7-38.9,11.5-57.3,20c-2.2-2.2-4.6-4.7-8-4.7c-8.2-0.8-16.2,1.6-23.9,4.1c-3.8,1.1-6.9,3.8-9.1,6.9
	c-5.5,7.7-7.9,16.9-10.2,25.8c-11.8,9.4-22.5,20-32.3,31.5c-13.4-22.7-26.3-45.5-39.5-68.3C215,104.7,233.1,97.2,251.2,89.9
	L251.2,89.9z"/>
<path fill="#FDFDFD" d="M390.9,102.4c2.5-3.3,6-7.1,10.6-6.5c5.4,0.8,10.1,3.3,15.1,5.2c7.4,3.1,15.4,6,20.8,12.1
	c2.7,3,2.7,7.4,1.7,11.2c-1.3,4.6-3.5,9-4.7,13.5c-2.8,9.9-3.6,20.5-2.8,30.7c0.3,3.5,1.7,6.6,3.3,9.6c-0.5-8,0.9-15.9,3-23.6
	c3.1-11.7,7.2-23,11.5-34.2c18,1.9,35.9,4.4,53.4,8.5c-5,2.4-9.3,6.1-12.6,10.4c20,6.5,40.3,12.4,60.3,18.9
	c-2.2,2.4-4.4,4.9-6.6,7.4c12.8,4.7,25.7,9.1,38.6,13.9c-31.5,54.5-63,109.1-94.5,163.6c-4.1-1.6-8.5-2.4-12.9-3
	c-26.6-1.3-54.5-0.2-78.7,12.1c3.1,4.9,6.6,9.6,9.8,14.5c-18.3,2.4-37.2,5.5-53.5,14.8c-0.5-0.8-1.3-2.2-1.6-3
	c12.6-6.6,25.4-13.5,39.4-16.1c-1.6-3.6-3.9-6.9-7.2-9.1c9.9-7.6,21.6-12.4,33.4-16.1c19.1-5.8,38.9-8.7,58.9-9.8
	c7.2-6.6,14.2-13.9,18.6-22.8c3.5-6.9,4.9-14.8,5.2-22.5c0.2-5.8,0.6-12-1.1-17.6c-3.9-14.8-12.3-27.9-20.8-40.6
	c2.8,15.1,6.3,30.1,8.7,45.2c1.7,9.9-1.9,20.3-8.3,27.9c-5.5,6.3-12.3,11.7-19.8,15.1c-11.5,2.4-23.1,4.4-34.5,7.7
	c-16.9,4.9-34,10.1-49,19.5c-3.9,2.5-7.6,5.5-10.9,9c1.6,1.1,3.1,2.2,4.9,3.1c-24.4,17.2-49.8,33.4-77.2,45.8
	c-6.8,3-13.5,5.8-20.6,7.9c-4.9,0.6-9.9,0.6-15,0.2c-3-0.3-4.4-3.1-6.6-4.9c10.2-0.5,19.8-4.4,29.1-8.3c13.1-5.7,24.9-14,35-24.1
	c12.4-12.8,22.8-27.4,35.1-40.3c12.4-13.1,27.2-24.3,44.1-31.3c12.1-5.4,26.1-8,39.2-4.3c-7.4-15.3-13.7-31.2-22.8-45.5
	c7.4,5.4,14,11.3,21.1,17c-9.3-12.4-19.1-24.7-31.7-33.9c-5.8-4.6-13.7-6.6-20.8-4.3c-14,4.7-25.7,14.3-36.7,23.8
	c10.1-5.5,20.8-10.1,32-12.4c-8,3.8-15.9,8-22.5,13.9c-13.4,11.5-23.1,26.8-30.4,42.7c-5.4,11.5-9,23.6-14.3,35.1
	c-7.7,16.9-15.6,33.7-26.8,48.7c-5.4,7.6-13.9,12.1-22.8,13.9c-5,0.6-10.2,0.5-15.4,0c-6-7.9-11.3-17.5-10.4-27.7
	c2-6,8.7-8.7,14.3-9.3c0.9-9.1-4.1-17.6-11-23.1c-4.4-2.5-9.9-2.2-14.8-2c-11,0.8-21.6,3.9-32,7.4c0.6-8.2,4.6-15.6,7.1-23.3
	c4.6-12,7.2-24.7,13.4-36.1c6.1-12.6,15.1-23.5,23.1-34.8c-0.2-6.3-3.6-11.8-6.9-17c12.6-21.4,30.2-39.4,48.5-55.9
	c25.5-23.6,58.4-38.6,92.8-43.3c-2.7,9.6-5.8,19.2-9,28.7C366.9,137,377.8,119.1,390.9,102.4L390.9,102.4z"/>
<path fill="#060403" d="M380.9,161.3c3.9-19.4,15.1-36.2,27.2-51.3c8,3,17.5,6.5,20.8,15.1c1.7,7.4-2.2,14.5-5.8,20.6
	c-0.9-5.7-1.9-13.2-8.2-15.4c-5.2-0.8-9.4,2.8-13.1,6.1C393.9,143.8,387.7,152.8,380.9,161.3L380.9,161.3z"/>
<path fill="#060403" d="M262.4,237.8c27.7-9.9,50.9-29.1,71.8-49.3c-7.2,9.9-13.7,20.6-22.8,29c-11,9-23.1,16.5-35.9,22.7
	c5.5,4.3,13.2,3.8,19.4,1.1c7.1-2.7,12.3-9,14.8-15.9h0.6c0.3-1.6,0-3.6,1.3-4.9c0.2,1.9,0.3,3.8-0.6,5.4c-2.5,7.2-6.9,14-13.5,18.1
	c-6.1,3.6-13.1,5.2-19.8,7.6c-13.7,11-23.5,26.5-29.9,42.7c3-10.4,6.8-20.8,12-30.2c3.5-6.3,7.7-12.1,13.2-16.5
	c-7.1-4.9-16.1-5.4-24.4-4.4C252.8,240.9,257.5,239.1,262.4,237.8L262.4,237.8z"/>
<path fill="#FDFDFD" d="M353.9,262.2c6.9-6.8,15.3-12.3,24.6-15.1c7.6-0.6,14.6,3.1,19.8,8.3c-1.6,7.6-3.8,15-5.5,22.5
	c-8.5-0.9-17.8-1.7-24.9-6.9c2.4,4.9,1.6,10.4-0.2,15.3c-6.6,0.6-14,1.4-19.4-3.3c1.1,7.1-1.3,14.3-4.6,20.5
	c-5.7,0.6-11.3-1.1-16.4-3.6C334.2,286.1,342.5,272.9,353.9,262.2L353.9,262.2z"/>
<path fill="#FDFDFD" d="M403,265.2c0.3,0,0.9,0.3,1.4,0.3c2.2,5.4,3.5,11,4.6,16.7c-4.3,0.3-8.3,0.9-12.6,1.4
	C395.9,276.9,398.3,270.1,403,265.2L403,265.2z"/>
<path fill="#FDFDFD" d="M373.1,280.2c6.6-0.2,13.1,1.4,18.9,4.4c-7.4,1.7-14.5,4.6-20.9,8.3C371.7,288.7,372.4,284.4,373.1,280.2
	L373.1,280.2z"/>
<path fill="#FDFDFD" d="M349.3,309.1c-0.2-6.6,0.6-13.2,2.8-19.5c5.7,0.2,10.9,2.4,15.7,5.2c-21.4,15.4-35.7,38.1-52.1,58.4
	c-8.5,10.7-18.9,20-30.4,27.4c8.8-10.1,15.9-21.4,21.9-33.4c2.4-0.3,4.7-0.6,7.1-0.8c-0.9-2.5-1.9-5.2-1.9-7.9
	c-0.3-3.8,1.9-7.1,3.1-10.6c4.6,0.2,9.1,0.2,13.5,0.9c-0.3-6.6,0.8-13.2,2.2-19.7C337,307.1,343.5,307.4,349.3,309.1L349.3,309.1z"
	/>
<path fill="#FDFDFD" d="M317.3,323.3c2.4-6.6,5.2-13.1,8.2-19.5c0.8,6.1,0.3,12.3-0.5,18.4C323.8,325.2,319.7,323.2,317.3,323.3
	L317.3,323.3z"/>
</svg>
