<?xml version="1.0" encoding="utf-8"?>
<!-- Generator: Adobe Illustrator 18.1.1, SVG Export Plug-In . SVG Version: 6.00 Build 0)  -->
<svg version="1.1" id="Layer_2" xmlns="http://www.w3.org/2000/svg" xmlns:xlink="http://www.w3.org/1999/xlink" x="0px" y="0px"
	 viewBox="164.4 95.6 509.3 444.6" enable-background="new 164.4 95.6 509.3 444.6" xml:space="preserve">
<g>
	<g>
		<polygon fill="none" points="391.5,519.1 395.2,495.5 389.5,495.5 388,504.7 380.7,504.7 381.9,495.5 375.9,495.5 372.2,519.1 
			378.2,519.1 379.7,509.9 387.3,509.9 385.8,519.1 		"/>
		<polygon fill="none" points="405.7,514.1 399.1,514.1 402,495.5 396.3,495.5 392.4,519.1 404.7,519.1 		"/>
		<g>
			<polygon fill="none" points="419.4,495.5 404.2,495.5 403.3,500.7 408.4,500.7 406.4,514.1 406.4,514.1 405.5,519.1 405.5,519.1 
				405.5,519.1 411.7,519.1 414.5,500.7 418.6,500.7 			"/>
			<polygon fill="none" points="435.6,495.5 427.7,509.9 424.2,495.5 420.4,495.5 420.2,495.5 419.3,501.8 423.9,519.1 428.5,519.1 
				442.4,495.5 			"/>
		</g>
	</g>
	<g>
		<path fill="none" d="M439.7,517.4c-0.2,1.3-1.5,2.4-2.6,2.4c-1.3,0-2.2-1.1-1.8-2.4c0.2-1.3,1.5-2.4,2.6-2.4
			C438.9,515,439.9,516.3,439.7,517.4z"/>
		<path fill="none" d="M450.9,513.4c-0.6,3.1-2,6.4-5.7,6.4s-4.2-3.3-3.7-6.4c0.6-3.1,2-6.4,5.7-6.4S451.5,510.2,450.9,513.4z
			 M445,513.4c0,0.7-0.6,3.3,0.7,3.3c1.1,0,1.6-2.6,1.6-3.3c0-0.7,0.6-3.3-0.7-3.3C445.4,510.1,445.2,512.6,445,513.4z"/>
		<path fill="none" d="M456.8,507.3l-0.2,1.5l0,0c0.9-1.1,1.6-1.8,3.1-1.8l-0.6,3.3c-0.2,0-0.4,0-0.6,0c-2.4,0-2.6,1.5-2.8,3.3
			l-0.9,6.1h-3.3l1.8-12.3L456.8,507.3L456.8,507.3z"/>
		<path fill="none" d="M461.8,521.1c0,0.7,0,1.6,0.9,1.6c1.5,0,1.6-2.4,1.8-3.3l0.2-1.6l0,0c-0.4,0.4-0.7,0.9-0.9,1.3
			c-0.4,0.4-0.9,0.6-1.5,0.6c-1.3,0-1.8-0.9-2.4-2c-0.4-1.3-0.4-2.8-0.2-4.2c0.4-2.2,1.5-6.6,4.4-6.6c1.1,0,1.8,0.7,2,1.6l0,0
			l0.2-1.5h3.3l-2.2,13.4c-0.6,3.5-2.4,5-5.3,5c-2.9,0-4.1-1.6-3.7-4.4L461.8,521.1L461.8,521.1z M465.8,513.4
			c0-0.7,0.6-3.3-0.7-3.3c-1.1,0-1.6,2.6-1.6,3.3c0,0.7-0.6,3.3,0.7,3.3C465.3,516.7,465.6,514.1,465.8,513.4z"/>
	</g>
</g>
<g>
	<g>
		<polygon fill="#F9E910" points="414.9,125.4 375.8,170.9 259.5,155.4 228,210.3 282,282.1 412.2,303.7 450,407.4 432.1,446 
			412.2,448.2 374.4,345.4 253.8,327.1 170.3,213.6 232.7,105.7 		"/>
		<path d="M408.8,453.6l-38.1-103.6L251,331.8l-86.7-117.8L230,100.4l194.8,21.1l-47,54.8l-115.7-15.4L234,209.9l50.8,67.6
			l131.1,21.8l39.5,108.4l-19.9,43.1L408.8,453.6z M256.6,322.5l121.5,18.4l37.4,101.9l13.3-1.5l15.8-34.2l-36.1-99l-129.3-21.5
			l-57.1-76l34.7-60.7l117,15.6l31.1-36.2L235.4,111l-59.1,102.3L256.6,322.5z"/>
	</g>
	<g>
		<polygon fill="#F9E910" points="559.5,356.9 539.6,300.3 611.2,207.3 579.4,152.6 490.3,163.4 406.5,265.4 297.8,246.2 
			273.2,211.5 281.3,193.1 389.2,211.8 465.3,116.5 605.4,101 667.7,209 		"/>
		<path d="M558,367.5L534,299.4l71.2-92.5l-28.5-48.9l-83.9,10.2l-84.4,102.6l-113.6-20l-27.4-38.8l10.8-24.5l108.8,18.9l75.6-94.6
			l145.4-16.1l65.5,113.7L558,367.5z M545.3,301.2l15.8,45.1l100.6-137.6l-59-102.3l-134.8,15l-76.7,96l-106.9-18.5l-5.4,12.2
			l21.7,30.8l103.8,18.2l83.2-101.2l94.4-11.5l35.2,60.4L545.3,301.2z"/>
	</g>
	<g>
		<polygon fill="#F9E910" points="286.3,367.6 345.2,378.6 390,487.2 453.2,486.9 488.4,404.3 442,280.8 512.9,196.2 555.3,192.3 
			567.2,208.5 497.1,292.6 541.5,406.2 484.9,535.3 360.3,535.2 		"/>
		<path d="M488.2,540.3L357,540.2l-79.2-179.3l70.9,13.3l44.5,107.9l56.6-0.2l33.1-77.7l-46.7-124.4l74.1-88.4l47.2-4.3l15.9,21.6
			l-70.7,84.8l44.1,112.8L488.2,540.3z M363.5,530.2l118.1,0.1l54.4-124.2l-44.8-114.4l69.5-83.3l-7.9-10.8l-37.5,3.4l-67.7,80.8
			l46.1,122.7l-37.3,87.5l-69.9,0.2l-45-109.1l-46.9-8.8L363.5,530.2z"/>
	</g>
</g>
</svg>
