<?xml version="1.0" encoding="utf-8"?>
<!-- Generator: Adobe Illustrator 18.1.1, SVG Export Plug-In . SVG Version: 6.00 Build 0)  -->
<svg version="1.1" id="Layer_2" xmlns="http://www.w3.org/2000/svg" xmlns:xlink="http://www.w3.org/1999/xlink" x="0px" y="0px"
	 viewBox="91.4 79.3 460.4 466.2" enable-background="new 91.4 79.3 460.4 466.2" xml:space="preserve">
<g>
	<g>
		<path fill="#231F20" d="M311.5,97.7c14.4-9.4,30.6-16.9,47.9-18.2c10-0.7,20.3,1.1,29,6c7.8,4.3,13.8,11.2,19.5,17.8
			c6.4,7.2,12.6,14.6,18.2,22.5c7.1-6.1,16.2-10.8,25.8-10.3c13.6,0.4,25.2,10.7,29.5,23.2c5.1,15.2,21.5,22.2,28.2,36.4
			c2.6,5.4,2.5,11.9,0.4,17.5c-3.6,9.2-8,18.1-10.6,27.7c-1.3,5.2-1.8,11.5,2.2,15.6c13,14.9,28,28.1,39.4,44.3
			c6.1,8.9,12.1,19.3,10.7,30.6c-1.5,8-6.3,14.9-10.6,21.6c-17.9,26.5-40.2,49.9-56.1,77.7c-3.1,5.1-4.3,11-3.5,16.9
			c2.1,41.5-6.7,84.8-31.9,118.5c-10.2-2.6-19.9-6.6-29.6-10.8c-57.7-25.9-110.7-60.8-162.1-97.3c-27.7-20-55.2-40.3-81.9-61.6
			c-22.7-18.5-45.4-37.5-63.5-60.6c-11.5-14.9-20.9-32.6-21.1-51.8c-0.2-24.7,12-48.5,30.6-64.4c13.8-12.2,29.9-21.4,46.5-29.1
			c25.5-11.5,52.3-19.8,79.7-25.4c9.4-1.2,16.6-7.9,23.6-13.8C285,119.6,297,107.1,311.5,97.7z"/>
	</g>
	<path fill="#231F20" d="M318.6,117c15.9-12.6,38.1-22,58.1-14c5.2,2.3,10.2,5.4,14,9.6C367.8,101.6,340.9,106.5,318.6,117z"/>
	<path fill="#231F20" d="M436.5,136.2c4.8-3.8,11.4-5.8,17.3-3.8c5.7,1.8,10,6.8,11.8,12.4C458.6,136.5,447,131.8,436.5,136.2z"/>
	<g>
		<path fill="#231F20" d="M349.3,157.7c19.5,9.1,37.7,21.3,53,36.5c16,16.2,29.2,37.2,30.3,60.5c-2.6-4.5-4.8-9.2-8.4-13
			c-7.7-9-20-13.2-31.7-11.8c-2.5-12.6-4.2-25.6-8.7-37.7C376.3,177.5,362.7,167,349.3,157.7z M390.5,190c3.6,9.5,4.8,19.7,5.9,29.7
			c0,1.5-0.1,2.9-0.2,4.4c2.3-0.5,4.6,0,6.9-0.2c0.2,0.1,0.7,0.2,0.9,0.2c1.1,0.3,2.2,0.7,3.3,1c5.5,2,10.5,5.1,15.5,8.1
			c-2.3-6.8-5.8-13.2-10.1-18.9c-3.5,1.4-6.9,2.9-10.4,4c0.1-5.3,0.9-10.6,0.6-15.8C399.3,197.9,394.8,193.9,390.5,190z"/>
	</g>
	<path fill="#231F20" d="M489.9,174.1c2.8,2.8,6.1,6.2,5.9,10.5c-0.6,3.6-2.5,6.8-3.8,10.1C493.6,187.8,494.4,180,489.9,174.1z"/>
	<path fill="#231F20" d="M121.7,295.2c-16.2-20.2-11-49.3,0-70.7C115.1,247.4,114.2,272.3,121.7,295.2z"/>
	<path fill="#231F20" d="M393.9,233.3c14.4-1.1,28.9,7.4,35.1,20.4C419.7,243.5,407.6,235.8,393.9,233.3z"/>
	<path fill="#231F20" d="M525.6,279.8c10.8,9.9,17.8,27.7,9.1,41.2C540.1,306.6,533.6,291.6,525.6,279.8z"/>
	<path fill="#231F20" d="M408.7,282.8c13.3,7.9,29.1,17,45,11.7c-5.6,5.7-14.5,5-21.4,2.3C423.8,293.6,415.8,288.7,408.7,282.8z"/>
	<path fill="#231F20" d="M500,284.3c4.6,14.1,4.1,29.7-0.1,43.7C500.8,313.5,501.6,298.8,500,284.3z"/>
	<path fill="#231F20" d="M390.3,453.9c22.2,18.2,40.2,42.8,46.5,71.1c-21.6-8.8-42.4-20.2-60.6-34.8c16.6,7.6,33,15.8,49.8,22.9
		C418.2,491.2,404,472.4,390.3,453.9z"/>
</g>
<g>
	<g>
		<polygon fill="none" points="253.1,383.1 270.3,372.4 267.2,368.9 260.7,373.1 256.5,368.3 263.1,364.1 260,360.3 242.7,370.7 
			246.2,374.5 252.7,370.3 256.9,375.1 250.3,379.3 		"/>
		<polygon fill="none" points="264.1,389.3 260.3,385.1 273.8,376.9 271,373.4 253.8,383.8 260.3,391.4 		"/>
		<g>
			<polygon fill="none" points="283.4,388.3 275.1,378.6 271.3,380.7 274.1,384.1 264.5,389.6 264.5,389.6 260.7,392 260.7,392 
				260.7,392 264.1,395.8 277.2,387.9 279.6,390.3 			"/>
			<polygon fill="none" points="292,398.6 278.6,401 285.8,391.4 283.8,388.9 283.8,388.9 279.3,391.4 270.7,403.8 273.1,406.9 
				295.5,403.1 			"/>
		</g>
	</g>
	<g>
		<path fill="none" d="M280,412.7c-1,0.3-2.1,0.3-3.1-0.3c-0.7-1-0.3-1.7,0.3-2.8c1-0.3,2.1-0.3,3.1,0.3
			C281.3,410.7,281,412.4,280,412.7z"/>
		<path fill="none" d="M288.9,417.9c-2.1,1.4-5.2,2.1-6.9-0.3c-2.1-2.4-0.3-4.5,2.1-5.9c2.1-1.4,5.2-2.1,7.2,0
			C293.1,414.5,291,416.5,288.9,417.9z M285.5,414.1c-0.7,0.3-2.4,1.4-1.7,2.1c0.7,0.7,2.8-0.3,3.1-0.7s2.4-1.4,1.7-2.1
			C288.2,412.7,286.2,413.8,285.5,414.1z"/>
		<path fill="none" d="M295.8,418.2l-1,0.7l0,0c1,0,2.1,0.3,3.1,1l-2.4,1.4c0,0,0-0.3-0.3-0.3c-1.4-1.4-2.4-0.7-3.8,0l-4.5,2.8
			l-1.7-2.1l9-5.2L295.8,418.2z"/>
		<path fill="none" d="M289.6,428.9c-0.7,0.3-1,1-0.7,1.7c1,1,2.4,0,3.1-0.7l1.4-0.7l0,0c-0.3,0-1,0-1.4,0s-1-0.3-1-0.7
			c-0.7-1-0.3-1.7,0-2.8s1.7-1.7,2.8-2.4c1.7-1,4.8-2.8,6.6-0.7c0.7,0.7,0.3,1.7,0,2.1l0,0l1-0.7l1.7,2.1l-9.7,5.9
			c-2.8,1.7-4.5,1.4-6.2-0.7c-1.7-2.1-1-3.4,1-4.8L289.6,428.9L289.6,428.9z M296.9,427.2c0.3-0.3,2.4-1.4,1.7-2.1s-2.8,0.3-3.1,0.7
			c-0.7,0.3-2.4,1.4-1.7,2.1C294.4,428.6,296.5,427.6,296.9,427.2z"/>
	</g>
</g>
<g>
	<g>
		<g>
			<path fill="#231F20" d="M311.5,97.7c14.4-9.4,30.6-16.9,47.9-18.2c10-0.7,20.3,1.1,29,6c7.8,4.3,13.8,11.2,19.5,17.8
				c6.4,7.2,12.6,14.6,18.2,22.5c7.1-6.1,16.2-10.8,25.8-10.3c13.6,0.4,25.2,10.7,29.5,23.2c5.1,15.2,21.5,22.2,28.2,36.4
				c2.6,5.4,2.5,11.9,0.4,17.5c-3.6,9.2-8,18.1-10.6,27.7c-1.3,5.2-1.8,11.5,2.2,15.6c13,14.9,28,28.1,39.4,44.3
				c6.1,8.9,12.1,19.3,10.7,30.6c-1.5,8-6.3,14.9-10.6,21.6c-17.9,26.5-40.2,49.9-56.1,77.7c-3.1,5.1-4.3,11-3.5,16.9
				c2.1,41.5-6.7,84.8-31.9,118.5c-10.2-2.6-19.9-6.6-29.6-10.8c-57.7-25.9-110.7-60.8-162.1-97.3c-27.7-20-55.2-40.3-81.9-61.6
				c-22.7-18.5-45.4-37.5-63.5-60.6c-11.5-14.9-20.9-32.6-21.1-51.8c-0.2-24.7,12-48.5,30.6-64.4c13.8-12.2,29.9-21.4,46.5-29.1
				c25.5-11.5,52.3-19.8,79.7-25.4c9.4-1.2,16.6-7.9,23.6-13.8C285,119.6,297,107.1,311.5,97.7z M324.8,105.2
				c-15.5,8.8-28,21.7-41.4,33.3c-2.3,1.9-4.5,5.1-2.8,8.1c2.7,4.2,7.7,6.1,12.2,7.8c-26.7-0.4-53.4,4.3-78.8,12.5
				c-30.8,9.9-61.9,22.7-86,45c-18.7,17.2-28.7,45.4-19.4,69.9c8.5,22.1,25.8,39.2,42.6,55.2c13.5,12.5,27.8,24.2,42.3,35.6
				c45,34.8,90.8,68.5,138.8,98.9c34.2,21.2,69.2,41.9,106.9,56.4c-1.2-12.6-4.7-25-10.9-36.1c-10.7-18.6-27.3-32.7-42.2-47.7
				c-12.2-11.7-24-23.7-35.5-36.1c-2-2.2-4.6-3.9-7.1-5.5c-29.3-19.5-61.5-34.1-93.9-47.8c17.6-3.7,35.5,0.6,53.1,2.4
				c-25.5-13.2-55.1-16.6-83.5-16.1c2.7-2,5.8-3.3,9-4.3c16.1-5.5,33-8.3,49.7-11.6c-30-8-61.4-7.2-92.2-6.9
				c15.9-19.6,39.7-30.2,62.5-39.3c-24.8-1.9-49.7,0.3-74.4,2.7c3.9-8.9,11.6-15.3,18.9-21.4c20.4-16.3,43.3-28.8,66.2-41.1
				c-31.1,1.6-61.6,9.4-91.6,17.5c14-20.1,33.8-36.4,56.5-45.7c29.1-10,60-12.7,90.4-15.9c6.8-1,13.7-2.5,20.6-2.5
				c4.3,0,6.3,4.4,7.8,7.9c8.2,21.9,17.2,43.7,28.2,64.4c12.1,20.1,30,36,49,49.3c8.5,6.3,20.2,10.6,30.6,6.5
				c6.8-2.9,10.7-9.7,14.1-15.9c9.8-18.2,14.8-38.6,19.4-58.6c-6.6,4.2-13,8.8-19.7,12.9c3.9-11.6,12.2-21.1,20.2-30.1
				c5-4.7,8.9-10.6,11.4-17c2.2-4.2,3.7-9.6,0.3-13.6c-7.6-10-18.7-17.2-24.5-28.6c-2.8-5.5-4.4-11.9-9.1-16.1
				c-7.1-6.5-18.6-5.9-26-0.4c-5.3,3.7-8.6,9.4-11.9,14.7c-9.9-16-21.5-31-34.6-44.4c-6.3-6.7-15.5-10.6-24.7-10.7
				C350.8,92.5,337.1,98.2,324.8,105.2z M299.5,234.9c17.9,2.3,35.8,6.3,52.6,13c-11.3-13.7-21.2-28.9-35.1-40.1
				C310,215.9,304.1,225.1,299.5,234.9z M483,215.1c-2.5,2.6-3.1,6.5-3.2,9.9c2.1,0.2,5-2.4,4.6-5.1c0.4-2.7,0.8-5.4,1.3-8
				C484.8,212.9,483.8,214,483,215.1z M469.7,231.8c3.1-2,6.9-3.4,9.3-6.2c0-1.4-0.9-2.5-1.6-3.7C474.7,225.2,472,228.3,469.7,231.8
				z M290.9,287.1c31.1,1.8,62.3,3.6,93.2,8.2c0.8-18-16-29.5-30.7-35.7c-18.3-8.1-38.1-12.4-57.9-14.8
				C290.8,258.3,289.2,272.8,290.9,287.1z M487.3,252.9c10.4,16.2,12.5,36,12.5,54.8c-0.3,26.2-5.3,52.1-11.8,77.5
				c9.5-23.6,18.2-47.8,22.7-72.9C513.1,290,500.8,269.4,487.3,252.9z M499.7,254c11.7,13.8,19.3,31.2,20.3,49.3
				c1.6,23-5.6,45.8-16.5,65.8c11.9-15.1,22.7-31.1,33.6-47c6.6-9.8,4.5-22.9-1.4-32.5C526.9,275.1,513.7,263.6,499.7,254z
				 M292.9,297.4c3.9,16.5,11.2,32,20.9,45.9c25.7-7.8,53.2-6,79.7-5.2c-3.6-10.5-6.4-21.3-8-32.2
				C354.8,301.1,323.8,299.3,292.9,297.4z M320,351.9c11.5,14.5,23.1,29.1,36.1,42.3c18.8-5.5,37.7-10.4,57.1-13.5
				c-5.8-10.5-11.3-21.1-15.8-32.2C371.7,347.7,345.3,346,320,351.9z M363.6,402.8c14.4,15.5,29.8,30.1,44.9,45
				c14.1-7.2,29.8-10.7,45.1-14.2c-13.6-12.7-24.8-27.7-34.6-43.4C400.2,393,381.8,397.6,363.6,402.8z M416,455.3
				c17.2,16.9,31.2,38,35.1,62.2c11.3-22.4,16.4-47.6,17-72.6c-1.5-1-3-2-4.5-3C447.5,445.4,431.2,448.8,416,455.3z"/>
		</g>
		<path fill="#231F20" d="M318.6,117c15.9-12.6,38.1-22,58.1-14c5.2,2.3,10.2,5.4,14,9.6C367.8,101.6,340.9,106.5,318.6,117z"/>
		<path fill="#231F20" d="M436.5,136.2c4.8-3.8,11.4-5.8,17.3-3.8c5.7,1.8,10,6.8,11.8,12.4C458.6,136.5,447,131.8,436.5,136.2z"/>
		<g>
			<path fill="#231F20" d="M349.3,157.7c19.5,9.1,37.7,21.3,53,36.5c16,16.2,29.2,37.2,30.3,60.5c-2.6-4.5-4.8-9.2-8.4-13
				c-7.7-9-20-13.2-31.7-11.8c-2.5-12.6-4.2-25.6-8.7-37.7C376.3,177.5,362.7,167,349.3,157.7z M390.5,190
				c3.6,9.5,4.8,19.7,5.9,29.7c0,1.5-0.1,2.9-0.2,4.4c2.3-0.5,4.6,0,6.9-0.2c0.2,0.1,0.7,0.2,0.9,0.2c1.1,0.3,2.2,0.7,3.3,1
				c5.5,2,10.5,5.1,15.5,8.1c-2.3-6.8-5.8-13.2-10.1-18.9c-3.5,1.4-6.9,2.9-10.4,4c0.1-5.3,0.9-10.6,0.6-15.8
				C399.3,197.9,394.8,193.9,390.5,190z"/>
		</g>
		<path fill="#231F20" d="M489.9,174.1c2.8,2.8,6.1,6.2,5.9,10.5c-0.6,3.6-2.5,6.8-3.8,10.1C493.6,187.8,494.4,180,489.9,174.1z"/>
		<path fill="#231F20" d="M121.7,295.2c-16.2-20.2-11-49.3,0-70.7C115.1,247.4,114.2,272.3,121.7,295.2z"/>
		<path fill="#231F20" d="M393.9,233.3c14.4-1.1,28.9,7.4,35.1,20.4C419.7,243.5,407.6,235.8,393.9,233.3z"/>
		<path fill="#231F20" d="M525.6,279.8c10.8,9.9,17.8,27.7,9.1,41.2C540.1,306.6,533.6,291.6,525.6,279.8z"/>
		<path fill="#231F20" d="M408.7,282.8c13.3,7.9,29.1,17,45,11.7c-5.6,5.7-14.5,5-21.4,2.3C423.8,293.6,415.8,288.7,408.7,282.8z"/>
		<path fill="#231F20" d="M500,284.3c4.6,14.1,4.1,29.7-0.1,43.7C500.8,313.5,501.6,298.8,500,284.3z"/>
		<path fill="#231F20" d="M390.3,453.9c22.2,18.2,40.2,42.8,46.5,71.1c-21.6-8.8-42.4-20.2-60.6-34.8c16.6,7.6,33,15.8,49.8,22.9
			C418.2,491.2,404,472.4,390.3,453.9z"/>
	</g>
	<g>
		<g>
			<path fill="#62564A" d="M324.8,105.2c12.3-7,26-12.8,40.4-12.4c9.2,0.1,18.4,4,24.7,10.7c13.1,13.4,24.7,28.4,34.6,44.4
				c3.3-5.4,6.6-11,11.9-14.7c7.4-5.6,19-6.1,26,0.4c4.8,4.2,6.4,10.6,9.1,16.1c5.8,11.4,16.9,18.6,24.5,28.6
				c3.4,4.1,1.8,9.4-0.3,13.6c-2.5,6.4-6.4,12.3-11.4,17c-8,9-16.3,18.4-20.2,30.1c6.7-4.1,13-8.8,19.7-12.9
				c-4.6,20.1-9.6,40.4-19.4,58.6c-3.4,6.2-7.3,13-14.1,15.9c-10.4,4.1-22.1-0.2-30.6-6.5c-19-13.4-36.9-29.2-49-49.3
				c-11-20.7-20-42.4-28.2-64.4c-1.4-3.4-3.5-7.8-7.8-7.9c-6.9,0-13.8,1.5-20.6,2.5c-30.4,3.2-61.3,5.8-90.4,15.9
				c-22.7,9.3-42.5,25.6-56.5,45.7c30-8.1,60.4-15.9,91.6-17.5c-22.9,12.3-45.9,24.8-66.2,41.1c-7.3,6.1-15,12.5-18.9,21.4
				c24.7-2.4,49.6-4.6,74.4-2.7c-22.9,9.1-46.7,19.8-62.5,39.3c30.8-0.2,62.2-1.1,92.2,6.9c-16.7,3.3-33.5,6.2-49.7,11.6
				c-3.1,1.1-6.3,2.4-9,4.3c28.4-0.5,57.9,2.9,83.5,16.1c-17.6-1.8-35.5-6.2-53.1-2.4c32.3,13.7,64.6,28.2,93.9,47.8
				c2.5,1.7,5,3.3,7.1,5.5c11.5,12.3,23.3,24.4,35.5,36.1c14.9,15.1,31.5,29.1,42.2,47.7c6.2,11.1,9.7,23.5,10.9,36.1
				c-37.7-14.6-72.6-35.2-106.9-56.4c-48-30.4-93.8-64.2-138.8-98.9c-14.5-11.4-28.8-23.1-42.3-35.6c-16.8-16-34.1-33.1-42.6-55.2
				c-9.3-24.4,0.7-52.7,19.4-69.9c24.1-22.3,55.1-35.1,86-45c25.4-8.1,52.1-12.9,78.8-12.5c-4.5-1.7-9.5-3.6-12.2-7.8
				c-1.6-3,0.5-6.2,2.8-8.1C296.8,126.9,309.3,114,324.8,105.2z M318.6,117c22.2-10.4,49.2-15.4,72.1-4.4c-3.9-4.2-8.8-7.3-14-9.6
				C356.7,95,334.5,104.3,318.6,117z M436.5,136.2c10.5-4.4,22.1,0.3,29.1,8.6c-1.8-5.7-6.1-10.6-11.8-12.4
				C447.8,130.4,441.2,132.4,436.5,136.2z M349.3,157.7c13.4,9.2,27,19.7,34.4,34.5c4.4,12.1,6.2,25.1,8.7,37.7
				c11.7-1.4,24,2.8,31.7,11.8c3.5,3.8,5.8,8.5,8.4,13c-1.1-23.3-14.2-44.3-30.3-60.5C387,179.1,368.8,166.9,349.3,157.7z
				 M489.9,174.1c4.5,6,3.7,13.7,2.1,20.6c1.4-3.3,3.3-6.5,3.8-10.1C496,180.2,492.8,176.9,489.9,174.1z M121.7,295.2
				c-7.5-22.9-6.6-47.7,0-70.7C110.6,245.9,105.4,275,121.7,295.2z M393.9,233.3c13.7,2.6,25.8,10.3,35.1,20.4
				C422.8,240.7,408.3,232.2,393.9,233.3z M408.7,282.8c7,5.9,15,10.7,23.6,14c6.9,2.7,15.8,3.4,21.4-2.3
				C437.8,299.8,422,290.7,408.7,282.8z M390.3,453.9c13.7,18.5,27.9,37.3,35.7,59.2c-16.9-7.1-33.2-15.2-49.8-22.9
				c18.2,14.7,39,26,60.6,34.8C430.5,496.7,412.5,472.1,390.3,453.9z"/>
		</g>
		<path fill="#62564A" d="M483,215.1c0.9-1.1,1.8-2.2,2.7-3.2c-0.5,2.7-0.9,5.4-1.3,8c0.1-1.6,0.1-3.1,0-4.7
			C484.1,215.2,483.3,215.1,483,215.1z"/>
		<path fill="#62564A" d="M396.4,219.7c-1.1,4.9,3.6,3.7,6.7,4.2c-2.3,0.2-4.6-0.2-6.9,0.2C396.3,222.6,396.4,221.1,396.4,219.7z"/>
		<path fill="#62564A" d="M404.1,224.1c1.1,0.3,2.2,0.6,3.3,1C406.3,224.7,405.2,224.4,404.1,224.1z"/>
		<g>
			<path fill="#62564A" d="M487.3,252.9c13.5,16.5,25.9,37.2,23.4,59.3c-4.5,25.1-13.3,49.3-22.7,72.9c6.5-25.3,11.4-51.2,11.8-77.5
				C499.7,288.9,497.7,269.1,487.3,252.9z M500,284.3c1.6,14.5,0.8,29.2-0.1,43.7C504,313.9,504.6,298.3,500,284.3z"/>
		</g>
		<g>
			<path fill="#62564A" d="M499.7,254c13.9,9.6,27.2,21.1,36,35.7c5.9,9.6,8,22.7,1.4,32.5c-10.9,15.9-21.7,31.9-33.6,47
				c10.9-20,18.1-42.8,16.5-65.8C519,285.2,511.4,267.8,499.7,254z M525.6,279.8c8,11.8,14.5,26.9,9.1,41.2
				C543.4,307.5,536.4,289.7,525.6,279.8z"/>
		</g>
	</g>
	<g>
		<path fill="#EE5C2B" d="M390.5,190c4.3,4,8.8,7.9,12.4,12.5c0.2,5.3-0.5,10.6-0.6,15.8c3.6-1.1,7-2.7,10.4-4
			c4.3,5.7,7.8,12.1,10.1,18.9c-5-3-10-6.1-15.5-8.1c-1.1-0.4-2.2-0.7-3.3-1c-0.2-0.1-0.7-0.2-0.9-0.2c-3.1-0.5-7.8,0.7-6.7-4.2
			C395.3,209.6,394.1,199.5,390.5,190z"/>
		<path fill="#EE5C2B" d="M479.8,225c0.1-3.4,0.7-7.3,3.2-9.9c0.4,0,1.1,0.1,1.4,0.1c0.1,1.6,0.1,3.1,0,4.7
			C484.9,222.6,482,225.2,479.8,225z"/>
		<path fill="#EE5C2B" d="M469.7,231.8c2.3-3.5,5.1-6.6,7.7-9.9c0.7,1.2,1.6,2.3,1.6,3.7C476.6,228.4,472.7,229.8,469.7,231.8z"/>
	</g>
	<g>
		<g>
			<path fill="#D3D3D5" d="M299.5,234.9c4.6-9.8,10.5-18.9,17.5-27.2c13.9,11.3,23.8,26.5,35.1,40.1
				C335.3,241.1,317.5,237.1,299.5,234.9z M304.6,233.1c13.5,1.8,26.9,4.8,39.7,9.7c-8.3-10.5-15.9-21.8-26.4-30.3
				C312.5,218.8,308,225.7,304.6,233.1z"/>
		</g>
		<g>
			<path fill="#D3D3D5" d="M290.9,287.1c-1.7-14.2-0.1-28.8,4.6-42.4c19.8,2.4,39.6,6.7,57.9,14.8c14.7,6.3,31.5,17.7,30.7,35.7
				C353.2,290.7,322,288.8,290.9,287.1z M300.1,248.8c-4.1,11.3-5.5,23.5-4,35.4c27.1,1.6,54.2,3,81.1,6.8
				c0.8-13.3-11-22.6-21.9-27.7C338,255.1,319,251,300.1,248.8z"/>
		</g>
		<g>
			<path fill="#D3D3D5" d="M292.9,297.4c30.9,1.9,61.9,3.7,92.6,8.4c1.7,11,4.5,21.7,8,32.2c-26.5-0.7-54-2.6-79.7,5.2
				C304.1,329.4,296.8,313.9,292.9,297.4z M299,301c3.5,13.5,9.8,26.6,18.8,37.2c23.1-5.9,47.2-4.7,70.8-4.1
				c-3.3-8.5-5.6-17.3-7.2-26.3C354,303.9,326.5,302.5,299,301z"/>
		</g>
		<g>
			<path fill="#D3D3D5" d="M320,351.9c25.3-5.9,51.6-4.2,77.4-3.4c4.5,11.1,10,21.7,15.8,32.2c-19.3,3.1-38.3,8-57.1,13.5
				C343.1,381,331.6,366.4,320,351.9z M327.7,354.7c9.7,12.2,19.7,24.2,30.6,35.4c16.1-4.5,32.3-8.7,48.8-11.3
				c-5-8.7-9.6-17.7-13.5-26.9C371.7,351.1,349.3,349.8,327.7,354.7z"/>
		</g>
		<g>
			<path fill="#D3D3D5" d="M363.6,402.8c18.2-5.2,36.7-9.8,55.4-12.6c9.8,15.8,21,30.7,34.6,43.4c-15.4,3.5-31,7-45.1,14.2
				C393.4,432.9,378,418.3,363.6,402.8z M413.1,394.8c-14,2.4-27.9,5.8-41.6,9.7c11.6,12.6,24.1,24.5,36.4,36.5
				c11.5-5.7,24.1-8.6,36.5-11.5c-10.5-10-19.5-21.6-27.2-33.9C416.4,394,414.5,394.7,413.1,394.8z"/>
		</g>
		<g>
			<path fill="#D3D3D5" d="M416,455.3c15.2-6.5,31.5-10,47.6-13.4c1.5,1,3,2,4.5,3c-0.6,25-5.7,50.2-17,72.6
				C447.2,493.3,433.2,472.2,416,455.3z M459.5,446.1c-12.1,3-25.4,5-36.2,10.9c13.9,14.1,25.5,31.3,28.6,51.2
				c9.3-17.8,13.3-38,14.1-57.9C466.6,446.8,462.2,444.9,459.5,446.1z"/>
		</g>
	</g>
	<g>
		<path fill="#909195" d="M304.6,233.1c3.4-7.4,7.9-14.3,13.2-20.5c10.5,8.4,18.1,19.8,26.4,30.3
			C331.5,237.9,318.1,234.9,304.6,233.1z"/>
		<path fill="#909195" d="M300.1,248.8c18.9,2.2,37.9,6.3,55.2,14.5c10.9,5.1,22.7,14.4,21.9,27.7c-26.9-3.8-54-5.2-81.1-6.8
			C294.6,272.3,296,260.1,300.1,248.8z"/>
		<path fill="#909195" d="M299,301c27.5,1.5,55.1,2.9,82.3,6.8c1.6,9,3.9,17.8,7.2,26.3c-23.6-0.6-47.7-1.8-70.8,4.1
			C308.8,327.6,302.5,314.5,299,301z"/>
		<path fill="#909195" d="M327.7,354.7c21.6-4.9,44-3.6,65.9-2.8c3.9,9.3,8.5,18.2,13.5,26.9c-16.5,2.7-32.7,6.8-48.8,11.3
			C347.4,379,337.4,366.9,327.7,354.7z"/>
		<path fill="#909195" d="M413.1,394.8c1.4-0.1,3.3-0.9,4.1,0.8c7.7,12.3,16.7,23.9,27.2,33.9c-12.4,2.9-25,5.8-36.5,11.5
			c-12.2-12.1-24.7-23.9-36.4-36.5C385.2,400.7,399,397.3,413.1,394.8z"/>
		<path fill="#909195" d="M459.5,446.1c2.7-1.2,7.2,0.7,6.6,4.1c-0.9,20-4.9,40.1-14.1,57.9c-3.1-19.9-14.8-37.1-28.6-51.2
			C434,451.1,447.3,449,459.5,446.1z"/>
	</g>
</g>
</svg>
