<?xml version="1.0" encoding="utf-8"?>
<!-- Generator: Adobe Illustrator 18.1.1, SVG Export Plug-In . SVG Version: 6.00 Build 0)  -->
<svg version="1.1" id="Layer_1" xmlns="http://www.w3.org/2000/svg" xmlns:xlink="http://www.w3.org/1999/xlink" x="0px" y="0px"
	 viewBox="0 0 168.5 200.1" enable-background="new 0 0 168.5 200.1" xml:space="preserve">
<g>
	<g>
		<polygon fill="none" points="84.9,79.7 86.9,66.9 83.8,66.9 83,71.8 78.9,71.8 79.7,66.9 76.4,66.9 74.3,79.7 77.7,79.7 
			78.5,74.6 82.6,74.6 81.8,79.7 		"/>
		<polygon fill="none" points="92.5,76.9 89,76.9 90.6,66.9 87.5,66.9 85.4,79.7 92.1,79.7 		"/>
		<g>
			<polygon fill="none" points="100.1,66.9 91.8,66.9 91.3,69.7 94.1,69.7 93,76.9 93,76.9 92.5,79.7 92.5,79.7 92.5,79.7 
				95.8,79.7 97.4,69.7 99.6,69.7 			"/>
			<polygon fill="none" points="108.9,66.9 104.6,74.7 102.7,66.9 100.6,66.9 100.5,66.9 99.9,70.2 102.5,79.7 105,79.7 112.6,66.9 
							"/>
		</g>
	</g>
	<g>
		<path fill="none" d="M111.1,78.8c-0.1,0.7-0.8,1.3-1.4,1.3c-0.7,0-1.2-0.6-1-1.3c0.1-0.7,0.8-1.3,1.4-1.3S111.2,78.1,111.1,78.8z"
			/>
		<path fill="none" d="M117.2,76.6c-0.3,1.7-1.1,3.5-3.1,3.5c-2,0-2.3-1.8-2-3.5c0.3-1.7,1.1-3.5,3.1-3.5
			C117.2,73.1,117.5,74.9,117.2,76.6z M114,76.6c0,0.4-0.3,1.8,0.4,1.8c0.6,0,0.9-1.4,0.9-1.8c0-0.4,0.3-1.8-0.4-1.8
			S114,76.2,114,76.6z"/>
		<path fill="none" d="M120.4,73.2l-0.1,0.8h0c0.5-0.6,0.9-1,1.7-1l-0.3,1.8c-0.1,0-0.2,0-0.3,0c-1.3,0-1.4,0.8-1.5,1.8l-0.5,3.3
			h-1.8l1-6.7H120.4z"/>
		<path fill="none" d="M123.1,80.8c0,0.4,0,0.9,0.5,0.9c0.8,0,0.9-1.3,1-1.8l0.1-0.9h0c-0.2,0.2-0.4,0.5-0.5,0.7
			c-0.2,0.2-0.5,0.3-0.8,0.3c-0.7,0-1-0.5-1.3-1.1c-0.2-0.7-0.2-1.5-0.1-2.3c0.2-1.2,0.8-3.6,2.4-3.6c0.6,0,1,0.4,1.1,0.9h0l0.1-0.8
			h1.8l-1.2,7.3c-0.3,1.9-1.3,2.7-2.9,2.7c-1.6,0-2.2-0.9-2-2.4L123.1,80.8L123.1,80.8z M125.3,76.5c0-0.4,0.3-1.8-0.4-1.8
			s-0.9,1.4-0.9,1.8c0,0.4-0.3,1.8,0.4,1.8C125,78.3,125.2,76.9,125.3,76.5z"/>
	</g>
</g>
<g>
	<g>
		<path fill="#FFFFFF" d="M107.9,4.4C123.3,8,138,16.8,147,30.1c3.2,4.9,4.1,10.9,4.2,16.7c0.4,0.3,1,1.1,1.5,0.3
			c2.6-2.7,5.1-5.6,6.4-9.2c2.7,2.6,2.4,6.8,3.1,10.2c1.8,12.5,1.9,25.5-2.3,37.5c-1,2.1-0.1,4.3-0.2,6.5c-9.4,2.5-18.4,7-28.1,8.3
			c-8.4,1.3-16.9,2.8-25.4,3.3c-6.1,0.4-11.9-1.9-18-1.9c-8.5-0.3-16.9,2.1-24.5,5.8c-1.1,6.8,1.9,14,7.3,18.3
			c5.5,0,10.6-2.7,15.8-4.5c4.5-3.2,8.7-6.7,13.1-9.9c5.4-3.5,12.1-3.9,18.2-5.5c8.7-1.8,17.3-3.7,25.7-6.7
			c6.2-2.1,12.2-5.1,18.7-6.3c-4.5,6.5-7.7,13.9-10.8,21.2c-1.9,4.1-2.7,8.7-2.2,13.2c1.4,10.2,3.3,20.3,4.7,30.5
			c-18.9,8.4-37.7,17.2-56.6,25.6c0.2-6.4,4.5-12.1,3.3-18.8c-7,0.4-13.8,2-20.5,3.8c-8.3,2.3-13.4,9.7-19.1,15.5
			c-3.7,3.6-6.7,8.5-11.8,10.2c-3.9,1.4-7.9-0.6-11.4-2.3c-4.4,4.5-11,6.1-16.9,4c-4.2-1.8-5.7-6.6-7.1-10.6
			c-1.7-5.5-6.7-9.1-9.2-14.1c-3.2-6.1-2.4-15,3.3-19.4c4.8-3.1,9.7,1.6,10.6,6.3c2,0.3,4.1,1.3,6.1,0.7
			c17.5-6.3,34.5-16.2,45.4-31.8c-5.9-4.6-9.4-12.1-7.9-19.6c-3.8-1.6-6.9-5.1-6.7-9.3c-0.6-4.9,3.2-8.5,6-12.1
			c-4.1-4.6-10.8-7.8-16.9-5.6c-6.7,2.4-12.3,7.3-19.2,9.2c3.1-5.2,8-9.1,10.9-14.4c2.9-5,4.4-11.6,9.9-14.5
			c5.2-2.5,11-3.5,16.7-4.6c-2.2-5.6-8.4-7.9-13.8-9.1c-8.9-1.9-18-2.7-27-3.6c8.6-4.7,18.9-5.6,27.7-10.1
			c7.3-4.4,16.3-6.7,24.5-3.5c-12.2-7.9-27.2-8.7-41.3-8.5c6.1-4.7,13.8-6.7,20.7-9.8c14.8-6,32.4-7.5,47.2-0.6
			c6.4,3.6,12.9,7.5,17.5,13.3C121.7,15.4,112.5,10.2,107.9,4.4z M111.6,6.5c5.9,4.8,11.5,12.2,7.8,20.1
			c-5.5-6.3-12.3-11.3-19.8-15.1c-13.2-5.8-28.4-4.8-41.8-0.2c-6.9,2.7-13.8,5.5-20.5,8.7c12.3-0.1,24.9,1.5,35.9,7.4
			c1.9,1.1,3.9,2.7,4,5.1c-5.1-2.7-11.1-3.7-16.7-2.2c-5.3,1.1-9.7,4.5-14.7,6.2c-6.2,2.1-12.5,3.9-18.7,5.9
			c8.9,1.2,17.9,1.8,26.5,4.3c4.9,1.6,10.1,4.9,11.1,10.3c-5.8,1.1-11.9,2-17.3,4.5c-5.9,3-7.1,10.1-10.4,15.3
			c-2.2,3.7-5.5,6.6-8,10.1c7.3-3.1,13.9-9.6,22.4-8.5c4.6,1,9.1,3.6,12,7.5c-2.7,3.8-7.1,7.3-6.2,12.5c-0.1,3.7,2.9,6.4,6,7.9
			c10.3-5,22.3-7.5,33.6-5c9,2.1,18.1,0,27.1-0.7c12-1.2,23.2-6.2,34.6-9.7c-0.1-2-0.5-4.2,0.4-6.1c4.8-14.3,3.9-29.9,0.7-44.4
			c-2.2,3.1-4.3,6.4-7.5,8.7c-0.8-0.9-2.3-1.5-2.1-2.9c-0.1-5.2-1-10.5-3.7-15C138.3,19,125.3,11.1,111.6,6.5z M141.8,101.5
			c-12.3,4.3-25.3,5.7-37.7,9.5c-5.8,2.8-10.5,7.5-15.8,11.2c5.4,5.8,13.1,8.6,20.3,11.3c2.4,0.8,4.4,3.2,4.1,5.9
			c-0.2,9.1-5.9,16.7-10.7,24c1.6,6.3-1.2,12.2-2.9,18.1c2.7-1.1,5.4-2.3,8.1-3.5c1-3.3,4.1-6,3.6-9.7c0.2-2-0.9-4-0.6-6
			c0.2,0,0.5-0.1,0.7-0.2c1.2,5.4,0.6,10.7-2.6,15.3c14.8-6.7,29.6-13.5,44.5-20.1c-1.5-9.6-3-19.2-4.5-28.8
			c-1.4-12.1,6-22.8,11.2-33.2C153.4,96.8,147.8,99.6,141.8,101.5z M71.9,127.4c-11.3,16-28.7,26.5-47,32.9c-2,0.4-4-0.4-6-0.5
			c0,0.9,0.1,1.7,0.1,2.6c-2.2-2.4-1.5-8.6-6-9.9c-5.4-1.1-8,5.1-8.4,9.5c-1.1,7,4,12.6,8.1,17.6c3.8,4.6,3.4,12.1,9,15.2
			c4.1,1.2,9.1,1.4,12.6-1.4c6.9-4.9,12.1-11.9,17.9-18c0.9-0.8,1.6-2,3-1.9c-4.9,6.2-11,11.4-16.1,17.5c2.5,1.2,5.2,2.4,8,2.5
			c5-0.5,8.2-4.8,11.3-8.3c3.5-3.5,6.6-7.3,10.1-10.7c8-8.7,20.6-9.4,31.6-11.1c4.9-7.4,10.7-14.9,11.2-24.1c0.2-2.4-1.8-4.3-4-4.9
			c-7.3-2.6-14.6-5.8-20.2-11.3C82,124.1,77.2,127,71.9,127.4z"/>
	</g>
	<path fill="#FFFFFF" d="M67.6,109.9c9.6-4.4,20.5-5.7,30.8-3c-1.8,4.2-6.2,6.4-9.6,9.2c-4.3,4-10.3,5.1-15.7,6.8
		C69.7,119.5,67.7,114.6,67.6,109.9z"/>
	<path fill="#FFFFFF" d="M76.2,132.8c2.4,0.2,3.1,3.9,0.4,4.3c-2.2,0.2-3.9,1.9-6.1,2.1C72.1,136.8,75.5,135.9,76.2,132.8z"/>
	<path fill="#686868" d="M99.8,0c5.4,0.5,10.9,0.2,15.9,2.7c7.8,3.1,15.5,6.6,22.1,11.9c7.1,6.6,14.8,13.8,16.3,23.8
		c2-0.9,1.7-4.7,2.3-7c2.1,2,4.7,3.2,6.7,5.3c2.5,4.6,2.6,10,3.3,15.1c1.2,9.7,1.2,19.7-1.3,29.2c-0.2,3-2.2,5.7-1.8,8.8
		c1.7-0.1,3.5-0.2,5.2-0.2c-6.8,9.4-12,19.9-15.8,30.8c-0.4,13.3,3.4,26.3,4.9,39.5c-21.2,9.4-42.2,19.2-63.4,28.7
		c-0.9-7.1,3.1-13.4,3.6-20.2c-6.2,0.4-12.3,2-18.3,3.9c-7.5,3-11.7,10.3-17.4,15.5c-3.5,4.1-7.3,8.7-12.9,9.9
		c-3.6,1-7.3-0.6-10.6-1.8c-7,6.1-20.6,6.3-24.9-3.1c-2.1-4.9-3.6-10.3-7.6-14.1c-6.4-6.8-8.3-17.7-3.1-25.8
		c2.9-5.2,10.9-6.7,15.1-2.2c2.1,1.7,2.4,6.3,6,5.3c15.7-5.8,31-14.3,41.5-27.7c-5-4.9-7.9-11.7-7.3-18.7c-6.9-4-8.3-14.1-3.8-20.4
		c0.6-1,1.6-1.8,1.8-3.1c-3.7-2.7-8.9-3.5-12.9-1.1c-4.7,2.5-9.3,5.3-14.2,7.5c-4.1,1.4-8.6,1.6-12.6,3.4c4.3-5.6,7.6-11.9,12.5-17
		c5.4-5.2,6.5-13.2,11.5-18.6c4-3.8,9.5-5.3,14.7-6.3c0.1-1.8-2.3-1.6-3.5-2.4c-13.3-3.4-27.1-4.3-40.7-5.1c4-2.4,7.5-5.4,11.6-7.7
		c10.6-4.3,22.7-5.7,32.1-12.5c-10.5-1.9-21.3-0.8-32-1c4.7-3.2,8.3-8.2,13.7-10.3C49.9,8.9,63.9,2.4,79,2.7
		c9.6-0.5,19.3,2.3,27.7,6.7C104.6,6.1,102.3,3,99.8,0z M104.2,2.3c3.2,6.9,11.7,10,13.2,17.8c-4.1-4.4-9.5-7.3-14.6-10.4
		c-16.3-8.1-35.9-6-52.1,1.2c-7.7,3.5-16.6,5.8-22.3,12.6c11.8,0.1,23.8-0.6,35.1,3.2c-7,0.5-12.8,4.8-19.2,7.2
		c-9,3.7-19.9,4.1-26.9,11.3c9.7,0.5,19.3,1.6,28.9,3.3c5.1,0.9,10.6,2.3,14.1,6.4c-5.8,1.3-12.2,2.1-17.1,5.8
		c-5.4,4.3-6.3,11.7-10.5,17c-4,4.6-7.9,9.4-11.3,14.6c8.6-0.2,15.4-6.5,23.1-9.7c5.1-1.8,10.8-0.1,14.6,3.6
		c-2.4,3.3-5.7,6.7-5.2,11.1c-0.5,4.7,2.2,9.1,6.3,11.2c-0.6,7.4,2.1,14.9,8.1,19.5c-10.9,14.4-27.1,23.8-43.8,29.7
		c-1.5,0.2-3.1-0.2-4.5-0.5c-1.4-4.8-6.5-9.5-11.7-6.7c-7.2,4.6-8.1,15.6-3.7,22.6c2.5,4.5,6.9,7.8,8.5,12.8
		c1.5,4.3,3.2,9.4,7.7,11.4c5.7,2,12.4,1.1,16.9-3.1c3.5-0.5,6.7,2.8,10.4,1.8c5.7-0.8,9.3-5.7,12.9-9.6c6.1-5.8,11-13.7,19.4-16.4
		c6.3-1.9,12.8-3.1,19.4-4c1.2,6.8-4,12.6-3.2,19.4c19.8-8.5,39.2-18,59-26.5c-1-10.5-3.3-20.9-4.5-31.5c0.1-3.2-0.5-6.6,0.8-9.7
		c3.4-9.1,7.6-17.9,13-26c-1,0-2.1,0.1-3.1,0.3c0-2.2-0.5-4.6,0.4-6.7c4.9-14.4,3.9-30.1,0.8-44.8c-0.3-2.9-2.8-4.4-5.1-5.8
		c-0.4,3.5-2.3,6.5-4.6,9.1c-0.6-4.5-1.3-9.2-3.6-13.2c-6.4-10.3-16.1-18.5-27.3-23.2C116.5,5.1,110.7,1.8,104.2,2.3z"/>
	<path fill="#686868" d="M65.8,108.6c8.2-3.4,17.2-5.9,26.2-4.6c3,0.3,5.9,1.2,9,1.2c-1,7.2-9.1,10.2-14,14.7
		c-4.7,2-9.7,4.4-14.8,4.5C67.8,120.5,65.6,114.3,65.8,108.6z M67.6,109.9c0.1,4.7,2.1,9.6,5.5,13c5.4-1.7,11.4-2.8,15.7-6.8
		c3.4-2.8,7.8-5,9.6-9.2C88.2,104.1,77.2,105.5,67.6,109.9z"/>
	<path fill="#EC671C" d="M71.9,127.4c5.3-0.3,10.2-3.3,15.3-4.2c5.6,5.5,12.9,8.7,20.2,11.3c2.2,0.6,4.2,2.4,4,4.9
		c-0.5,9.2-6.3,16.8-11.2,24.1c-10.9,1.6-23.6,2.4-31.6,11.1c-3.5,3.4-6.7,7.2-10.1,10.7c-3.1,3.5-6.3,7.8-11.3,8.3
		c-2.8-0.1-5.5-1.3-8-2.5c5.1-6.1,11.1-11.3,16.1-17.5c-1.3,0-2.1,1.1-3,1.9c-5.9,6.1-11,13-17.9,18c-3.5,2.8-8.5,2.6-12.6,1.4
		c-5.7-3.1-5.2-10.6-9-15.2c-4.1-5-9.1-10.6-8.1-17.6c0.5-4.3,3-10.6,8.4-9.5c4.6,1.3,3.8,7.5,6,9.9c0-0.9-0.1-1.7-0.1-2.6
		c2,0.1,4,0.9,6,0.5C43.1,153.9,60.6,143.4,71.9,127.4z M76.2,132.8c-0.7,3.1-4.1,4-5.6,6.4c2.2-0.2,3.8-1.9,6.1-2.1
		C79.3,136.7,78.6,133,76.2,132.8z"/>
	<g>
		<path fill="#111D33" d="M104.2,2.3c6.5-0.5,12.3,2.8,18.1,5.2c11.2,4.7,20.9,12.9,27.3,23.2c2.3,4,3,8.7,3.6,13.2
			c2.3-2.6,4.2-5.6,4.6-9.1c2.2,1.4,4.7,3,5.1,5.8c3.1,14.7,4.1,30.3-0.8,44.8c-0.9,2.1-0.4,4.4-0.4,6.7c1-0.3,2-0.3,3.1-0.3
			c-5.4,8.1-9.6,16.9-13,26c-1.3,3.1-0.7,6.4-0.8,9.7c1.2,10.5,3.6,20.9,4.5,31.5c-19.8,8.6-39.2,18-59,26.5
			c-0.8-6.8,4.4-12.6,3.2-19.4c-6.5,0.9-13.1,2.1-19.4,4c-8.4,2.7-13.3,10.5-19.4,16.4c-3.6,4-7.2,8.8-12.9,9.6
			c-3.6,1-6.9-2.3-10.4-1.8c-4.5,4.2-11.2,5.1-16.9,3.1c-4.5-2-6.2-7.1-7.7-11.4c-1.6-5-5.9-8.3-8.5-12.8
			c-4.4-6.9-3.5-17.9,3.7-22.6c5.2-2.8,10.2,1.9,11.7,6.7c1.5,0.3,3,0.8,4.5,0.5c16.8-6,32.9-15.3,43.8-29.7
			c-6-4.6-8.7-12.1-8.1-19.5c-4-2.2-6.8-6.6-6.3-11.2c-0.5-4.4,2.8-7.8,5.2-11.1c-3.7-3.8-9.5-5.5-14.6-3.6
			c-7.7,3.1-14.4,9.4-23.1,9.7c3.3-5.2,7.2-10,11.3-14.6c4.2-5.2,5.1-12.6,10.5-17c4.9-3.7,11.2-4.5,17.1-5.8
			c-3.5-4.1-9-5.5-14.1-6.4c-9.6-1.6-19.2-2.7-28.9-3.3c7-7.2,18-7.7,26.9-11.3c6.4-2.4,12.2-6.7,19.2-7.2
			c-11.3-3.8-23.4-3.1-35.1-3.2c5.6-6.8,14.5-9.1,22.3-12.6c16.3-7.1,35.8-9.2,52.1-1.2c5.1,3.1,10.5,6,14.6,10.4
			C115.9,12.3,107.3,9.1,104.2,2.3z M107.9,4.4c4.7,5.8,13.8,11,10.8,19.8c-4.6-5.9-11.1-9.7-17.5-13.3C86.3,4,68.8,5.5,53.9,11.5
			c-6.9,3.2-14.6,5.2-20.7,9.8c14.1-0.2,29.1,0.7,41.3,8.5C66.3,26.7,57.3,29,50,33.4c-8.8,4.5-19.1,5.4-27.7,10.1
			c9,1,18.1,1.7,27,3.6c5.4,1.2,11.6,3.5,13.8,9.1c-5.7,1.1-11.5,2-16.7,4.6c-5.6,2.9-7,9.4-9.9,14.5c-2.9,5.4-7.8,9.2-10.9,14.4
			c6.9-1.9,12.5-6.8,19.2-9.2c6.2-2.2,12.8,1,16.9,5.6c-2.8,3.5-6.6,7.2-6,12.1c-0.2,4.3,2.9,7.8,6.7,9.3c-1.5,7.5,2,15,7.9,19.6
			c-10.8,15.5-27.8,25.5-45.4,31.8c-2,0.6-4.1-0.4-6.1-0.7c-0.9-4.7-5.8-9.3-10.6-6.3c-5.7,4.4-6.5,13.3-3.3,19.4
			c2.5,5.1,7.5,8.6,9.2,14.1c1.5,4,2.9,8.8,7.1,10.6c5.9,2.1,12.5,0.4,16.9-4c3.5,1.6,7.4,3.6,11.4,2.3c5.1-1.7,8.1-6.6,11.8-10.2
			c5.7-5.8,10.8-13.2,19.1-15.5c6.7-1.8,13.6-3.5,20.5-3.8c1.3,6.6-3.1,12.3-3.3,18.8c18.9-8.4,37.7-17.2,56.6-25.6
			c-1.4-10.2-3.2-20.4-4.7-30.5c-0.5-4.5,0.2-9.1,2.2-13.2c3.1-7.3,6.3-14.6,10.8-21.2c-6.5,1.2-12.5,4.2-18.7,6.3
			c-8.3,3-17,4.9-25.7,6.7c-6.1,1.6-12.8,2-18.2,5.5c-4.5,3.2-8.7,6.7-13.1,9.9c-5.1,1.8-10.2,4.4-15.8,4.5
			c-5.3-4.2-8.4-11.5-7.3-18.3c7.5-3.7,16-6.1,24.5-5.8c6.1-0.1,11.9,2.2,18,1.9c8.5-0.5,16.9-2,25.4-3.3c9.8-1.3,18.7-5.8,28.1-8.3
			c0.1-2.2-0.8-4.4,0.2-6.5c4.2-12,4.1-25,2.3-37.5c-0.8-3.4-0.4-7.6-3.1-10.2c-1.2,3.6-3.8,6.5-6.4,9.2c-0.4,0.8-1.1,0-1.5-0.3
			c0-5.8-1-11.7-4.2-16.7C138,16.8,123.3,8,107.9,4.4z M65.8,108.6c-0.2,5.8,2,11.9,6.3,15.8c5.1,0,10.2-2.5,14.8-4.5
			c4.9-4.5,13-7.6,14-14.7c-3-0.1-6-1-9-1.2C83,102.7,74.1,105.1,65.8,108.6z"/>
	</g>
	<path fill="#111D33" d="M111.6,6.5c13.7,4.5,26.8,12.5,34.7,24.8c2.7,4.5,3.6,9.8,3.7,15c-0.2,1.4,1.3,2,2.1,2.9
		c3.1-2.3,5.3-5.6,7.5-8.7c3.1,14.5,4.1,30.1-0.7,44.4c-0.9,1.9-0.4,4.1-0.4,6.1c-11.4,3.5-22.6,8.5-34.6,9.7
		c-9,0.7-18.1,2.8-27.1,0.7c-11.4-2.5-23.3,0-33.6,5c-3.1-1.5-6.1-4.1-6-7.9c-0.8-5.2,3.5-8.7,6.2-12.5c-2.8-3.9-7.3-6.4-12-7.5
		C42.8,77.5,36.3,84,29,87.1c2.5-3.5,5.8-6.4,8-10.1c3.3-5.1,4.5-12.3,10.4-15.3c5.4-2.5,11.5-3.4,17.3-4.5
		c-1-5.5-6.2-8.7-11.1-10.3c-8.6-2.5-17.6-3.1-26.5-4.3c6.2-2,12.5-3.8,18.7-5.9c5.1-1.7,9.4-5.1,14.7-6.2
		c5.6-1.6,11.6-0.5,16.7,2.2c-0.1-2.4-2.1-4-4-5.1c-11-5.9-23.6-7.4-35.9-7.4c6.7-3.1,13.6-6,20.5-8.7c13.4-4.6,28.6-5.6,41.8,0.2
		c7.5,3.7,14.3,8.7,19.8,15.1C123.1,18.8,117.4,11.3,111.6,6.5z"/>
	<path fill="#111D33" d="M141.8,101.5c6-1.8,11.6-4.7,17.7-6.3c-5.1,10.4-12.6,21.1-11.2,33.2c1.5,9.6,3,19.2,4.5,28.8
		c-14.8,6.7-29.6,13.5-44.5,20.1c3.2-4.6,3.7-9.9,2.6-15.3c-0.2,0-0.5,0.1-0.7,0.2c-0.3,2,0.8,3.9,0.6,6c0.4,3.7-2.6,6.4-3.6,9.7
		c-2.7,1.2-5.3,2.5-8.1,3.5c1.7-5.9,4.4-11.8,2.9-18.1c4.8-7.3,10.5-14.9,10.7-24c0.3-2.7-1.6-5.1-4.1-5.9
		c-7.2-2.8-14.9-5.5-20.3-11.3c5.3-3.6,9.9-8.4,15.8-11.2C116.4,107.1,129.5,105.7,141.8,101.5z"/>
</g>
</svg>
