<?xml version="1.0" encoding="utf-8"?>
<!-- Generator: Adobe Illustrator 18.1.1, SVG Export Plug-In . SVG Version: 6.00 Build 0)  -->
<svg version="1.1" id="Layer_1" xmlns="http://www.w3.org/2000/svg" xmlns:xlink="http://www.w3.org/1999/xlink" x="0px" y="0px"
	 viewBox="0 0 960 774.1" enable-background="new 0 0 960 774.1" xml:space="preserve">
<g>
	<g>
		<polygon fill="none" points="391.6,220.3 450.2,184.6 439.6,172.4 416.8,186 403.2,169.4 425.8,156 414.4,142.7 355.8,177.9 
			367.1,191.5 390.4,177.2 404.2,193.6 381.2,207.8 		"/>
		<polygon fill="none" points="429,241.5 416.7,227.4 462.7,199.9 452.4,187.1 393.3,222.9 416,249.4 		"/>
		<g>
			<polygon fill="none" points="495,238.3 466.5,204.7 453.7,212.4 463.4,223.7 430.2,243.5 430.2,243.5 417.4,251.2 417.4,251.2 
				417.6,251.1 428.7,264.8 474.7,237.2 481.9,246 			"/>
			<polygon fill="none" points="525.1,273.9 479,283 503.9,248.8 497,240.3 496.4,240.1 481.1,249.2 451.2,291.4 460.1,302 
				537.2,288.8 			"/>
		</g>
	</g>
	<g>
		<path fill="none" d="M483.9,323c-3.1,1.8-7.4,1.3-10-1.6c-2.6-2.9-1.6-6.6,1.6-8.7c3.1-1.8,7.4-1.3,10,1.6S487.3,321,483.9,323z"
			/>
		<path fill="none" d="M514.3,340.2c-7.7,4.7-17.7,7.7-24.3-0.8c-6.8-8.3-0.7-15.4,7.5-19.5c7.7-4.7,17.9-7.5,24.5,0.6
			C528.1,328.4,521.9,335.8,514.3,340.2z M503.1,327.5c-2.1,1-8.1,5-5.9,7.9c2.3,2.5,8.9-1.1,10.7-2.2s8.3-5.2,5.9-7.9
			C511.5,322.5,505.1,326.3,503.1,327.5z"/>
		<path fill="none" d="M538.5,341.7l-3.7,2.3l0,0c3.8-0.1,7,0.7,10.2,3.4l-8.1,5c-0.5-0.6-0.6-0.8-0.8-1c-4.3-5.1-7.9-2.6-12.8-0.1
			l-15.2,9.3l-6.4-7.3l30.5-18.3L538.5,341.7z"/>
		<path fill="none" d="M517.1,378.3c-2,1.2-3.7,3.2-1.9,5.4c2.9,3.3,8.3-0.6,10.9-2.3l4.1-2.2l0,0c-1.5,0.2-3,0.4-4.6,0
			c-1.4-0.2-3-0.9-3.7-2.3c-2.6-2.9-1.3-6.2,0.2-8.9c1.8-3.1,5.7-6.1,8.8-8.2c5.7-3.1,17-9,22.5-2.4c2.3,2.5,1.7,5.5,0,7.8l0,0
			l3.7-2.3l6.4,7.3l-33.3,20.2c-8.9,5.7-15.6,4.1-20.8-2.5c-5.6-6.7-3.5-11.9,2.9-16.6l5.2,6.7L517.1,378.3z M541.7,372.7
			c1.6-0.9,8.1-5,5.8-7.5c-2.3-2.5-8.9,1.1-10.5,2c-2,1.2-8.3,5.2-5.7,7.7C533.1,377.5,540.1,373.6,541.7,372.7z"/>
	</g>
</g>
<g>
	<path fill="#F6F7F8" d="M104.5,33.9c12,1.1,23.6,4.6,35.3,7c-3.4,24.8-5.8,49.8-8.7,74.7c-0.3,5.7-1.7,12.7,3.9,16.3
		c2.4-0.4,6.2-0.2,6.9-3.3c3.8-14.3,3.9-29.3,6.1-43.9c0.8-14.7,7.5-31.7,22.9-36.2c17.4-4.1,37.3,0.5,50.3,13.1
		c11.2,11.2,10.8,28.4,9.5,43.1c-3,26-5.8,52-8.9,78c-11.6-1.6-22.9-4.6-34.3-7c2.2-31.3,9-62.4,8.9-93.9c-2.1-1.5-4.3-2.9-6.5-4.4
		c-2.2,1.3-5.4,2.3-5.8,5.3c-3.9,18-4.6,36.5-7.4,54.7c-1.9,10.4-6.4,21.5-16.3,26.6c-16.4,8.1-36.6,2.7-50.7-7.8
		c-12.7-9.9-14.8-27.4-14-42.5C98.4,87,101.7,60.5,104.5,33.9z"/>
	<path fill="#F6F7F8" d="M90.3,160.8c11.1,1.5,22,4.4,32.9,6.7c-3.5,28.4-6.6,56.8-9.5,85.2c0,7.5,8.8,8.4,14,11
		c3.3-31.1,6.9-62.1,10.6-93.1c10.6,2.2,21,5.1,31.6,7.4c-3.2,30.9-7.1,61.7-10.7,92.6c5.8,0.5,16,2.4,17-5.8
		c3.3-27.8,6.5-55.6,9.5-83.4c11.7,2,23.1,5,34.8,7c-2.8,30.8-6.9,61.6-10.2,92.3c-1.4,9.6-6.3,19.4-15.1,24.2
		c-11.9,7.4-26.7,6.2-40.1,5.4c-20.2-2.9-41.1-7.6-57.6-20.1c-12-9.1-18.9-24.5-17.4-39.5C83.4,220.7,86.9,190.7,90.3,160.8z"/>
	<path fill="#F6F7F8" d="M89.7,306.4c13-4.9,27.2-1.4,40.2,1.5c25.2,6,50.8,10.9,76,16.8c-1.8,11.2-2.8,22.6-3.9,33.9
		c-28.8-5.2-57.2-12.4-85.9-18c-2,0.3-3.9,0.9-5.9,1.4c-3.4,7.3-2.6,15.6-4.2,23.3c31,6.3,61.9,13.3,92.8,19.8
		c-1.3,11.6-2.7,23.1-4,34.7c-31-6.8-62-13.4-92.9-20.4c-0.8,9.1-1.9,18.3-3.1,27.4c31,6.4,61.9,13.4,92.9,19.6
		c-0.9,12.6-2.7,25.1-4.1,37.6c-43.4-9.9-87.1-18.8-130.6-28.4c3.5-40.8,9.2-81.4,13.5-122C71.5,321.8,78.4,310.5,89.7,306.4z"/>
	<g>
		<path fill="#F6F7F8" d="M63.6,475.4c12.2-9.9,29.5-8.5,43.7-4.1c26.4,5.9,52.8,11.8,79.4,16.9c-1.5,12-3.4,24-3.9,36.1
			c-13.5-2.5-26.9-5.4-40.2-8.8c-1.9,19.2-4.3,38.3-6.7,57.4c13.2,2.2,26.1,5.6,39.2,7.9c-0.9,12.6-2.4,25.1-4.1,37.6
			c-29.2-6.5-58.5-12.8-87.8-19c-14-3.3-27.8-11.7-33.5-25.5c-8.1-18.5-2.3-39-0.7-58.2C50.5,501.5,52.2,485.4,63.6,475.4z
			 M82.5,511.3c-1.7,13.7-3.9,27.5-4.3,41.4c2.2,11.5,15.9,9.6,24.4,12.6c2.4-19,4.9-38,6.3-57C100.3,507.1,87.2,499.9,82.5,511.3z"
			/>
	</g>
	<path fill="#F6F7F8" d="M697.1,511c20.6,0.3,41.3-0.9,61.9,0.6c-5.9,50.1-10.8,100.4-16.6,150.5c-1.3,7.6,4.6,15.5,12.6,15
		c29.7,0.2,59.5,0.1,89.2,0.1c5.5-55.4,10.4-110.9,16.6-166.3c21.7,0.1,43.3,0.1,65,0c-7.7,77.6-16.5,155.2-23.1,232.9
		c-54.9,0.5-109.8,0.1-164.7,0.2c-16.4-0.1-33.8-5.7-44.3-18.9c-11.9-14.5-14.1-34.3-13.5-52.4c5-51.5,10-103.1,15.3-154.6
		C695.7,515.6,695.5,513,697.1,511z"/>
	<path fill="#F6F7F8" d="M30.4,686.7c3-30.5,7.4-60.9,10.1-91.5c11,1.7,21.7,4.9,32.7,6.8c-1.8,25-5.5,49.7-8.1,74.6
		c-1,6.1-1.9,14,3.6,18.3c14.2,7.9,30.1,12.8,46.3,13.5c5.4,0.6,10.8-3.6,11.6-8.9c1.8-16,4-32,5.3-48.1c-12.3-2.8-24.7-5.5-37-7.9
		c1-12,2.5-24,4.1-36c23.8,6.3,48.2,10.2,72.2,15.9c-2.9,29.8-6.9,59.4-9.9,89.1c-1.1,10.1-5.3,20.5-13.9,26.4
		c-10.8,7.5-24.7,7.7-37.4,6.6c-21.2-2.3-43.1-6.6-60.8-19.2C36.7,717.6,28.7,702.2,30.4,686.7z"/>
</g>
<g>
	<g>
		<path fill="#221E1F" d="M259.8,70C286.6,35.1,323,0.4,370,0.1c35.1-1.3,69.1,16.7,91.4,43.2c38.4,44.1,76.8,88.2,115.2,132.3
			c19.6-20.7,37.3-43.1,56.5-64.1c42.5,45.9,83.8,93,125.9,139.3c13.3,14.5,25.7,29.8,40.3,43c-23.8,24-48.6,47-72.1,71.2
			c23.7,26.7,47,53.8,72.1,79.2c-12.8,12.1-25.4,24.5-37.9,36.9c59.2,0.6,118.4-0.1,177.6-0.1c6.7,0,13.5,0,20,1.5
			c-6.3,83.2-17,166.1-24.4,249.2c-1.3,13.7-3.9,27.3-4.8,41.1c-64.6,0.1-129.3,0-193.9,0c-11.8-0.2-24,1-35.4-2.8
			c-26.3-7.8-46.7-32.1-49.3-59.4c-3.3-39.7,1.3-79.4,5.9-118.8c-12.8,13.5-24.9,27.6-38.1,40.8c-20.3-23.2-40.6-46.5-61-69.7
			C505.6,618.6,453,674.4,400.5,730.2c-21.7,22.8-50.6,40.3-82.4,43.3c-52,5.1-103.3-28-125.4-74.3c-0.6,23.3-7.7,48.5-28,62.1
			c-17.1,11.4-38.7,14-58.7,11c-27.2-2.3-55.2-9.4-77.1-26.5C9.6,731-1.6,706.1,0.8,681.8c4-36,8.2-72.1,12.4-108.1
			c4.3-31.8,3.5-64.6,12.4-95.7c-2.5-2.5-1.1-6-0.8-9.1c5.7-47,10.9-94.1,16.4-141.1c1.8-14.5,7.9-28.7,18.2-39.2
			c-7.5-13.8-10.5-30-8.5-45.6C60,163.4,68.7,84.1,78.2,4.7C131.1,17,184,29.6,236.9,42C249.6,45.5,255.7,58.6,259.8,70z
			 M104.5,33.9c-2.8,26.6-6.1,53.1-9,79.7c-0.8,15,1.2,32.6,14,42.5c14.1,10.6,34.2,16,50.7,7.8c9.9-5.1,14.5-16.1,16.3-26.6
			c2.9-18.2,3.5-36.7,7.4-54.7c0.3-3,3.5-4,5.8-5.3c2.2,1.4,4.4,2.9,6.5,4.4c0.1,31.4-6.7,62.5-8.9,93.9c11.4,2.4,22.7,5.4,34.3,7
			c3.1-26,5.9-52,8.9-78c1.3-14.7,1.7-31.8-9.5-43.1c-13-12.5-32.8-17.2-50.3-13.1C155.5,53,148.8,70.1,148,84.7
			c-2.1,14.6-2.2,29.6-6.1,43.9c-0.7,3.1-4.4,2.9-6.9,3.3c-5.5-3.6-4.1-10.7-3.9-16.3c2.9-24.9,5.3-49.9,8.7-74.7
			C128.1,38.5,116.5,35,104.5,33.9z M318.6,93.3c-12.4,13.6-24.3,28.9-27.9,47.4c-18.6,161.6-34.2,323.7-53.8,485.1
			c-1,20.8,4.6,42.2,17.1,59c13.4,15,32.8,27.2,53.6,24.5c17.3-2.1,31.7-13.5,43.1-25.9c67.7-72.4,136.5-143.6,203.8-216.4
			c19.6,22.2,39.2,44.5,58.4,67c5.5,6.9,10.9-3.9,14.8-7.5c28.3-29.7,55.8-60,84-89.7c-1.4-4.4-5-7.4-7.8-10.9
			c-17.8-19.8-34.5-40.7-52.7-60.1c18.5-22.1,40.2-41.5,58.4-63.8c-24.6-28.6-49.7-56.7-74.4-85.3c-2.1-2.5-4.3-5-7.3-6.6
			c-20,19.7-38.9,40.6-58,61.1c-53.9-60.6-106.6-122.3-160.1-183.3c-10.1-12.7-25.1-23.2-41.9-23C347.5,63.9,331.5,79.3,318.6,93.3z
			 M90.3,160.8c-3.4,30-6.8,59.9-10.2,89.9c-1.5,15.1,5.4,30.4,17.4,39.5c16.6,12.5,37.5,17.2,57.6,20.1c13.4,0.9,28.1,2,40.1-5.4
			c8.8-4.8,13.7-14.6,15.1-24.2c3.3-30.8,7.4-61.5,10.2-92.3c-11.7-1.9-23.1-5-34.8-7c-3,27.8-6.2,55.6-9.5,83.4
			c-1,8.2-11.2,6.3-17,5.8c3.6-30.9,7.4-61.7,10.7-92.6c-10.6-2.3-21-5.2-31.6-7.4c-3.7,31-7.3,62.1-10.6,93.1
			c-5.2-2.6-14-3.5-14-11c3-28.4,6.1-56.9,9.5-85.2C112.2,165.2,101.4,162.3,90.3,160.8z M89.7,306.4c-11.2,4.1-18.1,15.5-19.1,27
			c-4.3,40.7-10,81.3-13.5,122c43.5,9.6,87.2,18.6,130.6,28.4c1.4-12.5,3.3-25,4.1-37.6c-31-6.2-61.9-13.2-92.9-19.6
			c1.2-9.1,2.3-18.2,3.1-27.4c30.9,7,61.9,13.6,92.9,20.4c1.3-11.6,2.7-23.1,4-34.7c-31-6.5-61.9-13.5-92.8-19.8
			c1.5-7.8,0.7-16,4.2-23.3c1.9-0.5,3.9-1.1,5.9-1.4c28.7,5.7,57.2,12.8,85.9,18c1.1-11.3,2.2-22.6,3.9-33.9
			c-25.3-5.9-50.8-10.8-76-16.8C116.8,305,102.7,301.5,89.7,306.4z M63.6,475.4c-11.4,9.9-13.2,26.1-14.5,40.2
			c-1.6,19.2-7.5,39.7,0.7,58.2c5.7,13.8,19.5,22.2,33.5,25.5c29.3,6.2,58.6,12.5,87.8,19c1.7-12.5,3.2-25,4.1-37.6
			c-13.1-2.3-26-5.7-39.2-7.9c2.4-19.1,4.8-38.3,6.7-57.4c13.3,3.4,26.7,6.3,40.2,8.8c0.5-12.1,2.4-24.1,3.9-36.1
			c-26.6-5.1-53-11-79.4-16.9C93.2,466.9,75.9,465.5,63.6,475.4z M697.1,511c-1.6,2-1.4,4.7-1.7,7.1
			c-5.2,51.5-10.3,103.1-15.3,154.6c-0.6,18.1,1.6,37.9,13.5,52.4c10.5,13.2,27.9,18.8,44.3,18.9c54.9-0.1,109.8,0.3,164.7-0.2
			c6.6-77.7,15.4-155.3,23.1-232.9c-21.7,0.2-43.3,0.2-65,0c-6.2,55.3-11.1,110.9-16.6,166.3c-29.7,0-59.5,0.2-89.2-0.1
			c-8,0.5-13.9-7.4-12.6-15c5.8-50.1,10.6-100.4,16.6-150.5C738.5,510.1,717.7,511.3,697.1,511z M30.4,686.7
			c-1.7,15.5,6.3,30.9,18.8,39.8c17.7,12.6,39.6,16.9,60.8,19.2c12.6,1,26.5,0.8,37.4-6.6c8.7-5.9,12.8-16.3,13.9-26.4
			c3-29.7,7-59.4,9.9-89.1c-24-5.6-48.4-9.6-72.2-15.9c-1.6,12-3,24-4.1,36c12.4,2.4,24.7,5.1,37,7.9c-1.4,16.1-3.6,32.1-5.3,48.1
			c-0.8,5.4-6.2,9.6-11.6,8.9c-16.2-0.7-32.1-5.7-46.3-13.5c-5.5-4.3-4.7-12.2-3.6-18.3c2.6-24.9,6.2-49.6,8.1-74.6
			c-11-2-21.7-5.2-32.7-6.8C37.7,625.8,33.4,656.2,30.4,686.7z"/>
	</g>
	<path fill="#221E1F" d="M394.9,283.8c25.9,30.1,52.1,60,78,90.1c-34,35.7-66.9,72.5-101.6,107.6
		C378.7,415.5,387.5,349.8,394.9,283.8z"/>
	<path fill="#221E1F" d="M82.5,511.3c4.7-11.4,17.8-4.1,26.4-3c-1.4,19.1-3.9,38.1-6.3,57c-8.5-3-22.2-1.1-24.4-12.6
		C78.6,538.8,80.8,525,82.5,511.3z"/>
</g>
<g>
	<g>
		<path fill="#00B1F0" d="M318.6,93.3c13-14,28.9-29.4,49.4-28.5c16.8-0.3,31.8,10.3,41.9,23c53.5,61,106.2,122.7,160.1,183.3
			c19.1-20.6,38-41.4,58-61.1c2.9,1.5,5.1,4.1,7.3,6.6c24.7,28.6,49.8,56.7,74.4,85.3c-18.1,22.3-39.9,41.8-58.4,63.8
			c18.2,19.5,34.9,40.3,52.7,60.1c2.8,3.4,6.4,6.5,7.8,10.9c-28.2,29.7-55.8,60-84,89.7c-3.9,3.6-9.3,14.5-14.8,7.5
			c-19.3-22.5-38.8-44.8-58.4-67c-67.2,72.8-136.1,144.1-203.8,216.4c-11.4,12.5-25.8,23.8-43.1,25.9c-20.8,2.7-40.2-9.6-53.6-24.5
			c-12.5-16.8-18.1-38.2-17.1-59c19.6-161.4,35.1-323.5,53.8-485.1C294.3,122.1,306.2,106.9,318.6,93.3z M394.9,283.8
			c-7.4,65.9-16.2,131.7-23.6,197.7c34.7-35,67.6-71.8,101.6-107.6C447,343.8,420.8,313.9,394.9,283.8z"/>
	</g>
</g>
</svg>
