<?xml version="1.0" encoding="utf-8"?>
<!-- Generator: Adobe Illustrator 18.1.1, SVG Export Plug-In . SVG Version: 6.00 Build 0)  -->
<svg version="1.1" id="Layer_2" xmlns="http://www.w3.org/2000/svg" xmlns:xlink="http://www.w3.org/1999/xlink" x="0px" y="0px"
	 viewBox="-27.5 -150.6 893.4 894.2" enable-background="new -27.5 -150.6 893.4 894.2" xml:space="preserve">
<g>
	<g>
		<g>
			<polygon fill="none" points="540.9,509.4 545.9,477.8 538.2,477.8 536.2,490.2 526.4,490.2 528.1,477.8 520,477.8 515.1,509.4 
				523.1,509.4 525.1,497.1 535.3,497.1 533.3,509.4 			"/>
			<polygon fill="none" points="559.9,502.7 551.1,502.7 555,477.8 547.3,477.8 542.1,509.4 558.6,509.4 			"/>
			<g>
				<polygon fill="none" points="578.3,477.8 557.9,477.8 556.7,484.8 563.5,484.8 560.9,502.7 560.9,502.7 559.7,509.4 
					559.7,509.4 559.7,509.4 568,509.4 571.7,484.8 577.2,484.8 				"/>
				<polygon fill="none" points="600,477.8 589.4,497.1 584.7,477.8 579.6,477.8 579.3,477.8 578.1,486.3 584.3,509.4 590.4,509.4 
					609.1,477.8 				"/>
			</g>
		</g>
		<g>
			<path fill="none" d="M605.4,507.2c-0.3,1.7-2,3.2-3.5,3.2c-1.7,0-2.9-1.5-2.4-3.2c0.3-1.7,2-3.2,3.5-3.2
				C604.4,503.9,605.7,505.7,605.4,507.2z"/>
			<path fill="none" d="M620.4,501.8c-0.8,4.2-2.7,8.6-7.6,8.6s-5.6-4.4-5-8.6c0.8-4.2,2.7-8.6,7.6-8.6
				C620.4,493.2,621.2,497.5,620.4,501.8z M612.5,501.8c0,0.9-0.8,4.4,0.9,4.4c1.5,0,2.1-3.5,2.1-4.4s0.8-4.4-0.9-4.4
				C613.1,497.4,612.8,500.7,612.5,501.8z"/>
			<path fill="none" d="M628.3,493.6l-0.3,2l0,0c1.2-1.5,2.1-2.4,4.2-2.4l-0.8,4.4c-0.3,0-0.5,0-0.8,0c-3.2,0-3.5,2-3.7,4.4
				l-1.2,8.2h-4.4l2.4-16.5L628.3,493.6L628.3,493.6z"/>
			<path fill="none" d="M635,512.1c0,0.9,0,2.1,1.2,2.1c2,0,2.1-3.2,2.4-4.4l0.3-2.1l0,0c-0.5,0.5-0.9,1.2-1.2,1.7
				c-0.5,0.5-1.2,0.8-2,0.8c-1.7,0-2.4-1.2-3.2-2.7c-0.5-1.7-0.5-3.7-0.3-5.6c0.5-2.9,2-8.8,5.9-8.8c1.5,0,2.4,0.9,2.7,2.1l0,0
				l0.3-2h4.4l-2.9,17.9c-0.8,4.7-3.2,6.7-7.1,6.7c-3.9,0-5.5-2.1-5-5.9L635,512.1L635,512.1z M640.4,501.8c0-0.9,0.8-4.4-0.9-4.4
				c-1.5,0-2.1,3.5-2.1,4.4s-0.8,4.4,0.9,4.4C639.7,506.2,640.1,502.7,640.4,501.8z"/>
		</g>
	</g>
	<path fill="#221F1F" d="M580.1-120.8c-74-28.6-155.6-36.8-233.7-23.8C255.7-129.9,170.1-85.7,105-21C42.2,41.1-2,122.5-18.7,209.1
		C-44,331.3-14.3,464.6,62.1,564.7c11.8-11.7,23-24.5,32.6-37.8C55,471.2,30.2,404.5,23.5,338c-4.6-48.5-1.8-98.3,12-143.7
		c-0.8-3,1.6-5.2,1.1-8.1c0.7-0.9,1.3-1.9,1.9-2.9c0-0.7,0-2.2,0-3c2.5-3.9,3-8.3,4.1-12.8c1.6-1.3,2.4-3,1.9-5.1
		c17.2-45.4,42.9-90.8,75.9-128.1c47.1-55,112-95.4,179.5-117.9c100-30.6,214.6-22.5,309,30.3C545.7,20.3,482.1,93.6,417.8,166.2
		c29.2,0.5,63.6,6.7,81.6,32.8c-1.4-1-2.7-2.2-3.6-3.6c-13.9-4.6-28.6-9.5-43.7-8.4c15.5,6.7,32.5,14.5,41.1,29.9
		c5.9,10.2,2.6,22.6-3.5,31.9c-13.4,21.9-34.4,39.5-59,47.3c1.3,13.1,13.1,25.5,26.5,25.3c15.5,1.5,32-7.2,38.2-22.1
		c0.6-1,1.2-2,1.9-3c2.1-11.3-7.5-20.4-17.7-23.1c-2.3-6.9,7.2-12.2,13.2-11.6c12.6-1.7,25.4,8.7,26.9,21.4
		c24.9-23.7,45.7-50.9,69-76c32-36.6,64-73.2,96.4-109.5c24.9-29.9,52.9-57.7,75.4-89.4C712.6-49.2,649.8-93.9,580.1-120.8z"/>
	<path fill="#221F1F" d="M322.5,207.6c7-6.1,12.2-14.4,19.8-19.7c0.2,3-3.3,6.1-6,7.8c7.1-1.3,13.6-5.2,20.8-6.7
		c-5.3,3.9-10.1,8.4-14.7,13.2c-6.4,7.3-13.5,15.9-13.1,26.1c0.5,0.2,1.4,0.6,1.9,0.9c7.2,2,16.2,7.3,15.1,16.1
		c-1.2,1.6-2.7,2.9-4.1,4.3c0.3,1.5,0.1,3,0.1,4.5c15.5,11.7,34.2,18.1,51.6,26.5c-19.8-5.8-39.4-13-57.5-22.9
		c-11.3-8.2-19.8,8.5-19.2,18.1l-0.7,1.1c-1.6,16.9,4.4,35.5,19,45.4c10.8,7.2,24.1,6.2,36.4,7.1c-14.9,3.5-31.1,1.5-45.3-4.3
		c-9.2-6-16.1-14.9-19.8-25.3c-1.3-6.8-2.6-13.9-4.5-20.3C301.7,254.5,306.2,227.5,322.5,207.6z"/>
	<path fill="#221F1F" d="M335.7,274.6c1.5-3.7,3.9,2.1,5.7,3c16.9,14,42.7,2.5,59.2,17.8c-0.1,24.3-31.1,31.3-49.8,23.9
		C334.2,311.7,332.2,290.3,335.7,274.6z"/>
	<path fill="#221F1F" d="M520.7,297c66.7,77.6,132.2,156.4,198.1,234.7c-67.4,1.6-135.3,0.4-202.9,0.6
		c-19.7-22.2-39.1-45.2-57.7-68.4c-0.8-27.8-1.4-57.2,9.4-83.3c5.1-11.1,15.9-20,28.5-20.1c11.8-0.2,25.2-9.6,23.8-22.5
		c0.7-8.4-9.1-12.1-16-10.8C515,322,523.4,309.7,520.7,297z"/>
	<path fill="#221F1F" d="M402.4,334.4c4.5-5,6.4-15.6,14.5-15.1c5.4,3.7,8.1,10.5,11.8,15.9c1.4,6-6.2,3.4-9.5,3.3
		c0.1,24.4,0.1,48.8,0,73.2c-2.5-0.2-5.3,0.6-7.5-0.3c0.1-24.3,0.1-48.6,0-73C408.2,339.2,399.5,340.6,402.4,334.4z"/>
	<path fill="#221F1F" d="M394.5,355.5c2.5-0.1,4.9,0,7.4,0c0,22.7,0.1,45.5-0.1,68.2c-2.5,2.4-4.9,4.9-7.4,7.2
		C394.5,405.7,394.4,380.6,394.5,355.5z"/>
	<path fill="#221F1F" d="M428.7,355.7c2.4-0.5,5.1-0.4,7.6-0.1c-0.1,25.1,0,50.2,0,75.2c-2.5-2.6-5.5-4.9-7.6-7.8
		C428.7,400.6,428.8,378.2,428.7,355.7z"/>
	<path fill="#221F1F" d="M832.5,467.3c2.1-7.4,5.6-14.4,8-21.8C839.4,452.9,835.9,460.6,832.5,467.3z"/>
	<path fill="#221F1F" d="M744.8,602.3c34.1-36.7,62.4-78.7,82.8-124.5c-0.1,1.1-0.1,2.2-0.2,3.4c-20,42.4-46.1,83.4-78.4,117.9
		C747.8,600.3,747.2,603.7,744.8,602.3z"/>
	<path fill="#221F1F" d="M726.9,620.4c5.3-5.7,10.9-11.1,16.5-16.5C740.3,609.8,732.9,617.3,726.9,620.4z"/>
	<path fill="#DA1A1A" d="M865.8,286.4C865.1,191.6,831,96,771,21.2c-10.6,12.6-21.4,25.1-31.9,37.8c56.4,76.8,85,173.9,76.7,269
		c-6.8,93.2-48.6,183.2-114.7,249.1c-48.2,48.6-109.2,84.3-175.1,102.6c-99.7,27.6-210.9,15.8-300.6-36.5
		c47.1-59.8,95.3-119.3,143.2-178.7c3.1-3.4,6.6-7.5,5.9-12.4c0.5-24.2,1.4-49-8.8-71.4c-4.9-11.2-15-21.3-27.6-22.1
		c-10,0.3-20.3-4.9-24.5-14.2c-5.4-7.8,1.2-21.2,11.1-19.9c0.6,0.2,1.7,0.5,2.2,0.7c-9.2-6-16.2-14.9-19.8-25.3
		c-77.5,93.5-154.9,187-232.9,280c78,96.7,199.7,158.1,322.7,162.7c20.8,1.7,43.7,1.2,64.4-1.1c86.9-7.8,173.9-41.7,242.8-99.5
		c7.2-7.6,17.5-12.6,22.9-21.7c5.3-5.7,10.9-11.1,16.5-16.5c0.5-0.5,1-1,1.5-1.5c34.1-36.7,62.4-78.7,82.8-124.5
		c2.6-3,4.3-6.7,4.9-10.5c2.1-7.5,5.6-14.4,8-21.8c0.2-0.5,0.5-1.4,0.6-1.9c0.4,0,1.1,0.1,1.5,0.1c0-0.7-0.1-2.2-0.2-2.9
		c2.2-2.6,2-7,4-9.6c0-5.1,3.8-9.1,3.1-14.3c2.2-4.4,3.7-9.4,3.8-14.3c0.3,0,0.9,0,1.2,0c-0.7-5,2.7-9,2-14.1c1.3-2.8,1.8-6,2-9.2
		c2.4-8,3.5-17,4-25.9c1.4-6,1.7-12,2-18.2c2.6-15.4,1.7-32.5,2-48.9L865.8,286.4z"/>
	<path fill="#DA1A1A" d="M117.7,59.2c67.5-0.2,135-0.1,202.4-0.1c30.7,35.3,60.8,71.3,90.7,107.3c-24.4,0.2-48.9,5.8-68.4,21.5
		c-7.6,5.3-12.8,13.6-19.8,19.7c-16.3,19.9-20.9,46.9-20.1,71.9C240.8,206.1,178.6,133.1,117.7,59.2z"/>
</g>
</svg>
