<?xml version="1.0" encoding="utf-8"?>
<!-- Generator: Adobe Illustrator 18.1.1, SVG Export Plug-In . SVG Version: 6.00 Build 0)  -->
<svg version="1.1" id="Layer_2" xmlns="http://www.w3.org/2000/svg" xmlns:xlink="http://www.w3.org/1999/xlink" x="0px" y="0px"
	 viewBox="281 152.7 255.9 289.4" enable-background="new 281 152.7 255.9 289.4" xml:space="preserve">
<g>
	<g>
		<polygon fill="none" points="377.7,408.7 382.1,391.9 377.9,391.5 376.2,398 370.8,397.4 372.5,391 368.1,390.6 363.7,407.3 
			368.1,407.7 369.9,401.1 375.3,401.6 373.6,408.3 		"/>
		<polygon fill="none" points="388.2,405.9 383.5,405.5 386.9,392.4 382.8,392 378.5,408.8 387.3,409.6 		"/>
		<g>
			<polygon fill="none" points="399.5,393.7 388.5,392.6 387.6,396.3 391.3,396.6 388.8,406 388.8,406 387.8,409.7 387.8,409.7 
				387.8,409.6 392.2,410.1 395.7,397 398.6,397.3 			"/>
			<polygon fill="none" points="411.3,394.8 404.5,404.6 403.1,394 400.3,393.7 400.1,393.7 398.9,398 401.1,411 404.5,411.3 
				416.1,395.3 			"/>
		</g>
	</g>
	<g>
		<path fill="none" d="M412.5,410.9c-0.2,0.9-1.2,1.5-2.1,1.5s-1.4-0.9-1.3-1.8c0.2-0.9,1.2-1.5,2.1-1.5S412.8,410,412.5,410.9z"/>
		<path fill="none" d="M421,408.7c-0.6,2.2-1.9,4.5-4.6,4.2c-2.7-0.3-2.8-2.6-2.1-4.8c0.6-2.2,1.9-4.5,4.5-4.2
			C421.5,404.2,421.6,406.5,421,408.7z M416.7,408.3c-0.2,0.5-0.6,2.4,0.3,2.5c0.8,0.1,1.4-1.8,1.5-2.3c0.2-0.5,0.6-2.4-0.3-2.5
			C417.4,406,416.9,407.8,416.7,408.3z"/>
		<path fill="none" d="M425.7,404.7l-0.3,1.1l0,0c0.7-0.7,1.4-1.2,2.4-1.2l-0.6,2.4c-0.1,0-0.2,0-0.4-0.1c-1.7-0.2-1.9,0.9-2.3,2.2
			l-1.1,4.4l-2.5-0.2l2.3-8.7L425.7,404.7z"/>
		<path fill="none" d="M428.2,415.1c-0.1,0.6-0.1,1.3,0.6,1.3c1.1,0.1,1.3-1.5,1.6-2.3l0.3-1.1l0,0c-0.2,0.3-0.5,0.6-0.8,0.8
			s-0.7,0.4-1.1,0.3c-0.9-0.1-1.3-0.9-1.5-1.7c-0.2-0.9-0.1-2.1,0.2-3c0.4-1.5,1.5-4.6,3.7-4.4c0.8,0.1,1.3,0.7,1.4,1.4l0,0l0.3-1.1
			l2.5,0.2l-2.5,9.5c-0.6,2.6-2.1,3.5-4.3,3.2c-2.1-0.2-2.7-1.5-2.4-3.5L428.2,415.1z M431.7,409.7c0.1-0.5,0.6-2.4-0.2-2.4
			s-1.4,1.8-1.5,2.2c-0.1,0.6-0.6,2.4,0.3,2.4C431,412.1,431.6,410.2,431.7,409.7z"/>
	</g>
</g>
<g>
	<polygon fill="#C42527" points="281,283.2 313.2,250.9 313.2,374.2 381.2,442.1 331.4,442.1 281.5,392.2 	"/>
	<polygon fill="#C42527" points="325.5,371.2 325,239.2 401,163.2 429.2,191.4 429.2,263.2 394.9,228.8 362.5,258.2 362.5,346.3 
		406.5,388.7 449.7,345.5 430.2,326 401.2,354.9 401.2,305.2 428.6,277.8 488,337.2 488,373.2 419.1,442.1 396.5,442.1 	"/>
	<polyline fill="#C42527" points="431.5,152.7 431.5,183.7 477.2,229.4 436.2,270.4 499.7,333.9 499.7,374.7 432.3,442.1 
		475.9,442.1 536.9,381.1 536.9,325.2 484.1,272.3 518.6,237.8 433.7,152.9 	"/>
</g>
</svg>
