<?xml version="1.0" encoding="utf-8"?>
<!-- Generator: Adobe Illustrator 18.1.1, SVG Export Plug-In . SVG Version: 6.00 Build 0)  -->
<svg version="1.1" id="Layer_2" xmlns="http://www.w3.org/2000/svg" xmlns:xlink="http://www.w3.org/1999/xlink" x="0px" y="0px"
	 viewBox="0 0 511.8 499.7" enable-background="new 0 0 511.8 499.7" xml:space="preserve">
<g>
	<polygon fill="none" points="262.1,428.2 266.6,399.7 259.7,399.7 257.9,410.7 248.9,410.7 250.6,399.7 243.2,399.7 238.7,428.2 
		246.1,428.2 247.9,416.9 257,416.9 255.2,428.2 	"/>
	<polygon fill="none" points="279.1,421.9 271.2,421.9 274.7,399.7 267.8,399.7 263.4,428.2 278.1,428.2 	"/>
	<g>
		<polygon fill="none" points="295.8,399.7 277.4,399.7 276.4,406 282.5,406 280,421.9 280,421.9 279,428.2 279,428.2 279.1,428.2 
			286.4,428.2 289.9,406 294.8,406 		"/>
		<polygon fill="none" points="315.5,399.7 305.8,417 301.7,399.7 297,399.7 296.7,399.7 295.6,407.1 301.1,428.2 306.9,428.2 
			323.5,399.7 		"/>
	</g>
</g>
<g>
	<path fill="none" d="M320.2,426.2c-0.2,1.5-1.7,2.8-3.2,2.8c-1.6,0-2.6-1.3-2.3-2.8c0.2-1.5,1.7-2.8,3.2-2.8
		S320.4,424.6,320.2,426.2z"/>
	<path fill="none" d="M333.8,421.2c-0.6,3.8-2.4,7.7-6.9,7.7c-4.4,0-5-3.9-4.4-7.7c0.6-3.8,2.4-7.7,6.9-7.7
		C333.8,413.5,334.4,417.4,333.8,421.2z M326.7,421.2c-0.1,0.9-0.6,4,0.9,4c1.4,0,2-3.1,2.1-4c0.1-0.9,0.6-4-0.9-4
		C327.4,417.2,326.8,420.3,326.7,421.2z"/>
	<path fill="none" d="M340.9,413.8l-0.3,1.8h0.1c1-1.3,2.1-2.2,3.8-2.3l-0.6,4c-0.2,0-0.4-0.1-0.6-0.1c-2.8,0-3.1,1.8-3.4,4
		l-1.2,7.4h-4.1l2.3-14.8H340.9z"/>
	<path fill="none" d="M346.9,430.6c-0.1,0.9,0,2.1,1.2,2.1c1.8,0,2-2.8,2.2-4.1l0.3-1.9h-0.1c-0.4,0.5-0.8,1.1-1.2,1.5
		c-0.5,0.4-1.1,0.7-1.8,0.7c-1.5,0-2.3-1.2-2.8-2.5c-0.5-1.5-0.4-3.4-0.2-5c0.4-2.6,1.7-7.9,5.3-7.9c1.4,0,2.2,0.9,2.5,2.1h0.1
		l0.3-1.8h4.1l-2.6,16.1c-0.7,4.3-2.9,6.1-6.5,6.1c-3.5,0-4.8-2-4.5-5.4H346.9z M351.7,421.1c0.1-0.8,0.6-4-0.8-4
		c-1.4,0-2,3.1-2.1,4c-0.1,0.9-0.6,4,0.9,4C351,425.1,351.6,421.9,351.7,421.1z"/>
</g>
<radialGradient id="SVGID_1_" cx="131.4982" cy="170.4642" r="137.1591" gradientTransform="matrix(0.866 0.5 -0.9 1.5588 171.0352 -161.0123)" gradientUnits="userSpaceOnUse">
	<stop  offset="0" style="stop-color:#00C0DB"/>
	<stop  offset="0.2655" style="stop-color:#03A9C7"/>
	<stop  offset="0.8196" style="stop-color:#0A6E95"/>
	<stop  offset="1" style="stop-color:#0C5A83"/>
</radialGradient>
<path fill="url(#SVGID_1_)" d="M211.3,13.7c-27,4.4-62,13.7-96.5,37C77.5,84,35.2,144.4,102.1,216.4l-84.9,82.2l0,0
	c0,9.5,3.3,19.2,8.3,28.6c143.4-135.8,220.3-230,220.3-277.4C245.8,25.5,227,16.8,211.3,13.7z"/>
<path fill="#FFFFFF" d="M114.9,50.8c-4.6,3.1-9.3,6.5-13.9,10.2c-48.1,38.4-83.8,77.4-83.8,237.6l84.9-82.2
	C35.2,144.4,77.5,84,114.9,50.8z"/>
<g>
	<g>
		<path fill="#FFFFFF" d="M9,305.5C8.9,305-3.8,256,7.6,196.8c6.7-34.8,20.2-66.2,40.3-93.4c25-34,60.3-61.5,104.8-81.7l1.3,2.7
			c-0.2,0.1-18.6,10.1-38.1,27.5c-20.7,18.4-45.7,47.8-47.4,83.8c-1.3,26.7,10.4,53.6,34.7,79.8l1,1.1L9.6,308L9,305.5z"/>
		<path fill="#1D1D1B" d="M153.3,23.1L153.3,23.1 M153.3,23.1c0,0-18.5,10-38.4,27.7C77.5,84,35.2,144.4,102.1,216.4l-84.9,82.2
			l-6.8,6.6C10.4,305.1-40.8,111.1,153.3,23.1 M153.3,20.1L153.3,20.1l0,2.8l-1.2-2.5c-44.7,20.3-80.2,47.9-105.4,82.2
			c-20.2,27.4-33.8,59-40.5,94C-5.3,256,7.4,305.4,7.5,305.9l1.3,5l3.7-3.6l6.8-6.6l84.9-82.2l2.1-2l-2-2.2
			c-24-25.9-35.6-52.4-34.3-78.7c0.9-19.6,9.8-49.8,46.9-82.7c19.4-17.2,37.7-27.2,37.8-27.3l-1.4-2.9L153.3,20.1L153.3,20.1z"/>
	</g>
	<g>
		<path fill="#FFFFFF" d="M245.8,494.2c-39.5,0-76.1-8.4-108.8-25.1c-26.1-13.3-49.8-31.9-70.3-55.1c-34.9-39.6-48.9-79.8-49.1-80.2
			l-0.3-0.9l0.7-0.7c2.2-2,4.3-4.1,6.4-6.1C96.9,257.6,152,199.8,188.3,154.4c37.2-46.5,56-81.7,56-104.6
			c0-23.2-18.1-31.6-33.2-34.6c-6.6-1.3-12.6-1.6-16.5-1.6c-2.3,0-3.7,0.1-3.7,0.1l-0.5-3c19.5-5,39.4-7.5,59-7.5
			c49.2,0,89.5,15.9,114.6,29.2c27.2,14.5,43,29.1,43.2,29.3l2,1.8l-23.2,6.2l-0.6-0.5C362,51,332.6,42.1,321.6,39.2
			c9.9,12.4,14.1,27.5,12.8,45c-1.8,23.6-14,52.1-36.2,84.6c-17.7,25.9-41.7,54.4-71.4,84.8c-45.3,46.2-90.3,82.9-99.6,90.4
			c51.8,28.6,102.6,43.1,151,43.1c66.2,0,116.6-27.4,147.2-50.3c31.2-23.4,48.7-47.1,50.9-50.1c8.9-99.9-23.9-144.5-36.3-161.3
			c-3.3-4.5-4.6-6.3-4.4-7.9l0-0.2l0.1-0.2c0.4-0.9,0.9-1.7,1.5-2.5c2.1-2.4,5.7-4.2,11.5-5.6l0.9-0.2l0.6,0.8
			c0.4,0.6,44.3,57.6,44.3,139.6c0,25.3-5,52.7-14.5,79.4c-10.3,29-25.8,56.6-44.9,79.7C402.8,447.4,343.6,494.2,245.8,494.2z"/>
		<path fill="#1D1D1B" d="M249.4,4.8c94.7,0,156.7,58.1,156.7,58.1l-11.3,3l-8.6,2.3c-29.8-23.6-68.9-31.7-68.9-31.7
			c83.5,90-193,307.5-193,307.5c57.9,32.3,109.2,44.4,153.7,44.4c129,0,199.5-101.4,199.5-101.4c11.1-123.1-41.6-164-40.6-169.5
			c0.3-0.8,0.7-1.4,1.3-2.1c2.2-2.5,6.1-4,10.7-5.2c0,0,44,56.3,44,138.7c0,96.9-75,243.6-247.3,243.6S19.1,333.3,19.1,333.3
			c2.2-2,4.3-4.1,6.4-6.1c143.4-135.8,220.3-230,220.3-277.4c0-24.3-18.8-33-34.5-36c-6.8-1.3-13-1.6-16.8-1.6
			c-2.4,0-3.8,0.1-3.8,0.1C211.4,7,231,4.8,249.4,4.8 M249.4,1.8L249.4,1.8c-19.7,0-39.7,2.5-59.4,7.5l1,5.9c0,0,1.4-0.1,3.6-0.1
			c3.8,0,9.7,0.3,16.2,1.5c9.1,1.8,16.4,4.9,21.7,9.4c6.8,5.7,10.3,13.7,10.3,23.7c0,22.6-18.7,57.5-55.7,103.7
			c-36.2,45.3-91.3,103-163.6,171.5c-2.1,2-4.3,4-6.4,6.1l-1.4,1.3l0.6,1.8c0.6,1.7,14.2,40.9,49.3,80.7
			c20.7,23.4,44.5,42.1,70.7,55.5c32.9,16.7,69.7,25.2,109.4,25.2c98.4,0,157.9-47.1,190.5-86.6c19.2-23.2,34.8-50.9,45.1-80.1
			c9.5-26.9,14.6-54.5,14.6-79.9c0-43.1-12.1-79-22.3-101.5c-11-24.4-21.9-38.5-22.4-39.1l-1.2-1.5l-1.9,0.5
			c-6.2,1.5-9.9,3.4-12.3,6.1c-0.8,0.9-1.4,1.9-1.8,2.9l-0.1,0.3l-0.1,0.3c-0.4,2.3,1.1,4.3,4.6,9.1c6,8.1,17.1,23.3,25.7,48.9
			c10.6,31.4,14,68.7,10.3,111c-3,4-20.3,26.9-50.4,49.5c-19.4,14.5-40.1,26.1-61.8,34.4c-27,10.3-55.4,15.6-84.4,15.6
			c-47.6,0-97.5-14.1-148.3-41.8c12.3-10,55-45.2,98-89.1c29.8-30.4,53.9-59,71.6-85c22.3-32.7,34.6-61.4,36.5-85.3
			c1.3-16.3-2.2-30.5-10.5-42.5c13,3.8,38.5,12.6,59,28.9l1.2,0.9l1.5-0.4l8.6-2.3l11.3-3l5.2-1.4l-3.9-3.7
			c-0.6-0.6-16.1-15-43.5-29.5C339.4,17.8,298.9,1.8,249.4,1.8L249.4,1.8z"/>
	</g>
</g>
<path fill="#06354F" d="M437.9,116.1c2.3-2.6,5.9-4.7,11.2-5.7c28.7-5.6,62.8,33.2,62.8,33.2c-25.6-66.4-53-76.1-75.4-83
	s-50.1,7.7-50.1,7.7c-29.8-23.6-68.9-31.7-68.9-31.7c83.5,90-193,307.5-193,307.5c225.8,126.2,353.2-57,353.2-57
	c11.1-123.1-41.6-164-40.6-169.5C437.2,117,437.5,116.6,437.9,116.1z"/>
<linearGradient id="SVGID_2_" gradientUnits="userSpaceOnUse" x1="172.7522" y1="236.6601" x2="459.8983" y2="236.6601">
	<stop  offset="0" style="stop-color:#00C0DB"/>
	<stop  offset="0.2059" style="stop-color:#00BCD8"/>
	<stop  offset="0.4022" style="stop-color:#02B1CE"/>
	<stop  offset="0.5945" style="stop-color:#049DBD"/>
	<stop  offset="0.7844" style="stop-color:#0783A6"/>
	<stop  offset="0.9708" style="stop-color:#0B6088"/>
	<stop  offset="1" style="stop-color:#0C5A83"/>
</linearGradient>
<path fill="url(#SVGID_2_)" d="M172.8,346.7c20.7-21.6,64.4-63.5,64.4-63.5s16.8,24,33.7,24s47.3-18.3,47.3-50s-15-43.8-16.5-50.5
	c-1.4-6.7-0.5-10.1,8.7-19.7s86.6-80.3,86.6-80.3s76.1,57.3,61.1,173.1C343,421.8,172.8,346.7,172.8,346.7z"/>
<ellipse fill="#00D3EA" cx="293.9" cy="228.4" rx="7.7" ry="10.6"/>
<ellipse transform="matrix(0.6093 -0.793 0.793 0.6093 -121.2044 315.414)" fill="#00D3EA" cx="259.5" cy="280.7" rx="4.7" ry="14"/>
<radialGradient id="SVGID_3_" cx="246.694" cy="428.1356" r="127.3671" gradientTransform="matrix(4.489659e-11 -1 1.4 6.285523e-11 -352.6959 674.8297)" gradientUnits="userSpaceOnUse">
	<stop  offset="0" style="stop-color:#009FBF"/>
	<stop  offset="1" style="stop-color:#0C5A83"/>
</radialGradient>
<path fill="url(#SVGID_3_)" d="M71.8,385.2c39,24.5,97.4,61.3,163.8,61.3s109.7-2.9,186.1-61.3c0,0-62,85.8-174.9,85.8
	S71.8,385.2,71.8,385.2z"/>
</svg>
