<?xml version="1.0" encoding="utf-8"?>
<!-- Generator: Adobe Illustrator 18.1.1, SVG Export Plug-In . SVG Version: 6.00 Build 0)  -->
<svg version="1.1" id="Layer_3" xmlns="http://www.w3.org/2000/svg" xmlns:xlink="http://www.w3.org/1999/xlink" x="0px" y="0px"
	 viewBox="168.2 105.9 515.9 364.9" enable-background="new 168.2 105.9 515.9 364.9" xml:space="preserve">
<g>
	<g>
		<polygon fill="none" points="392.3,157.3 396.8,128.8 389.9,128.8 388.2,139.8 379.1,139.8 380.8,128.8 373.4,128.8 369,157.3 
			376.4,157.3 378.2,146 387.2,146 385.4,157.3 		"/>
		<polygon fill="none" points="409.3,151 401.4,151 404.9,128.8 398.1,128.8 393.6,157.3 408.3,157.3 		"/>
		<g>
			<polygon fill="none" points="426,128.8 407.6,128.8 406.7,135.1 412.8,135.1 410.2,151 410.2,151 409.3,157.3 409.3,157.3 
				409.3,157.3 416.7,157.3 420.2,135.1 425.1,135.1 			"/>
			<polygon fill="none" points="445.7,128.8 436.1,146.1 431.9,128.8 427.3,128.8 427,128.8 425.8,136.2 431.4,157.3 437.1,157.3 
				453.7,128.8 			"/>
		</g>
	</g>
	<g>
		<path fill="none" d="M450.4,155.3c-0.2,1.5-1.7,2.8-3.2,2.8s-2.6-1.3-2.3-2.8c0.2-1.5,1.7-2.8,3.2-2.8S450.6,153.7,450.4,155.3z"
			/>
		<path fill="none" d="M464.1,150.3c-0.6,3.8-2.4,7.7-6.9,7.7c-4.4,0-5-3.9-4.4-7.7c0.6-3.8,2.4-7.7,6.9-7.7
			C464.1,142.6,464.6,146.5,464.1,150.3z M456.9,150.3c-0.1,0.9-0.6,4,0.9,4c1.4,0,2-3.1,2.1-4c0.1-0.9,0.6-4-0.9-4
			C457.6,146.3,457.1,149.5,456.9,150.3z"/>
		<path fill="none" d="M471.2,142.9l-0.3,1.8h0.1c1-1.3,2.1-2.2,3.8-2.3l-0.6,4c-0.2,0-0.4-0.1-0.6-0.1c-2.8,0-3.1,1.8-3.4,4
			l-1.2,7.4h-4.1l2.3-14.8H471.2z"/>
		<path fill="none" d="M477.2,159.7c-0.1,0.9,0,2.1,1.2,2.1c1.8,0,2-2.8,2.2-4.1l0.3-1.9h-0.1c-0.4,0.5-0.8,1.1-1.2,1.5
			c-0.5,0.4-1.1,0.7-1.8,0.7c-1.5,0-2.3-1.2-2.8-2.5c-0.5-1.5-0.4-3.4-0.2-5c0.4-2.6,1.7-7.9,5.3-7.9c1.4,0,2.2,0.9,2.5,2.1h0.1
			l0.3-1.8h4.1l-2.6,16.1c-0.7,4.3-2.9,6.1-6.5,6.1c-3.5,0-4.8-2-4.5-5.4H477.2z M481.9,150.2c0.1-0.8,0.6-4-0.8-4
			c-1.4,0-2,3.1-2.1,4c-0.1,0.9-0.6,4,0.9,4C481.2,154.2,481.8,151,481.9,150.2z"/>
	</g>
</g>
<g id="_x30_nG9y0.tif">
	<g>
		
			<linearGradient id="SVGID_1_" gradientUnits="userSpaceOnUse" x1="27.0132" y1="410.3044" x2="354.4613" y2="410.3044" gradientTransform="matrix(1.5742 -4.564008e-02 -4.564008e-02 -1.5742 142.2692 945.892)">
			<stop  offset="0" style="stop-color:#00A8EC"/>
			<stop  offset="1" style="stop-color:#0F75BD"/>
		</linearGradient>
		<path fill="url(#SVGID_1_)" d="M540.1,375.3c-6.2-3.1-12.1-5.9-17.9-8.8c-11.5-5.7-23-11.3-34.5-17.1c-3.2-1.6-3.2-1.6-2.2-6.1
			c3.4-13.8,9.5-26.1,18.6-36.9c10.7-12.6,23.5-22.3,38.7-28.5c9.3-3.9,19.2-6.5,29.4-6.8c8.2-0.2,16.5-0.6,24.7,0.1
			c10.6,1,20.9,4,30.7,8.4c11.5,5.2,21.6,12.4,30.2,21.5c7.3,7.7,12.9,16.5,17.1,26.1c4,8.9,6.7,18.1,7.6,27.8
			c0.7,7.4,1.8,14.8,1.4,22c-1.1,20.4-7.1,39.3-19.7,55.7c-12.8,16.6-29.3,27.6-49.4,33.7c-12.8,3.8-25.9,4.8-39,4
			c-8.4-0.5-16.8-3-24.9-5.6c-9.9-3.3-19.6-7.5-29-11.9c-11.8-5.5-23.3-11.8-35.2-17.7c-14.6-7.5-29.3-14.7-43.8-22.2
			c-20-10.1-40-20.4-60-30.7c-24.9-12.7-49.9-25.5-75-38.2c-7.8-3.9-16-7.6-24.3-10.6c-10.2-3.6-20.7-3.8-30.7,0.7
			c-14.2,6.4-21.9,17.5-22.8,33.1c-0.8,10.9,2,20.6,9,28.9c7,8.3,16.3,12.6,27.2,13.2c8.8,0.4,17.5-0.7,25.4-4.7
			c10.7-5.4,16.1-14.5,18.5-25.9c0.7-3.5,0.9-7,1.3-10.6c0.3-2.1,1-2.4,2.9-1.5c16.6,8.3,33.4,16.7,50.2,24.9
			c2.4,1.2,2.9,2.8,2.4,5.1c-3.7,14.4-10.1,27.7-20,39c-10.7,12.3-23.5,21.6-38.4,27.6c-15.9,6.3-32.5,8.2-49.6,6.8
			c-12-1.1-23.3-3.7-34.1-8.6c-11.8-5.3-22.1-12.6-30.9-22.1c-11.7-12.7-19.1-27.8-22.9-44.7c-1.1-4.5-1.4-9.1-2-13.8
			c-0.4-2.5-1.1-5-1-7.5c0.3-16.6,2.4-32.8,9.6-48c10.6-21.7,26.6-37.6,49.2-47c10.7-4.4,21.9-6.6,33.3-7.9
			c16.3-1.7,31.6,2.1,46.7,7.6c18.3,6.7,35.4,16.1,52.9,24.8c11.8,6,23.8,11.9,35.7,17.9c3.7,1.8,7.5,3.4,11.2,5.2
			c1.8,0.9,2.5-0.2,3.1-1.5c3.4-6.4,6.9-12.6,10.2-19c5.8-11.2,11.8-22.4,17.6-33.6c6.7-13,13.7-25.8,20.1-38.7
			c4-8.2,6.6-16.7,6.7-25.9c0.2-16.5-10.7-31.5-26.6-36.4c-11.4-3.4-22.4-2.7-32.8,3c-10.7,5.7-17.2,14.7-19.2,26.7
			c-1.9,10.9-0.3,21.4,5,31.2c4.3,7.8,11.1,12.8,19.7,15c4.9,1.3,10,1.9,14.9,2.9c3.8,0.7,4,1,2.3,4.2c-7.9,15.7-15.8,31.3-23.7,47
			c-2.2,4.5-2.5,4.6-7.3,3.4c-18.1-4.8-34-13.7-46.6-27.5c-10.3-11.2-17.9-24.1-22.2-38.7c-5.1-17-5.7-34.3-2.3-51.6
			c5.7-27.6,20-49.3,44.5-64c11.5-6.8,23.9-10.8,37-13.2c6.1-1.1,12.2-1.9,18.4-1.8c7.9,0.4,15.8,1.3,23.6,2.6
			c13.3,2.5,25.6,7.8,36.7,15.6c16.1,11.3,27.4,26.1,34.2,44.5c5,13.4,6.9,27.2,6.4,41.2c-0.4,9.6-2.9,19-6.1,28.2
			c-6.4,18.1-15.5,35.1-24.2,52.2c-8.9,17.6-18,35.2-27.1,52.6c-1.3,2.6-2.7,5.3-4.2,7.7c-1.2,2.1-0.7,3,1.4,4.1
			c13,6.6,25.9,13.3,38.9,20c16.5,8.5,33,17.2,49.6,25.5c9,4.5,18.3,8,28.4,8c17,0.1,33-9.8,38-27.6c3.4-12.4,2-24.3-5.6-35
			c-6.6-9.4-15.9-14.7-27.6-15.6c-8.5-0.7-16.9,0.2-25,3.4c-9.2,3.7-15.3,10.4-18.5,19.6c-1.7,5.1-2.4,10.5-3.5,15.7
			C540.7,371.9,540.5,373.4,540.1,375.3z"/>
	</g>
</g>
</svg>
