<?xml version="1.0" encoding="utf-8"?>
<!-- Generator: Adobe Illustrator 18.1.1, SVG Export Plug-In . SVG Version: 6.00 Build 0)  -->
<svg version="1.1" id="Layer_3" xmlns="http://www.w3.org/2000/svg" xmlns:xlink="http://www.w3.org/1999/xlink" x="0px" y="0px"
	 viewBox="20 119.3 801.9 355" enable-background="new 20 119.3 801.9 355" xml:space="preserve">
<g>
	<g>
		<polygon fill="none" points="64.4,448.4 68.9,419.9 62,419.9 60.3,430.9 51.2,430.9 52.9,419.9 45.5,419.9 41,448.4 48.4,448.4 
			50.2,437.1 59.3,437.1 57.5,448.4 		"/>
		<polygon fill="none" points="81.4,442.1 73.5,442.1 77,419.9 70.2,419.9 65.7,448.4 80.4,448.4 		"/>
		<g>
			<polygon fill="none" points="98.1,419.9 79.7,419.9 78.7,426.2 84.8,426.2 82.3,442.1 82.3,442.1 81.3,448.4 81.3,448.4 
				81.4,448.4 88.7,448.4 92.2,426.2 97.1,426.2 			"/>
			<polygon fill="none" points="117.8,419.9 108.2,437.2 104,419.9 99.3,419.9 99,419.9 97.9,427.3 103.4,448.4 109.2,448.4 
				125.8,419.9 			"/>
		</g>
	</g>
	<g>
		<path fill="none" d="M122.5,446.4c-0.2,1.5-1.7,2.8-3.2,2.8c-1.6,0-2.6-1.3-2.3-2.8c0.2-1.5,1.7-2.8,3.2-2.8
			S122.7,444.9,122.5,446.4z"/>
		<path fill="none" d="M136.1,441.4c-0.6,3.8-2.4,7.7-6.9,7.7c-4.4,0-5-3.9-4.4-7.7c0.6-3.8,2.4-7.7,6.9-7.7
			C136.2,433.7,136.7,437.6,136.1,441.4z M129,441.4c-0.1,0.9-0.6,4,0.9,4c1.4,0,2-3.1,2.1-4c0.1-0.9,0.6-4-0.9-4
			C129.7,437.4,129.1,440.6,129,441.4z"/>
		<path fill="none" d="M143.2,434l-0.3,1.8h0.1c1-1.3,2.1-2.2,3.8-2.3l-0.6,4c-0.2,0-0.4-0.1-0.6-0.1c-2.8,0-3.1,1.8-3.4,4l-1.2,7.4
			h-4.1l2.3-14.8H143.2z"/>
		<path fill="none" d="M149.2,450.8c-0.1,0.9,0,2.1,1.2,2.1c1.8,0,2-2.8,2.2-4.1l0.3-1.9h-0.1c-0.4,0.5-0.8,1.1-1.2,1.5
			c-0.5,0.4-1.1,0.7-1.8,0.7c-1.5,0-2.3-1.2-2.8-2.5c-0.5-1.5-0.4-3.4-0.2-5c0.4-2.6,1.7-7.9,5.3-7.9c1.4,0,2.2,0.9,2.5,2.1h0.1
			l0.3-1.8h4.1l-2.6,16.1c-0.7,4.3-2.9,6.1-6.5,6.1c-3.5,0-4.8-2-4.5-5.4H149.2z M154,441.3c0.1-0.8,0.6-4-0.8-4c-1.4,0-2,3.1-2.1,4
			c-0.1,0.9-0.6,4,0.9,4C153.3,445.3,153.9,442.1,154,441.3z"/>
	</g>
</g>
<g>
	<path fill="#31287D" d="M27.7,467.1c0-73.1,0-145.6,0-218.5c30.9,0,61.3,0,92.5,0c0,49.1,0,98.1,0,147.5c23.3,0,45.9,0,69.1,0
		c0-48.9,0-98,0-147.5c2.4-0.1,4.1-0.3,5.9-0.3c28.3,0,56.7-0.3,85,0.1c22.2,0.3,44.1,3.5,64.6,12.7c29.1,13.1,46.7,35.6,53.2,66.7
		c5.5,26.4,5.2,52.6-4.2,78.2c-9.8,26.7-28.6,44.4-55.1,54.1c-13.2,4.8-27,7-41.1,7c-87.8,0.1-175.6,0-263.5,0
		C32.1,467.1,29.9,467.1,27.7,467.1z M271.8,317.4c-0.2,1-0.5,1.7-0.5,2.3c0,26,0,52-0.1,78c0,3,1.3,3.8,4,3.6
		c4.8-0.4,9.7-0.3,14.4-1.1c20-3.3,34.9-13.7,36.4-36.5c0.8-12.5-1.3-24.7-11-34C302.9,317.9,287.6,316.9,271.8,317.4z"/>
	<path fill="#0096CB" d="M740.9,331.5c-2.2-1.4-3.7-2.3-5.2-3.3c-10.6-7.2-22.1-12.4-35-13.7c-22.8-2.4-44.8,12.3-50.3,34.5
		c-4,15.9,1.5,29.4,13.6,39.8c16.9,14.4,36.2,15.5,56.3,8.3c5.9-2.1,11.3-5.5,16.8-8.7c3.2-1.9,4.7-1.6,4.7,2.2
		c0,22.7,0.1,45.3-0.2,68c0,1.6-2.7,4.3-4.5,4.6c-10.4,2.1-20.9,4.1-31.5,5.4c-22.2,2.7-44.2,1.6-65.5-6.1
		c-25-8.9-45-24.3-59.2-46.9c-0.8-1.2-1.7-2.3-3.7-3.3c-0.1,1.7-0.4,3.3-0.4,5c0,14.3-0.1,28.7,0.1,43c0.1,4.2-1,5.9-5.6,5.9
		c-51.2-0.1-102.3-0.1-153.5,0c-4.3,0-5.3-1.6-5.3-5.6c0.1-68.5,0.1-137,0-205.5c0-4.6,1.7-5.6,5.9-5.6c23.8,0.1,47.7,0.2,71.5,0
		c5,0,6.1,1.8,6.1,6.4c-0.2,44.8-0.1,89.7-0.2,134.5c0,7.5,0.4,8,7.8,8c20.2,0,40.3,0,60.5,0c7.4,0,7.7-0.5,5.6-7.7
		c-14.5-49,7.4-102.5,52.1-127.8c17.4-9.8,36.1-15.8,56-16.7c19.8-0.9,39.5,1,58.8,6.5c3.3,1,5.2,2.7,5.2,6.3c0,22.8,0,45.7,0,68.5
		C741.7,328.5,741.3,329.4,740.9,331.5z"/>
	<path fill="#31287D" d="M213.6,179.9c52.1,0,104,0,156.3,0c0,3.4,0,6.6,0,10.6c-31,0-62.1,0-93.5,0c0,6.4,0,12.2,0,18.5
		c1.5,0.1,3.1,0.3,4.7,0.3c33.7,0,67.3,0.1,101-0.1c2.5,0,5.7-1.6,7.5-3.5c6.9-7.5,13.2-15.4,19.9-23c1.3-1.4,3.5-2.8,5.3-2.8
		c19.2-0.2,38.3-0.1,57.5-0.1c0.3,0,0.6,0.2,1.4,0.6c-3.4,4.5-6.8,8.9-10.7,14c14,0,27.3,0,41.6,0c-3.3-4.8-6.5-9.3-10-14.3
		c1.8-0.2,3-0.4,4.2-0.4c17,0,34-0.1,51,0.1c2.4,0,5.4,1.5,7.1,3.3c5.9,6.3,11.2,13.1,16.8,19.7c0.8,1,1.8,1.7,3.7,3.5
		c0-9.5,0-17.8,0-26.4c79.3,0,157.9,0,236.9,0c0,17.6,0,35.1,0,53.1c-20.5,0-41,0-62.2,0c0-16.5,0-33,0-50.9
		c-6.5,4.8-11.9,8.7-17.3,12.7c-3.5,2.6-6.9,5.2-10.2,8c-5.1,4.4-10.7,6.4-17.7,5.9c-8.6-0.7-17.3,0.1-26-0.3
		c-2.8-0.1-5.9-1.1-8.2-2.7c-10.5-7.5-20.7-15.3-32-23.7c0,17.6,0,34.1,0,51.4c-2.6,0-4.5,0-6.4,0c-31.8,0-63.7-0.1-95.5,0.1
		c-4.1,0-7.1-0.8-8.9-4.7c-4.4-9.2-11.2-12.4-21.8-11.8c-19.6,1-39.3,0.4-59,0.2c-3.2,0-5.5,0.7-7.1,3.4c-0.2,0.4-0.8,0.7-1,1.1
		c-4.9,10.3-13.1,12-23.9,11.9c-65.6-0.5-131.3-0.3-197-0.3c-2.2,0-4.3,0-6.9,0C213.6,215.6,213.6,198,213.6,179.9z"/>
	<path fill="#31287D" d="M81.1,149.1c-18.2,0-35.3,0-53.3,0c5-7.9,9.4-15.1,14-22.1c0.5-0.8,1.8-1.3,2.9-1.5c1.3-0.3,2.7-0.1,4-0.1
		c110.3,0,220.6,0,330.9,0c2,0,3.9,0,6.3,0c0,7.7,0,15,0,22.9c-36.3,0-72.7,0-109.4,0c0,6.2,0,11.8,0,18c31,0,62,0,93.5,0
		c0,3.5,0,6.3,0,9.5c-52,0-103.9,0-156.6,0c0-8.7,0-17.4,0-26.6c-13.2,0-25.7-0.1-38.1,0.1c-1.2,0-2.6,1.8-3.5,3.1
		c-4.5,6.8-8.6,13.8-13.2,20.6c-1,1.5-3.3,3-5,3c-29.3,0.2-58.6,0.1-89.2,0.1C69.9,167.1,75.2,158.6,81.1,149.1z"/>
	<path fill="#31287D" d="M578,175.8c0-16.7,0-33.2,0-50.1c1.8-0.1,3.4-0.2,5.1-0.2c18,0,36-0.1,54,0.1c2.4,0,5.2,1.1,7,2.6
		c16.9,14,33.6,28.2,50.4,42.3c0.6,0.5,1.3,0.9,2.2,1.5c8.6-7.3,17-14.5,25.5-21.6c9-7.6,18-15.3,27-22.8c1.2-1,2.9-2,4.4-2
		c20.1-0.1,40.3-0.1,60.8-0.1c0,16.9,0,33.4,0,50.4C735.8,175.8,657.1,175.8,578,175.8z"/>
	<path fill="#31287D" d="M27.4,233.7c5.8-9.1,11.3-17.8,16.8-26.4c5.2-8.1,10.3-16.3,15.6-24.3c1-1.5,3.2-3.1,4.9-3.2
		c29.1-0.2,58.2-0.1,87.4-0.1c0.4,0,0.9,0.2,1.9,0.5c-5,7.9-9.8,15.6-14.6,23.3c-5.7,9-11.3,18-17.2,26.9c-1.2,1.7-3.8,3.6-5.7,3.6
		c-28.6,0.2-57.2,0.2-85.9,0.1C29.7,234.1,28.9,233.9,27.4,233.7z"/>
	<path fill="#31287D" d="M550.5,176.2c-19.3,0-37.7,0.1-56.2-0.1c-1.8,0-3.7-1.7-5.2-3.1c-1.6-1.6-2.7-3.7-4.1-5.6
		c-0.7,0.3-1.4,0.4-1.5,0.7c-3.7,7.5-9.9,8.6-17.7,8.4c-16.5-0.6-33-0.2-50.6-0.2c2.7-3.6,4.8-6.6,7.2-9.4
		c10.9-12.9,21.9-25.8,33-38.5c1.3-1.5,3.8-2.7,5.7-2.7c14.5-0.2,29-0.2,43.5,0c1.8,0,4.1,0.7,5.2,1.9
		c13.2,15.3,26.3,30.8,39.4,46.3C549.6,174.2,549.8,174.8,550.5,176.2z"/>
	<g>
		<path fill="#0096CB" d="M807.1,469.9c-4.3,0-7.3-2.9-7.3-6.9c0-4,3-6.8,7.3-6.8c4.1,0,7.3,2.6,7.3,6.9
			C814.4,467.2,811.3,469.9,807.1,469.9z"/>
		<path fill="#0096CB" d="M811,403.9c1.4,2.6,3.2,8.5,3.2,16c0,16.8-11.4,27.8-28.4,27.8c-17.2,0-29.6-11.7-29.6-29.9
			c0-6,1.5-11.3,2.9-14.1l7.8,2.3c-1.4,2.4-2.7,6.2-2.7,11.7c0,12.8,9.4,19.7,21.1,19.7c12.9,0,20.8-8.3,20.8-19.3
			c0-5.8-1.5-9.6-2.8-12.4L811,403.9z"/>
		<path fill="#0096CB" d="M784.8,342.3c20.6,0,29.6,14.3,29.6,27.8c0,15.1-11.1,26.7-28.7,26.7c-18.7,0-29.6-12.2-29.6-27.6
			C756.1,353.2,767.7,342.3,784.8,342.3z M785.4,386.6c12.2,0,21.4-7,21.4-16.9c0-9.7-9.1-16.9-21.6-16.9c-9.4,0-21.4,4.7-21.4,16.7
			C763.7,381.4,774.8,386.6,785.4,386.6z"/>
		<path fill="#0096CB" d="M772.5,329.5c-5.8,0-10.5,0.1-15.1,0.5v-8.9l9-0.5v-0.3c-5.3-3.1-10.2-8.3-10.2-17.5
			c0-7.6,4.6-13.4,11.2-15.8v-0.2c-3.1-1.7-5.5-3.9-7.3-6.2c-2.5-3.3-3.9-7-3.9-12.3c0-7.4,4.8-18.3,24.2-18.3h32.8v9.9h-31.6
			c-10.7,0-17.2,3.9-17.2,12.1c0,5.8,4.3,10.2,9.2,12c1.4,0.5,3.2,0.8,5.1,0.8h34.4v9.9h-33.4c-8.9,0-15.3,3.9-15.3,11.6
			c0,6.3,5.1,10.9,10.1,12.6c1.5,0.6,3.2,0.8,5,0.8h33.6v9.9h-40.6V329.5z"/>
	</g>
</g>
</svg>
