<?xml version="1.0" encoding="utf-8"?>
<!-- Generator: Adobe Illustrator 18.1.1, SVG Export Plug-In . SVG Version: 6.00 Build 0)  -->
<svg version="1.1" id="Layer_2" xmlns="http://www.w3.org/2000/svg" xmlns:xlink="http://www.w3.org/1999/xlink" x="0px" y="0px"
	 viewBox="160 38.3 521.9 518.7" enable-background="new 160 38.3 521.9 518.7" xml:space="preserve">
<g>
	<g>
		<polygon fill="none" points="350.7,537.6 355.2,509.1 348.3,509.1 346.5,520.1 337.5,520.1 339.2,509.1 331.8,509.1 327.3,537.6 
			334.7,537.6 336.5,526.3 345.6,526.3 343.8,537.6 		"/>
		<polygon fill="none" points="367.7,531.3 359.8,531.3 363.3,509.1 356.4,509.1 351.9,537.6 366.7,537.6 		"/>
		<g>
			<polygon fill="none" points="384.4,509.1 366,509.1 365,515.4 371.1,515.4 368.6,531.3 368.6,531.3 367.6,537.6 367.6,537.6 
				367.7,537.6 375,537.6 378.5,515.4 383.4,515.4 			"/>
			<polygon fill="none" points="404.1,509.1 394.4,526.4 390.3,509.1 385.6,509.1 385.3,509.1 384.2,516.5 389.7,537.6 395.4,537.6 
				412.1,509.1 			"/>
		</g>
	</g>
	<g>
		<path fill="none" d="M408.8,535.5c-0.2,1.5-1.7,2.8-3.2,2.8c-1.6,0-2.6-1.3-2.3-2.8c0.2-1.5,1.7-2.8,3.2-2.8S409,534,408.8,535.5z
			"/>
		<path fill="none" d="M422.4,530.6c-0.6,3.8-2.4,7.7-6.9,7.7c-4.4,0-5-3.9-4.4-7.7c0.6-3.8,2.4-7.7,6.9-7.7
			C422.4,522.9,423,526.8,422.4,530.6z M415.3,530.6c-0.1,0.9-0.6,4,0.9,4c1.4,0,2-3.1,2.1-4c0.1-0.9,0.6-4-0.9-4
			C416,526.6,415.4,529.7,415.3,530.6z"/>
		<path fill="none" d="M429.5,523.2l-0.3,1.8h0.1c1-1.3,2.1-2.2,3.8-2.3l-0.6,4c-0.2,0-0.4-0.1-0.6-0.1c-2.8,0-3.1,1.8-3.4,4
			l-1.2,7.4H423l2.3-14.8H429.5z"/>
		<path fill="none" d="M435.5,540c-0.1,0.9,0,2.1,1.2,2.1c1.8,0,2-2.8,2.2-4.1l0.3-1.9h-0.1c-0.4,0.5-0.8,1.1-1.2,1.5
			c-0.5,0.4-1.1,0.7-1.8,0.7c-1.5,0-2.3-1.2-2.8-2.5c-0.5-1.5-0.4-3.4-0.2-5c0.4-2.6,1.7-7.9,5.3-7.9c1.4,0,2.2,0.9,2.5,2.1h0.1
			l0.3-1.8h4.1l-2.6,16.1c-0.7,4.3-2.9,6.1-6.5,6.1c-3.5,0-4.8-2-4.5-5.4H435.5z M440.3,530.5c0.1-0.8,0.6-4-0.8-4
			c-1.4,0-2,3.1-2.1,4c-0.1,0.9-0.6,4,0.9,4C439.6,534.5,440.2,531.3,440.3,530.5z"/>
	</g>
</g>
<g>
	<path d="M304.9,45.8c9.1-1.6,18.4-2.2,27.7-2.2c89.6-0.2,179.2,0,268.7,0c2.8,0,5.7-0.2,8.5,0.3c-12.1,9.4-24.3,19.2-36.5,28.5
		c-11.3,9.1-23,18-34.5,26.9c-1.1,0.8-2,2.2-3.6,2c-60.5,0-120.9,0-181.4,0c-31-0.9-61.7,12.8-83.3,34.8c-21.7,22-34.6,52.4-35,83.5
		c-0.6,5.4,0.2,10.9,0.2,16.2c-0.2,21.7,0.3,43.5-0.3,65.2c0,8,0.2,16.1,0,24.3c-22.8,0-45.7,0-68.5,0c-0.2-38.1,0-76.4,0-114.5
		c-0.2-39.4,14.2-78.9,39.7-108.8C231,72.3,266.6,51.7,304.9,45.8L304.9,45.8z"/>
	<path d="M281.1,123.8C281.6,124.4,281.6,124.4,281.1,123.8L281.1,123.8z"/>
	<path d="M417.3,155.4c28.8-0.2,57.6-0.2,86.3,0c-1.4,2.7-4.1,4.3-6.1,6.5c-18.3,18.1-36.5,36.5-54.8,54.5
		c-7.1,6.9-13.9,14.3-21.3,20.9c-10.1,10.2-20.3,20.2-30.4,30.4c13.1-0.2,26.1,0.6,39.1,2.5c23,3.5,46.1,11,64.3,26
		c15.4,12.3,26.3,29.6,32.1,48.3c4.7,14.8,6.3,30.6,6.3,46.1c0,15.4,0,30.9,0,46.3c-21.9,0-43.8,0-65.8,0c0-17,0.3-34-1.6-50.9
		c-1.6-15.4-5.7-31.8-17.5-42.7c-12.6-11.3-30.1-14.6-46.3-16.5c-20.3-2.2-40.8-1.4-61.3-1.6c-11.8,0-23.6,0.2-35.4-0.2
		c-0.2-18.6-0.2-37-0.2-55.6c0-1.1,0.3-1.9,1.1-2.7C343.1,229.8,380.2,192.6,417.3,155.4L417.3,155.4z"/>
	<path d="M606.5,269c22.8,0,45.7,0,68.5,0c0.3,26.1,0,52.1,0.2,78.3c-0.2,19.1,0.6,38.3-1.3,57.3c-3.8,32.3-17,63.5-38,88.3
		c-23.9,29-58,49.6-95.1,56.1c-6.9,1.4-14,1.9-20.9,2.5c-23.6,0.5-47.4-0.2-71,0c-72.4,0.2-144.9,0.2-217.2,0
		c24.9-18.9,50.4-36.9,75.6-55.4c10.7-0.6,21.6-0.2,32.3-0.3c51.8,0,103.6,0,155.4,0c18-0.6,36.2-3.3,52.8-10.6
		c16.4-6.9,30.4-18.9,39.8-34c13.2-20.9,17.6-46.1,18.7-70.6C606.6,343.5,606.1,306.3,606.5,269L606.5,269z"/>
</g>
</svg>
