<?xml version="1.0" encoding="utf-8"?>
<!-- Generator: Adobe Illustrator 18.1.1, SVG Export Plug-In . SVG Version: 6.00 Build 0)  -->
<svg version="1.1" id="Layer_3" xmlns="http://www.w3.org/2000/svg" xmlns:xlink="http://www.w3.org/1999/xlink" x="0px" y="0px"
	 viewBox="297 102.3 295.9 427" enable-background="new 297 102.3 295.9 427" xml:space="preserve">
<g>
	<g>
		<polygon fill="none" points="426.8,161.5 431.3,133.1 424.4,133.1 422.6,144.1 413.5,144.1 415.3,133.1 407.9,133.1 403.4,161.5 
			410.8,161.5 412.6,150.2 421.7,150.2 419.9,161.5 		"/>
		<polygon fill="none" points="443.7,155.3 435.9,155.3 439.4,133.1 432.5,133.1 428,161.5 442.8,161.5 		"/>
		<g>
			<polygon fill="none" points="460.5,133.1 442.1,133.1 441.1,139.4 447.2,139.4 444.7,155.3 444.7,155.3 443.7,161.5 443.7,161.5 
				443.7,161.5 451.1,161.5 454.6,139.4 459.5,139.4 			"/>
			<polygon fill="none" points="480.1,133.1 470.5,150.4 466.4,133.1 461.7,133.1 461.4,133.1 460.2,140.5 465.8,161.5 471.5,161.5 
				488.2,133.1 			"/>
		</g>
	</g>
	<g>
		<path fill="none" d="M484.8,159.5c-0.2,1.5-1.7,2.8-3.2,2.8c-1.6,0-2.6-1.3-2.3-2.8c0.2-1.5,1.7-2.8,3.2-2.8
			S485.1,158,484.8,159.5z"/>
		<path fill="none" d="M498.5,154.6c-0.6,3.8-2.4,7.7-6.9,7.7c-4.4,0-5-3.9-4.4-7.7c0.6-3.8,2.4-7.7,6.9-7.7
			C498.5,146.8,499.1,150.8,498.5,154.6z M491.4,154.6c-0.1,0.9-0.6,4,0.9,4c1.4,0,2-3.1,2.1-4c0.1-0.9,0.6-4-0.9-4
			C492,150.6,491.5,153.7,491.4,154.6z"/>
		<path fill="none" d="M505.6,147.1l-0.3,1.8h0.1c1-1.3,2.1-2.2,3.8-2.3l-0.6,4c-0.2,0-0.4-0.1-0.6-0.1c-2.8,0-3.1,1.8-3.4,4
			l-1.2,7.4h-4.1l2.3-14.8H505.6z"/>
		<path fill="none" d="M511.6,163.9c-0.1,0.9,0,2.1,1.2,2.1c1.8,0,2-2.8,2.2-4.1l0.3-1.9h-0.1c-0.4,0.5-0.8,1.1-1.2,1.5
			c-0.5,0.4-1.1,0.7-1.8,0.7c-1.5,0-2.3-1.2-2.8-2.5c-0.5-1.5-0.4-3.4-0.2-5c0.4-2.6,1.7-7.9,5.3-7.9c1.4,0,2.2,0.9,2.5,2.1h0.1
			l0.3-1.8h4.1l-2.6,16.1c-0.7,4.3-2.9,6.1-6.5,6.1c-3.5,0-4.8-2-4.5-5.4H511.6z M516.4,154.5c0.1-0.8,0.6-4-0.8-4
			c-1.4,0-2,3.1-2.1,4c-0.1,0.9-0.6,4,0.9,4C515.7,158.5,516.3,155.3,516.4,154.5z"/>
	</g>
</g>
<g>
	<polygon points="557.5,108 549.6,112.8 318.3,112.8 404.1,181.4 590.7,181.4 590.7,112.8 590.7,108 	"/>
	<polygon points="410.4,190.6 410.4,478.7 476.5,523.9 476.5,477.2 473.4,471.2 473.4,361.7 481.6,353.7 481.6,190.6 	"/>
	<polygon points="309.8,125.8 309.8,319.7 302.2,325.2 302.2,482.7 325.4,482.7 325.4,478.7 397.8,478.7 397.8,195.1 	"/>
</g>
</svg>
