<?xml version="1.0" encoding="utf-8"?>
<!-- Generator: Adobe Illustrator 18.1.1, SVG Export Plug-In . SVG Version: 6.00 Build 0)  -->
<svg version="1.1" id="Layer_1" xmlns="http://www.w3.org/2000/svg" xmlns:xlink="http://www.w3.org/1999/xlink" x="0px" y="0px"
	 viewBox="0 0 436.7 248.3" enable-background="new 0 0 436.7 248.3" xml:space="preserve">
<g>
	<g>
		<polygon fill="none" points="164.2,139.6 171,96.6 160.5,96.6 157.8,113.2 144.2,113.2 146.7,96.6 135.5,96.6 128.7,139.6 
			139.9,139.6 142.7,122.5 156.4,122.5 153.7,139.6 		"/>
		<polygon fill="none" points="190,130.2 178,130.2 183.3,96.6 172.8,96.6 166,139.6 188.4,139.6 		"/>
		<g>
			<polygon fill="none" points="215.3,96.6 187.4,96.6 185.9,106 195.1,106 191.3,130.2 191.3,130.2 189.8,139.6 189.8,139.6 
				189.8,139.6 201,139.6 206.3,106 213.7,106 			"/>
			<polygon fill="none" points="245,96.6 230.4,122.8 224.2,96.6 217.1,96.6 216.6,96.6 214.8,107.8 223.3,139.6 231.9,139.6 
				257.3,96.6 			"/>
		</g>
	</g>
	<g>
		<path fill="none" d="M252.3,136.6c-0.3,2.3-2.6,4.2-4.9,4.2c-2.4,0-3.9-2-3.5-4.2c0.3-2.3,2.6-4.2,4.9-4.2
			C251,132.3,252.6,134.3,252.3,136.6z"/>
		<path fill="none" d="M272.9,129.2c-0.9,5.8-3.6,11.7-10.5,11.7c-6.7,0-7.6-5.9-6.7-11.7c0.9-5.8,3.6-11.7,10.5-11.7
			C272.9,117.3,273.8,123.4,272.9,129.2z M262.1,129.2c-0.2,1.4-0.9,6.1,1.4,6.1c2.1,0,3-4.7,3.2-6.1c0.2-1.4,0.9-6.1-1.4-6.1
			C263,123.1,262.3,127.8,262.1,129.2z"/>
		<path fill="none" d="M283.6,117.8l-0.5,2.7h0.2c1.5-2,3.2-3.3,5.8-3.5l-0.9,6.1c-0.3,0-0.6-0.2-0.9-0.2c-4.2,0-4.7,2.7-5.2,6.1
			l-1.8,11.2h-6.2l3.5-22.4H283.6z"/>
		<path fill="none" d="M292.7,143.3c-0.2,1.4,0,3.2,1.8,3.2c2.7,0,3-4.2,3.3-6.2l0.5-2.9h-0.2c-0.6,0.8-1.2,1.7-1.8,2.3
			c-0.8,0.6-1.7,1.1-2.7,1.1c-2.3,0-3.5-1.8-4.2-3.8c-0.8-2.3-0.6-5.2-0.3-7.6c0.6-3.9,2.6-12,8-12c2.1,0,3.3,1.4,3.8,3.2h0.2
			l0.5-2.7h6.2l-3.9,24.4c-1.1,6.5-4.4,9.2-9.9,9.2c-5.3,0-7.3-3-6.8-8.2L292.7,143.3L292.7,143.3z M300,129
			c0.2-1.2,0.9-6.1-1.2-6.1s-3,4.7-3.2,6.1c-0.2,1.4-0.9,6.1,1.4,6.1C298.9,135.1,299.9,130.2,300,129z"/>
	</g>
</g>
<polygon fill="#1D1E1C" points="145.9,0 436.7,14.6 357.7,180.9 0,248.3 "/>
<polygon fill="#FFFFFF" points="134.7,59.5 188.8,53.9 205.6,107.5 241.8,50.3 405.6,36.6 358.2,118.7 339.3,120.7 350,160 
	292.9,164.1 283.2,130.9 257.7,133.5 277,103.9 316.3,100.3 329.1,77.9 275.5,83 224.5,168.7 165.8,173.8 150,119.7 115.3,176.9 
	61.7,181.5 "/>
<linearGradient id="SVGID_1_" gradientUnits="userSpaceOnUse" x1="143.3673" y1="45.7404" x2="405.6122" y2="45.7404">
	<stop  offset="0" style="stop-color:#304E9C"/>
	<stop  offset="1" style="stop-color:#5990CC"/>
</linearGradient>
<polygon fill="url(#SVGID_1_)" points="157.1,21.8 405.6,30.9 230.6,42.7 212.8,69.7 201.5,45.7 143.4,48.8 "/>
<linearGradient id="SVGID_2_" gradientUnits="userSpaceOnUse" x1="42.3469" y1="188.5975" x2="347.9592" y2="188.5975">
	<stop  offset="0" style="stop-color:#304E9C"/>
	<stop  offset="1" style="stop-color:#5990CC"/>
</linearGradient>
<polygon fill="url(#SVGID_2_)" points="57.1,194.2 42.3,221.8 348,168.7 154.1,185.5 144.4,155.4 126.1,187 "/>
</svg>
