<?xml version="1.0" encoding="utf-8"?>
<!-- Generator: Adobe Illustrator 18.1.1, SVG Export Plug-In . SVG Version: 6.00 Build 0)  -->
<svg version="1.1" id="Layer_2" xmlns="http://www.w3.org/2000/svg" xmlns:xlink="http://www.w3.org/1999/xlink" x="0px" y="0px"
	 viewBox="37.6 44.6 585.8 548.2" enable-background="new 37.6 44.6 585.8 548.2" xml:space="preserve">
<g>
	<g>
		<polygon fill="none" points="234.8,286.9 304.8,243.5 292.2,229.5 265.6,246.3 248.8,226.7 275.4,209.9 262.8,194.5 192.8,236.5 
			206.8,251.9 233.4,235.1 250.2,254.7 223.6,271.5 		"/>
		<polygon fill="none" points="279.6,312.2 264.2,295.3 318.8,261.7 307.6,247.7 237.6,289.7 264.2,320.6 		"/>
		<g>
			<polygon fill="none" points="358,308 324.4,268.7 309,277.1 320.2,291.1 281,313.6 281,313.6 265.6,323.4 265.6,323.4 
				265.6,323.4 279.6,338.8 332.8,306.6 342.6,316.4 			"/>
			<polygon fill="none" points="393,350 338.4,359.8 367.8,320.6 359.4,310.8 359.4,310.8 341.2,320.6 306.2,371 316,383.6 
				407.1,368.2 			"/>
		</g>
	</g>
	<g>
		<path fill="none" d="M344,407.4c-4.2,1.4-8.4,1.4-12.6-1.4c-2.8-4.2-1.4-7,1.4-11.2c4.2-1.4,8.4-1.4,12.6,1.4S348.2,406,344,407.4
			z"/>
		<path fill="none" d="M380.4,428.4c-8.4,5.6-21,8.4-28-1.4c-8.4-9.8-1.4-18.2,8.4-23.8c8.4-5.6,21-8.4,29.4,0
			C397.3,414.4,388.8,422.8,380.4,428.4z M366.4,413c-2.8,1.4-9.8,5.6-7,8.4c2.8,2.8,11.2-1.4,12.6-2.8c1.4-1.4,9.8-5.6,7-8.4
			C377.6,407.4,369.2,411.6,366.4,413z"/>
		<path fill="none" d="M408.5,429.8l-4.2,2.8l0,0c4.2,0,8.4,1.4,12.6,4.2l-9.8,5.6c0,0,0-1.4-1.4-1.4c-5.6-5.6-9.8-2.8-15.4,0
			L372,452.2l-7-8.4l36.4-21L408.5,429.8z"/>
		<path fill="none" d="M383.2,473.2c-2.8,1.4-4.2,4.2-2.8,7c4.2,4.2,9.8,0,12.6-2.8l5.6-2.8l0,0c-1.4,0-4.2,0-5.6,0
			s-4.2-1.4-4.2-2.8c-2.8-4.2-1.4-7,0-11.2c1.4-4.2,7-7,11.2-9.8c7-4.2,19.6-11.2,26.6-2.8c2.8,2.8,1.4,7,0,8.4l0,0l4.2-2.8l7,8.4
			l-39.2,23.8c-11.2,7-18.2,5.6-25.2-2.8c-7-8.4-4.2-14,4.2-19.6L383.2,473.2L383.2,473.2z M412.7,466.2c1.4-1.4,9.8-5.6,7-8.4
			s-11.2,1.4-12.6,2.8c-2.8,1.4-9.8,5.6-7,8.4C402.9,471.8,411.3,467.6,412.7,466.2z"/>
	</g>
</g>
<g>
	<path fill="#000B38" d="M232.2,57.9c12.9-6.5,27-10.6,41.2-13.4c-11.3,11.1-21.2,24.4-25.2,39.9c-3,11.1-1.4,23.6,5.4,32.9
		c8.4-1.9,16.9-3.6,25.4-4.7c-8-5.3-17.4-7.9-26.7-9.2c35.1-18.9,77.5-20.6,115.6-10.6c-1.5-6.2-3.8-12.3-7-17.9
		c33.2,4,67.4,16,90.3,41.4c1.7-6.5-1.2-13.1-3.9-18.9c18.9,8.4,33.9,24.2,43,42.6c12-16.8,7.6-38.8,3.6-57.6
		c22.9,16.1,38,45.5,31.4,73.6c-0.4,1.4-0.8,2.8-1.2,4.2c-0.6,1.8-1.3,3.5-1.9,5.3c23.8,10.4,46.7,22.7,68.6,36.7
		c-3.5,21.3-9,42.3-15.2,63c1.4,1,2.8,1.9,4.2,2.9c1.5,1,2.9,2.1,4.4,3.1c10.9,8,21.2,16.8,30.9,26.2c4.7,1.6,8,6.1,8.3,11
		c1,11.7-4.3,22.7-8.6,33.2c1,12.6-7.8,25.5-20.8,27c-5.1,12.5-13.3,23.4-18.9,35.6c-1,2.6-1.8,5.3-2.5,8.1
		c-0.8,3.1-1.4,6.2-1.8,9.4c-0.9,4.3,0,9-0.8,13.1c-3.6-3.3-6.1-8.4-6.8-13.4c-0.2-1.2-0.3-2.4-0.4-3.5c-0.5,1.5-0.9,3.1-1.3,4.7
		c-1.3,6.9-1.2,14,0,20.9c0.4,2,0.8,3.9,1.3,5.9c-4.5-1.2-8.5-3.8-11.8-7c-1.5-1.5-2.9-3-4.1-4.7c-3.9-5.3-6.3-11.4-8.4-17.6
		c-0.4,1.1-0.8,2.2-1.2,3.4c-1.7,5.5-2.2,11.2-2.3,16.9c0,0.3-0.1,0.8-0.1,1c-0.4-0.6-0.8-1.2-1.2-1.7c-5.2-7.8-9.7-16.5-10.3-26
		c0-1.6,0-3.2,0-4.7c-4.3-1.6-8.3-3.9-12.1-6.4c-7.1-4.7-11.2-12.6-18.3-17.1c-6.5-4.4-14-7.4-21.5-9.7c-3.9-1-7.7-2.3-11.7-2.9
		c-3.7,2.7-6,6.9-7.6,11.2c-21.3-3.3-42.6-6.8-63.9-10.2c-13.9-3-28.7-0.8-42-6.6c-1.8-16.7-17.6-28.4-33.4-30.6
		c-10.2-1.3-20.3-4.3-30.7-3.2c-11.7,0.8-22.5,8.1-27.4,18.8c-38.7-6.2-77.5-12.3-116.2-18.5c-0.6-6.4-3.9-12-7.3-17.3
		c-2.1,2.3-4.1,4.8-5.9,7.3c-1.8,2.2-3.3,4.7-4.9,7.1c-0.3-4-0.4-8-0.2-12c0.2-5.3,0.9-10.5,1.7-15.7c0.3-3.2,2.4-6.6,0.8-9.8
		c-10.5-29.7-19.3-60.1-24.5-91.1c23.5-15,48.2-28.1,73.9-39c4.1-3.2,7.7-7.2,11.8-10.4c4.5-3.6,9.3-6.9,14.2-10.1
		c0.2-0.2,0.7-0.5,1-0.6c-6.7-16.5-7.8-35.8-0.2-52.2C205.5,75.6,218.2,65,232.2,57.9z M253.1,57c-13.6,5.3-26.9,12.6-36.7,23.6
		C205,92.9,200.9,110.9,205,127c6,24.7,23.1,45.3,43,60.4c25.9,19.3,56.1,32.1,87,41.1c6.7,2,13.7,3.4,20.7,2.2
		c17.7-3.5,25.3-26.1,17.6-41.1c-4.3-8.1-13.4-12.4-22.2-13.7c-20.7-4.7-41.2-10.6-60.7-19.3c-14.2-6.5-28.1-14.4-38.8-26
		c-8.1-8.7-13.8-20.1-13.9-32.1c-0.2-16,7.6-31,18.1-42.6C255,56.3,254,56.5,253.1,57z M501.6,97.1c4.5,16.8,3.5,36.4-8.2,50.2
		c1.1,2.9,2.1,5.8,3.1,8.8c0.4,1.5,0.8,2.9,1.2,4.4c13.1-8.6,14.8-26.1,14.7-40.4c6.7,17.2,5.3,38.9-8.5,52.2
		c1.4,0.7,2.8,1.4,4.2,2.1c4.8-6.2,8.7-13.2,10.6-20.9c4.7-18.5-2.4-38.2-14.1-52.5C503.8,99.5,502.7,98.3,501.6,97.1z M519,171.9
		c-1.2,2.1-2.5,4.2-3.9,6.2c22.6,13,43.1,32.4,51.5,57.7c2.9,2.7,5.7,5.6,7.4,9.2c3.5-12.9,6.5-26,9-39.1
		C562.6,192.9,541.1,181.6,519,171.9z M391.3,204c-3.3,9.4,5.1,17.4,13.2,20.4c34.5,13,69,26.2,103.6,39c7.2-4.9,4.7-15.4-0.4-21
		c0.3,0,1,0,1.3,0c7.3,2.8,12,10.5,10.8,18.3c10.2-1.8,20.5-2.7,30.8-2.3c0.3-5.3,2.4-10.4,5.7-14.5c-1.1,5.1-1.2,10.6,1.2,15.3
		c1.9,0.8,4.1,1,6.1,1.5c3.8-6.1,3.2-14.5-2.5-19.1c-10.8-27-32.9-48.8-59.3-60.8c1,5.1,1.4,10.2,1.8,15.4
		c-20.8-12.1-44.3-21.7-68.8-21.1C416.4,175.2,398.2,186.7,391.3,204z M106,205.8c5,26.6,12.3,52.6,21,78.2
		c6.9-20,19.2-38,34.8-52.2c-12.6,2.6-24.1,8.8-34.8,15.8c6.3-26,18.1-50.8,34.6-71.9C142.5,184.5,123.9,194.6,106,205.8z
		 M431.7,245.2c-0.3,6.4,0.8,13.3,5.3,18.2c5.6,6.2,14.2,8.4,22.2,9.1c11.5,0.8,23.1-0.5,34.2-3.3c1.6-0.3,3.1-0.7,4.6-1.1
		c-15.4-5.5-30.8-11.1-46.3-16.4C445.2,249.5,438.5,247.1,431.7,245.2z M225.6,267.6c3,3.1,6.5,5.6,10.1,7.9
		c20.4,13.3,45.7,17.9,69.8,15.5c-2-4.5-4.2-8.9-5.9-13.4c-16.7-7.6-35.5-7.8-53.5-8.6c22.4-12.2,50.3-9.2,72.6,1.8
		c-3.3,11.7,5.2,22.6,14.2,29c-2.5-11.4,0-23.5,6.4-33.1c-17.2-10.7-37.3-16.9-57.6-17.2C261.7,249.2,241.7,255.8,225.6,267.6z
		 M380.1,283.4c-11.6,19-12.5,47,3.7,63.7c10.6,10.9,26.6,12.9,41,13c18.8,1.6,37.8,4.3,55.5,11.1c8.9,3.5,17.7,8,24.2,15.3
		c3.9,4.8,8.5,9.1,14.1,11.9c16.2,10.7,38,7,53.6-3c5.5-8.3,9.9-17.5,14.8-26.2c-10.8,1.2-21.5,3.2-32.1,5.7
		c-4.4,1-8.8,2.8-13.4,2.6c-0.7,0.1-1.5,0.1-2.2,0.2c-7.5-0.4-15.1-2.3-21-7.2c-9.2-7.4-12.8-19.5-13.2-30.8c-0.2-2,0.8-5.3-2-5.6
		c-22.4-7.1-45.2-13.9-68.7-16.2c-9-1.5-13.2,9.5-12.2,16.7c-0.1,0-0.3,0-0.4,0c-2.7-5.3-3.9-12-0.9-17.4c2.9-4.4,7.8-9.1,13.4-7.8
		c26.5,3.4,52.4,10.5,77.3,19.9c0.6,10.9,1.9,22.7,8.8,31.7c5.8,8,16.7,11,26.1,8.8c4.1-1,8.5-1.2,12.4-2.7
		c12-1.8,23.8-4.3,35.9-5.6c4.3-0.4,8-3.3,10.2-7c4.2-6.3,2.8-14.3,6.6-20.7c-3.8,2.4-7.7,6-12.6,5.4c-0.6-9.6,6.8-22.3,17.5-21.5
		c1.3-5.8,0.4-13.8-6.2-15.7c-7.4-6.7-14.6-13.9-22.7-19.8c-8.6-6.3-17.8-13.1-28.8-13.8c-16.5-1.9-33.9-1.1-49.1,5.8
		c-2,0.8-4.1,1.3-6.1,2.1c-17,3.2-34.4,6.1-51.7,4.2c-9.1-1-18.4-3.6-25.5-9.6c-5.5-4.8-8.7-11.9-9.3-19.2
		C401.9,258,388,268.9,380.1,283.4z M136.8,310.8c1.1,2.8,2.2,5.6,3.4,8.4c2.4-6.8,5.8-13.2,9.8-19.1
		C145.2,303.2,140.9,306.8,136.8,310.8z"/>
</g>
<path fill="#000B38" d="M226.9,117c-4.4-17,2-35.3,13.7-47.9c-8.4,14.8-12.3,33.5-5,49.5c7.2,16.4,21.9,28,36.9,36.9
	c27,15.6,57.2,24.6,87.5,30.9c11.2,7.4,8.3,23.4,1.4,32.8c-0.9-7.5-5.1-15.2-12.5-17.8c-31.8-10.4-63.6-22.7-90.7-42.7
	C244.3,148.2,231.3,134.5,226.9,117z"/>
<path fill="#000B38" d="M518.9,309.8c-0.8-8.9,7.2-17.3,16.1-17.3c9.5-0.9,18.3,3.7,25.9,9.1c1.7,1.5,3.5,2.9,5.2,4.4
	c-0.5-0.1-0.9-0.1-1.4-0.2C550.4,298.7,530.2,296.3,518.9,309.8z"/>
<path fill="#000B38" d="M540,317.5c5.1-3.2,11.5-1.2,16.8,0.4c9.8,2.9,17.5,10.7,21.8,19.8c0.8,1.3,0.6,3.1-1,3.7
	c-4.8,1.9-10.2,0.8-15.1,0.2c-8.9-1.5-17.9-5.3-23.2-12.9C537,325.4,536.4,320,540,317.5z"/>
<path fill="#000B38" d="M53.1,396.6c-5.8-7.2-7.5-16.9-6.3-25.9c3.4,0.6,6.9,0.8,10.2,1.9c-1.1,6.2-0.3,13.3,4.3,18
	c6.1,6.6,15.5,8.3,24,9.4c7.5,0.9,16,0.7,21.9-4.6c4.2-3.5,5.9-9,6.7-14.3c5.2,0.6,10.3,1.7,15.5,2.2c1.1,7.1,2.2,14.3,3.3,21.4
	c6.1,1,12.3,2,18.4,2.9c3.3-6.5,6.6-12.9,9.9-19.4c4.6,0.7,9.3,1.4,13.9,2.1c-0.6,9.2,3.2,19.4,11.9,23.7c9.4,4.5,21.3,3.4,29.6-3.1
	c-1.8-3.6-3.7-7.3-5.5-10.9c-6.5,5.6-20.8,4.2-19.9-6.6c8.9,1.1,17.7,3,26.5,4c3.4-0.4,6.8,0.5,10.1,0.9c-0.6,3-0.2,8.8-5,7.2
	c-0.7,4.4-1.4,8.7-2.1,13.1c7.9,1.3,15.8,2.5,23.8,3.8c0.8-4.4,1.4-8.7,2.1-13.1c-5.3,0.3-3.5-5.2-2.9-8.5
	c7.1,0.9,14.2,2.2,21.3,3.2c-1,6.4-1.8,13.7,2.4,19.2c7,8.2,21.2,9.3,29.3,1.9c0.4,2.4,0.8,4.8,1.3,7.2c6,1,11.9,1.9,17.9,2.8
	c1.2-7.6,2.4-15.1,3.6-22.7c2.4,0.2,4.9,0.6,7.3,1c-2.8,5.7-3.5,13.1,0.1,18.7c5,7.9,17.7,10.3,24.1,2.8c0.4,1.6,0.8,3.1,1.3,4.7
	c6,1,12,2,18,2.9c0.7-4.3,1.4-8.5,2-12.8c-6.4,0.6-4.3-5.9-3.6-9.9c4.8,0.7,9.6,1.5,14.5,2.2c-0.5,2.9-0.9,5.9-1.4,8.8
	c-1.2-0.2-2.4-0.4-3.5-0.5c-0.7,4.4-1.4,8.8-2.1,13.2c7.8,1.2,15.6,2.5,23.4,3.7c0.7-4.3,1.4-8.7,2.1-13c-5.2-0.5-2.1-6.4-2-9.6
	c2.4,0.3,4.9,0.7,7.3,1c-1.2,7.4-2.4,14.8-3.6,22.2c6.7,1.1,13.5,2.2,20.2,3.2c0.7-4.4,1.4-8.9,2.1-13.3c-5.2-0.3-2-6.3-2-9.4
	c2.5,0.3,5.1,0.7,7.6,1.1c-1.2,7.5-2.4,14.9-3.6,22.4c7.1,1.1,14.2,2.3,21.4,3.4c0.7-4.5,1.4-9,2.2-13.5c-5.8,0.1-3-6.1-2.7-9.6
	c4.7,0.8,9.4,1.5,14.1,2.2c-1.1,3.2,0.3,10.2-5.1,8.9c-0.7,4.4-1.4,8.7-2.1,13.1c7.9,1.2,15.7,2.5,23.6,3.7
	c0.7-4.4,1.4-8.7,2.1-13.1c-5.9,0-2.7-6.5-2.5-10.1c4.8,0.6,9.6,1.4,14.3,2.1c-1.1,3.2,0.3,10.4-5.1,9.1c-0.7,4.4-1.4,8.7-2.1,13.1
	c8.6,1.4,17.3,2.8,25.9,4.1c0.7-4.4,1.4-8.8,2.1-13.1c-1.9-0.4-4.1-0.2-5.5-1.6c-0.3-3,0.7-6,1-8.9c3.3,0.3,6.7,0.9,10,1.4
	c-1.2,7.7-2.5,15.3-3.7,23c7.1,1.1,14.1,2.3,21.2,3.4c0.7-4.4,1.4-8.7,2.1-13.1c-6.1-0.1-2.4-6.9-2.4-10.6c2.9,0.4,5.8,0.9,8.7,1.3
	c-0.6,6.3,0.1,13,3.7,18.4c4.8,7.4,16.9,11,23.4,3.9c-0.2,5-2.8,11.1-8.6,11.2c-11.9-0.6-25.3,1-33.9,10.1
	c-9.8,10.6-10.4,26.4-7.8,39.8c1.6-9.4,4.7-19.1,11.5-26.1c6.7-7.2,16.9-10.6,26.5-9.5c8.8,0.9,18.6-2.1,23.8-9.7
	c6.2-9,5.9-20.4,8-30.8c4.2,0.6,8.4,1.3,12.6,1.8c-1.5,9.1-2.9,18.2-4.4,27.2c-1.2,7-6.2,12.8-12.3,16.2c-9.5,5.3-20.7,6.6-31.4,6.6
	c-9.4,0.4-17.6,6.7-21.8,14.9c-5.6,10.4-7.1,22.4-7.6,34c-18.7-20.1-20.5-52.4-5.8-75.3C371.4,455.5,222,431.6,72.7,407.8
	C65.2,406.1,57.9,402.7,53.1,396.6z"/>
<path fill="#000B38" d="M79.1,384.4c-2.7-2.2-1.1-6-0.8-8.8c4.8,0.7,9.6,1.6,14.5,2.1c-0.6,2.9-0.5,7.1-3.9,8.3
	C85.6,386.7,81.9,386.1,79.1,384.4z"/>
<path fill="#000B38" d="M145.4,385.7c0.9,0.1,1.9,0.3,2.8,0.4c-0.8,1.5-1.6,3-2.4,4.6C145.7,389.1,145.5,387.4,145.4,385.7z"/>
<path fill="#000B38" d="M285.9,407.2c4.4,0.7,8.8,1.3,13.1,2.1c-0.8,3.1-0.3,7.3-3.4,9.2c-3.3,1.6-8.2,0.7-10.1-2.6
	C284.4,413.1,285.6,410.1,285.9,407.2z"/>
<path fill="#000B38" d="M343.4,417.2c3.2-1.4,8.4,1.4,7.1,5.3c0,4.2-6.5,6.1-9.1,2.8C339.6,422.8,340.7,418.7,343.4,417.2z"/>
<path fill="#001A51" d="M195,436.2c27.8,4.4,55.6,8.9,83.5,13.3c3.2,33.2,25.8,60.7,50.3,81.5c-28.2-7.6-54.7-20.9-78.7-37.4
	c28.1,30.1,59.7,56.9,94.5,79.1c40.8-26,77.4-58.5,108.8-95.2c2.8,0.4,5.6,0.8,8.3,1.3c-33.4,39.9-73,74.8-117.2,102.2
	C285.2,544,234.5,493.8,195,436.2z"/>
<path fill="#000B38" d="M562.9,449.5c4,0.2,8,1.8,12,1.2c-0.9,3.8-2.6,9.2-7.2,9.6C563,459.5,562.9,453.3,562.9,449.5z"/>
<path fill="#001A51" d="M304.4,453.8c10.2,1.4,20.3,3.2,30.5,4.8c3.5,6.2,7.6,12.2,12.1,17.8C331.7,471.4,316.7,464.4,304.4,453.8z"
	/>
<path fill="#FFFFFF" d="M216.4,80.6c9.8-11,23.1-18.3,36.7-23.6c-16.6,11.2-33.3,27.1-34.2,48.4c-1,26.3,17.6,48.2,36.7,64
	c27.8,21.9,60.6,36.6,94.1,47.6c6,1.3,8.4,8.5,6,13.7c-7,1.2-14-0.2-20.7-2.2c-30.9-8.9-61.1-21.7-87-41.1
	c-19.9-15.1-37-35.7-43-60.4C200.9,110.9,205,92.9,216.4,80.6z"/>
<path fill="#FFFFFF" d="M501.6,97.1c1,1.2,2.2,2.4,3,3.8c3.8,10.1,7.2,21,5.1,31.9c-1.5,9-6.5,17.1-13.2,23.3c-0.9-3-2-5.9-3.1-8.8
	C505.1,133.5,506.2,113.9,501.6,97.1z"/>
<path fill="#FFFFFF" d="M519,171.9c22.1,9.7,43.6,21,64,33.9c-2.5,13.2-5.5,26.2-9,39.1c-1.7-3.6-4.5-6.5-7.4-9.2
	c-8.4-25.3-28.9-44.7-51.5-57.7C516.5,176.1,517.8,174.1,519,171.9z"/>
<path fill="#FFFFFF" d="M106,205.8c17.9-11.2,36.5-21.3,55.6-30.1c-16.5,21.1-28.3,45.9-34.6,71.9c10.7-7,22.2-13.1,34.8-15.8
	C146.2,246,133.9,264,127,284C118.2,258.4,110.9,232.3,106,205.8z"/>
<path fill="#FFFFFF" d="M71.2,323.6c6.6-4.3,15-3.9,22.5-2.8c7.8,1.2,16.2,3.2,21.5,9.5c3.8,4.3,5,10.3,4.1,15.9
	c-1.5,10-3.2,20-4.7,30c-6.9-1.7-14.1-1.9-21-3.7c1.6-10.2,3.3-20.5,4.9-30.7c2.6-8.2-14.1-11.2-14.4-2.6c-1.7,10.4-3.3,20.8-5,31.2
	c-7.2-0.6-14.2-2.3-21.4-2.9c1.7-10.3,3.2-20.6,5-30.8C63.6,331.4,66.7,326.5,71.2,323.6z"/>
<path fill="#FFFFFF" d="M124.4,351.8c8.5,1.3,17,2.7,25.5,4.1c-0.7,4.2-1.3,8.4-2,12.6c-6.7-1.3-2.7,7.9-3.1,11.6
	c-5.5,0.2-11-1.1-16.3-2.2c-1.7-4.5,0.8-13.6-6.2-13.4C123.1,360.2,123.7,356,124.4,351.8z"/>
<path fill="#FFFFFF" d="M270.9,367.8c1.6-8.2,9-15.1,17.6-14.6c11.3,0.3,23.9,1.4,32.8,9.1c6.5,6.1,3.3,15.6,2.3,23.2
	c-6.8-1.1-13.5-2.2-20.3-3.2c0.4-2.9,1-5.8,1.3-8.8c1.2-7-11.9-9.2-13-2.1c-1.7,9.8-3.1,19.6-4.8,29.4c-0.2,0.4-0.4,0.9-0.6,1.3
	c-6.8-1.3-14.1-1.3-20.5-3.7C267.5,388.2,268.8,377.9,270.9,367.8z"/>
<path fill="#FFFFFF" d="M152.2,369.1c0.7-4.2,1.3-8.4,2-12.6c7.2,1.1,14.4,2.3,21.6,3.4c-0.6,4.2-1.3,8.5-2,12.7
	c-7-2.3-7.4,6.9-10.5,10.9c-4.2-0.9-8.4-1.2-12.6-2.3c1.7-3.7,4.3-7,4.9-11.1C154.5,369.8,153.4,369.4,152.2,369.1z"/>
<g>
	<path fill="#FFFFFF" d="M184.6,367.5c8.9-8,24.7-6.3,31.6,3.5c4.3,6.2,4.5,14.2,2.9,21.3c-14.5-3-29.3-4.3-43.7-7.2
		C176.5,378.5,179.5,372,184.6,367.5z M192.8,383.3c4.2,0.9,8.5,1.4,12.8,2.1c0.5-3.2,0.2-7.6-3.5-8.6
		C197.4,374.7,193.6,379.1,192.8,383.3z"/>
</g>
<path fill="#FFFFFF" d="M228.7,368.4c5.3,0.8,10.5,1.7,15.8,2.5c0.5,2.3,1,4.5,1.5,6.8c2-3,4.5-6.2,8.4-6.8c3.3-0.4,6.5,0.7,9.7,1.1
	c-0.9,6.1-1.9,12.1-2.9,18.1c-6.1-1.8-15.4-2.5-16.8,5.6c-5.4-0.6-10.7-1.5-16-2.4c0.5-3.6,1.5-7.3,1.4-11c-1.1-0.4-2.1-0.7-3.2-1
	C227.3,377,228,372.7,228.7,368.4z"/>
<path fill="#FFFFFF" d="M474.6,382.7c5.2-1.8,11.1,2.7,10.8,8.2c0.1,5.7-6.4,10-11.6,7.6C466.7,395.9,467.3,384.4,474.6,382.7z"/>
<path fill="#FFFFFF" d="M331.2,389.1c12-7.3,30.9-5.8,37.6,7.9c2.8,5.7,1.4,12.1,0.4,18.1c-12.9-2.5-26.1-3.6-39-6.4
	c5.9-5.7,17.1-6.7,22.5,0.3c0.3-2.8,1.6-6.5-1.3-8.3c-5.7-3.6-12.8-1.9-18.6,0.7C332.4,397.2,331.8,393.2,331.2,389.1z"/>
<path fill="#FFFFFF" d="M293.8,390.7c9.4,1.4,18.8,3,28.2,4.5c-0.6,4-1.3,8.1-1.9,12.1c-7.1-0.7-14-2.5-21.1-2.7
	c-2.4-0.6-4.8-1.1-7.2-1.3C292.5,399,293.1,394.9,293.8,390.7z"/>
<path fill="#FFFFFF" d="M383.9,393.3c5.3,0.8,10.6,1.7,15.9,2.5c0.3,2,0.6,4.1,0.9,6.1c2.5-2.5,5.4-5,9-5.6c6-0.6,12.2,3.3,14,9.1
	c6.1-7.1,18.8-7.2,23.8,1.2c3.6,6.2,2.4,13.8,1.5,20.5c-5.6-1.5-11.5-1.5-17.1-3.1c0.3-3.1,2-7.9-1.3-9.9c-5-1.4-6,5-6.4,8.5
	c-5.7,0.2-11.3-1.2-16.8-2.3c0.3-2.7,0.9-5.4,0.5-8.1c-0.4-2.7-4.8-3.1-6-0.7c-1.3,2.4-1.4,5.2-1.9,7.8c-5.5-0.4-10.9-1.6-16.4-2.3
	c0.5-3.2,1.2-6.3,1.3-9.5c-1.1-0.4-2.1-0.8-3.2-1.2C382.6,402,383.2,397.6,383.9,393.3z"/>
<path fill="#FFFFFF" d="M461.2,418.8c0.7-4.3,1.4-8.6,2.1-12.9c6.5,1,13,2.1,19.5,3.1c-1.2,7.5-2.4,15-3.6,22.5
	c-5.3-0.7-10.7-1.3-16-2.6C463.2,425.5,466.7,419.2,461.2,418.8z"/>
<path fill="#FFFFFF" d="M493.5,410.8c6,0.8,12,1.8,18,2.8c0.3,2.1,0.6,4.3,0.9,6.4c2.9-3.1,6.5-6,11-6.3c0.6,9.5,5.1,18.2,10.3,26
	c-4.6-0.5-9.4-0.7-13.8-2.4c0.7-3.2,1-8.5-3.3-9.2c-4.5-0.7-6.2,4.6-6.8,8.1c-5.4-0.9-10.9-1.4-16.3-2.8c0.1-3.4,3.4-9.5-2-9.9
	C492.2,419.3,492.9,415.1,493.5,410.8z"/>
<path fill="#FFFFFF" d="M561.4,422.7c0.5-0.4,1.1-0.8,1.7-1.1c0.7,5,3.2,10.1,6.8,13.4c0.8-4-0.1-8.8,0.8-13.1c3.2,0.8,6,2.8,8,5.5
	c0.7-0.9,1.4-1.8,2.2-2.7c6.6,1.1,13.3,2.1,19.9,3.2c-0.7,4.4-1.4,8.7-2.1,13.1c-5.8-2.6-6,3.9-6.4,7.9c-5.7-0.6-11.2-1.9-16.9-2.3
	c0.2-4-0.1-11.4-5.7-11c-3.7,1.1-5.1,5.3-6,8.7c-0.4,0-0.9,0.1-1.3,0.1c-0.4-0.2-0.7-0.5-1.1-0.7
	C560.2,436.7,560.1,429.6,561.4,422.7z"/>
<path fill="#FFFFFF" d="M537.2,423.6c1.5,5.5,0.7,11.2-0.2,16.8c-0.7,0-1.4,0.1-2.1,0.1C535.1,434.8,535.5,429,537.2,423.6z"/>
<path fill="#FFFFFF" d="M546.8,437.8c1.2,1.7,2.6,3.2,4.1,4.7c-1.7-0.2-3.4-0.4-5.1-0.6C546,440.5,546.4,439.1,546.8,437.8z"/>
<path fill="#FFFFFF" d="M278.5,449.5c8.6,1.4,17.4,2.6,26,4.3c12.2,10.7,27.2,17.6,42.6,22.5c-4.6-5.5-8.6-11.5-12.1-17.8
	c39.5,6.3,78.9,12.6,118.4,18.9c-31.4,36.8-68,69.2-108.8,95.2c-34.7-22.2-66.4-49-94.5-79.1c24,16.5,50.5,29.8,78.7,37.4
	C304.2,510.2,281.7,482.6,278.5,449.5z"/>
<g>
	<path fill="#FFB900" d="M87.5,197.4c34.5-22.5,71.6-41.3,110.7-54.6c-4.9,3.1-9.6,6.5-14.2,10.1c-3.7,0.6-7.1,2.4-10.6,3.8
		c-27.4,11.8-53.6,26.3-78.7,42.5c-2,1.1-0.9,3.5-0.8,5.3c5.3,32,14.7,63.1,25.6,93.6c0.6,1.8,1.5,3.5,2.4,5.1
		c-0.9,5.2-1.5,10.4-1.7,15.7c-8.6-6.6-19.8-6.5-30-8.4c-7.8-1.5-16.2-1.8-23.5,1.9c-7.7,3.8-12.5,11.9-13.9,20.1
		c-1.8,11.1-3.5,22.2-5.3,33.3c-2.9-0.2-5.8-0.6-8.7-1.1c1.8-11.2,3.6-22.5,5.4-33.7c1.9-10.7,8.2-20.9,18-26
		c9.1-4.8,19.9-4.9,29.8-2.9c8.4,1.6,17.1,1.8,25,5.3C104,271.6,92.9,235,87.5,197.4z"/>
	<path fill="#FFB900" d="M524.1,160.3c0.4-1.4,0.9-2.8,1.2-4.2c26.6,11.5,52,25.5,76.2,41.3c-3.5,25.1-10,49.7-17.4,74
		c-1.5-1.1-2.9-2.1-4.4-3.1c6.7-21.5,12.3-43.3,15.6-65.6c0.7-2.4-2-3.4-3.5-4.5c-18.4-11.7-37.3-22.6-56.8-32.1
		C531.3,164.1,527.3,162.9,524.1,160.3z"/>
	<path fill="#FFB900" d="M125.3,323.8c1.9-2.5,3.8-4.9,5.9-7.3c3.4,5.3,6.7,10.9,7.3,17.3c38.7,6.1,77.5,12.3,116.2,18.5
		c4.9-10.6,15.8-18,27.4-18.8c10.3-1.1,20.5,2,30.7,3.2c15.8,2.2,31.6,13.9,33.4,30.6c13.3,5.8,28.1,3.6,42,6.6
		c21.3,3.4,42.6,6.8,63.9,10.2c1.6-4.2,3.9-8.5,7.6-11.2c4,0.6,7.8,1.9,11.7,2.9c-7.8,2.5-12.1,10.4-12.4,18.2
		c-40.4-6.4-80.9-12.9-121.3-19.3c1.3-11.3-5.9-22-16.2-26.3c-7.6-3.8-16.3-3.7-24.5-5.4c-9.7-1.9-21.1-1.8-28.8,5.3
		c-4,3.6-6.2,8.7-8,13.6c-43.4-6.9-86.8-13.8-130.2-20.7C130.3,335.1,129.2,328.7,125.3,323.8z"/>
	<path fill="#FFB900" d="M492.9,385.5c7.2,4.6,11.3,12.4,18.3,17.1c-6-0.8-12-1.9-18-2.8C494.2,395.1,494.8,390.1,492.9,385.5z"/>
	<path fill="#FFB900" d="M575.1,404.4l0.3-0.2c12.4,2.9,28,0.8,37.1,11.3c8.4,10.7,2.2,24.5,1.1,36.5c-2.9-0.3-5.8-0.7-8.7-1.1
		c0.8-8.4,3.8-16.7,2.9-25.1c-0.8-5-5.4-8.5-10.2-9.3c-8.4-1.4-16.7-2.7-25.1-4C573.2,409.7,574.1,407,575.1,404.4z"/>
	<path fill="#FFB900" d="M181.9,434.3c2.6,0.6,6-0.2,7.7,2.3c22.1,32.6,47.2,63.4,76,90.4c24,22.5,50.6,42.2,78.8,59.2
		c46.4-27.5,88.1-62.9,122.1-104.8c1.4-2.4,4.4-1,6.5-0.7c-36.1,44.3-79.7,82.4-128.5,112.2C279.3,553.1,223.7,498.1,181.9,434.3z"
		/>
</g>
<g>
	<path fill="#E5A908" d="M173.4,156.7c3.5-1.4,6.8-3.2,10.6-3.8c-4.2,3.2-7.7,7.2-11.8,10.4c-25.7,10.9-50.4,24-73.9,39
		c5.3,31.1,14,61.5,24.5,91.1c1.5,3.2-0.6,6.5-0.8,9.8c-0.9-1.6-1.8-3.3-2.4-5.1c-10.8-30.5-20.3-61.6-25.6-93.6
		c-0.1-1.8-1.2-4.2,0.8-5.3C119.8,183,146,168.5,173.4,156.7z"/>
	<path fill="#E5A908" d="M522.1,165.6c0.7-1.7,1.3-3.5,1.9-5.3c3.2,2.6,7.3,3.8,10.9,5.7c19.6,9.6,38.5,20.5,56.8,32.1
		c1.6,1.1,4.2,2.1,3.5,4.5c-3.3,22.2-8.9,44.1-15.6,65.6c-1.4-1-2.8-1.9-4.2-2.9c6.2-20.7,11.7-41.7,15.2-63
		C568.9,188.3,545.9,176,522.1,165.6z"/>
	<g>
		<path fill="#E5A908" d="M38.9,364.5c2.9,0.5,5.8,0.9,8.7,1.1c-0.3,1.7-0.6,3.4-0.8,5.1c-1.2,9,0.5,18.7,6.3,25.9
			c4.8,6,12.2,9.5,19.6,11.1c149.4,23.9,298.7,47.7,448.1,71.6c-14.7,22.9-12.9,55.2,5.8,75.3c0.5-11.6,2-23.6,7.6-34
			c4.2-8.2,12.4-14.5,21.8-14.9c10.7,0,21.9-1.2,31.4-6.6c6.1-3.4,11.1-9.2,12.3-16.2c1.5-9.1,2.9-18.2,4.4-27.2
			c0.3-1.6,0.5-3.2,0.8-4.8c2.9,0.4,5.8,0.9,8.7,1.1c-1.7,10.8-3.5,21.7-5.2,32.5c-1.5,8.6-7,16.1-14.2,20.8
			c-11.1,7.2-24.7,9.1-37.6,9.1c-7.9,0.3-13.7,7-16.4,13.9c-5.9,15.2-5.4,32-3.7,47.9c-11.7-10-23.1-21.2-28.9-35.8
			c-7.4-17.2-6.9-37.2-0.1-54.5c-11.5-1.8-23-3.7-34.5-5.5c-2.1-0.2-5.1-1.6-6.5,0.7c-33.9,41.9-75.7,77.3-122.1,104.8
			c-28.1-17-54.8-36.7-78.8-59.2c-28.8-27-53.9-57.8-76-90.4c-1.8-2.5-5.2-1.7-7.7-2.3c-36.9-6.4-73.9-11.9-110.9-17.9
			c-9.2-2-18.2-6.4-24.4-13.8C37.8,392.2,36,377.5,38.9,364.5z M195,436.2C234.5,493.8,285.2,544,344.5,581
			c44.2-27.5,83.7-62.4,117.2-102.2c-2.8-0.5-5.5-0.9-8.3-1.3c-39.5-6.4-78.9-12.6-118.4-18.9c-10.2-1.6-20.3-3.4-30.5-4.8
			c-8.6-1.7-17.3-2.8-26-4.3C250.6,445.1,222.8,440.6,195,436.2z"/>
	</g>
</g>
<g>
	<g>
		<path fill="#0055B0" d="M391.3,204c6.9-17.4,25.1-28.8,43.6-29.1c24.5-0.6,48,9.1,68.8,21.1c17.3,11.1,34.7,25.5,41.3,45.7
			c-11.7,3.2-24,1.2-35.9,0.6c-0.3,0-1,0-1.3,0c5.1,5.6,7.6,16,0.4,21c-34.6-12.8-69.1-26-103.6-39C396.4,221.4,388,213.4,391.3,204
			z M398.8,203.6c-2.5,5.9,1.2,13.6,7.4,15.3c5.9,2.1,11.6,4.8,17.6,6.7c-11.1-6.6-16.9-19.7-16.4-32.4
			C403.7,195.8,400.5,199.3,398.8,203.6z M448.4,206.5c16,9.2,32.2,18.5,48.7,26.9c-7.1-10.2-16.6-18.9-27.3-25.4
			C463.6,204.4,454.8,201.7,448.4,206.5z"/>
	</g>
	<path fill="#0055B0" d="M225.6,267.6c16.1-11.8,36.1-18.5,56.1-18.2c20.3,0.3,40.4,6.5,57.6,17.2c-6.4,9.7-8.9,21.8-6.4,33.1
		c-9-6.5-17.5-17.3-14.2-29c-22.3-11-50.2-14-72.6-1.8c-3.6,2-7.2,4.1-10.5,6.6C232.1,273.2,228.6,270.7,225.6,267.6z"/>
	<g>
		<path fill="#0055B0" d="M406.4,267.9c2.6-0.7,4.1,1.9,5.7,3.6c9.3,10.4,23.4,15.3,37,16.5c18.7,0.9,37.7-3.3,54.4-11.6
			c2-0.8,4.1-1.4,6.1-2.1c16,0,30.3,8.8,42.3,18.4c3,2.9,7,4.9,8.8,8.8c-7.5-5.3-16.4-10-25.9-9.1c-8.9,0.1-16.9,8.4-16.1,17.3
			c11.3-13.5,31.5-11.1,45.8-4.1c-2.7,0.7-6.1,0.8-7.7,3.4c-1.7,2.7-0.1,5.9-0.2,8.8c-5.3-1.6-11.7-3.7-16.8-0.4
			c-3.6,2.6-3,7.9-0.7,11.2c5.3,7.6,14.3,11.4,23.2,12.9c5.1,8.2,2.7,18.7-3.4,25.7c-4,1.5-8.3,1.6-12.4,2.7
			c-9.4,2.3-20.3-0.8-26.1-8.8c-6.9-9-8.3-20.8-8.8-31.7c-24.9-9.3-50.8-16.5-77.3-19.9c-5.7-1.3-10.6,3.4-13.4,7.8
			c-3,5.4-1.8,12.1,0.9,17.4c0.1,0,0.3,0,0.4,0c24.3-0.3,49.8-1,72.8,8.1c3.1,12.4,8.8,25.7,20.8,31.9c7.1,4.1,15.6,4.2,23.5,3
			c0.7-0.1,1.5-0.2,2.2-0.2c-2.3,10.7-11.4,20.7-22.9,20.9c-5.5-2.7-10.2-7.1-14.1-11.9c-6.4-7.3-15.3-11.8-24.2-15.3
			c-17.7-6.7-36.7-9.5-55.5-11.1c-14.4-0.1-30.4-2.1-41-13c-16.3-16.7-15.4-44.7-3.7-63.7C388.2,277.4,396,269.6,406.4,267.9z
			 M380.7,300.3c-2.2,9.3-2.4,19.3,0.3,28.6c2.5,8.9,9.1,16.8,17.9,19.9c-10.1-12.7-15.1-29.9-10.9-45.9
			C389.4,298.6,382.3,296,380.7,300.3z"/>
	</g>
	<g>
		<path fill="#0055B0" d="M66.8,312.3c7.2-3.6,15.7-3.4,23.5-1.9c10.2,2,21.4,1.9,30,8.4c-0.2,4-0.1,8,0.2,12
			c1.6-2.4,3.1-4.8,4.9-7.1c3.9,4.9,5,11.4,4.7,17.5c43.4,6.9,86.8,13.8,130.2,20.7c1.8-5,3.9-10.1,8-13.6
			c7.7-7.1,19.1-7.2,28.8-5.3c8.2,1.7,16.9,1.6,24.5,5.4c10.3,4.3,17.6,14.9,16.2,26.3c40.4,6.4,80.9,12.9,121.3,19.3
			c0.3-7.8,4.6-15.8,12.4-18.2c7.5,2.3,15,5.2,21.5,9.7c1.9,4.6,1.3,9.6,0.4,14.3c6,0.9,12,1.9,18,2.8c3.8,2.5,7.8,4.8,12.1,6.4
			c0,1.6,0,3.2,0,4.7c-4.4,0.2-8,3.2-11,6.3c-0.3-2.1-0.6-4.3-0.9-6.4c-6-1-11.9-2-18-2.8c-0.6,4.3-1.4,8.6-2,12.9
			c5.4,0.4,2.1,6.5,2,9.9c-0.3,1.7-0.5,3.5-0.8,5.2c-4.8-0.7-9.5-1.5-14.3-2.1c0.3-1.7,0.5-3.4,0.8-5.1c1.2-7.5,2.4-15,3.6-22.5
			c-6.5-1-13-2.1-19.5-3.1c-0.7,4.3-1.4,8.6-2.1,12.9c5.5,0.4,2,6.8,2,10.1c-0.3,1.7-0.5,3.5-0.8,5.2c-4.7-0.7-9.4-1.4-14.1-2.2
			c0.2-1.6,0.5-3.1,0.7-4.7c0.9-6.8,2.1-14.3-1.5-20.5c-5-8.4-17.7-8.3-23.8-1.2c-1.8-5.9-8-9.7-14-9.1c-3.6,0.6-6.5,3.1-9,5.6
			c-0.3-2-0.6-4.1-0.9-6.1c-5.3-0.9-10.6-1.7-15.9-2.5c-0.7,4.4-1.3,8.7-2.1,13.1c1.1,0.4,2.1,0.8,3.2,1.2c-0.1,3.2-0.8,6.4-1.3,9.5
			c-0.3,1.6-0.5,3.2-0.8,4.8c-4.8-0.6-9.7-1.4-14.5-2.2c0.2-1.6,0.5-3.2,0.8-4.8c1-5.9,2.4-12.4-0.4-18.1
			c-6.7-13.6-25.6-15.1-37.6-7.9c0.5,4.1,1.1,8.2,1.7,12.2c5.7-2.7,12.8-4.3,18.6-0.7c2.9,1.8,1.6,5.6,1.3,8.3
			c-5.4-7-16.5-6-22.5-0.3c-1.5,1.4-2.7,3.1-3.7,4.9c-2.4-0.4-4.8-0.8-7.3-1c0.3-1.7,0.5-3.4,0.8-5.2c0.6-4,1.3-8.1,1.9-12.1
			c-9.4-1.5-18.8-3-28.2-4.5c-0.7,4.2-1.3,8.3-2,12.5c2.4,0.2,4.9,0.7,7.2,1.3c0.4,1.6,0.3,3.2,0,4.8c-4.4-0.7-8.8-1.4-13.1-2.1
			c0.3-2.1,0.7-4.3,1-6.4c1.7-9.8,3.1-19.7,4.8-29.4c1.1-7.1,14.2-4.9,13,2.1c-0.3,2.9-0.9,5.8-1.3,8.8c6.8,1.1,13.5,2.2,20.3,3.2
			c1-7.6,4.3-17.1-2.3-23.2c-8.8-7.8-21.5-8.8-32.8-9.1c-8.6-0.4-16,6.4-17.6,14.6c-2.2,10.1-3.4,20.5-5.2,30.7
			c-0.3,1.9-0.6,3.7-0.9,5.6c-7.1-1-14.2-2.3-21.3-3.2c0.3-1.7,0.5-3.4,0.9-5.1c1.4-8.2,10.7-7.5,16.8-5.6c0.9-6,2-12.1,2.9-18.1
			c-3.2-0.4-6.5-1.5-9.7-1.1c-3.8,0.6-6.3,3.8-8.4,6.8c-0.5-2.3-1-4.5-1.5-6.8c-5.3-0.9-10.5-1.7-15.8-2.5c-0.7,4.3-1.4,8.6-2.1,13
			c1.1,0.3,2.1,0.7,3.2,1c0.1,3.7-0.9,7.3-1.4,11c-0.3,1.6-0.5,3.3-0.8,5c-3.4-0.5-6.7-1.3-10.1-0.9c0.7-1.7,1.3-3.4,1.7-5.1
			c1.6-7.1,1.3-15.2-2.9-21.3c-6.9-9.8-22.7-11.5-31.6-3.5c-5.1,4.5-8.1,11-9.1,17.6c-0.3,1.7-0.5,3.4-0.6,5.2
			c-4.6-0.7-9.3-1.4-13.9-2.1c0.8-1.5,1.5-3.1,2.3-4.6c3.1-4,3.5-13.2,10.5-10.9c0.7-4.2,1.4-8.5,2-12.7c-7.2-1.2-14.4-2.3-21.6-3.4
			c-0.7,4.2-1.3,8.4-2,12.6c1.2,0.3,2.4,0.7,3.5,1.1c-0.6,4.1-3.3,7.4-4.9,11.1c-0.8,1.6-1.7,3.2-2.5,4.9c-0.9-0.1-1.9-0.3-2.8-0.4
			c-0.2-1.9-0.4-3.8-0.5-5.7c0.4-3.7-3.6-12.9,3.1-11.6c0.7-4.2,1.4-8.4,2-12.6c-8.5-1.4-17-2.8-25.5-4.1c-0.7,4.2-1.3,8.4-2,12.6
			c7-0.1,4.5,8.9,6.2,13.4c0.3,1.8,0.6,3.6,0.8,5.4c-5.2-0.5-10.3-1.6-15.5-2.2c0.3-1.6,0.5-3.2,0.8-4.8c1.6-10,3.3-20,4.7-30
			c0.9-5.6-0.3-11.6-4.1-15.9c-5.3-6.2-13.8-8.3-21.5-9.5c-7.5-1.1-15.8-1.5-22.5,2.8c-4.6,2.9-7.6,7.8-8.5,13.2
			c-1.8,10.3-3.3,20.5-5,30.8c-0.3,1.7-0.5,3.4-0.8,5.1c-3.3-1.1-6.8-1.3-10.2-1.9c0.3-1.7,0.6-3.4,0.8-5.1
			c1.8-11.1,3.5-22.2,5.3-33.3C54.3,324.1,59.1,316.1,66.8,312.3z M474.6,382.7c-7.3,1.8-8,13.2-0.8,15.7c5.2,2.4,11.7-1.9,11.6-7.6
			C485.7,385.4,479.8,380.9,474.6,382.7z"/>
	</g>
	<path fill="#0055B0" d="M84.1,339.2c0.4-8.6,17-5.6,14.4,2.6c-1.7,10.2-3.3,20.5-4.9,30.7c-0.3,1.7-0.6,3.4-0.8,5.1
		c-4.8-0.6-9.7-1.4-14.5-2.1c0.3-1.7,0.5-3.4,0.8-5.1C80.8,360,82.4,349.6,84.1,339.2z"/>
	<path fill="#0055B0" d="M192.8,383.3c0.9-4.1,4.7-8.6,9.3-6.5c3.7,1.1,4,5.5,3.5,8.6C201.3,384.7,197,384.2,192.8,383.3z"/>
	<path fill="#0055B0" d="M402,411.7c1.2-2.4,5.5-2,6,0.7c0.3,2.7-0.2,5.4-0.5,8.1c-0.3,1.7-0.5,3.4-0.8,5.1c-2.4-0.3-4.9-0.7-7.3-1
		c0.3-1.7,0.5-3.4,0.8-5.1C400.7,416.8,400.7,414,402,411.7z"/>
	<path fill="#0055B0" d="M572.5,412.5c8.4,1.3,16.7,2.6,25.1,4c4.8,0.8,9.4,4.3,10.2,9.3c0.8,8.4-2.1,16.7-2.9,25.1
		c-0.3,1.6-0.5,3.2-0.8,4.8c-4.2-0.5-8.4-1.3-12.6-1.8c0.3-1.7,0.5-3.4,0.8-5c0.4-4,0.6-10.5,6.4-7.9c0.7-4.4,1.4-8.7,2.1-13.1
		c-6.6-1.1-13.3-2.1-19.9-3.2c-0.7,0.9-1.5,1.8-2.2,2.7c-2-2.6-4.8-4.7-8-5.5C571.1,418.7,571.7,415.6,572.5,412.5z"/>
	<path fill="#0055B0" d="M424.3,422.7c0.4-3.5,1.4-9.9,6.4-8.5c3.3,2,1.5,6.8,1.3,9.9c-0.3,1.7-0.6,3.5-0.9,5.2
		c-2.5-0.4-5.1-0.8-7.6-1.1C423.7,426.4,424,424.6,424.3,422.7z"/>
	<path fill="#0055B0" d="M562.7,418.1c0.1,1.2,0.3,2.4,0.4,3.5c-0.6,0.3-1.2,0.7-1.7,1.1C561.7,421.1,562.2,419.6,562.7,418.1z"/>
	<path fill="#0055B0" d="M538.4,420.2c2.1,6.2,4.4,12.3,8.4,17.6c-0.4,1.4-0.7,2.7-1,4.1c-0.3,1.6-0.6,3.2-0.8,4.9
		c-2.9-0.4-5.8-0.9-8.7-1.3c0.3-1.7,0.5-3.4,0.8-5.1c0.9-5.5,1.6-11.3,0.2-16.8C537.5,422.4,538,421.3,538.4,420.2z"/>
	<path fill="#0055B0" d="M509.8,436.3c0.5-3.5,2.3-8.8,6.8-8.1c4.2,0.7,4,6,3.3,9.2c-0.3,1.8-0.6,3.6-0.9,5.4
		c-3.3-0.4-6.6-1.1-10-1.4C509.3,439.7,509.5,438,509.8,436.3z"/>
	<path fill="#0055B0" d="M563.8,444.2c1-3.3,2.3-7.6,6-8.7c5.6-0.3,5.9,7,5.7,11c-0.1,1.4-0.3,2.8-0.5,4.2c-4,0.6-8-1-12-1.2
		C563,447.7,563.3,445.9,563.8,444.2z"/>
</g>
<g>
	<path fill="#004493" d="M501.9,180.7c26.4,12,48.4,33.8,59.3,60.8c5.7,4.7,6.3,13.1,2.5,19.1c-2-0.5-4.1-0.7-6.1-1.5
		c-2.3-4.7-2.3-10.3-1.2-15.3c-3.3,4.1-5.4,9.2-5.7,14.5c-10.3-0.4-20.7,0.6-30.8,2.3c1.2-7.8-3.5-15.5-10.8-18.3
		c11.9,0.6,24.2,2.6,35.9-0.6c-6.6-20.2-23.9-34.6-41.3-45.7C503.3,190.9,502.8,185.8,501.9,180.7z"/>
	<path fill="#004493" d="M448.4,206.5c6.3-4.8,15.1-2,21.4,1.5c10.6,6.5,20.1,15.3,27.3,25.4C480.7,225,464.5,215.7,448.4,206.5z"/>
	<path fill="#004493" d="M380.1,283.4c7.9-14.5,21.8-25.4,36.9-31.6c0.6,7.2,3.7,14.4,9.3,19.2c7.1,6.1,16.4,8.6,25.5,9.6
		c17.4,1.9,34.7-1,51.7-4.2c-16.7,8.2-35.7,12.4-54.4,11.6c-13.6-1.2-27.7-6.1-37-16.5c-1.5-1.6-3.1-4.3-5.7-3.6
		C396,269.6,388.2,277.4,380.1,283.4z"/>
	<path fill="#004493" d="M509.7,274.3c15.3-6.9,32.7-7.7,49.1-5.8c11,0.7,20.2,7.6,28.8,13.8c8.1,6,15.3,13.1,22.7,19.8
		c6.7,1.9,7.5,9.9,6.2,15.7c-10.6-0.9-18.1,11.8-17.5,21.5c4.8,0.6,8.7-3,12.6-5.4c-3.8,6.4-2.4,14.5-6.6,20.7
		c-2.1,3.7-5.9,6.5-10.2,7c-12,1.3-23.9,3.9-35.9,5.6c6.1-7,8.6-17.5,3.4-25.7c5,0.7,10.3,1.7,15.1-0.2c1.6-0.6,1.8-2.4,1-3.7
		c-4.3-9-12.1-16.9-21.8-19.8c0-2.9-1.5-6.1,0.2-8.8c1.6-2.6,5-2.7,7.7-3.4c0.5,0.1,0.9,0.1,1.4,0.2c-1.8-1.4-3.6-2.8-5.2-4.4
		c-1.8-3.9-5.9-5.9-8.8-8.8C539.9,283.1,525.6,274.3,509.7,274.3z"/>
	<path fill="#004493" d="M235.7,275.5c3.3-2.5,6.9-4.5,10.5-6.6c18,0.8,36.8,1,53.5,8.6c1.6,4.6,3.9,9,5.9,13.4
		C281.4,293.4,256.1,288.9,235.7,275.5z"/>
	<path fill="#004493" d="M422.2,334.7c-1.1-7.3,3.2-18.3,12.2-16.7c23.5,2.3,46.3,9.1,68.7,16.2c2.8,0.4,1.8,3.7,2,5.6
		c0.5,11.3,4.1,23.5,13.2,30.8c5.8,4.9,13.5,6.8,21,7.2c-7.9,1.2-16.4,1-23.5-3c-11.9-6.3-17.7-19.5-20.8-31.9
		C472.1,333.7,446.6,334.4,422.2,334.7z"/>
	<path fill="#004493" d="M554.9,375c10.6-2.5,21.3-4.6,32.1-5.7c-5,8.7-9.4,17.8-14.8,26.2c-15.6,10-37.4,13.7-53.6,3
		c11.5-0.2,20.6-10.1,22.9-20.9C546.2,377.8,550.5,376,554.9,375z"/>
</g>
<g>
	<path fill="#258FEC" d="M398.8,203.6c1.7-4.3,4.9-7.8,8.6-10.4c-0.5,12.7,5.3,25.7,16.4,32.4c-6-1.9-11.7-4.5-17.6-6.7
		C400.1,217.2,396.4,209.5,398.8,203.6z"/>
	<path fill="#258FEC" d="M380.7,300.3c1.6-4.2,8.7-1.6,7.3,2.6c-4.1,16,0.9,33.1,10.9,45.9c-8.8-3.1-15.4-11-17.9-19.9
		C378.3,319.6,378.5,309.6,380.7,300.3z"/>
</g>
<g>
	<path fill="#E5E8ED" d="M57.7,367.5c7.2,0.6,14.2,2.3,21.4,2.9c-0.3,1.7-0.5,3.4-0.8,5.1c-0.2,2.9-1.9,6.7,0.8,8.8
		c2.8,1.8,6.5,2.4,9.8,1.6c3.4-1.2,3.3-5.4,3.9-8.3c0.3-1.7,0.6-3.4,0.8-5.1c6.9,1.8,14.1,2,21,3.7c-0.3,1.6-0.5,3.2-0.8,4.8
		c-0.8,5.3-2.5,10.8-6.7,14.3c-5.9,5.3-14.4,5.6-21.9,4.6c-8.5-1.1-17.9-2.8-24-9.4c-4.6-4.7-5.5-11.8-4.3-18
		C57.2,370.9,57.4,369.2,57.7,367.5z"/>
	<path fill="#E5E8ED" d="M128.5,377.8c5.3,1.2,10.8,2.5,16.3,2.2c0.2,1.9,0.3,3.8,0.5,5.7c0.2,1.7,0.3,3.3,0.5,5
		c0.8-1.5,1.6-3,2.4-4.6c0.9-1.6,1.7-3.2,2.5-4.9c4.1,1.1,8.4,1.4,12.6,2.3c-0.8,1.5-1.6,3.1-2.3,4.6c-3.3,6.5-6.6,12.9-9.9,19.4
		c-6.1-1-12.3-2-18.4-2.9c-1.1-7.1-2.2-14.3-3.3-21.4C129.1,381.4,128.8,379.6,128.5,377.8z"/>
	<path fill="#E5E8ED" d="M174.9,390.3c0.1-1.7,0.3-3.5,0.6-5.2c14.5,2.9,29.3,4.1,43.7,7.2c-0.4,1.7-1,3.4-1.7,5.1
		c-8.9-1-17.7-2.9-26.5-4c-0.9,10.8,13.5,12.2,19.9,6.6c1.8,3.6,3.7,7.3,5.5,10.9c-8.2,6.5-20.2,7.6-29.6,3.1
		C178.2,409.7,174.3,399.5,174.9,390.3z"/>
	<path fill="#E5E8ED" d="M227.6,398.3c0.3-1.7,0.5-3.3,0.8-5c5.3,0.9,10.7,1.8,16,2.4c-0.4,1.7-0.7,3.4-0.9,5.1
		c-0.6,3.3-2.3,8.8,2.9,8.5c-0.7,4.4-1.3,8.8-2.1,13.1c-7.9-1.3-15.8-2.5-23.8-3.8c0.7-4.4,1.4-8.7,2.1-13.1
		C227.5,407.1,227,401.4,227.6,398.3z"/>
	<path fill="#E5E8ED" d="M264.9,404c0.3-1.9,0.6-3.7,0.9-5.6c6.5,2.4,13.7,2.4,20.5,3.7c0.2-0.5,0.4-0.9,0.6-1.3
		c-0.3,2.1-0.7,4.3-1,6.4c-0.3,2.9-1.5,5.9-0.3,8.7c1.9,3.3,6.8,4.2,10.1,2.6c3.1-2,2.5-6.1,3.4-9.2c0.3-1.6,0.4-3.2,0-4.8
		c7.1,0.3,14,2.1,21.1,2.7c-0.3,1.7-0.5,3.4-0.8,5.2c-1.2,7.6-2.4,15.1-3.6,22.7c-6-0.9-11.9-1.9-17.9-2.8c-0.4-2.4-0.9-4.8-1.3-7.2
		c-8,7.4-22.2,6.3-29.3-1.9C263,417.7,263.9,410.4,264.9,404z"/>
	<g>
		<path fill="#E5E8ED" d="M326.6,413.5c1-1.8,2.2-3.4,3.7-4.9c12.9,2.8,26,3.9,39,6.4c-0.3,1.6-0.5,3.2-0.8,4.8
			c-0.7,4-2.8,10.5,3.6,9.9c-0.7,4.3-1.4,8.5-2,12.8c-6-0.9-12-1.9-18-2.9c-0.4-1.6-0.8-3.1-1.3-4.7c-6.4,7.5-19.1,5.1-24.1-2.8
			C323,426.6,323.7,419.2,326.6,413.5z M343.4,417.2c-2.7,1.4-3.8,5.6-1.9,8.1c2.5,3.3,9,1.5,9.1-2.8
			C351.8,418.6,346.7,415.8,343.4,417.2z"/>
	</g>
	<path fill="#E5E8ED" d="M383.7,417.1c5.5,0.6,10.9,1.9,16.4,2.3c-0.3,1.7-0.6,3.4-0.8,5.1c-0.1,3.3-3.2,9.2,2,9.6
		c-0.7,4.3-1.4,8.7-2.1,13c-7.8-1.2-15.6-2.5-23.4-3.7c0.7-4.4,1.4-8.8,2.1-13.2c1.2,0.2,2.3,0.3,3.5,0.5c0.5-2.9,0.9-5.9,1.4-8.8
		C383.2,420.3,383.5,418.7,383.7,417.1z"/>
	<path fill="#E5E8ED" d="M406.7,425.6c0.3-1.7,0.6-3.4,0.8-5.1c5.5,1.1,11.1,2.4,16.8,2.3c-0.3,1.8-0.6,3.7-0.9,5.5
		c0,3.2-3.2,9.1,2,9.4c-0.7,4.4-1.4,8.9-2.1,13.3c-6.7-1.1-13.5-2.1-20.2-3.2C404.3,440.4,405.5,433,406.7,425.6z"/>
	<path fill="#E5E8ED" d="M431,429.3c0.3-1.7,0.6-3.5,0.9-5.2c5.6,1.6,11.5,1.7,17.1,3.1c-0.3,1.6-0.5,3.1-0.7,4.7
		c-0.3,3.5-3.1,9.8,2.7,9.6c-0.7,4.5-1.4,9-2.2,13.5c-7.1-1.1-14.2-2.3-21.4-3.4C428.6,444.2,429.8,436.8,431,429.3z"/>
	<path fill="#E5E8ED" d="M462.4,434.1c0.3-1.7,0.6-3.5,0.8-5.2c5.2,1.3,10.6,1.9,16,2.6c-0.3,1.7-0.6,3.4-0.8,5.1
		c-0.2,3.6-3.4,10.1,2.5,10.1c-0.7,4.4-1.4,8.7-2.1,13.1c-7.9-1.2-15.7-2.5-23.6-3.7c0.7-4.4,1.4-8.7,2.1-13.1
		C462.7,444.3,461.3,437.4,462.4,434.1z"/>
	<path fill="#E5E8ED" d="M492.7,438.8c0.3-1.7,0.6-3.5,0.8-5.2c5.3,1.4,10.9,1.8,16.3,2.8c-0.3,1.7-0.5,3.4-0.8,5.1
		c-0.3,3-1.3,5.9-1,8.9c1.4,1.5,3.7,1.3,5.5,1.6c-0.7,4.4-1.4,8.8-2.1,13.1c-8.6-1.3-17.3-2.7-25.9-4.1c0.7-4.4,1.4-8.7,2.1-13.1
		C493,449.2,491.6,442,492.7,438.8z"/>
	<path fill="#E5E8ED" d="M519,442.7c0.3-1.8,0.6-3.6,0.9-5.4c4.4,1.7,9.2,1.9,13.8,2.4c0.4,0.6,0.8,1.2,1.2,1.7c0-0.3,0.1-0.8,0.1-1
		c0.7-0.1,1.4-0.1,2.1-0.1c-0.3,1.7-0.5,3.4-0.8,5.1c0,3.6-3.7,10.5,2.4,10.6c-0.7,4.4-1.4,8.7-2.1,13.1c-7.1-1.1-14.1-2.2-21.2-3.4
		C516.6,458,517.8,450.4,519,442.7z"/>
	<path fill="#E5E8ED" d="M545.7,441.8c1.7,0.2,3.4,0.4,5.1,0.6c3.3,3.2,7.3,5.8,11.8,7c-0.4-2-0.9-3.9-1.3-5.9
		c0.3,0.2,0.7,0.5,1.1,0.7c0.4,0,0.9-0.1,1.3-0.1c-0.4,1.7-0.8,3.5-0.8,5.3c0,3.8,0.1,10,4.7,10.8c4.6-0.4,6.3-5.8,7.2-9.6
		c0.3-1.4,0.4-2.8,0.5-4.2c5.7,0.4,11.3,1.7,16.9,2.3c-0.3,1.7-0.5,3.4-0.8,5c-2.1,10.3-1.8,21.8-8,30.8c-5.1,7.6-15,10.5-23.8,9.7
		c-9.7-1.1-19.8,2.4-26.5,9.5c-6.8,7.1-9.9,16.7-11.5,26.1c-2.6-13.4-1.9-29.2,7.8-39.8c8.6-9.1,22-10.7,33.9-10.1
		c5.8-0.1,8.4-6.2,8.6-11.2c-6.6,7.2-18.6,3.5-23.4-3.9c-3.6-5.3-4.3-12.1-3.7-18.4C545.1,445.1,545.4,443.5,545.7,441.8z"/>
</g>
<path fill="#001A51" d="M503.7,196.1c-1.4-12.5-10.4-55.1-38.2-64.9c0,0,1.4,22.5-1.4,25c0,0-28.1-50.6-79.7-50.6
	c0,0,30.9,26.7,26.5,47.4c0,0-32.7-35.9-80.8-14c0,0,45.8,18.6,45.8,63.5c0,18.3-10.4,28.8-27.8,28.8c-17.4,0-22.2-12.2-51.6-1.4
	c0,0,39.8,5.3,45.4,17.2c0,0-21.4-5.6-31.6,2.4c0,0,20.5,3.5,28.9,17.2c0,0-16.4,22.9,0,50.8c0,0-16.6,12.8-16.2,17.5
	c0,0,17.6-4.6,23.2,0c0,0-5.3,6.7-5.4,10.4c0,0,8.8-5.2,14-2.9c0,0,2.4,7.1,6,8.8c0,0-14.6,5.8-14.6,16.1c0,0,7.5,3.9,16.1,3.9
	c55.2,0,48.6-1.2,67.6-1.2c59.2,0,75.9,28.4,88.7,28.4c0,0-31.9-38.3-96.5-38.3c-50.6,0-50.6-39.3-50.6-46.7
	c0-7.3,4.1-45.7,45.5-61.6c0,0,1.3,29.3,42.3,29.3s51-5,51-10.6s-2.2-7.2-2.2-7.2l-95.8-36c0,0-21.8-5.9-21.8-18.9
	s21.6-33.6,47.2-33.6S503.7,196.1,503.7,196.1z"/>
<g>
	<g>
		<path fill="#B2BACA" d="M253.1,57c0.9-0.5,1.9-0.7,2.8-1.1c-10.5,11.6-18.4,26.7-18.1,42.6c0.1,12,5.8,23.4,13.9,32.1
			c10.7,11.5,24.6,19.5,38.8,26c19.4,8.7,40,14.6,60.7,19.3c8.8,1.3,17.8,5.6,22.2,13.7c7.7,15.1,0.1,37.7-17.6,41.1
			c2.4-5.2-0.1-12.5-6-13.7c-33.4-11-66.2-25.7-94.1-47.6c-19.1-15.8-37.7-37.7-36.7-64C219.8,84.1,236.5,68.2,253.1,57z M226.9,117
			c4.4,17.5,17.4,31.1,31.4,41.7c27.1,20.1,59,32.3,90.7,42.7c7.4,2.7,11.6,10.4,12.5,17.8c7-9.4,9.8-25.4-1.4-32.8
			c-30.3-6.4-60.6-15.4-87.5-30.9c-15-8.9-29.7-20.5-36.9-36.9c-7.3-16-3.5-34.7,5-49.5C228.9,81.8,222.5,100.1,226.9,117z"/>
	</g>
	<path fill="#B2BACA" d="M509.7,132.8c2.1-10.9-1.2-21.8-5.1-31.9c11.7,14.4,18.8,34,14.1,52.5c-1.9,7.7-5.8,14.7-10.6,20.9
		c-1.4-0.7-2.8-1.4-4.2-2.1c13.8-13.3,15.2-35.1,8.5-52.2c0.1,14.3-1.6,31.8-14.7,40.4c-0.4-1.5-0.8-2.9-1.2-4.4
		C503.2,149.9,508.2,141.8,509.7,132.8z"/>
	<path fill="#B2BACA" d="M431.7,245.2c6.8,1.9,13.4,4.2,20.1,6.6c-0.5-0.1-1.4-0.3-1.9-0.4c-0.8,6.3,2.3,13,8.2,15.6
		c11,5.2,23.7,3.4,35.4,2.2c-11.2,2.8-22.7,4.1-34.2,3.3c-8-0.7-16.6-2.9-22.2-9.1C432.6,258.5,431.4,251.6,431.7,245.2z"/>
</g>
<path fill="#FFFFFF" d="M449.9,251.4c0.5,0.1,1.4,0.3,1.9,0.4c15.5,5.3,30.9,10.8,46.3,16.4c-1.5,0.4-3.1,0.8-4.6,1.1
	c-11.7,1.2-24.3,3-35.4-2.2C452.2,264.4,449.1,257.7,449.9,251.4z"/>
<path fill="#001A51" d="M120.4,330.8c9.2-23.1,20.2-40.1,50.5-49.2c0,0-25.4,11.4-33.4,47.3c0,0-4.4-10.9-6.3-12.4L120.4,330.8z"/>
<path fill="#FFFFFF" d="M136.8,310.8c4.1-4,8.4-7.6,13.2-10.7c-4,5.9-7.4,12.4-9.8,19.1C139,316.4,137.9,313.6,136.8,310.8z"/>
<path fill="#001A51" d="M158.2,336.9c1.8-2.5,10.7-9.7,10.7-9.7s-3.5,8.8-3.5,10.9L158.2,336.9z"/>
<path fill="#000B38" d="M244.8,444.1c0.3,15.7,8.4,46.1,13.9,55.2c0,0-39.6-26.9-63.8-63.2L244.8,444.1z"/>
</svg>
