<?xml version="1.0" encoding="utf-8"?>
<!-- Generator: Adobe Illustrator 18.1.1, SVG Export Plug-In . SVG Version: 6.00 Build 0)  -->
<svg version="1.1" id="Layer_2" xmlns="http://www.w3.org/2000/svg" xmlns:xlink="http://www.w3.org/1999/xlink" x="0px" y="0px"
	 viewBox="82.3 -60.5 951.5 607" enable-background="new 82.3 -60.5 951.5 607" xml:space="preserve">
<g>
	<g>
		<polygon fill="none" points="219.5,93.4 249.5,96.9 249.2,89.7 237.6,88.3 237.3,78.8 248.8,80.2 248.5,72.5 218.6,68.8 
			218.8,76.6 230.8,78 231.1,87.5 219.2,86.1 		"/>
		<polygon fill="none" points="226.7,110.9 226.3,102.6 249.8,105.5 249.6,98.3 219.4,94.7 220,110.1 		"/>
		<g>
			<polygon fill="none" points="250.5,127.7 249.8,108.3 243.2,107.5 243.5,114 226.6,111.9 226.6,111.9 220,111.1 220,111.1 
				220.1,111.1 220.3,118.9 243.8,121.8 243.9,126.8 			"/>
			<polygon fill="none" points="251.3,148.3 232.8,138.9 250.8,133.8 250.6,129 250.5,128.7 242.8,127.7 220.8,134.3 221.1,140.4 
				251.5,156.7 			"/>
		</g>
	</g>
	<g>
		<path fill="none" d="M223.7,154.2c-1.6-0.2-2.9-1.6-3-3.3c-0.1-1.7,1.2-2.7,2.9-2.6c1.6,0.2,2.9,1.6,3,3.3
			C226.7,153.3,225.3,154.4,223.7,154.2z"/>
		<path fill="none" d="M229.5,168.4c-4-0.5-8.2-2.2-8.3-6.9c-0.1-4.7,3.9-5.5,7.9-4.8c4,0.5,8.2,2.3,8.4,6.9
			C237.5,168.1,233.4,168.9,229.5,168.4z M229.1,160.9c-1-0.2-4.2-0.5-4.2,1.1c0.1,1.5,3.4,2,4.3,2.1s4.3,0.4,4.2-1.1
			C233.4,161.5,230.1,161,229.1,160.9z"/>
		<path fill="none" d="M237.5,175.5l-1.9-0.2l0,0c1.4,1,2.3,2.1,2.6,3.9l-4.2-0.5c0-0.3,0-0.4,0-0.6c-0.1-2.9-2-3.1-4.4-3.5
			l-7.8-0.9l-0.2-4.3l15.6,1.9L237.5,175.5z"/>
		<path fill="none" d="M220.1,182.4c-1-0.1-2.2,0.1-2.1,1.3c0.1,1.9,3,2,4.4,2.2l2,0.3l0,0c-0.6-0.3-1.1-0.7-1.6-1.2
			c-0.4-0.5-0.8-1.1-0.7-1.8c-0.1-1.7,1.2-2.5,2.5-3c1.5-0.6,3.6-0.6,5.3-0.4c2.8,0.4,8.4,1.5,8.5,5.3c0.1,1.5-0.9,2.4-2.2,2.7l0,0
			l1.9,0.2l0.2,4.3l-17.1-2c-4.6-0.5-6.5-2.8-6.6-6.6c-0.1-3.8,2-5.1,5.5-5L220.1,182.4z M230.2,187.2c0.8,0.1,4.2,0.5,4.1-1
			c-0.1-1.5-3.4-2-4.2-2.1c-1-0.1-4.3-0.4-4.1,1.1C225.9,186.5,229.4,187,230.2,187.2z"/>
	</g>
</g>
<g>
	<path fill="#282828" d="M544.3,190.8c0,0-18.7-63.8-49-63.8c-13.2,0-18.5,5.7-18.5,5.7C484.3,132.6,518,143.6,544.3,190.8z"/>
	<path fill="#282828" d="M186.5,241.4c14.5,32,55.5,79.8,103.5,79.8c28.5,0,29.8-25.8,29.8-30.8s-8.2-78.5-151.5-78.5
		c-73.5,0-86,9.7-86,11.7s141.4-2.8,185.8,50.8C268,274.4,217.3,241.4,186.5,241.4z"/>
	<path fill="#282828" d="M571.7,190.8c0,0,18.7-63.8,49-63.8c13.2,0,18.5,5.7,18.5,5.7C631.7,132.6,598,143.6,571.7,190.8z"/>
	<path fill="#282828" d="M929.5,241.4c-14.5,32-55.5,79.8-103.5,79.8c-28.5,0-29.8-25.8-29.8-30.8s8.2-78.5,151.5-78.5
		c73.5,0,86,9.7,86,11.7s-141.4-2.8-185.8,50.8C848,274.4,898.7,241.4,929.5,241.4z"/>
	<path fill="#282828" d="M983,57.9c-0.3,2-56,24.8-56,24.8c7.8-6.7,55-31.5,55-31.5s0.2-8.3-1.8-13s-15.3-11-15.3-11
		c-0.7-5.3-2.5-14-7.2-17.5c-4.7-3.5-11.5-7.5-11.5-7.5c-4,0.3-53,57-53,57C906.6,35.8,941-3.4,941-3.4s-1-5.7-5-9.7s-16.8-6-16.8-6
		s-4.3-9-7.2-11.8c-2.8-2.8-3.8-1.3-9.5-4.7c-5.7-3.3-10.2-3-10.2-3c-7,10-30,81.5-30,81.5c2.2-30.7,21.5-86.7,21.5-86.7
		s-2.7-5-8.3-6.3c-5.7-1.3-18.7,2.2-20.3,0.2c-1.7-2-12.2-9.7-16.8-10.5c-4.7-0.8-18.5,3-18.5,3c-3.7,16.5,3.8,94.5,3.8,94.5
		c-11-29-12.3-94.5-12.3-95.3s-3.5-2.2-9-2.2s-17.2,8.5-20.2,8.5s-15-2.3-17.5-2c-2.5,0.3-12.8,10.5-12.8,10.5
		c4.3,36,33,96.7,33,96.7c-24.8-33-43.5-94.7-43.5-94.7s-6.9,0-9.7,0s-12.4,13.9-13.4,14.2s-10.8-0.8-14.4,0.7
		c-5.5,2.2-16.5,16.5-16.5,16.5c10,28.8,56.5,90,56.5,90c-38.2-31-64.6-86.3-64.6-86.3c-1.9-0.4-9.4,1.3-9.4,1.3s-15,7-15,36.5
		c0,63.8,65.5,89.1,65.5,89.1c-39.6,0-77.4-45.6-77.4-45.6c19,48.4,38,51.6,38,51.6c56.5,7.1,66.9,33.1,66.9,45.1
		s-7.1,23.6-7.1,23.6c-12-17.6-41.5-34.8-61.1-34.8c-26.6,0-34.2,20.4-67.4,41c-1.5,1-6.1,3.9-4.1,7.4s11.3,12,10.5,14.7
		c-2.5,8.8-33,29.7-40,27.3c-6.8-2.3-20.4-32.2-20.4-32.2s-13.7,29.9-20.5,32.2c-7,2.3-37.5-18.5-40-27.3
		c-0.8-2.7,8.5-11.2,10.5-14.7s-2.6-6.4-4.1-7.4c-33.1-20.6-40.8-41-67.4-41c-19.6,0-49.1,17.1-61.1,34.8c0,0-7.1-11.6-7.1-23.6
		s10.4-38,66.9-45.1c0,0,19-3.2,38-51.6c0,0-37.8,45.6-77.4,45.6c0,0,65.5-25.4,65.5-89.1c0-29.5-15-36.5-15-36.5s-7.4-1.7-9.4-1.3
		c0,0-26.4,55.3-64.6,86.3c0,0,46.5-61.2,56.5-90c0,0-11-14.2-16.5-16.5c-3.7-1.5-13.4-0.4-14.4-0.7s-10.6-14.2-13.4-14.2
		s-9.7,0-9.7,0S356,20.3,331.2,53.3c0,0,28.7-60.7,33-96.7c0,0-10.3-10.2-12.8-10.5c-2.5-0.3-14.5,2-17.5,2s-14.7-8.5-20.2-8.5
		s-9,1.3-9,2.2s-1.3,66.3-12.3,95.3c0,0,7.5-78,3.8-94.5c0,0-13.8-3.8-18.5-3c-4.7,0.8-15.2,8.5-16.8,10.5c-1.7,2-14.7-1.5-20.3-0.2
		c-5.7,1.3-8.3,6.3-8.3,6.3s19.3,56,21.5,86.7c0,0-23-71.5-30-81.5c0,0-4.5-0.3-10.2,3c-5.7,3.3-6.7,1.8-9.5,4.7
		c-2.8,2.8-7.2,11.8-7.2,11.8s-12.8,2-16.8,6s-5,9.7-5,9.7s34.3,39.2,47.8,62.7c0,0-49-56.7-53-57c0,0-6.8,4-11.5,7.5
		c-4.7,3.5-6.5,12.2-7.2,17.5c0,0-13.3,6.3-15.3,11c-2,4.7-1.8,13-1.8,13s47.2,24.8,55,31.5c0,0-55.7-22.8-56-24.8
		c0,0-6.5,57.5,34.5,148.5c0,0,84.5-8,130,34c0,0-21.5-68-21.5-95.5s12.5-26,20-26s47,16,47,16c0,93.8,10,91,10,109.8
		c0,6.4-6,9.5-9.5,11.2s-9.2,7-9.2,11.5s12.2,11,12.2,13.8s-0.5,8.2,2,10.2s21,12,21,27s-2.5,19.5-2.5,19.5s-15-1-22.8-14
		c0,0,8.8,30.8,28.5,39.5s35.5,7.8,41.2,17.2c0-42.2-23.8-39-23.8-96.5c0,32,34.8,65.2,34.8,101.5c0,21.5-7,32-7,34.2
		s10.2,25,16.2,25s17-10.8,17-14.8s9-19,27.5-15.5c0,0,5.2,20.8-5,30.2c0,0,3,74.8,18.8,101.5c0,0-3.5-81.8,3.8-95
		c0,0,4.5,4,5.5,11.8c0,0,6.5,1.2,9,1.2s12.8,1,13.5,0.2s-2.5-11.5-1.5-12.2s8.8,7.2,9.5,10s2.7,8,6.1,9c3.4,1,13.4,0.8,13.4,0.8
		s4-1.5,4-5s0.1-10.8,2.2-13.2h0.1c2.1,2.5,2.2,9.8,2.2,13.2s4,5,4,5s10,0.2,13.4-0.8c3.4-1,5.3-6.2,6.1-9s8.5-10.8,9.5-10
		s-2.2,11.5-1.5,12.2s11-0.2,13.5-0.2s9-1.2,9-1.2c1-7.8,5.5-11.8,5.5-11.8c7.2,13.2,3.8,95,3.8,95c15.8-26.8,18.8-101.5,18.8-101.5
		c-10.2-9.5-5-30.2-5-30.2c18.5-3.5,27.5,11.5,27.5,15.5s11,14.8,17,14.8s16.2-22.8,16.2-25s-7-12.8-7-34.2
		c0-36.2,34.8-69.5,34.8-101.5c0,57.5-23.8,54.2-23.8,96.5c5.8-9.5,21.5-8.5,41.2-17.2s28.5-39.5,28.5-39.5c-7.8,13-22.8,14-22.8,14
		s-2.5-4.5-2.5-19.5s18.5-25,21-27s2-7.5,2-10.2s12.2-9.2,12.2-13.8s-5.8-9.8-9.2-11.5s-9.5-4.8-9.5-11.2c0-18.8,10-16,10-109.8
		c0,0,39.5-16,47-16s20-1.5,20,26s-21.5,95.5-21.5,95.5c45.5-42,130-34,130-34C989.5,115.4,983,57.9,983,57.9z M409.3,267.9
		c0-15.5,23.5-52.8,46.2-52.8s47.8,50.2,59,63.5s18.2,16,18.2,19.2s0.2,18-6.5,18C424.5,315.9,409.3,284.2,409.3,267.9z
		 M582.6,415.4c-4.2,0-3.2-8-3.2-8c-9.3,5.7-7.3,18-7.3,18c-7.3-7-14-78-14-78s-6.7,71-14,78c0,0,2-12.3-7.3-18c0,0,1,8-3.2,8
		s-14.8-7.8-14.8-13.9c0-10.2,13.8-17.2,22.7-37.9c7.1-16.5,16.7-45.2,16.7-45.2s9.6,28.6,16.7,45.2c8.8,20.7,22.7,27.7,22.7,37.9
		C597.3,407.6,586.8,415.4,582.6,415.4z M589.8,315.9c-6.8,0-6.5-14.8-6.5-18s7-6,18.2-19.2s36.2-63.5,59-63.5s46.2,37.2,46.2,52.8
		C706.8,284.2,691.5,315.9,589.8,315.9z"/>
</g>
</svg>
