<?xml version="1.0" encoding="utf-8"?>
<!-- Generator: Adobe Illustrator 18.1.1, SVG Export Plug-In . SVG Version: 6.00 Build 0)  -->
<svg version="1.1" id="Layer_2" xmlns="http://www.w3.org/2000/svg" xmlns:xlink="http://www.w3.org/1999/xlink" x="0px" y="0px"
	 viewBox="369.2 135.4 150.1 121.3" enable-background="new 369.2 135.4 150.1 121.3" xml:space="preserve">
<g>
	<g>
		<polygon fill="none" points="414.3,202.3 422.9,197.1 421.3,195.3 418,197.3 416,194.9 419.3,192.9 417.6,191 409,196.1 
			410.7,198.1 414.1,196 416.1,198.4 412.8,200.5 		"/>
		<polygon fill="none" points="419.7,205.4 417.9,203.4 424.7,199.3 423.2,197.5 414.5,202.7 417.9,206.5 		"/>
		<g>
			<polygon fill="none" points="429.4,204.9 425.2,200.1 423.4,201.2 424.8,202.8 419.9,205.7 419.9,205.7 418.1,206.8 418.1,206.8 
				418.1,206.8 419.7,208.8 426.4,204.8 427.5,206 			"/>
			<polygon fill="none" points="433.8,210.1 427,211.4 430.7,206.5 429.7,205.2 429.6,205.2 427.3,206.5 423,212.7 424.3,214.2 
				435.5,212.3 			"/>
		</g>
	</g>
	<g>
		<path fill="none" d="M427.8,217.3c-0.4,0.2-1.1,0.2-1.5-0.2c-0.4-0.4-0.2-0.9,0.2-1.3c0.4-0.2,1.1-0.2,1.5,0.2
			C428.5,216.4,428.3,217,427.8,217.3z"/>
		<path fill="none" d="M432.2,219.8c-1.1,0.7-2.6,1.1-3.5-0.1c-1-1.2-0.1-2.2,1.1-2.9c1.1-0.7,2.6-1.1,3.6,0.1
			C434.2,218.1,433.3,219.2,432.2,219.8z M430.6,218c-0.3,0.1-1.2,0.7-0.9,1.1c0.3,0.4,1.3-0.2,1.6-0.3s1.2-0.7,0.9-1.1
			C431.8,217.2,430.9,217.8,430.6,218z"/>
		<path fill="none" d="M435.7,220l-0.6,0.3l0,0c0.6,0,1,0.1,1.5,0.5l-1.2,0.7c-0.1-0.1-0.1-0.1-0.1-0.1c-0.6-0.7-1.2-0.4-1.9,0
			l-2.2,1.4l-0.9-1.1l4.5-2.7L435.7,220z"/>
		<path fill="none" d="M432.6,225.4c-0.3,0.2-0.6,0.5-0.3,0.8c0.4,0.5,1.2-0.1,1.6-0.3l0.6-0.3l0,0c-0.2,0-0.4,0.1-0.7,0
			c-0.2,0-0.4-0.1-0.6-0.3c-0.4-0.4-0.2-0.9,0-1.3c0.2-0.4,0.8-0.9,1.3-1.2c0.8-0.4,2.5-1.3,3.3-0.4c0.3,0.4,0.2,0.8,0,1.1l0,0
			l0.6-0.3l0.9,1.1l-4.9,2.9c-1.3,0.8-2.3,0.6-3-0.4c-0.8-1-0.5-1.7,0.4-2.4L432.6,225.4L432.6,225.4z M436.2,224.6
			c0.2-0.1,1.2-0.7,0.9-1.1s-1.3,0.2-1.6,0.3c-0.3,0.2-1.2,0.7-0.8,1.1C434.9,225.3,436,224.7,436.2,224.6z"/>
	</g>
</g>
<path fill="#4C7291" d="M502.9,139.7c-0.3-0.9-1.4-0.2-2,0c-8.1,3-16.5,7.3-21.4,14.7c-0.7,7.7-5.1,14.9-11.1,19.6
	c-6-1.8-12.3-1.9-18.4-0.9c-3.1-1.9-5-5.5-5.7-9.1c-0.5,1.3-0.7,2.7-0.9,4.1c-1.1-2.3-0.9-4.8-1-7.2c-0.8,0.9-1.2,2-1.5,3.2
	c-1.2-4.7-2-10.8,2.1-14.3c4.9-3.5,11.2-4.6,17.1-4.1c-6.4-6.2-16.6-4.8-23.5-0.1c-10.1,6-13.6,19.2-11,30.1
	c-0.8,0.2-1.6,0.4-2.3,0.5c-4.7-9.5-8.6-20.1-16.9-27.1c-4.5-3.9-10.5-6.5-16.5-5.5c-1.4,8.7-6.8,16.1-13,22.1
	c-7.8,8.9-5.6,22.2-0.1,31.7c3.3,6,7.8,12.2,14.7,14.3c-0.9,4.7-3.4,10.5-8.7,11.2c0.9,10.6-1.7,20.8-4,31.1
	c25.5-2.9,51.2-5.3,76.9-4.5c18.6,0.6,37.1,2.4,55.5,4.5c-1.5-6.2-2.9-12.4-4.3-18.6c-0.3-4.2,0-8.4-0.1-12.6
	c-3.5,1.3-9.4-3.5-5.5-6.4c11.8-11.3,18.8-28.9,13.5-44.9C510.9,160.8,506.9,150.3,502.9,139.7z"/>
<g>
	<g>
		<path fill="#222322" d="M501,139.7c0.6-0.1,1.7-0.9,2,0c3.9,10.5,8,21,11.9,31.5c5.3,16.1-1.7,33.7-13.5,44.9
			c-3.9,2.9,2,7.6,5.5,6.4c0.1,4.2-0.2,8.4,0.1,12.6c1.4,6.2,2.8,12.4,4.3,18.6c-18.4-2.1-37-3.8-55.5-4.5
			c-25.7-0.8-51.4,1.6-76.9,4.5c2.3-10.2,4.9-20.5,4-31.1c5.3-0.7,7.8-6.6,8.7-11.2c-6.9-2.1-11.4-8.2-14.7-14.3
			c-5.5-9.5-7.7-22.8,0.1-31.7c6.2-6,11.6-13.4,13-22.1c6-1,12,1.6,16.5,5.5c8.3,7.1,12.2,17.6,16.9,27.1c1,1.7,1.8,3.4,2.5,5.1
			c5.5,11.3,13.1,22.4,24.6,28.4c9,5,19.5,6.2,29.6,7c-14.1,0.3-28.9-2.8-40-11.8c-8.3-6.6-12.8-16.5-17.6-25.7
			c-5.1-9.8-8.9-20.8-17.6-28.1c-3.3-2.9-7.8-4.7-12.2-3.8c0.5,0.1,1.1,0.2,1.6,0.3c13.5,4.2,20.1,18.3,24.8,30.5
			c5.3,17.2,17.6,33.2,35.2,38.9c10.8,3.7,22.5,4,33.7,1.9c1.7-0.3,3.6-0.4,5.1-1.5c9.6-7.1,18.2-16.6,20.5-28.7
			c1.6-8,0-16.4-3.6-23.7c-3.3-7.7-6.2-15.6-9-23.5c-7.5,2.8-14.4,7.5-19.1,13.9c-0.8,7.5-5.1,14-10.1,19.4
			c-0.1,0.1-0.3,0.3-0.4,0.4c2,1,3.6-0.8,5.4-0.9c3,0.8,5,3.3,7.2,5.4c-0.4,0.5-0.7,1.1-1.1,1.7c0.5,1.7,0.2,3.5,0.2,5.2
			c3.6,4.9,9.3,8.2,15.2,9.5c-8.4,0.3-14.8-6.4-19.9-12.2c1.2-1.2,2.5-2.3,3.7-3.5l0.4-0.5c-2.1-2.1-4.8-4.2-7.9-2.9
			c0.3,0.3,0.9,1,1.3,1.3c-13.7-5.6-31.3-6.3-42.6,4.4c3.6-4.7,9.2-7.5,14.8-9.2c-0.9-0.3-1.8-0.7-2.7-1c-0.4-0.1-0.9-0.3-1.3-0.4
			c-6-5.3-9.1-16.1-3.7-22.7c3.6-4.1,9.4-4.9,14.6-5.2c-0.4-0.1-0.7-0.2-1.1-0.3c-7.9-2-16.2,2.1-21.3,8.1
			c-5.4,5.5-6.9,14.1-4.3,21.3c0.9,1.8-1.4,1.8-2.5,2.2c-2.6-10.9,0.9-24.1,11-30.1c6.9-4.7,17.1-6,23.5,0.1
			c-5.9-0.5-12.2,0.7-17.1,4.1c-4.1,3.5-3.4,9.6-2.1,14.3c0.3-1.1,0.7-2.3,1.5-3.2c0.1,2.4-0.1,5,1,7.2c0.2-1.4,0.4-2.8,0.9-4.1
			c0.7,3.5,2.5,7.2,5.7,9.1c6.1-1,12.5-0.9,18.4,0.9c5.9-4.7,10.4-11.9,11.1-19.6C484.5,147,492.8,142.7,501,139.7z M391.9,151.4
			c-3.3,4.9-6.1,10.3-10.5,14.5c-4.6,4.5-6.9,11.3-5.4,17.6c2.2,7.8,6.8,15,12.7,20.7c1.2,0.9,2.4,2.7,4.1,2
			c7.9-2.5,16.4-3.9,24.6-2.3c-5.1-3.5-11.4-4.5-17.3-5.9c9.6-1,19.4,1.5,27.7,6.4c-6-5.3-12.7-10.3-20.3-13.1c4.1-0.1,8.2,1,12,2.8
			c-2.7-2.9-5.9-5.4-9.5-7.3c2.4-0.2,4.8,0.3,7,1c-1.5-7-4.1-13.8-7.3-20.2C405.9,160.5,400.6,152.4,391.9,151.4z M482.2,184.5
			c0-0.7,0-1.5,0-2.2C481,182.4,481,184.3,482.2,184.5z M437.5,223c-0.2,7.2-0.1,14.4-0.1,21.5c0.1,0.2,0.2,0.7,0.3,0.9
			c1,0,2,0,3.1,0c0-0.2,0.1-0.7,0.1-1c0.1-2.7,0-5.3,0-8c3-0.1,7.9,1.1,8.7-2.9c-0.1-3.3,1.4-8-1.9-10.3
			C444.5,222.4,440.9,223.2,437.5,223z M420.7,223.5c-0.1,7.2,0,14.3-0.1,21.5c0,0.2,0.1,0.7,0.1,0.9c1,0,2.1,0,3.1-0.1
			c0.1-0.2,0.2-0.7,0.2-0.9c0.1-2.7,0-5.4,0-8c0.8,0,1.5,0.1,2.2,0.1c0.5,1.4,0.8,2.9,1.6,4.1c0.3,1.1,0.7,2.3,1,3.4
			c0.1,0.3,0.3,0.7,0.4,1c1.1,0,2.3,0,3.4-0.1c0.1-0.4,0.2-0.9,0.3-1.3l-0.2,0c-0.8-2.5-1.6-4.9-2.5-7.3c1.1-0.7,2-1.7,2.4-2.9
			c0-3.4,1.6-8.4-1.9-10.6C427.5,223,424.1,223.5,420.7,223.5z M454.1,223.2c0,7.2,0,14.4,0,21.6c3.3,1.7,8.4,0.6,12.4,1.2
			c0.3-1.5,0.3-3,0.1-4.5l0-0.4c-2.9,0-5.8-0.2-8.7-0.2c-0.1-1.3-0.2-2.7-0.1-4c1.7-0.3,4.6,1,5.5-0.7c-0.1-1.3-0.1-2.7-0.1-4
			c-1.8,0-3.6-0.1-5.4-0.2c0-1.4-0.1-2.7,0-4.1c2.8-0.1,6.9,1.4,8.8-0.4c0-1.3,0-2.6-0.2-4C462.3,223.4,458.2,223.2,454.1,223.2z
			 M408,224.4c-2.7-0.1-4.3,2.7-4.1,5.1c0.2,4.9-0.4,10,0.3,14.9c0.3,1.8,2,2.8,3.7,2.5c2.7-0.4,6.8,0.5,7.9-2.9
			c0.9-5.7,0.5-11.5,0.3-17.3C415.2,222.9,410.7,224.3,408,224.4z M470.9,224.3c0,1.1,0,2.1,0,3.2c0.2,0.1,0.6,0.3,0.7,0.4
			c0.3,4.4,0.1,8.8,0.1,13.2c-1.6,0.8-0.6,2.9-0.8,4.3c0.4,1.6,2.6,0.6,3.8,1c2.8,0,7.4,1.7,8.3-2.1c0.8-4.6,0.1-9.4,0.4-14
			c0.2-2.2-0.4-5.1-2.9-5.7C477.3,224.5,474.1,224.6,470.9,224.3z M387.5,226.6c-0.7,1-0.2,2.6-0.3,3.9c0,0.2,0.1,0.6,0.1,0.8
			c1.4,0,2.8-0.2,4.2-0.4c0.2,5.6,0,11.2,0.1,16.9l0.4-0.1c-0.1,0.2-0.2,0.6-0.2,0.8c1.1-0.3,3.1,0.3,3.4-1.2
			c-0.1-5.6,0-11.3-0.1-16.9c1.4-0.3,3.8,0.4,4.6-1.2c-0.1-1.3-0.1-2.7-0.1-4C395.6,225.6,391.5,225.9,387.5,226.6z M487.6,229.5
			c0.1,4.9-0.2,9.9,0.2,14.8c0.3,2.1,2,3.8,4.2,3.7c2.6,0.1,6.3,1.7,7.6-1.5c0.7-5.6,0.4-11.4,0.3-17c-0.7-4.1-5.6-3.6-8.7-4
			C488.9,225.1,487.4,227.5,487.6,229.5z"/>
	</g>
	<g>
		<path fill="#222322" d="M442.8,181.5c4.7-0.6,9.5-0.4,14.1,0.7c2.3,0.3,3.3,2.7,3.7,4.7c-3.1-6.1-10.9-4.2-16.5-4.3
			c0,1.2-0.1,2.5-0.1,3.7c0,1.1,0.6,2,1,3c-2,1.6-2.8,4.2-3,6.7c-1.6-3.3-5.5-5.1-6.1-9C437.8,184.8,442.1,184.8,442.8,181.5z
			 M437.2,188.2c1.2,1.9,2.5,3.8,4.3,5.1C444.1,190.2,440.9,185.5,437.2,188.2z"/>
	</g>
	<g>
		<path fill="#222322" d="M446.2,187.7c3.4-4.9,9.1-0.5,11.7,3c-1.7-1.4-4-1.5-5.7-0.2C449.7,192.2,447.9,189,446.2,187.7z
			 M450.9,186.7c0.2,1,1,1.8,2,2C452.9,187.6,451.9,186.8,450.9,186.7z M448.9,187.7"/>
	</g>
	<path fill="#222322" d="M440.9,227.8c1.8-0.1,3.6,0,5.3,0.3c1.3,4-2.4,4.1-5.3,3.8C440.9,230.5,440.9,229.2,440.9,227.8z"/>
	<path fill="#222322" d="M424.3,228.3c1.7-0.1,3.5-0.1,5.2-0.1c0,1.2-0.1,2.5-0.2,3.7c-1.7,0.2-3.4,0.3-5.1,0.3
		C424.2,230.9,424.3,229.6,424.3,228.3z"/>
	<path fill="#222322" d="M475.4,228.8c1.4,0.3,2.9,0.5,4.4,0.6c-0.2,4.2,0.1,8.3-0.2,12.5c-1.4,0.1-2.9,0-4.3-0.1
		C475.4,237.4,475.2,233.1,475.4,228.8z"/>
	<path fill="#222322" d="M407.4,229.4c1.8-0.3,3.6-0.5,5.4-0.1c-0.1,3.7,0,7.3-0.1,11c-0.1,2.6-3.5,1.4-5.2,1.6
		C407.3,237.7,407.6,233.5,407.4,229.4z"/>
	<path fill="#222322" d="M491.2,230.5c1.8-0.1,3.6,0.2,5.3,0.5c-0.3,4.2,0.3,8.4-0.3,12.5c-1.6-0.2-3.7,0.3-5-1
		C491.1,238.6,491.2,234.6,491.2,230.5z"/>
</g>
<g>
	<path fill="#FFFFFF" d="M481.8,155.4c4.8-6.4,11.7-11.1,19.1-13.9c2.9,7.9,5.8,15.8,9,23.5c-4-6.5-6.9-13.6-10.2-20.4
		c-5.8,3-11.2,6.9-15.6,11.6c-0.9,7.8-6.2,14.4-12.5,18.6C476.7,169.4,481,162.9,481.8,155.4z"/>
	<path fill="#FFFFFF" d="M437.7,152.1c2.9-5.9,10-8.3,16.2-8.1c0.4,0.1,0.7,0.2,1.1,0.3c-5.2,0.2-11,1-14.6,5.2
		c-5.5,6.7-2.3,17.4,3.7,22.7c-1.1,0-2.2,0-3.4,0.1C438,166,435.3,158.8,437.7,152.1z"/>
	<path fill="#FFFFFF" d="M433.2,182.7c11.4-10.8,29-10,42.6-4.4c-0.3-0.3-0.9-1-1.3-1.3c3.1-1.3,5.8,0.8,7.9,2.9l-0.4,0.5
		c-1.7-1.2-3.6-2.4-5.9-2.1c0.2,0.5,0.3,1,0.5,1.6c-14.5-6.6-32.5-4.9-45.2,4.9C432,184,432.6,183.4,433.2,182.7z"/>
	<path fill="#FFFFFF" d="M482.2,184.5c-1.2-0.2-1.2-2,0-2.2C482.3,183,482.3,183.7,482.2,184.5z"/>
	<path fill="#FFFFFF" d="M444.1,182.7c5.6,0,13.4-1.8,16.5,4.3c0.2,0.3,0.4,0.6,0.5,0.8c-3.9-5-10.5-4.4-16.1-4.1
		c-0.3,0.9-0.6,1.8-1,2.7C444,185.1,444,183.9,444.1,182.7z"/>
	<path fill="#FFFFFF" d="M450.9,186.7c1.1,0.1,2.1,0.8,2,2C451.8,188.5,451.1,187.8,450.9,186.7z"/>
	<path fill="#FFFFFF" d="M448.9,187.7"/>
</g>
<g>
	<path fill="#484748" d="M394.3,147.5c7.7,0.5,13.2,6.9,17.3,12.9c7.1,10.7,10.4,23.4,17.3,34.2c4.5,7.3,10.6,13.7,18.2,17.7
		c12.4,6.8,27.1,7.4,40.9,6.6c-11.1,2-22.9,1.8-33.7-1.9c-17.6-5.7-29.9-21.6-35.2-38.9C414.4,165.8,407.7,151.7,394.3,147.5z"/>
	<path fill="#484748" d="M391.9,151.4c8.7,1,14,9.1,17.8,16.1c3.2,6.4,5.8,13.2,7.3,20.2c-2.3-0.7-4.6-1.2-7-1
		c3.5,1.9,6.7,4.4,9.5,7.3c-3.7-1.8-7.8-2.9-12-2.8c7.6,2.9,14.2,7.8,20.3,13.1c-8.3-4.9-18-7.4-27.7-6.4c5.9,1.4,12.2,2.4,17.3,5.9
		c-8.2-1.7-16.7-0.2-24.6,2.3c-1.7,0.7-2.9-1.1-4.1-2c-5.9-5.6-10.5-12.8-12.7-20.7c-1.5-6.3,0.8-13.1,5.4-17.6
		C385.8,161.8,388.6,156.4,391.9,151.4z"/>
	<path fill="#484748" d="M428.3,173.3c-2.7-7.2-1.1-15.8,4.3-21.3c-1.9,5.7-3.3,12.1-0.5,17.8c0-2.8-0.2-5.6,0.3-8.3
		c0.4,3.8,1.1,7.8,3.4,10.9c1.5,0.6,3.2-0.2,4.8-0.2c1.1-0.1,2.2-0.1,3.4-0.1c0.4,0.1,0.9,0.2,1.3,0.4c0.1,0.5,0.3,0.9,0.5,1.3
		c-7.1,0.3-14.3,2.6-19.8,7.3c-0.8-1.7-1.6-3.5-2.5-5.1c0.8-0.2,1.6-0.3,2.3-0.5C427,175.1,429.3,175.1,428.3,173.3z"/>
	<path fill="#484748" d="M424.2,227.3c1.7,0.3,4.3-1,5.3,0.9c-1.7,0-3.5,0-5.2,0.1c0,1.3-0.1,2.6-0.1,3.9
		C424.1,230.6,424.1,228.9,424.2,227.3z"/>
	<path fill="#484748" d="M440.9,227.1c1.7-0.1,3.5-0.1,5.2,0.1c0,0.2,0.1,0.7,0.2,0.9c-1.8-0.3-3.6-0.3-5.3-0.3
		C440.9,227.6,440.9,227.3,440.9,227.1z"/>
	<path fill="#484748" d="M457.9,227.2c2.9,0,5.8,0.1,8.7,0.3c-1.9,1.8-6,0.3-8.8,0.4C457.8,227.7,457.8,227.4,457.9,227.2z"/>
	<path fill="#484748" d="M475.1,228.1c1.6,0.2,3.8-0.4,4.7,1.3c-1.5-0.2-2.9-0.3-4.4-0.6C475.3,228.6,475.2,228.2,475.1,228.1z"/>
	<path fill="#484748" d="M407.4,229.4c1-1.8,3.6-1,5.3-1c0,0.2,0.1,0.7,0.1,1C411,228.9,409.2,229.1,407.4,229.4z"/>
	<path fill="#484748" d="M395.1,230.3c0.6-1.7,3.1-0.8,4.6-1.2C399,230.7,396.6,230,395.1,230.3z"/>
	<path fill="#484748" d="M491.3,229.6c1.7,0.2,4.3-0.5,5.2,1.4c-1.8-0.4-3.5-0.6-5.3-0.5C491.2,230.3,491.3,229.9,491.3,229.6z"/>
	<path fill="#484748" d="M387.2,230.4c1.4-0.2,2.8-0.3,4.2-0.4c0,0.2,0.1,0.6,0.1,0.8c-1.4,0.3-2.8,0.4-4.2,0.4
		C387.3,231,387.3,230.6,387.2,230.4z"/>
	<path fill="#484748" d="M441,235.8c2.9-0.3,6.8,0.9,8.7-2.1c-0.9,4-5.7,2.8-8.7,2.9C441,236.4,441,236,441,235.8z"/>
	<path fill="#484748" d="M430.4,237c-0.3-1.5,1.6-2,2.4-2.9C432.4,235.3,431.4,236.2,430.4,237z"/>
	<path fill="#484748" d="M424.2,236.3c0.7-0.1,1.5-0.1,2.2-0.1c0.6,1.6,1.2,3.3,1.6,5c-0.8-1.3-1.1-2.7-1.6-4.1
		c-0.8,0-1.5-0.1-2.2-0.1C424.2,236.8,424.2,236.4,424.2,236.3z"/>
	<path fill="#484748" d="M457.8,236.2c1.8-0.1,3.6,0,5.4,0c-0.9,1.7-3.8,0.3-5.5,0.7C457.8,236.7,457.8,236.3,457.8,236.2z"/>
	<path fill="#484748" d="M466.6,241.5c0.2,1.5,0.2,3-0.1,4.5c-4-0.6-9.1,0.5-12.4-1.2c4.2-0.1,8.3,0.2,12.5,0.2
		C466.5,243.8,466.6,242.7,466.6,241.5z"/>
	<path fill="#484748" d="M404.2,244.4c3,2.6,8.7,2,11.7-0.5c-1.1,3.4-5.2,2.6-7.9,2.9C406.2,247.2,404.5,246.2,404.2,244.4z"/>
	<path fill="#484748" d="M432.9,244.3l0.2,0c-0.1,0.4-0.2,0.9-0.3,1.3c-1.1,0-2.3,0-3.4,0.1c-0.1-0.3-0.3-0.7-0.4-1
		C430.3,244.7,431.7,244.7,432.9,244.3z"/>
	<path fill="#484748" d="M437.4,244.5c1.2,0,2.3,0,3.5,0c0,0.2-0.1,0.7-0.1,1c-1,0-2,0-3.1,0C437.6,245.3,437.5,244.8,437.4,244.5z"
		/>
	<path fill="#484748" d="M470.9,245.5c4-0.6,8.9,2,12.1-1.1c-0.9,3.8-5.5,2.1-8.3,2.1C473.5,246.1,471.3,247.1,470.9,245.5z"/>
	<path fill="#484748" d="M487.8,244.3c2.1,3.8,8.3,4,11.8,2.2c-1.3,3.2-5,1.6-7.6,1.5C489.8,248.1,488,246.5,487.8,244.3z"/>
	<path fill="#484748" d="M420.7,245c1.1,0,2.3,0,3.5-0.1c-0.1,0.2-0.2,0.7-0.2,0.9c-1,0-2.1,0-3.1,0.1
		C420.7,245.7,420.7,245.3,420.7,245z"/>
	<path fill="#484748" d="M392,247.6c1.1-0.2,2.1-0.3,3.2-0.4c-0.3,1.5-2.3,0.9-3.4,1.2C391.8,248.2,392,247.8,392,247.6z"/>
</g>
<g>
	<path fill="#4C7291" d="M515.1,164.4c-3.7-9.5-7.2-19-10.8-28.5c-10.6,2.9-21.5,8.2-27.4,17.8c-0.2,6.8-4.3,12.5-8.8,17.3
		c-5.8-1.4-11.8-1.6-17.6-0.8c-4.3-3.9-3.5-9.9-4.4-15c-1.3,0.4-2.3,1.3-3.4,2c-0.1-2.9,1.4-5.8,4.3-6.7c6.2-3.2,13.3-2.3,19.9-1.1
		c-3.9-5.5-9.4-10.6-16.6-10.6c-15.3-0.5-28.7,13.6-28,28.8c-3.6-7.7-7.8-15.5-14.4-21c-5.5-4.6-13.4-7.7-20.5-5.2
		c-0.6,8.9-6.4,16.4-12.5,22.4c-8,9.1-6.6,22.7-1.2,32.8c3.3,6.7,7.9,13.2,14.8,16.6c-1.2,3.6-3.8,7.8-8.3,6.9
		c-0.1,4.9,0.1,9.8-0.1,14.6c-1.3,7.4-3.1,14.7-4.4,22.1c20.7-2.4,41.5-4.3,62.4-5c25.6-0.3,51.1,2.2,76.6,5c-1.2-6-2.7-12-4.1-18
		c-1.9-6.1-0.6-12.5-1.1-18.7c-2.2-0.2-5,0.6-6.7-1.3c7.2-7.3,13.1-16.2,15.4-26.3C520.4,183.1,519.1,173.1,515.1,164.4z
		 M501.4,216.2c-3.9,2.9,2,7.6,5.5,6.4c0.1,4.2-0.2,8.4,0.1,12.6c1.4,6.2,2.8,12.4,4.3,18.6c-18.4-2.1-37-3.8-55.5-4.5
		c-25.7-0.8-51.4,1.6-76.9,4.5c2.3-10.2,4.9-20.5,4-31.1c5.3-0.7,7.8-6.6,8.7-11.2c-6.9-2.1-11.4-8.2-14.7-14.3
		c-5.5-9.5-7.7-22.8,0.1-31.7c6.2-6,11.6-13.4,13-22.1c6-1,12,1.6,16.5,5.5c8.3,7.1,12.2,17.6,16.9,27.1c0.8-0.2,1.6-0.3,2.3-0.5
		c-2.6-10.9,0.9-24.1,11-30.1c6.9-4.7,17.1-6,23.5,0.1c-5.9-0.5-12.2,0.7-17.1,4.1c-4.1,3.5-3.4,9.6-2.1,14.3
		c0.3-1.1,0.7-2.3,1.5-3.2c0.1,2.4-0.1,5,1,7.2c0.2-1.4,0.4-2.8,0.9-4.1c0.7,3.5,2.5,7.2,5.7,9.1c6.1-1,12.5-0.9,18.4,0.9
		c5.9-4.7,10.4-11.9,11.1-19.6c5-7.4,13.3-11.7,21.4-14.7c0.6-0.1,1.7-0.9,2,0c3.9,10.5,8,21,11.9,31.5
		C520.2,187.4,513.2,204.9,501.4,216.2z"/>
	<path fill="#4C7291" d="M432.4,161.5c0.4,3.8,1.1,7.8,3.4,10.9c1.5,0.6,3.2-0.2,4.8-0.2c-2.6-6.2-5.4-13.4-2.9-20.1
		c2.9-5.9,10-8.3,16.2-8.1c-7.9-2-16.2,2.1-21.3,8.1c-1.9,5.7-3.3,12.1-0.5,17.8C432.1,167,431.9,164.2,432.4,161.5z"/>
	<path fill="#4C7291" d="M499.8,144.6c-5.8,3-11.2,6.9-15.6,11.6c-0.9,7.8-6.2,14.4-12.5,18.6c-0.1,0.1-0.3,0.3-0.4,0.4
		c2,1,3.6-0.8,5.4-0.9c3,0.8,5,3.3,7.2,5.4c-0.4,0.5-0.7,1.1-1.1,1.7c0.5,1.7,0.2,3.5,0.2,5.2c3.6,4.9,9.3,8.2,15.2,9.5
		c-8.4,0.3-14.8-6.4-19.9-12.2c1.2-1.2,2.5-2.3,3.7-3.5c-1.7-1.2-3.6-2.4-5.9-2.1c0.2,0.5,0.3,1,0.5,1.6
		c-14.5-6.6-32.5-4.9-45.2,4.9c0.6-0.6,1.2-1.3,1.7-1.9c3.6-4.7,9.2-7.5,14.8-9.2c-0.9-0.3-1.8-0.7-2.7-1c0.1,0.5,0.3,0.9,0.5,1.3
		c-7.1,0.3-14.3,2.6-19.8,7.3c5.5,11.3,13.1,22.4,24.6,28.4c9,5,19.5,6.2,29.6,7c-14.1,0.3-28.9-2.8-40-11.8
		c-8.3-6.6-12.8-16.5-17.6-25.7c-5.1-9.8-8.9-20.8-17.6-28.1c-3.3-2.9-7.8-4.7-12.2-3.8c0.5,0.1,1.1,0.2,1.6,0.3
		c7.7,0.5,13.2,6.9,17.3,12.9c7.1,10.7,10.4,23.4,17.3,34.2c4.5,7.3,10.6,13.7,18.2,17.7c12.4,6.8,27.1,7.4,40.9,6.6
		c1.7-0.3,3.6-0.4,5.1-1.5c9.6-7.1,18.2-16.6,20.5-28.7c1.6-8,0-16.4-3.6-23.7C506,158.5,503.1,151.4,499.8,144.6z M452.2,190.5
		c-2.5,1.6-4.3-1.5-6-2.8c3.4-4.9,9.1-0.5,11.7,3C456.2,189.3,453.9,189.1,452.2,190.5z M445,183.7c-0.3,0.9-0.6,1.8-1,2.7
		c0,1.1,0.6,2,1,3c-2,1.6-2.8,4.2-3,6.7c-1.6-3.3-5.5-5.1-6.1-9c2-2.4,6.3-2.3,6.9-5.7c4.7-0.6,9.5-0.4,14.1,0.7
		c2.3,0.3,3.3,2.7,3.7,4.7c0.2,0.3,0.4,0.6,0.5,0.8C457.2,182.8,450.6,183.4,445,183.7z"/>
	<path fill="#4C7291" d="M437.2,188.2c1.2,1.9,2.5,3.8,4.3,5.1C444.1,190.2,440.9,185.5,437.2,188.2z"/>
	<path fill="#4C7291" d="M447.8,223.4c-3.3-1-6.9-0.3-10.3-0.4c-0.2,7.2-0.1,14.4-0.1,21.5c1.2,0,2.3,0,3.5,0c0.1-2.7,0-5.3,0-8
		c0-0.2,0-0.6,0.1-0.8c2.9-0.3,6.8,0.9,8.7-2.1C449.6,230.3,451.1,225.7,447.8,223.4z M441,231.8c-0.1-1.3-0.1-2.7,0-4
		c0-0.2,0-0.6,0-0.8c1.7-0.1,3.5-0.1,5.2,0.1c0,0.2,0.1,0.7,0.2,0.9C447.5,232.1,443.9,232.2,441,231.8z"/>
	<path fill="#4C7291" d="M432.8,234.1c0-3.4,1.6-8.4-1.9-10.6c-3.3-0.5-6.8,0-10.1,0c-0.1,7.2,0,14.3-0.1,21.5c1.1,0,2.3,0,3.5-0.1
		c0.1-2.7,0-5.4,0-8c0-0.2,0-0.5,0-0.7c0.7-0.1,1.5-0.1,2.2-0.1c0.6,1.6,1.2,3.3,1.6,5c0.3,1.1,0.7,2.3,1,3.4
		c1.3,0.1,2.7,0.2,3.9-0.3c-0.8-2.5-1.6-4.9-2.5-7.3C430,235.5,431.9,234.9,432.8,234.1z M429.3,231.9c-1.7,0.2-3.4,0.3-5.1,0.3
		c-0.1-1.6-0.1-3.3,0-4.9c1.7,0.3,4.3-1,5.3,0.9C429.5,229.4,429.4,230.7,429.3,231.9z"/>
	<path fill="#4C7291" d="M457.9,227.2c2.9,0,5.8,0.1,8.7,0.3c0-1.3,0-2.6-0.2-4c-4.1-0.2-8.2-0.3-12.3-0.4c0,7.2,0,14.4,0,21.6
		c4.2-0.1,8.3,0.2,12.5,0.2c0-1.2,0.1-2.3,0.1-3.5l0-0.4c-2.9,0-5.8-0.2-8.7-0.2c-0.1-1.3-0.2-2.7-0.1-4c0-0.2,0.1-0.5,0.1-0.7
		c1.8-0.1,3.6,0,5.4,0c-0.1-1.3-0.1-2.7-0.1-4c-1.8,0-3.6-0.1-5.4-0.2c0-1.4-0.1-2.7,0-4.1C457.8,227.7,457.8,227.4,457.9,227.2z"/>
	<path fill="#4C7291" d="M412.1,224.1L412.1,224.1L412.1,224.1c-1.1,0-2.3,0.2-3.3,0.3l-0.4,0c-0.1,0-0.3,0-0.4,0
		c-0.4,0-0.7,0-1.1,0.1l0,0l0,0c-2.1,0.5-3.2,2.9-3,5c0.2,4.9-0.4,10,0.3,14.9c3,2.6,8.7,2,11.7-0.5c0.9-5.7,0.5-11.5,0.3-17.3
		C415.6,224.5,414,224.1,412.1,224.1z M412.7,240.3c-0.1,2.6-3.5,1.4-5.2,1.6c-0.2-4.2,0-8.3-0.1-12.5c0.2-0.3,0.4-0.6,0.7-0.8
		c1.5-0.2,4.6-0.3,4.6-0.3c0,0.2,0.1,0.7,0.1,1C412.7,232.9,412.8,236.6,412.7,240.3z"/>
	<path fill="#4C7291" d="M483.4,230.4c0.2-2.2-0.4-5.1-2.9-5.7c-3.2-0.1-6.4,0-9.6-0.3c0,1.1,0,2.1,0,3.2c0.2,0.1,0.6,0.3,0.7,0.4
		c0.3,4.4,0.1,8.8,0.1,13.2c-1.6,0.8-0.6,2.9-0.8,4.3c4-0.6,8.9,2,12.1-1.1C483.8,239.8,483.1,235,483.4,230.4z M479.6,241.9
		c-1.4,0.1-2.9,0-4.3-0.1c0.1-4.3-0.1-8.7,0.1-13c-0.1-0.2-0.2-0.5-0.3-0.7c1.6,0.2,3.8-0.4,4.7,1.3
		C479.6,233.5,479.8,237.7,479.6,241.9z"/>
	<path fill="#4C7291" d="M399.7,229.2l-0.1-2.9c0-0.4,0-0.7,0-1.1c-3.2,0.3-6.5,0.6-9.7,1.1l-2.7,0.3l0,1.1c-0.1,0.6,0,1.2,0,1.8
		l0,1l4.2-0.4c0,0.2,0.1,0.6,0.1,0.8c0.2,5.6,0,11.2,0.1,16.9l0.4-0.1c1.1-0.2,2.1-0.3,3.2-0.4c-0.1-5.6,0-11.3-0.1-16.9
		c0.1-0.3,0.3-0.6,0.6-0.8l3.2-0.3C399.2,229.2,399.5,229.2,399.7,229.2z"/>
	<path fill="#4C7291" d="M491.2,225.6c-2.3-0.4-3.7,2-3.5,4c0.1,4.9-0.2,9.9,0.2,14.8c2.1,3.8,8.3,4,11.8,2.2
		c0.7-5.6,0.4-11.4,0.3-17C499.2,225.4,494.3,225.9,491.2,225.6z M496.2,243.6c-1.6-0.2-3.7,0.3-5-1c-0.2-4,0-8.1-0.1-12.1
		c0-0.2,0.1-0.7,0.2-0.9c1.7,0.2,4.3-0.5,5.2,1.4C496.2,235.2,496.8,239.5,496.2,243.6z"/>
</g>
</svg>
