<?xml version="1.0" encoding="utf-8"?>
<!-- Generator: Adobe Illustrator 18.1.1, SVG Export Plug-In . SVG Version: 6.00 Build 0)  -->
<svg version="1.1" id="Layer_2" xmlns="http://www.w3.org/2000/svg" xmlns:xlink="http://www.w3.org/1999/xlink" x="0px" y="0px"
	 viewBox="135.6 93.9 564.7 309.8" enable-background="new 135.6 93.9 564.7 309.8" xml:space="preserve">
<g>
	<g>
		<polygon fill="none" points="388.7,368.5 393.2,340.1 386.3,340.1 384.5,351.1 375.5,351.1 377.2,340.1 369.8,340.1 365.3,368.5 
			372.7,368.5 374.5,357.2 383.6,357.2 381.8,368.5 		"/>
		<polygon fill="none" points="405.7,362.3 397.8,362.3 401.3,340.1 394.4,340.1 389.9,368.5 404.7,368.5 		"/>
		<g>
			<polygon fill="none" points="422.4,340.1 404,340.1 403,346.4 409.1,346.4 406.6,362.3 406.6,362.3 405.6,368.5 405.6,368.5 
				405.6,368.5 413,368.5 416.5,346.4 421.4,346.4 			"/>
			<polygon fill="none" points="442,340.1 432.4,357.4 428.3,340.1 423.6,340.1 423.3,340.1 422.1,347.5 427.7,368.5 433.4,368.5 
				450.1,340.1 			"/>
		</g>
	</g>
	<g>
		<path fill="none" d="M446.8,366.5c-0.2,1.5-1.7,2.8-3.2,2.8c-1.6,0-2.6-1.3-2.3-2.8c0.2-1.5,1.7-2.8,3.2-2.8S447,365,446.8,366.5z
			"/>
		<path fill="none" d="M460.4,361.6c-0.6,3.8-2.4,7.7-6.9,7.7c-4.4,0-5-3.9-4.4-7.7c0.6-3.8,2.4-7.7,6.9-7.7
			C460.4,353.8,461,357.8,460.4,361.6z M453.3,361.6c-0.1,0.9-0.6,4,0.9,4c1.4,0,2-3.1,2.1-4c0.1-0.9,0.6-4-0.9-4
			C453.9,357.6,453.4,360.7,453.3,361.6z"/>
		<path fill="none" d="M467.5,354.1l-0.3,1.8h0.1c1-1.3,2.1-2.2,3.8-2.3l-0.6,4c-0.2,0-0.4-0.1-0.6-0.1c-2.8,0-3.1,1.8-3.4,4
			l-1.2,7.4H461l2.3-14.8H467.5z"/>
		<path fill="none" d="M473.5,370.9c-0.1,0.9,0,2.1,1.2,2.1c1.8,0,2-2.8,2.2-4.1l0.3-1.9h-0.1c-0.4,0.5-0.8,1.1-1.2,1.5
			c-0.5,0.4-1.1,0.7-1.8,0.7c-1.5,0-2.3-1.2-2.8-2.5c-0.5-1.5-0.4-3.4-0.2-5c0.4-2.6,1.7-7.9,5.3-7.9c1.4,0,2.2,0.9,2.5,2.1h0.1
			l0.3-1.8h4.1l-2.6,16.1c-0.7,4.3-2.9,6.1-6.5,6.1c-3.5,0-4.8-2-4.5-5.4H473.5z M478.3,361.5c0.1-0.8,0.6-4-0.8-4
			c-1.4,0-2,3.1-2.1,4c-0.1,0.9-0.6,4,0.9,4C477.6,365.5,478.2,362.3,478.3,361.5z"/>
	</g>
</g>
<path fill="#B11237" enable-background="new    " d="M166.6,93.9h6c23.3,0,65.8,18.4,127.6,55.4c31.5,20.8,49.6,31.2,54.2,31.2h1.9
	l42.2-9.3l27.9-2.4c19.7,0,41.7,4.1,66,12.1l2.4,0.6c23.6-6,46.1-9.1,67.7-9.1c44.1,0,86.8,9.8,128.2,29.1c6.5,3.9,9.8,8.3,9.8,13.4
	v0.6c0,3.3-2.5,5.5-7.4,6.8c-3.8,3.3-6.5,4.9-8,4.9h-42c-50.7,0-95.1,16.1-133.1,48.2c-21.9,21.4-32.8,39.4-32.8,53.7
	c0,13.2,10.1,22.4,30.4,27.4c5.2,1.3,15.3,2,30.4,2.4c9,0,27.4-1.3,55.6-3.6h2.4c1.3,0,3.8,1.4,7.2,4.4c5,0,8.3,2.5,9.8,7.9v1.9
	c0,11.5-35.7,22-107.2,31.7c-11.5,1.3-24.4,2-39.1,2.5c-45.7,0-79.5-9-101.3-26.8c-23.8-16.1-38.6-33.2-44.6-51.2l-0.6-3.1v-4.4
	c0-5.4,3.6-8,10.9-8l18.3,3.1c11.2,0,18.7-6.3,22.7-18.9l1.3-8.5v-3.6c0-24.7-20.5-55.7-61.6-93.4c-23.1-19.1-44.1-34.8-62.8-46.9
	c-37.6-23-64.6-34.6-80.3-34.6c-15.1,1.4-22.7,8.7-22.7,21.9c0,13.1,11,33.1,32.9,59.8l50.2,53.7v0.6c-14.3-11.3-33.7-29.3-58-53.7
	c-23.6-25.4-35.3-47.6-35.3-66.5C135.4,106.3,145.8,96.5,166.6,93.9L166.6,93.9z M412.9,204.9c0,10.4,9.9,17.2,29.9,20.2h11
	c15.9,0,28.7-3.5,38.4-10.4l1.3-3.6v-1.3c0-8.8-14.6-15.4-43.9-20.2l-14-1.3c-12.9,0-20.5,4.3-22.7,12.9L412.9,204.9L412.9,204.9z
	 M256.2,251.2h0.6c14.5,0,27.1,7.7,37.8,23.1c2.5,4.1,3.8,8.2,3.8,12.1v1.9c0,7.4-5.5,11.8-16.5,12.9c-13.7,0-26.1-7.2-37.3-21.9
	c-2.8-4.9-4.3-8.7-4.3-11.7v-3.6C240.3,256.5,245.7,252.3,256.2,251.2L256.2,251.2z"/>
</svg>
