<?xml version="1.0" encoding="utf-8"?>
<!-- Generator: Adobe Illustrator 18.1.1, SVG Export Plug-In . SVG Version: 6.00 Build 0)  -->
<svg version="1.1" id="Layer_2" xmlns="http://www.w3.org/2000/svg" xmlns:xlink="http://www.w3.org/1999/xlink" x="0px" y="0px"
	 viewBox="-56 -48.4 953.9 692" enable-background="new -56 -48.4 953.9 692" xml:space="preserve">
<g>
	<g>
		<polygon fill="none" points="575.3,87.7 603.6,70.4 598.5,64.7 587.6,71.2 580.8,63.2 591.9,56.7 586.4,50.3 558,67.3 563.5,73.7 
			574.6,66.9 581.4,74.9 570.3,81.7 		"/>
		<polygon fill="none" points="593.3,98 587.4,91.2 609.6,77.8 604.6,71.7 576.1,88.9 587.2,101.7 		"/>
		<g>
			<polygon fill="none" points="625.2,96.3 611.4,80.3 605.3,84 610,89.3 594,99 594,99 587.8,102.7 587.8,102.7 587.8,102.5 
				593.1,109.3 615.3,95.9 618.8,100 			"/>
			<polygon fill="none" points="639.8,113.6 617.4,117.9 629.5,101.4 626.2,97.3 625.8,97.3 618.4,101.7 604,122 608.3,127.1 
				645.5,120.8 			"/>
		</g>
	</g>
	<g>
		<path fill="none" d="M619.8,137.2c-1.4,0.8-3.5,0.6-4.9-0.8c-1.2-1.4-0.8-3.1,0.8-4.3c1.4-0.8,3.5-0.6,4.9,0.8
			S621.5,136.4,619.8,137.2z"/>
		<path fill="none" d="M634.4,145.6c-3.7,2.3-8.6,3.7-11.7-0.4c-3.3-4.1-0.4-7.4,3.7-9.5c3.7-2.3,8.6-3.7,11.9,0.2
			C641.2,139.9,638.1,143.4,634.4,145.6z M629.1,139.5c-1,0.4-3.9,2.5-2.9,3.7c1,1.2,4.3-0.6,5.1-1c0.8-0.4,3.9-2.5,2.9-3.7
			C633.2,137,630.1,138.8,629.1,139.5z"/>
		<path fill="none" d="M646.2,146.2l-1.8,1l0,0c1.8,0,3.3,0.4,4.9,1.6l-3.9,2.5c-0.2-0.2-0.2-0.4-0.4-0.4c-2.1-2.5-3.9-1.2-6.2,0
			l-7.4,4.5l-3.1-3.5l14.8-8.8L646.2,146.2z"/>
		<path fill="none" d="M635.9,163.9c-1,0.6-1.8,1.6-1,2.7c1.4,1.6,3.9-0.2,5.1-1l2.1-1l0,0c-0.6,0-1.4,0.2-2.3,0
			c-0.6,0-1.4-0.4-1.8-1c-1.2-1.4-0.6-2.9,0-4.3c0.8-1.4,2.7-2.9,4.3-3.9c2.7-1.4,8.2-4.3,10.9-1.2c1,1.2,0.8,2.7,0,3.7l0,0l1.8-1
			l3.1,3.5l-16,9.7c-4.3,2.7-7.6,2.1-10.1-1.2c-2.7-3.3-1.6-5.8,1.4-8L635.9,163.9L635.9,163.9z M647.8,161.2
			c0.8-0.4,3.9-2.5,2.9-3.7c-1-1.2-4.3,0.6-5.1,1c-1,0.6-3.9,2.5-2.7,3.7C643.5,163.5,647,161.7,647.8,161.2z"/>
	</g>
</g>
<g>
	<path fill="#E02A1B" d="M619.4,377.9C587.7,456.3,510.8,511.6,421,511.6s-166.7-55.3-198.4-133.8H84.4
		C120.6,530.3,257.5,643.6,421,643.6s300.4-113.4,336.6-265.8H619.4z"/>
	<path fill="#E02A1B" d="M222.1,218.6c31.4-79.1,108.7-135,198.9-135s167.5,55.9,198.9,135h138c-35.7-153-173-267-336.9-267
		s-301.2,114-336.9,267H222.1z"/>
</g>
<polygon fill="#353535" points="-25.7,322.3 -25.7,273.3 73.3,273.3 73.3,243 -56,243 -56,266.9 -56,273.3 -56,322.3 -56,343.4 
	-56,352.7 73.3,352.7 73.3,343.4 73.3,322.3 73.3,313.4 73.3,305.6 73.3,283.1 -12.6,283.1 -12.6,313.4 43,313.4 43,322.3 "/>
<polygon fill="#353535" points="218.7,243 218.7,253 218.7,273.3 218.7,352.7 249,352.7 249,273.3 268.2,273.3 268.2,352.7 
	298.5,352.7 298.5,273.3 317.7,273.3 317.7,352.7 348,352.7 348,273.3 348,253 348,243 "/>
<path fill="#353535" d="M81.3,243v10v20.3v9.3V313v39.7h30.3V313h68.7v39.7h30.3V313v-30.3v-9.3V253v-10H81.3z M180.3,282.7h-68.7
	v-9.3h68.7V282.7z"/>
<polygon fill="#353535" points="485.3,273.3 485.3,243 389.1,243 356,243 356,273.3 356,282.7 356,313 356,322.3 356,325.3 
	356,352.7 485.3,352.7 485.3,322.3 389.1,322.3 389.1,313 485.3,313 485.3,282.7 389.1,282.7 389.1,273.3 "/>
<path fill="#E02A1B" d="M622.7,266.4L622.7,266.4l0-23.4H493.3v23.4v6.9v9.8v30.3v39.2h33.1v-39.2h96.2v-8.1h0V266.4z M526.4,273.3
	h63.1v9.8h-63.1V273.3z"/>
<polygon fill="#E02A1B" points="726.9,243 726.9,322.3 663.8,322.3 663.8,243 630.7,243 630.7,322.3 630.7,325.3 630.7,352.7 
	760,352.7 760,325.3 760,322.3 760,243 "/>
<path fill="#E02A1B" d="M867,243h-68.7H768v30.3v9.8v30.3v8.9v30.3h30.3H867h30.3v-30.3v-8.9v-30.3v-9.8V243H867z M867,322.3h-68.7
	v-8.9H867V322.3z M867,283.1h-68.7v-9.8H867V283.1z"/>
</svg>
