<?xml version="1.0" encoding="utf-8"?>
<!-- Generator: Adobe Illustrator 18.1.1, SVG Export Plug-In . SVG Version: 6.00 Build 0)  -->
<svg version="1.1" id="Layer_1" xmlns="http://www.w3.org/2000/svg" xmlns:xlink="http://www.w3.org/1999/xlink" x="0px" y="0px"
	 viewBox="0 0 841.9 595.3" enable-background="new 0 0 841.9 595.3" xml:space="preserve">
<g>
	<g>
		<polygon fill="none" points="236.8,435.3 242.8,396.3 233.4,396.3 231,411.4 218.6,411.4 221,396.3 210.9,396.3 204.7,435.3 
			214.8,435.3 217.3,419.8 229.7,419.8 227.3,435.3 		"/>
		<polygon fill="none" points="260,426.8 249.2,426.8 254.1,396.3 244.6,396.3 238.5,435.3 258.6,435.3 		"/>
		<g>
			<polygon fill="none" points="283.1,396.3 257.8,396.3 256.4,404.9 264.8,404.9 261.4,426.8 261.4,426.8 260,435.3 260,435.3 
				260,435.3 270.2,435.3 275,404.9 281.7,404.9 			"/>
			<polygon fill="none" points="310,396.3 296.8,420.1 291.2,396.3 284.7,396.3 284.3,396.3 282.7,406.5 290.3,435.3 298.2,435.3 
				321.1,396.3 			"/>
		</g>
	</g>
	<g>
		<path fill="none" d="M316.4,432.6c-0.3,2.1-2.3,3.8-4.4,3.8c-2.1,0-3.6-1.8-3.2-3.8c0.3-2.1,2.3-3.8,4.4-3.8
			S316.8,430.5,316.4,432.6z"/>
		<path fill="none" d="M335.2,425.9c-0.8,5.2-3.3,10.6-9.5,10.6c-6,0-6.9-5.4-6-10.6c0.8-5.2,3.3-10.6,9.5-10.6
			C335.2,415.1,336,420.6,335.2,425.9z M325.5,425.9c-0.1,1.2-0.8,5.5,1.2,5.5c1.9,0,2.7-4.3,2.9-5.5s0.8-5.5-1.2-5.5
			S325.6,424.6,325.5,425.9z"/>
		<path fill="none" d="M345,415.6l-0.4,2.5h0.1c1.4-1.8,2.9-3,5.2-3.2l-0.8,5.5c-0.3,0-0.5-0.1-0.8-0.1c-3.8,0-4.3,2.5-4.7,5.5
			l-1.6,10.2H336l3.2-20.3H345z"/>
		<path fill="none" d="M353.2,438.6c-0.1,1.2,0,2.9,1.6,2.9c2.5,0,2.7-3.8,3-5.6l0.4-2.6h-0.1c-0.5,0.7-1.1,1.5-1.6,2.1
			c-0.7,0.5-1.5,1-2.5,1c-2.1,0-3.2-1.6-3.8-3.4c-0.7-2.1-0.5-4.7-0.3-6.9c0.5-3.6,2.3-10.8,7.3-10.8c1.9,0,3,1.2,3.4,2.9h0.1
			l0.4-2.5h5.6l-3.6,22.1c-1,5.9-4,8.4-8.9,8.4c-4.8,0-6.6-2.7-6.2-7.4L353.2,438.6L353.2,438.6z M359.8,425.7
			c0.1-1.1,0.8-5.5-1.1-5.5s-2.7,4.3-2.9,5.5s-0.8,5.5,1.2,5.5C358.8,431.2,359.5,426.8,359.8,425.7z"/>
	</g>
</g>
<g>
	<polygon fill="#FFDD00" points="38.4,261.3 165.4,219.4 161.7,546.7 37.3,589.9 	"/>
	<path d="M163.4,222.2l-3.7,323.1L39.3,587.1l1.1-324.3L163.4,222.2 M167.4,216.6l-5.3,1.8L39.1,259l-2.7,0.9l0,2.9l-1.1,324.3
		l0,5.6l5.3-1.9L161,549l2.7-0.9l0-2.8l3.7-323.1L167.4,216.6L167.4,216.6z"/>
</g>
<g>
	<polygon fill="#FFDD00" points="254.3,512.9 176.6,414.5 178.7,217.9 256,317.9 256.5,187.8 383.5,145.8 379.5,473.3 256.3,516.1 	
		"/>
	<path d="M381.5,148.6l-4,323.2l-120.4,41.9l-1.2-1.9l-77.3-98l2.1-190.1l77.3,100.1l0.5-134.5L381.5,148.6 M385.5,143l-5.3,1.8
		l-123,40.6l-2.7,0.9l0,2.9L254,312.1l-70.2-90.8l-7-9.1l-0.1,11.5l-2.1,190.1l0,1.4l0.9,1.1l77.2,97.8l1.1,1.8l1.7,2.6l3-1
		l120.4-41.9l2.7-0.9l0-2.8l4-323.2L385.5,143L385.5,143z"/>
</g>
<g>
	<polygon fill="#FFDD00" points="495.9,379.2 390.2,415.6 390.2,348 455.1,325.1 395,246.6 396.2,144.1 449.9,127.3 528.4,228.2 
		529,95.1 656,53.3 652.1,380.6 529,423.6 	"/>
	<path d="M653.9,56.1l-3.8,323.1l-120.4,42l-33.1-44.3l-104.5,36v-63.4l66.2-23.3L397,245.9l1.2-100.3l50.9-15.9L530.4,234
		l0.5-137.4L653.9,56.1 M658,50.5l-5.3,1.8l-123,40.5l-2.7,0.9l0,2.9l-0.5,125.8l-74.1-95.2l-1.7-2.2l-2.6,0.8L397,141.8l-2.8,0.9
		l0,2.9L393,245.9l0,1.4l0.8,1.1l58,75.8l-61,21.5l-2.7,0.9v2.8v63.4v5.6l5.3-1.8l101.7-35l31.3,42l1.8,2.4l2.8-1l120.4-42l2.6-0.9
		l0-2.8l3.8-323.1L658,50.5L658,50.5z"/>
</g>
<g>
	<polygon fill="#FFDD00" points="671,47.1 797.9,5.1 794.1,332.4 669.8,375.8 	"/>
	<path d="M795.9,7.9L792.1,331l-120.4,42L673,48.5L795.9,7.9 M799.9,2.3l-5.3,1.8L671.8,44.7l-2.7,0.9l0,2.9L667.8,373l0,5.7
		l5.3-1.9l120.4-42l2.6-0.9l0-2.8L799.9,8L799.9,2.3L799.9,2.3z"/>
</g>
</svg>
