<?xml version="1.0" encoding="utf-8"?>
<!-- Generator: Adobe Illustrator 13.0.2, SVG Export Plug-In . SVG Version: 6.00 Build 14948)  -->
<!DOCTYPE svg PUBLIC "-//W3C//DTD SVG 1.1//EN" "http://www.w3.org/Graphics/SVG/1.1/DTD/svg11.dtd">
<svg version="1.1" xmlns="http://www.w3.org/2000/svg" xmlns:xlink="http://www.w3.org/1999/xlink" x="0px" y="0px" width="1024px"
	 height="615.095px" viewBox="0 0 1024 615.095" enable-background="new 0 0 1024 615.095" xml:space="preserve">
<g id="Layer_3">
	<g id="g603" transform="matrix(1.998266,0.000000,0.000000,1.998801,-74.83725,-1553.702)">
		<path id="path581" fill="#010101" d="M38.28,1021.847V839.896l135.462,90.927L38.28,1021.847z"/>
		<path id="path599" fill="#FDB913" d="M37.48,816.967v22.929l136.172,90.927L37.48,1021.847v24.182l171.328-115.207L37.48,816.967z
			"/>
	</g>
	<polygon fill="#FFFFFF" points="871.855,204.59 495.041,204.59 184.749,0.015 108.417,0.015 477.063,244.39 871.855,244.39 
		871.855,369.36 477.093,369.36 113.796,613.699 184.749,613.699 488.648,409.163 871.855,409.163 1024,494.364 1024,142.811 	"/>
	<path fill="#E31937" d="M1023.414,0.555l-102.81-0.541H184.749c4.048-2.02,303.899,204.575,303.899,204.575l534.766-0.288V0.555z"
		/>
	<polygon fill="#0055A4" points="488.648,409.163 184.749,613.699 910.425,615.095 1023.414,615.095 1023.414,409.406 	"/>
	<polygon fill="#00703C" points="477.063,244.39 113.796,0.015 0.057,0.015 0.057,79.253 340.995,306.828 0.057,537.103 
		0.057,613.699 113.796,613.699 477.093,369.36 1023.414,369.396 1023.414,244.312 	"/>
</g>
<g id="Flag">
	<rect y="0.496" fill-rule="evenodd" clip-rule="evenodd" fill="none" width="1023.997" height="614.29"/>
</g>
<g id="Sidebar">
</g>
</svg>
