<?xml version="1.0" encoding="utf-8"?>
<!-- Generator: Adobe Illustrator 18.1.1, SVG Export Plug-In . SVG Version: 6.00 Build 0)  -->
<svg version="1.1" id="Layer_1" xmlns="http://www.w3.org/2000/svg" xmlns:xlink="http://www.w3.org/1999/xlink" x="0px" y="0px"
	 viewBox="237.3 25 363.3 530.4" enable-background="new 237.3 25 363.3 530.4" xml:space="preserve">
<g>
	<g>
		<polygon fill="none" points="374.6,153.9 379.1,125.4 372.2,125.4 370.4,136.4 361.4,136.4 363.1,125.4 355.7,125.4 351.2,153.9 
			358.6,153.9 360.4,142.6 369.5,142.6 367.7,153.9 		"/>
		<polygon fill="none" points="391.6,147.6 383.7,147.6 387.2,125.4 380.3,125.4 375.8,153.9 390.6,153.9 		"/>
		<g>
			<polygon fill="none" points="408.3,125.4 389.9,125.4 388.9,131.7 395,131.7 392.5,147.6 392.5,147.6 391.5,153.9 391.5,153.9 
				391.5,153.9 398.9,153.9 402.4,131.7 407.3,131.7 			"/>
			<polygon fill="none" points="427.9,125.4 418.3,142.7 414.2,125.4 409.5,125.4 409.2,125.4 408,132.8 413.6,153.9 419.3,153.9 
				436,125.4 			"/>
		</g>
	</g>
	<g>
		<path fill="none" d="M432.7,151.8c-0.2,1.5-1.7,2.8-3.2,2.8s-2.6-1.3-2.3-2.8c0.2-1.5,1.7-2.8,3.2-2.8
			C431.9,149.1,432.9,150.3,432.7,151.8z"/>
		<path fill="none" d="M446.3,146.9c-0.6,3.8-2.4,7.7-6.9,7.7c-4.4,0-5-3.9-4.4-7.7c0.6-3.8,2.4-7.7,6.9-7.7
			C446.3,139.2,446.9,143.1,446.3,146.9z M439.2,146.9c-0.1,0.9-0.6,4,0.9,4c1.4,0,2-3.1,2.1-4c0.1-0.9,0.6-4-0.9-4
			C439.8,142.9,439.3,146,439.2,146.9z"/>
		<path fill="none" d="M453.4,139.5l-0.3,1.8h0.1c1-1.3,2.1-2.2,3.8-2.3l-0.6,4c-0.2,0-0.4-0.1-0.6-0.1c-2.8,0-3.1,1.8-3.4,4
			l-1.2,7.4h-4.1l2.3-14.8H453.4z"/>
		<path fill="none" d="M459.4,156.2c-0.1,0.9,0,2.1,1.2,2.1c1.8,0,2-2.8,2.2-4.1l0.3-1.9H463c-0.4,0.5-0.8,1.1-1.2,1.5
			c-0.5,0.4-1.1,0.7-1.8,0.7c-1.5,0-2.3-1.2-2.8-2.5c-0.5-1.5-0.4-3.4-0.2-5c0.4-2.6,1.7-7.9,5.3-7.9c1.4,0,2.2,0.9,2.5,2.1h0.1
			l0.3-1.8h4.1l-2.6,16.1c-0.7,4.3-2.9,6.1-6.5,6.1c-3.5,0-4.8-2-4.5-5.4H459.4z M464.2,146.8c0.1-0.8,0.6-4-0.8-4
			c-1.4,0-2,3.1-2.1,4c-0.1,0.9-0.6,4,0.9,4C463.5,150.8,464.1,147.6,464.2,146.8z"/>
	</g>
</g>
<g>
	<g id="H4hJdY.tif_2_">
		<g>
			<path d="M347.2,176.4c36.7,23,112.3,23.3,143.3,0.3c7.6,9.4,16.4,18.3,22.4,28.7c9.8,16.7,19.4,33.9,26.1,51.8
				c11,28.7,24.1,56.2,39.4,83c17.2,30.1,26.8,62.5,20.2,97.3c-8.7,44.9-33.9,79.5-70.1,106.5c-5.7,4.3-11.7,7.7-17.5,11.5
				c8.2-11.2,17.3-21.4,24.1-33.2c17.6-31.2,20.3-65.4,16.9-100c-4.3-43-19.2-81.4-48.8-113.7c-1.6-1.7-1.4-6.3-0.3-8.7
				c11-22.5,12-45.5,2.4-68.5c-6.8-16.1-17.3-29-36.4-29.1c-18.7-0.3-29.3,12.3-36.5,27.9c-2.8,6.1-4.6,12.8-6.9,19.5
				c-4.1,0-8.5,0-11.8,0c-4.4-9.8-7.4-20-13.1-28.7c-16.4-25.4-45.2-25.7-61.7-0.3c-15.9,24.6-16.5,51-4.1,77.2
				c2.8,6.1,2,9.3-2.2,14c-48,52.9-62.5,145.4-31.7,206.3c6.6,13.2,16.9,24.7,24.7,36.1c-14-7.7-27.7-18.4-40-30.9
				c-20-20.5-34.6-44.1-43-71.5c-11.3-37.5-2.8-72.6,13.9-106.5c0.8-1.6,1.6-3.3,2.7-4.9c19.5-29.9,31.3-63.3,44.7-96.1
				c8.7-21.3,20-41.1,35.3-58.3C342,183,344.7,179.4,347.2,176.4z"/>
			<path fill="#FF7100" d="M443.9,282.7c0,6.6-0.9,9.8-7.2,6.9c-10.9-5-22-5.4-33.4-0.8c-8,3.3-11.5,0.5-8.7-7.9
				c2.5-7.7,6.3-15.6,11.5-21.7c7.6-9,17.8-8.3,26.1,0C438.9,266.1,443,274.5,443.9,282.7z"/>
			<path d="M353.1,266.9c-3.9-7.2-1.4-16.4,5.4-20c6.8-3.6,15.7-0.5,19.5,6.5C369.8,258,361.4,262.5,353.1,266.9z"/>
			<path d="M484.9,267.1c-8.7-4.7-16.9-9.1-25.2-13.5c3.9-7.1,12.8-10.1,19.5-6.6S488.5,259.2,484.9,267.1z"/>
			<path fill="#FF7100" d="M428.8,293.2c-1.7,7.1-5.7,10.1-11,9.1c-3-0.5-5.4-4.1-8-6.3c2.5-1.6,5-3.9,7.7-4.3
				C421.1,291.3,424.9,292.6,428.8,293.2z"/>
		</g>
	</g>
	
		<linearGradient id="SVGID_1_" gradientUnits="userSpaceOnUse" x1="160.85" y1="526.4287" x2="160.85" y2="557.239" gradientTransform="matrix(1.5748 0 0 -1.5748 123.305 937.4558)">
		<stop  offset="0" style="stop-color:#690000"/>
		<stop  offset="1" style="stop-color:#F04100"/>
	</linearGradient>
	<polygon fill="url(#SVGID_1_)" points="375,59.8 390.1,83.8 380.2,108.5 363.1,90.4 	"/>
	
		<linearGradient id="SVGID_2_" gradientUnits="userSpaceOnUse" x1="215.1" y1="526.4287" x2="215.1" y2="557.239" gradientTransform="matrix(1.5748 0 0 -1.5748 123.305 937.4558)">
		<stop  offset="0" style="stop-color:#690000"/>
		<stop  offset="1" style="stop-color:#F04100"/>
	</linearGradient>
	<polygon fill="url(#SVGID_2_)" points="463.6,59.8 448.5,83.8 458.4,108.5 475.6,90.4 	"/>
	
		<linearGradient id="SVGID_3_" gradientUnits="userSpaceOnUse" x1="127.4147" y1="556.1034" x2="207.713" y2="505.9274" gradientTransform="matrix(1.5748 0 0 -1.5748 123.305 937.4558)">
		<stop  offset="0" style="stop-color:#FF7100"/>
		<stop  offset="0.5694" style="stop-color:#FFB500"/>
		<stop  offset="1" style="stop-color:#FF7100"/>
	</linearGradient>
	<path fill="url(#SVGID_3_)" d="M419.5,25L419.5,25L419.5,25L419.5,25l-37.8,89.8l-57-54.3l21.7,111.7l2.4,1.4
		c16.5,10.4,42.7,16.5,70.6,16.9V25H419.5z"/>
	<path fill="#FF7100" d="M457.2,114.8L419.4,25v165.5c0.6,0,1.4,0,2,0c28.2,0,53.2-6.1,67.2-16.5l2.5-1.7l23-111.8L457.2,114.8z"/>
</g>
</svg>
