<?xml version="1.0" encoding="utf-8"?>
<!-- Generator: Adobe Illustrator 18.1.1, SVG Export Plug-In . SVG Version: 6.00 Build 0)  -->
<svg version="1.1" id="Layer_2" xmlns="http://www.w3.org/2000/svg" xmlns:xlink="http://www.w3.org/1999/xlink" x="0px" y="0px"
	 viewBox="0 0 237.6 219.8" enable-background="new 0 0 237.6 219.8" xml:space="preserve">
<g>
	<g>
		<polygon fill="none" points="105.2,114 107.2,101.2 104.1,101.2 103.3,106.2 99.2,106.2 100,101.2 96.7,101.2 94.6,114 98,114 
			98.8,108.9 102.9,108.9 102.1,114 		"/>
		<polygon fill="none" points="112.9,111.2 109.3,111.2 110.9,101.2 107.8,101.2 105.7,114 112.4,114 		"/>
		<g>
			<polygon fill="none" points="120.4,101.2 112.1,101.2 111.6,104 114.4,104 113.3,111.2 113.3,111.2 112.8,114 112.8,114 
				112.8,114 116.1,114 117.7,104 119.9,104 			"/>
			<polygon fill="none" points="129.2,101.2 124.9,109 123,101.2 120.9,101.2 120.8,101.2 120.2,104.6 122.8,114 125.3,114 
				132.9,101.2 			"/>
		</g>
	</g>
	<g>
		<path fill="none" d="M131.4,113.1c-0.1,0.7-0.8,1.3-1.4,1.3c-0.7,0-1.2-0.6-1-1.3c0.1-0.7,0.8-1.3,1.4-1.3
			S131.5,112.4,131.4,113.1z"/>
		<path fill="none" d="M137.5,110.9c-0.3,1.7-1.1,3.5-3.1,3.5c-2,0-2.3-1.8-2-3.5c0.3-1.7,1.1-3.5,3.1-3.5
			C137.5,107.4,137.8,109.2,137.5,110.9z M134.3,110.9c0,0.4-0.3,1.8,0.4,1.8c0.6,0,0.9-1.4,0.9-1.8c0-0.4,0.3-1.8-0.4-1.8
			S134.3,110.5,134.3,110.9z"/>
		<path fill="none" d="M140.7,107.5l-0.1,0.8h0c0.5-0.6,0.9-1,1.7-1l-0.3,1.8c-0.1,0-0.2,0-0.3,0c-1.3,0-1.4,0.8-1.5,1.8l-0.5,3.3
			h-1.8l1-6.7H140.7z"/>
		<path fill="none" d="M143.4,115.1c0,0.4,0,0.9,0.5,0.9c0.8,0,0.9-1.3,1-1.8l0.1-0.9h0c-0.2,0.2-0.4,0.5-0.5,0.7
			c-0.2,0.2-0.5,0.3-0.8,0.3c-0.7,0-1-0.5-1.3-1.1c-0.2-0.7-0.2-1.5-0.1-2.3c0.2-1.2,0.8-3.6,2.4-3.6c0.6,0,1,0.4,1.1,0.9h0l0.1-0.8
			h1.8l-1.2,7.3c-0.3,1.9-1.3,2.7-2.9,2.7c-1.6,0-2.2-0.9-2-2.4L143.4,115.1L143.4,115.1z M145.6,110.9c0-0.4,0.3-1.8-0.4-1.8
			s-0.9,1.4-0.9,1.8c0,0.4-0.3,1.8,0.4,1.8C145.3,112.7,145.5,111.2,145.6,110.9z"/>
	</g>
</g>
<path fill="#1D1D1B" d="M69.2,188.2l6.2,10.8l160-37.2c8.5-39-34.5-58.7-41.6-61.6L199,24l-49.2,50.8L92,0L71.2,92L4.5,68.8
	l23.2,41.1C23.5,113.1,1,131,1,154.2c0,25.8,39,65.5,118.8,65.5c70.8,0,98-29.5,98-29.5H200c0,0-34,20.8-78.5,20.8
	s-95.2-18.5-95.2-57.5c0-18,7.6-26.6,9.9-28.8l31.4,55.5l123-29l2.5-37.1c23,16.5,19.8,40.3,19.8,40.3L69.2,188.2z"/>
</svg>
