<?xml version="1.0" encoding="utf-8"?>
<!-- Generator: Adobe Illustrator 18.1.1, SVG Export Plug-In . SVG Version: 6.00 Build 0)  -->
<svg version="1.1" id="Layer_2" xmlns="http://www.w3.org/2000/svg" xmlns:xlink="http://www.w3.org/1999/xlink" x="0px" y="0px"
	 viewBox="317.2 254 171.4 91.6" enable-background="new 317.2 254 171.4 91.6" xml:space="preserve">
<g>
	<g>
		<polygon fill="none" points="379.1,311.5 387.6,306.3 386.1,304.5 382.8,306.5 380.7,304.1 384.1,302.1 382.4,300.2 373.8,305.3 
			375.5,307.3 378.9,305.2 380.9,307.6 377.6,309.7 		"/>
		<polygon fill="none" points="384.5,314.6 382.7,312.5 389.4,308.5 387.9,306.6 379.3,311.9 382.7,315.7 		"/>
		<g>
			<polygon fill="none" points="394.2,314.1 390,309.2 388.1,310.4 389.6,312 384.7,314.9 384.7,314.9 382.8,316 382.8,316 
				382.8,316 384.5,318 391.2,314 392.2,315.2 			"/>
			<polygon fill="none" points="398.6,319.3 391.8,320.6 395.5,315.6 394.5,314.4 394.4,314.4 392.1,315.7 387.8,321.9 389.1,323.4 
				400.3,321.5 			"/>
		</g>
	</g>
	<g>
		<path fill="none" d="M392.5,326.5c-0.4,0.2-1.1,0.2-1.5-0.2c-0.4-0.4-0.2-0.9,0.2-1.3c0.4-0.2,1.1-0.2,1.5,0.2
			C393.2,325.6,393,326.2,392.5,326.5z"/>
		<path fill="none" d="M397,329c-1.1,0.7-2.6,1.1-3.5-0.1c-1-1.2-0.1-2.2,1.1-2.9c1.1-0.7,2.6-1.1,3.6,0.1
			C399,327.3,398.1,328.3,397,329z M395.3,327.2c-0.3,0.1-1.2,0.7-0.9,1.1s1.3-0.2,1.6-0.3c0.2-0.1,1.2-0.7,0.9-1.1
			C396.6,326.4,395.7,327,395.3,327.2z"/>
		<path fill="none" d="M400.5,329.2l-0.6,0.3l0,0c0.6,0,1,0.1,1.5,0.5l-1.2,0.7c-0.1-0.1-0.1-0.1-0.1-0.1c-0.6-0.7-1.2-0.4-1.9,0
			L396,332l-0.9-1.1l4.5-2.7L400.5,329.2z"/>
		<path fill="none" d="M397.4,334.6c-0.3,0.2-0.6,0.5-0.3,0.8c0.4,0.5,1.2-0.1,1.6-0.3l0.6-0.3l0,0c-0.2,0-0.4,0.1-0.7,0
			c-0.2,0-0.4-0.1-0.6-0.3c-0.4-0.4-0.2-0.9,0-1.3c0.2-0.4,0.8-0.9,1.3-1.2c0.8-0.4,2.5-1.3,3.3-0.4c0.3,0.4,0.2,0.8,0,1.1l0,0
			l0.6-0.3l0.9,1.1l-4.9,2.9c-1.3,0.8-2.3,0.6-3-0.4c-0.8-1-0.5-1.7,0.4-2.4L397.4,334.6L397.4,334.6z M401,333.7
			c0.2-0.1,1.2-0.7,0.9-1.1s-1.3,0.2-1.6,0.3c-0.3,0.2-1.2,0.7-0.8,1.1C399.7,334.4,400.8,333.9,401,333.7z"/>
	</g>
</g>
<g>
	<path fill="#FFFFFF" d="M424.5,257L424.5,257l12.5,0.1l-8.1,14.1h24.2l0,0.1l1.1-1.9h22.8l-10.7,19.2h17.1l-12.4,21.9h-17l-5.1,9.1
		c-6,10.7-21.9,22.9-36.4,23.1l0,0h-24.7H378h-12.9l7.9-14h-24.1l-0.9,1.6h-22.8l11.1-19.8h-13.8l12.4-21.9h13.7l4.8-8.5
		c6-10.8,22.2-23.1,36.8-23.1H424.5 M428.4,254h-3.8H390c-15.4,0-32.8,12.7-39.5,24.6l-3.9,7h-11.9H333l-0.9,1.5L319.7,309l-2.5,4.5
		h5.2h8.7l-8.6,15.3l-2.5,4.5h5.1h22.8h1.7l0.9-1.5l0.1-0.1h17.3l-5.4,9.6l-2.5,4.5h5.1H378h9.9h24.7h1.6l0.1-0.1
		c15.3-1,31.1-13.3,37.5-24.5l4.2-7.6h15.2h1.7l0.9-1.5l12.4-21.9l2.5-4.5h-5.2h-12l8.2-14.7l2.5-4.5h-5.1h-22.8h-1.7l-0.9,1.5
		l-0.2,0.3h-17.3l5.5-9.6l2.6-4.5l-5.2,0L428.4,254L428.4,254L428.4,254z"/>
	<polygon fill="#003969" points="401.1,328.6 345.1,328.6 369.6,277 401.1,277 	"/>
	<polygon fill="#003969" points="440.8,322.9 397.2,322.9 397.2,271.2 453.2,271.2 	"/>
	<path fill="#0087FF" d="M454.3,269.4L425.2,320h-24.3l36.1-62.8l-12.6-0.1l0-0.1H390c-14.6,0-30.8,12.3-36.8,23.1l-28.1,50.1h22.8
		l29.1-50.5h23.4l-35.3,62.9H378h9.9h24.7l0,0c14.5-0.2,30.5-12.4,36.4-23.1l28.1-50.1H454.3z"/>
	<polygon fill="#003969" points="471.1,310.4 322.3,310.4 334.7,288.6 483.5,288.6 	"/>
	<g>
		<path fill="#FFFFFF" d="M328.3,307.6l8.2-15.3h6.4c1.1,0,1.9,0.1,2.4,0.4c0.5,0.3,0.8,0.7,0.9,1.3c0.2,0.6,0.1,1.3-0.1,2.1
			c-0.2,0.6-0.5,1.3-1,1.9c-0.5,0.7-1,1.2-1.5,1.6c-0.5,0.4-1,0.7-1.5,1c-0.5,0.2-1,0.4-1.4,0.5c-1.1,0.2-2.1,0.3-3.1,0.3h-3.8
			l-3.3,6.2H328.3z M334.6,299.7h3.4c1.3,0,2.3-0.1,3-0.4c0.7-0.3,1.3-0.7,1.9-1.3c0.6-0.6,0.9-1.2,1.1-1.8c0.2-0.5,0.2-0.9,0.1-1.2
			c-0.1-0.3-0.3-0.5-0.6-0.7c-0.3-0.1-1-0.2-2-0.2h-3.9L334.6,299.7z"/>
		<path fill="#FFFFFF" d="M341.3,307.6l8.2-15.3h2l-3.4,6.4h7.9l3.4-6.4h2l-8.2,15.3h-2l3.8-7.2h-7.9l-3.9,7.2H341.3z"/>
		<path fill="#FFFFFF" d="M355.5,307.6l8.2-15.3h11l-0.9,1.7h-9l-2.5,4.8h8.8l-0.9,1.7h-8.8l-2.8,5.3h9.6l-0.9,1.7H355.5z"/>
		<path fill="#FFFFFF" d="M369,307.6l8.2-15.3h2l0.7,5.7c0.2,1.8,0.4,3.2,0.4,4.4c0,0.7,0,1.6,0,2.8c0.6-1.3,1.3-2.6,2-4l4.8-9h2
			l-8.2,15.3h-2l-0.9-8.8c-0.2-1.6-0.2-2.9-0.2-4.1c-0.4,1-1,2.2-1.8,3.7l-5,9.3H369z"/>
		<path fill="#FFFFFF" d="M386.5,301.2c0.9-2.7,2.4-4.9,4.5-6.6c2.1-1.7,4.3-2.5,6.6-2.5c1.9,0,3.3,0.6,4.1,1.9
			c0.8,1.2,0.9,2.9,0.2,5c-0.5,1.5-1.2,2.9-2.3,4.1c-0.8,1-1.6,1.8-2.5,2.5s-1.8,1.2-2.7,1.6c-1.2,0.5-2.4,0.8-3.6,0.8
			c-1.2,0-2.2-0.3-3.1-0.9c-0.8-0.6-1.3-1.4-1.5-2.4C386.1,303.5,386.2,302.4,386.5,301.2z M388.5,301.3c-0.3,0.9-0.4,1.7-0.2,2.5
			s0.5,1.3,1.1,1.8c0.6,0.4,1.3,0.6,2.1,0.6c0.8,0,1.6-0.2,2.4-0.6c0.8-0.4,1.6-0.9,2.4-1.6c0.8-0.7,1.5-1.5,2.1-2.5
			c0.6-1,1.1-1.9,1.4-2.9c0.5-1.5,0.5-2.7-0.1-3.6c-0.6-0.9-1.5-1.4-2.7-1.4c-1.6,0-3.2,0.7-4.9,2.1
			C390.5,297.2,389.3,299,388.5,301.3z"/>
		<path fill="#FFFFFF" d="M399.6,307.6l8.2-15.3h2.5l-1.7,9.9c-0.2,1.3-0.5,2.5-0.8,3.7c0.8-1,1.9-2.4,3.5-4.2l8.4-9.5h2.6
			l-8.2,15.3h-2l4-7.4c0.9-1.7,2.1-3.6,3.5-5.8c-0.8,1-1.7,2.1-2.7,3.2l-8.9,10h-2l1.7-9.8c0.2-0.9,0.4-1.9,0.7-3.1
			c-0.6,1.3-1.1,2.4-1.5,3.2l-5.2,9.8H399.6z"/>
		<path fill="#FFFFFF" d="M415.8,307.6l8.2-15.3h11l-0.9,1.7h-9l-2.5,4.8h8.8l-0.9,1.7h-8.8l-2.8,5.3h9.6l-0.9,1.7H415.8z"/>
		<path fill="#FFFFFF" d="M428.4,307.6l8.2-15.3h2l0.7,5.7c0.2,1.8,0.4,3.2,0.4,4.4c0,0.7,0,1.6,0,2.8c0.6-1.3,1.3-2.6,2-4l4.8-9h2
			l-8.2,15.3h-2l-0.9-8.8c-0.2-1.6-0.2-2.9-0.2-4.1c-0.4,1-1,2.2-1.8,3.7l-5,9.3H428.4z"/>
		<path fill="#FFFFFF" d="M446.4,301.2c0.9-2.7,2.4-4.9,4.5-6.6c2.1-1.7,4.3-2.5,6.6-2.5c1.9,0,3.3,0.6,4.1,1.9
			c0.8,1.2,0.9,2.9,0.2,5c-0.5,1.5-1.2,2.9-2.3,4.1c-0.8,1-1.6,1.8-2.5,2.5s-1.8,1.2-2.7,1.6c-1.2,0.5-2.4,0.8-3.6,0.8
			c-1.2,0-2.2-0.3-3.1-0.9c-0.8-0.6-1.3-1.4-1.5-2.4C445.9,303.5,446,302.4,446.4,301.2z M448.4,301.3c-0.3,0.9-0.4,1.7-0.2,2.5
			s0.5,1.3,1.1,1.8c0.6,0.4,1.3,0.6,2.1,0.6c0.8,0,1.6-0.2,2.4-0.6c0.8-0.4,1.6-0.9,2.4-1.6c0.8-0.7,1.5-1.5,2.1-2.5
			c0.6-1,1.1-1.9,1.4-2.9c0.5-1.5,0.5-2.7-0.1-3.6c-0.6-0.9-1.5-1.4-2.7-1.4c-1.6,0-3.2,0.7-4.9,2.1
			C450.3,297.2,449.1,299,448.4,301.3z"/>
		<path fill="#FFFFFF" d="M458.7,307.6l8.2-15.3h2l0.7,5.7c0.2,1.8,0.4,3.2,0.4,4.4c0,0.7,0,1.6,0,2.8c0.6-1.3,1.3-2.6,2-4l4.8-9h2
			l-8.2,15.3h-2l-0.9-8.8c-0.2-1.6-0.2-2.9-0.2-4.1c-0.4,1-1,2.2-1.8,3.7l-5,9.3H458.7z"/>
	</g>
</g>
</svg>
