<?xml version="1.0" encoding="utf-8"?>
<!-- Generator: Adobe Illustrator 18.1.1, SVG Export Plug-In . SVG Version: 6.00 Build 0)  -->
<svg version="1.1" id="Layer_2" xmlns="http://www.w3.org/2000/svg" xmlns:xlink="http://www.w3.org/1999/xlink" x="0px" y="0px"
	 viewBox="330.3 153.7 181.3 289.7" enable-background="new 330.3 153.7 181.3 289.7" xml:space="preserve">
<g>
	<g>
		<polygon fill="none" points="421.1,223 434.9,214.6 432.4,211.8 427.1,215 423.8,211.1 429.2,207.9 426.5,204.8 412.7,213.1 
			415.4,216.2 420.8,212.9 424.1,216.8 418.7,220.1 		"/>
		<polygon fill="none" points="429.9,228 427,224.7 437.8,218.2 435.4,215.2 421.5,223.6 426.9,229.8 		"/>
		<g>
			<polygon fill="none" points="445.4,227.2 438.7,219.4 435.7,221.2 438,223.8 430.2,228.5 430.2,228.5 427.2,230.3 427.2,230.3 
				427.2,230.2 429.8,233.5 440.6,227 442.3,229 			"/>
			<polygon fill="none" points="452.5,235.6 441.6,237.7 447.5,229.7 445.9,227.7 445.7,227.7 442.1,229.8 435.1,239.7 437.2,242.2 
				455.3,239.1 			"/>
		</g>
	</g>
	<g>
		<path fill="none" d="M442.8,247.1c-0.7,0.4-1.7,0.3-2.4-0.4c-0.6-0.7-0.4-1.5,0.4-2.1c0.7-0.4,1.7-0.3,2.4,0.4
			S443.6,246.7,442.8,247.1z"/>
		<path fill="none" d="M449.9,251.2c-1.8,1.1-4.2,1.8-5.7-0.2c-1.6-2-0.2-3.6,1.8-4.6c1.8-1.1,4.2-1.8,5.8,0.1
			C453.2,248.4,451.7,250.1,449.9,251.2z M447.3,248.2c-0.5,0.2-1.9,1.2-1.4,1.8c0.5,0.6,2.1-0.3,2.5-0.5c0.4-0.2,1.9-1.2,1.4-1.8
			C449.3,247,447.8,247.9,447.3,248.2z"/>
		<path fill="none" d="M455.6,251.5l-0.9,0.5l0,0c0.9,0,1.6,0.2,2.4,0.8l-1.9,1.2c-0.1-0.1-0.1-0.2-0.2-0.2c-1-1.2-1.9-0.6-3,0
			l-3.6,2.2l-1.5-1.7l7.2-4.3L455.6,251.5z"/>
		<path fill="none" d="M450.6,260.1c-0.5,0.3-0.9,0.8-0.5,1.3c0.7,0.8,1.9-0.1,2.5-0.5l1-0.5l0,0c-0.3,0-0.7,0.1-1.1,0
			c-0.3,0-0.7-0.2-0.9-0.5c-0.6-0.7-0.3-1.4,0-2.1c0.4-0.7,1.3-1.4,2.1-1.9c1.3-0.7,4-2.1,5.3-0.6c0.5,0.6,0.4,1.3,0,1.8l0,0
			l0.9-0.5l1.5,1.7l-7.8,4.7c-2.1,1.3-3.7,1-4.9-0.6c-1.3-1.6-0.8-2.8,0.7-3.9L450.6,260.1L450.6,260.1z M456.4,258.8
			c0.4-0.2,1.9-1.2,1.4-1.8c-0.5-0.6-2.1,0.3-2.5,0.5c-0.5,0.3-1.9,1.2-1.3,1.8C454.3,259.9,456,259,456.4,258.8z"/>
	</g>
</g>
<path fill="#949599" d="M346.6,302.9l-16.3,32.7c0,0,13.7,0,23.3,0c2.6,0,5.5-0.4,8.6-1.3L346.6,302.9z M495.4,303l-15.6,31.3
	c3,0.9,5.9,1.3,8.5,1.3c9.7,0,23.3,0,23.3,0L495.4,303z M488.3,216.7c-8.3,0-20,4.2-28.2,15.5L421,153.7l-39.1,78.5
	c-8.2-11.3-19.9-15.5-28.2-15.5c-9.7,0-23.3,0-23.3,0l20.2,40.7h3.1c10.9,0,26.8,6.3,35.6,23.9c5.3,10.7,23.9,47.2,31.8,62.6
	c7.9-15.5,26.4-52,31.8-62.6c8.8-17.6,24.7-23.9,35.6-23.9h3l20.2-40.7C511.6,216.7,497.9,216.7,488.3,216.7z M420.9,308
	c0,0-7.8-15.3-16.2-31.8c8.4-16.5,16.2-31.8,16.2-31.8s7.8,15.3,16.2,31.8C428.7,292.7,420.9,308,420.9,308z"/>
<g>
	<path fill="#ED1B25" d="M511.7,261.3l-18.5,37.2L476,333l-55,110.3L366,333l-17.2-34.5l-18.5-37.1c0,0,12.6,0,22.2,0h1.1
		c9.7,0,24,5.7,32,21.7c6.9,13.7,35.3,69.7,35.3,69.7s28.5-55.9,35.3-69.7c8-16,22.3-21.7,32-21.7h1
		C498.9,261.3,511.7,261.3,511.7,261.3z"/>
</g>
</svg>
