<?xml version="1.0" encoding="utf-8"?>
<!-- Generator: Adobe Illustrator 18.1.1, SVG Export Plug-In . SVG Version: 6.00 Build 0)  -->
<svg version="1.1" id="Layer_3" xmlns="http://www.w3.org/2000/svg" xmlns:xlink="http://www.w3.org/1999/xlink" x="0px" y="0px"
	 viewBox="0 17.3 841.9 560.7" enable-background="new 0 17.3 841.9 560.7" xml:space="preserve">
<g>
	<g>
		<polygon fill="none" points="201.3,122.8 208.5,77.5 197.5,77.5 194.8,95.1 180.3,95.1 183,77.5 171.2,77.5 164.2,122.8 
			175.8,122.8 178.7,104.8 193.2,104.8 190.3,122.8 		"/>
		<polygon fill="none" points="228.4,112.9 215.8,112.9 221.4,77.5 210.5,77.5 203.4,122.8 226.8,122.8 		"/>
		<g>
			<polygon fill="none" points="255,77.5 225.7,77.5 224.1,87.4 234,87.4 229.8,112.9 229.8,112.9 228.2,122.8 228.2,122.8 
				228.4,122.8 240,122.8 245.7,87.4 253.4,87.4 			"/>
			<polygon fill="none" points="286.4,77.5 271.1,105.1 264.4,77.5 257,77.5 256.6,77.5 254.7,89.3 263.6,122.8 272.7,122.8 
				299.1,77.5 			"/>
		</g>
	</g>
	<g>
		<path fill="none" d="M293.8,119.6c-0.3,2.4-2.7,4.5-5.1,4.5s-4.1-2.1-3.7-4.5c0.3-2.4,2.7-4.5,5.1-4.5S294.2,117.2,293.8,119.6z"
			/>
		<path fill="none" d="M315.7,111.8c-1,6.1-3.8,12.3-11,12.3c-7,0-8-6.2-7-12.3c1-6.1,3.8-12.3,11-12.3
			C315.7,99.4,316.5,105.7,315.7,111.8z M304.2,111.8c-0.2,1.4-1,6.4,1.4,6.4c2.2,0,3.2-4.9,3.3-6.4c0.2-1.4,1-6.4-1.4-6.4
			C305.3,105.4,304.5,110.3,304.2,111.8z"/>
		<path fill="none" d="M327,99.8l-0.5,2.9h0.2c1.6-2.1,3.3-3.5,6.1-3.7l-1,6.4c-0.3,0-0.6-0.2-1-0.2c-4.5,0-4.9,2.9-5.4,6.4
			l-1.9,11.8H317l3.7-23.6L327,99.8L327,99.8z"/>
		<path fill="none" d="M336.4,126.6c-0.2,1.4,0,3.3,1.9,3.3c2.9,0,3.2-4.5,3.5-6.5l0.5-3h-0.2c-0.6,0.8-1.3,1.8-1.9,2.4
			c-0.8,0.6-1.8,1.1-2.9,1.1c-2.4,0-3.7-1.9-4.5-4c-0.8-2.4-0.6-5.4-0.3-8c0.6-4.1,2.7-12.6,8.4-12.6c2.2,0,3.5,1.4,4,3.3h0.2
			l0.5-2.9h6.5l-4.1,25.6c-1.1,6.8-4.6,9.7-10.4,9.7c-5.6,0-7.6-3.2-7.2-8.6L336.4,126.6L336.4,126.6z M344,111.6
			c0.2-1.3,1-6.4-1.3-6.4c-2.2,0-3.2,4.9-3.3,6.4c-0.2,1.4-1,6.4,1.4,6.4C342.9,118,343.8,112.9,344,111.6z"/>
	</g>
</g>
<path fill="#FFFFFF" d="M554.6,368.7l-54.2,57.5l185.9-39.3c0,0,126-87.6,126.6-103.4c0.8-15.8-136.5,35-136.5,35L554.6,368.7z"/>
<polygon fill="#890000" points="514.9,410.9 503.9,422.7 564.9,414.1 603,384.8 529.6,408 "/>
<g>
	<path fill="#FF3200" d="M837.7,152.7C818,67.5,748.4,27.5,681,24.8c-44.9-1.8-89.8-0.5-134.7-0.5c-2.5,0-5.7,1.8-7.5,3.8
		c-41.6,42.4-83.3,84.7-124.9,127.1c-2.7,3-5.6,6.1-9.1,9.7c3.5,0,5.6,0,7.5,0c62.9,0,126,0,188.9,0.3c8.6,0,17.4,1.3,25.6,3.2
		c29.3,6.5,40.9,27.4,35.7,57.2c-3.2,18.3-12.3,34.6-24,48.4c-23.3,27.9-47.9,54.9-72,82.3c-3.8,4.3-7.8,8.3-11.8,12.3
		c0.3,0.5,0.5,1,0.8,1.8c18.6-3,37.1-5.6,55.4-9.2c61.6-13.1,120.4-34.9,177.1-62c6.5-3,13.1-5.7,19.6-8.6c0.8-0.3,1.4-0.5,2.2-1
		l0,0l0,0l0,0c5.6-10,11.5-19.7,16.1-30.1C841.2,225.2,846.3,189.2,837.7,152.7z"/>
	<path fill="#FF3200" d="M521.7,411.5c-5.6,1-9.7,3.2-14,7.5c-44,43.3-87.8,86.8-131.7,130c-7.5,7.3-15,14.3-23.9,22.6
		c3.2,0,4.8,0,6.2,0c101.8,0,203.4,0,305.3,0c3.8,0,6.2-1.3,8.8-3.8c39.7-38.7,79.5-77.2,119.1-116.1c5.3-4.9,10.4-10.5,16.2-16.6
		c-42.2,0-83,0-123.9,0c-0.5-0.5-0.8-1.3-1.3-1.8c2.1-1.4,4.3-2.5,6.1-4.3c26.9-26.6,53.2-53.4,77.7-82
		c-7.5,8-131.9,59.2-239.9,63.4C525.3,410.9,523.5,411,521.7,411.5z"/>
	<path fill="#FF3200" d="M807.5,290.5c-1.3,1-2.5,1.8-3.5,2.7c2.1-1.3,4-2.2,5.7-3.5C808.9,290,808.1,290.2,807.5,290.5z"/>
	<path fill="#890000" d="M766.9,346.9c1-1,2.1-2.2,3.2-3.8C768.8,344.6,767.8,345.9,766.9,346.9
		C766.9,347.2,766.9,347.2,766.9,346.9z"/>
	<path fill="#890000" d="M809.7,289.7L809.7,289.7L809.7,289.7z"/>
	<path fill="#890000" d="M809.7,289.7L809.7,289.7c-2.1,1.3-4,2.2-5.7,3.5c-81.7,49.2-179,87.8-288.8,117.7c4,0,7.8,0,11.8-0.3
		c107.8-4.3,232.2-55.4,239.9-63.4c1-1.3,2.2-2.5,3.2-3.8c5.6-6.5,10.8-12.7,16.1-19.6C794.6,312.8,801.9,301,809.7,289.7
		L809.7,289.7z"/>
</g>
<path d="M233.8,388.7h92.4L273,437.6c-71-4.5-126.9-63.4-126.9-135.7c0-75,61-136,136-136h66.3L490.5,23.7H272.7
	C122.1,23.7,0,145.9,0,296.4s122.2,272.7,272.7,272.7h20.5l162.1-157.7l12.3-127.9l-159.7,31.1L233.8,388.7z"/>
</svg>
