<?xml version="1.0" encoding="utf-8"?>
<!-- Generator: Adobe Illustrator 18.1.1, SVG Export Plug-In . SVG Version: 6.00 Build 0)  -->
<svg version="1.1" id="Layer_2" xmlns="http://www.w3.org/2000/svg" xmlns:xlink="http://www.w3.org/1999/xlink" x="0px" y="0px"
	 viewBox="-73.2 -136.5 1030.9 707.7" enable-background="new -73.2 -136.5 1030.9 707.7" xml:space="preserve">
<g>
	<g>
		<polygon fill="none" points="195.8,314.3 211.7,252.8 196.6,251.4 190.3,275.1 170.4,273 176.6,249.4 160.5,247.9 144.4,309.3 
			160.6,311 167,286.5 186.9,288.4 180.6,312.9 		"/>
		<polygon fill="none" points="234.4,304.1 217,302.7 229.6,254.6 214.5,253.1 198.6,314.8 230.8,317.9 		"/>
		<g>
			<polygon fill="none" points="275.9,259.4 235.4,255.4 232,268.8 245.5,270.1 236.5,304.6 236.5,304.6 232.9,318.1 232.9,318.1 
				233,317.9 249.1,319.7 261.7,271.6 272.3,272.8 			"/>
			<polygon fill="none" points="319,263.5 294.2,299.4 288.8,260.5 278.6,259.5 278,259.5 273.7,275.4 281.5,323 294.1,324.1 
				336.7,265.3 			"/>
		</g>
	</g>
	<g>
		<path fill="none" d="M323.7,322.6c-0.8,3.2-4.3,5.7-7.7,5.4c-3.5-0.3-5.3-3.4-4.6-6.7c0.8-3.2,4.3-5.7,7.7-5.4
			C322.5,316.1,324.4,319.2,323.7,322.6z"/>
		<path fill="none" d="M354.9,314.6c-2.1,8.1-7,16.4-16.8,15.3c-9.8-1-10.3-9.7-7.9-17.8c2.1-8.1,7.1-16.5,16.6-15.5
			C356.4,297.8,356.9,306.4,354.9,314.6z M339,313.2c-0.6,1.9-2.2,8.6,1,9c3.1,0.3,5-6.4,5.7-8.4s2.1-8.8-1-9
			C341.5,304.4,339.6,311.2,339,313.2z"/>
		<path fill="none" d="M371.9,299.9l-1,3.9l0,0c2.5-2.6,5-4.3,8.9-4.4l-2.2,8.6c-0.5-0.1-0.8-0.1-1.3-0.3c-6.1-0.6-7.1,3.2-8.5,8.1
			l-4.1,16l-9-0.8l8.4-32L371.9,299.9z"/>
		<path fill="none" d="M381.3,338c-0.4,2.1-0.5,4.6,2.1,4.8c4,0.3,4.9-5.7,5.8-8.5l1.2-4.1l0,0c-0.8,1.2-1.8,2.2-3,3s-2.5,1.3-4,1
			c-3.5-0.3-4.9-3.2-5.5-6.1c-0.8-3.2-0.3-7.6,0.6-11.1c1.5-5.7,5.5-17,13.4-16.3c3.1,0.3,4.8,2.5,5,5.3l0,0l1-3.9l9,0.8l-9,35
			c-2.3,9.4-7.7,12.8-15.6,11.9c-7.9-0.8-10.1-5.5-8.8-12.9L381.3,338z M394.1,318.3c0.4-1.7,2.2-8.6-0.9-8.9
			c-3.1-0.3-5,6.4-5.5,8.1c-0.4,2.1-2.1,8.8,1.2,8.9C391.5,327,393.6,320,394.1,318.3z"/>
	</g>
</g>
<g>
	<path fill="#3373BA" d="M700.2-136.5c5,0.4,9.5,2.7,14,4.7c35.1,16.1,66.8,41,87.9,73.6c19.8,29.7,29.7,65.7,29.4,101.2
		c-24.5,0-48.5-5.5-72.9-6.6c-50.6-4.9-101.4-5.9-152.3-5.4c-13.7,0-27.6,2.8-41.1,0.8c1.3-7.9,7-13.9,11-20.5
		C612.3-42,654.9-90.8,700.2-136.5z"/>
	<path fill="#3373BA" d="M115.4-95.4c39.8-33.8,94.9-41.4,145.3-39.2c50.3,3,99.2,23.4,137.1,56.6c4.2,3.4,0.9,8.9-1.7,12.2
		C338.2,16.8,285,102.7,240.4,193.2c-2.5,5.3-5.5,10.6-5.8,16.6c1.1,1.1,2.3,2.2,3.4,3.2c92.9-13.6,186.1-28.7,280.2-27
		c-0.3,8.1-7.2,13.5-11.2,20c-73.9,105.4-130.6,221.6-183.5,338.5c-1.3,3.6-5.9,2.5-8.9,2c-31.2-12.9-60.8-30-87.2-51.2
		c-63.1-49.9-103.8-126.2-111.1-206.2c-0.6-4.4,0-9.4-3.6-12.5c-1,1-1.9,2-2.8,3c-0.8,54.1,12,108.3,36.7,156.4
		c2.1,3.5,1.7,8.8-2.7,10.2c-22.9,8.4-48.6,10.7-71.9,2.1C5.8,430.3-48.6,375.5-66.1,309.1c-11.3-41.9-9-87.3,7.3-127.5
		C-41.9,138.4-8.8,102,32,80c30.5-14.8,62.5-27,95.6-34.4c0-1.2,0.1-2.4,0.2-3.5c-23.9-3-47.8,3.5-71.6,5c-0.8-0.8-1.6-1.6-2.4-2.4
		C51.6-8.2,76.2-60.6,115.4-95.4z"/>
	<path fill="#3373BA" d="M663.9,187.1c50.5-42.8,103.1-83.5,158.4-120c63.4,20.2,114.4,76.1,129.9,141c9.7,41.1,7.1,85.4-9.5,124.4
		c-20.8,51.6-64.7,93.2-117.1,111.7c-26.5,10.4-57.3,14.4-83.8,1.8c-4.1-2.4-3.5-7.6-2.8-11.6c17.8-44.1,26.8-91.1,34.1-137.9
		c1.7-10.2,2.5-20.6,1.2-30.9c-4.8,61.4-27.2,121.4-63.9,170.9c-53.9,74-139.7,123.6-230.9,132.9c-36.9,3.2-74.6,2.6-110.8-6.1
		c-5.1-1.2-11.9-1.7-14.3-7.3c-2.4-5.4,1.2-10.7,3.9-15.2C438.1,405.8,545.1,288.5,663.9,187.1z"/>
</g>
</svg>
