<?xml version="1.0" encoding="utf-8"?>
<!-- Generator: Adobe Illustrator 18.1.1, SVG Export Plug-In . SVG Version: 6.00 Build 0)  -->
<svg version="1.1" id="Layer_2" xmlns="http://www.w3.org/2000/svg" xmlns:xlink="http://www.w3.org/1999/xlink" x="0px" y="0px"
	 viewBox="170.5 -43.4 500.9 682.1" enable-background="new 170.5 -43.4 500.9 682.1" xml:space="preserve">
<g>
	<g>
		<polygon fill="none" points="272.8,206.6 288.5,197.1 285.7,193.9 279.7,197.5 275.9,193.1 282,189.5 279,186 263.3,195.4 
			266.4,198.9 272.5,195.2 276.3,199.6 270.1,203.3 		"/>
		<polygon fill="none" points="282.8,212.3 279.5,208.6 291.8,201.2 289.1,197.8 273.3,207.3 279.4,214.3 		"/>
		<g>
			<polygon fill="none" points="300.4,211.4 292.8,202.5 289.4,204.6 292,207.5 283.2,212.9 283.2,212.9 279.8,214.9 279.8,214.9 
				279.8,214.8 282.7,218.5 295,211.2 296.9,213.4 			"/>
			<polygon fill="none" points="308.5,220.9 296.1,223.3 302.8,214.2 301,212 300.8,212 296.7,214.3 288.7,225.6 291.1,228.4 
				311.7,224.9 			"/>
		</g>
	</g>
	<g>
		<path fill="none" d="M297.5,234c-0.8,0.5-1.9,0.3-2.7-0.5c-0.7-0.8-0.5-1.7,0.5-2.4c0.8-0.5,1.9-0.3,2.7,0.5
			C298.7,232.4,298.4,233.5,297.5,234z"/>
		<path fill="none" d="M305.5,238.6c-2,1.2-4.8,2-6.5-0.2c-1.8-2.3-0.2-4.1,2-5.2c2-1.2,4.8-2,6.6,0.1
			C309.3,235.5,307.6,237.4,305.5,238.6z M302.6,235.2c-0.6,0.2-2.2,1.4-1.6,2c0.6,0.7,2.4-0.3,2.8-0.6c0.5-0.2,2.2-1.4,1.6-2
			C304.9,233.9,303.2,234.9,302.6,235.2z"/>
		<path fill="none" d="M312,239l-1,0.6l0,0c1,0,1.8,0.2,2.7,0.9l-2.2,1.4c-0.1-0.1-0.1-0.2-0.2-0.2c-1.1-1.4-2.2-0.7-3.4,0l-4.1,2.5
			l-1.7-1.9l8.2-4.9L312,239z"/>
		<path fill="none" d="M306.3,248.7c-0.6,0.3-1,0.9-0.6,1.5c0.8,0.9,2.2-0.1,2.8-0.6l1.1-0.6l0,0c-0.3,0-0.8,0.1-1.2,0
			c-0.3,0-0.8-0.2-1-0.6c-0.7-0.8-0.3-1.6,0-2.4c0.5-0.8,1.5-1.6,2.4-2.2c1.5-0.8,4.5-2.4,6-0.7c0.6,0.7,0.5,1.5,0,2l0,0l1-0.6
			l1.7,1.9l-8.9,5.3c-2.4,1.5-4.2,1.1-5.6-0.7c-1.5-1.8-0.9-3.2,0.8-4.4L306.3,248.7L306.3,248.7z M312.9,247.3
			c0.5-0.2,2.2-1.4,1.6-2c-0.6-0.7-2.4,0.3-2.8,0.6c-0.6,0.3-2.2,1.4-1.5,2C310.5,248.5,312.5,247.5,312.9,247.3z"/>
	</g>
</g>
<g>
	<path d="M385.5-43.2H457c71.9,2.9,143.8,9.8,214.5,23.6V357c-2.8,17.7-11.5,33.7-21.3,48.5c-15.7,23.5-34.5,44.7-53.7,65.3
		c-55.7,58.8-115.7,113.2-175.5,167.8c-44.3-37.9-87.8-76.8-130.2-116.9c-37.3-36.5-75.4-73.3-102.9-118.1
		c-8.5-14.3-15.3-29.9-17.6-46.6V-19.6C241.4-33.4,313.4-40.4,385.5-43.2z M215.5,17.9c0,56.9,0,113.8,0.1,170.7
		c114.6-17.9,231.5-21.1,346.9-8.9c0,43.4,0,86.7,0,130.1c-0.4,20-9.6,38.5-20.8,54.5c-32.2,43.7-76.4,76.8-120.6,107.6
		c-44-34.9-88.8-70.4-122.5-115.9c-9.8-14.2-18.8-30.4-18.9-48.1c0-26.6,0-53.2,0-79.8c-21.5,2.1-42.8,5-64.1,8.4
		c0.2,25.7,0,51.4,0.1,77.1c0.2,13.8-1.1,28,3.5,41.3c13,37.7,41.6,67,69,94.9c41.8,40.8,87.1,78,133.1,113.9
		c44.1-36,87.8-72.7,128.6-112.5c21.1-20.9,41.7-42.5,58.2-67.3c9.2-14.5,17.7-30.4,18.6-47.9c0-69,0-138,0-207
		c-112.8-17.7-227.9-20.8-341.6-9.3c0.1-16.3,0-32.6,0-48.9c113.6-11.7,228.7-8.5,341.5,9c0-20.6,0-41.3,0-61.9
		C490.6-3.3,351.4-3.2,215.5,17.9z M325,223.8c0,22.4-0.1,44.9,0,67.3c0.8,21.4,11.9,40.9,25.2,57.1c19.8,23.8,44.8,42.8,70.9,59.3
		c27.3-18.4,53.7-39,74.1-65.1c11.7-15.3,21.7-33.4,21.8-53.2c0.1-21.9,0-43.7,0-65.6C453.2,219.1,388.9,219.2,325,223.8z"/>
</g>
</svg>
