<?xml version="1.0" encoding="utf-8"?>
<!-- Generator: Adobe Illustrator 18.1.1, SVG Export Plug-In . SVG Version: 6.00 Build 0)  -->
<svg version="1.1" id="Layer_2" xmlns="http://www.w3.org/2000/svg" xmlns:xlink="http://www.w3.org/1999/xlink" x="0px" y="0px"
	 viewBox="426.1 182.7 40.2 42.5" enable-background="new 426.1 182.7 40.2 42.5" xml:space="preserve">
<g>
	<g>
		<polygon fill="none" points="438.9,196.9 443.9,193.8 443,192.8 441.1,194 439.9,192.6 441.8,191.4 440.9,190.3 435.9,193.3 
			436.9,194.4 438.8,193.2 440,194.6 438.1,195.8 		"/>
		<polygon fill="none" points="442.1,198.7 441,197.5 444.9,195.1 444.1,194.1 439.1,197.1 441,199.3 		"/>
		<g>
			<polygon fill="none" points="447.7,198.4 445.3,195.6 444.2,196.2 445,197.2 442.2,198.8 442.2,198.8 441.1,199.5 441.1,199.5 
				441.1,199.5 442.1,200.6 445.9,198.3 446.6,199 			"/>
			<polygon fill="none" points="450.2,201.4 446.3,202.1 448.4,199.3 447.8,198.6 447.8,198.6 446.5,199.3 444,202.9 444.7,203.8 
				451.2,202.7 			"/>
		</g>
	</g>
	<g>
		<path fill="none" d="M446.7,205.5c-0.3,0.1-0.6,0.1-0.9-0.1c-0.2-0.3-0.1-0.5,0.1-0.8c0.3-0.1,0.6-0.1,0.9,0.1
			S447,205.4,446.7,205.5z"/>
		<path fill="none" d="M449.3,207c-0.6,0.4-1.5,0.6-2-0.1c-0.6-0.7-0.1-1.3,0.6-1.7c0.6-0.4,1.5-0.6,2.1,0
			C450.5,206,449.9,206.6,449.3,207z M448.3,205.9c-0.2,0.1-0.7,0.4-0.5,0.6c0.2,0.2,0.8-0.1,0.9-0.2s0.7-0.4,0.5-0.6
			C449.1,205.5,448.5,205.8,448.3,205.9z"/>
		<path fill="none" d="M451.3,207.1l-0.3,0.2l0,0c0.3,0,0.6,0.1,0.9,0.3l-0.7,0.4c0,0,0-0.1-0.1-0.1c-0.4-0.4-0.7-0.2-1.1,0
			l-1.3,0.8l-0.5-0.6l2.6-1.5L451.3,207.1z"/>
		<path fill="none" d="M449.5,210.2c-0.2,0.1-0.3,0.3-0.2,0.5c0.3,0.3,0.7,0,0.9-0.2l0.4-0.2l0,0c-0.1,0-0.3,0-0.4,0
			c-0.1,0-0.3-0.1-0.3-0.2c-0.2-0.3-0.1-0.5,0-0.8c0.1-0.3,0.5-0.5,0.8-0.7c0.5-0.3,1.4-0.8,1.9-0.2c0.2,0.2,0.1,0.5,0,0.6l0,0
			l0.3-0.2l0.5,0.6l-2.8,1.7c-0.8,0.5-1.3,0.4-1.8-0.2c-0.5-0.6-0.3-1,0.3-1.4L449.5,210.2L449.5,210.2z M451.6,209.7
			c0.1-0.1,0.7-0.4,0.5-0.6s-0.8,0.1-0.9,0.2c-0.2,0.1-0.7,0.4-0.5,0.6C450.9,210.1,451.5,209.8,451.6,209.7z"/>
	</g>
</g>
<g>
	<path fill="#B90500" d="M437.5,200.8c0.1,0.1,0.5,0.2,0.9,0.3L437.5,200.8C437.5,200.8,437.5,200.8,437.5,200.8z"/>
	<path fill="#B90500" d="M437.5,200.8C437.5,200.8,437.5,200.8,437.5,200.8C437.5,200.8,437.5,200.8,437.5,200.8z"/>
	<path fill="#E02722" d="M440,201.2l-2.5-0.4l1,0.4c0.9,0.3,2.2,0.6,2.2,0.6l-2.1-2.8c1.8,1.2,6.1,2.5,6.1,2.5
		c-0.7-0.6-6.5-2.8-7.1-3.3C437.5,198.1,439.4,200.9,440,201.2z"/>
	<path fill="#111111" d="M466.3,182.7c-13,3.8-20.1,10.2-20.1,10.2s-7.1-6.4-20.1-10.2c0,0,6.1,8.6,4.9,19.9l1.8,1.3
		c0,0,3.5,6.7,2.2,11.6c0,0,5.6,2.6,8.5,9.7c0,0,0.6-10.6-0.3-13.7l3.1,5.5l3.1-5.5c-1,3.1-0.3,13.7-0.3,13.7
		c2.9-7.1,8.5-9.7,8.5-9.7c-1.3-4.9,2.2-11.6,2.2-11.6l1.8-1.3C460.2,191.3,466.3,182.7,466.3,182.7z"/>
	<path fill="#B90500" d="M454.9,200.8c-0.1,0.1-0.5,0.2-0.9,0.3L454.9,200.8C454.9,200.8,454.9,200.8,454.9,200.8z"/>
	<path fill="#B90500" d="M454.9,200.8C454.9,200.8,454.9,200.8,454.9,200.8C454.9,200.8,454.9,200.8,454.9,200.8z"/>
	<path fill="#B90500" d="M460.4,189.7l-1.2,0.7c0.2-0.5,0-1.3,0-1.3c-0.6,1.1-2.4,1.8-2.4,1.8c0.8-0.9,0.8-2.4,0.8-2.4
		c-6.2,2.9-10.7,7.1-10.7,7.1c0,0.3,0.4,1.4,0.4,1.4c-0.2,0.1-0.4,1.7-0.4,1.7l-0.4-0.6l-0.4,1.2l-0.4-1.2l-0.4,0.6
		c0,0-0.2-1.6-0.4-1.7c0,0,0.4-1.1,0.4-1.4c0,0-4.5-4.2-10.7-7.1c0,0,0,1.5,0.8,2.4c0,0-1.8-0.7-2.4-1.8c0,0-0.2,0.8,0,1.3l-1.2-0.7
		c0,0,2.2,6,1.8,11.7c0,0,1,0.5,1.2,0.7c0.2,0.2,3.4,6.5,2.8,12c0,0,3.2,2.4,3.7,4.9c0.3-8.5-2.1-16.6-2.2-16.8
		c-0.1-0.2-1.4-1.2-1.6-1.4c0,0,0,0-0.1,0l2.5,0.4c-0.5-0.3-2.4-3.1-2.4-3.1c0.6,0.5,6.4,2.7,7.1,3.3c0,5.4-0.6,6.4-0.6,6.4
		c0.4,0.1,0.9,1.5,0.9,1.5c0-0.3,0.6-1.3,0.6-1.3c0,0.5,0.7,3.2,0.7,3.2s0.6-2.7,0.7-3.2c0,0,0.7,1,0.6,1.3c0,0,0.4-1.5,0.9-1.5
		c0,0-0.6-0.9-0.6-6.4c0.7-0.6,6.5-2.8,7.1-3.3c0,0-1.9,2.8-2.4,3.1l2.5-0.4c0,0,0,0-0.1,0c-0.3,0.2-1.5,1.2-1.6,1.4
		c-0.1,0.2-2.5,8.3-2.2,16.8c0.4-2.6,3.7-4.9,3.7-4.9c-0.7-5.6,2.6-11.8,2.8-12c0.2-0.2,1.2-0.7,1.2-0.7
		C458.2,195.7,460.4,189.7,460.4,189.7z"/>
	<path fill="#E02722" d="M452.5,201.2l2.5-0.4l-1,0.4c-0.9,0.3-2.2,0.6-2.2,0.6l2.1-2.8c-1.8,1.2-6.1,2.5-6.1,2.5
		c0.7-0.6,6.5-2.8,7.1-3.3C454.9,198.1,453,200.9,452.5,201.2z"/>
	<path fill="#E02722" d="M462.2,186.2c0,0-7.9,2.8-16,9.1c-8.1-6.3-16-9.1-16-9.1c4.1,9.2,2.8,15.5,2.8,15.5l1.4,1
		c3.5,6.8,2.8,11.8,2.8,11.8c1.9,0.8,4.2,4.5,4.2,4.5c-0.4-2.6-3.7-4.9-3.7-4.9c0.7-5.6-2.6-11.8-2.8-12c-0.2-0.2-1.2-0.7-1.2-0.7
		c0.4-5.7-1.8-11.7-1.8-11.7l1.2,0.7c-0.2-0.5,0-1.3,0-1.3c0.6,1.1,2.4,1.8,2.4,1.8c-0.8-0.9-0.8-2.4-0.8-2.4
		c6.2,2.9,10.7,7.1,10.7,7.1c0,0.3-0.4,1.4-0.4,1.4c0.2,0.1,0.4,1.7,0.4,1.7l0.4-0.6l0.4,1.2l0.4-1.2l0.4,0.6c0,0,0.2-1.6,0.4-1.7
		c0,0-0.4-1.1-0.4-1.4c0,0,4.5-4.2,10.7-7.1c0,0,0,1.5-0.8,2.4c0,0,1.8-0.7,2.4-1.8c0,0,0.2,0.8,0,1.3l1.2-0.7c0,0-2.2,6-1.8,11.7
		c0,0-1,0.5-1.2,0.7c-0.2,0.2-3.4,6.5-2.8,12c0,0-3.2,2.4-3.7,4.9c0,0,2.3-3.7,4.2-4.5c0,0-0.7-5,2.8-11.8l1.4-1
		C459.4,201.7,458.1,195.4,462.2,186.2z"/>
</g>
</svg>
