<?xml version="1.0" encoding="utf-8"?>
<!-- Generator: Adobe Illustrator 18.1.1, SVG Export Plug-In . SVG Version: 6.00 Build 0)  -->
<svg version="1.1" id="Layer_2" xmlns="http://www.w3.org/2000/svg" xmlns:xlink="http://www.w3.org/1999/xlink" x="0px" y="0px"
	 viewBox="219.5 94.3 403.5 407" enable-background="new 219.5 94.3 403.5 407" xml:space="preserve">
<g>
	<g>
		<polygon fill="none" points="514.6,200.2 519.1,171.7 512.2,171.7 510.4,182.7 501.3,182.7 503.1,171.7 495.7,171.7 491.2,200.2 
			498.6,200.2 500.4,188.9 509.5,188.9 507.7,200.2 		"/>
		<polygon fill="none" points="531.5,193.9 523.7,193.9 527.2,171.7 520.3,171.7 515.8,200.2 530.6,200.2 		"/>
		<g>
			<polygon fill="none" points="548.3,171.7 529.9,171.7 528.9,178 535,178 532.5,193.9 532.5,193.9 531.5,200.2 531.5,200.2 
				531.5,200.2 538.9,200.2 542.4,178 547.3,178 			"/>
			<polygon fill="none" points="567.9,171.7 558.3,189 554.2,171.7 549.5,171.7 549.2,171.7 548,179.1 553.6,200.2 559.3,200.2 
				576,171.7 			"/>
		</g>
	</g>
	<g>
		<path fill="none" d="M572.6,198.2c-0.2,1.5-1.7,2.8-3.2,2.8c-1.6,0-2.6-1.3-2.3-2.8c0.2-1.5,1.7-2.8,3.2-2.8
			C571.9,195.4,572.9,196.6,572.6,198.2z"/>
		<path fill="none" d="M586.3,193.2c-0.6,3.8-2.4,7.7-6.9,7.7c-4.4,0-5-3.9-4.4-7.7c0.6-3.8,2.4-7.7,6.9-7.7
			C586.3,185.5,586.9,189.4,586.3,193.2z M579.2,193.2c-0.1,0.9-0.6,4,0.9,4c1.4,0,2-3.1,2.1-4c0.1-0.9,0.6-4-0.9-4
			C579.8,189.2,579.3,192.4,579.2,193.2z"/>
		<path fill="none" d="M593.4,185.8l-0.3,1.8h0.1c1-1.3,2.1-2.2,3.8-2.3l-0.6,4c-0.2,0-0.4-0.1-0.6-0.1c-2.8,0-3.1,1.8-3.4,4
			l-1.2,7.4h-4.1l2.3-14.8H593.4z"/>
		<path fill="none" d="M599.4,202.6c-0.1,0.9,0,2.1,1.2,2.1c1.8,0,2-2.8,2.2-4.1l0.3-1.9H603c-0.4,0.5-0.8,1.1-1.2,1.5
			c-0.5,0.4-1.1,0.7-1.8,0.7c-1.5,0-2.3-1.2-2.8-2.5c-0.5-1.5-0.4-3.4-0.2-5c0.4-2.6,1.7-7.9,5.3-7.9c1.4,0,2.2,0.9,2.5,2.1h0.1
			l0.3-1.8h4.1l-2.6,16.1c-0.7,4.3-2.9,6.1-6.5,6.1c-3.5,0-4.8-2-4.5-5.4H599.4z M604.2,193.1c0.1-0.8,0.6-4-0.8-4
			c-1.4,0-2,3.1-2.1,4c-0.1,0.9-0.6,4,0.9,4C603.5,197.1,604.1,193.9,604.2,193.1z"/>
	</g>
</g>
<g id="_x39_FWHU6.tif_1_">
	<g>
		<path fill="#11BBF3" d="M466.1,193.5c5.8-7.1,11.5-14,17.3-20.9c0.8-0.9,1.6-2,1.6-3.1c0.2-9.8,0.9-19.8-2.7-29.1
			c-1.1-2.8-3.3-5.2-5.4-7.6c-2-2.5-4.1-2-6.3,0.3c-9.8,10.2-19.7,20.2-29.6,30.4c-3.8,3.9-7.4,7.9-11.5,12.3
			c-3.1-12.4-4.7-24.7-3.8-37c0.9-12.3,2.2-24.6,3.3-37.5c1.4,0.2,2.4,0.2,3.3,0.5c16.7,5.8,33.5,11.8,50.2,17.6
			c13.2,4.7,26.6,9.4,39.8,14.2c19.5,6.8,39.2,13.5,58.9,20.3c10.9,3.8,21.6,7.7,32.4,11.3c2.4,0.8,3.3,2,3.3,4.3c0,17,0,34,0,51
			c0,5.2-0.5,10.6-0.6,15.7c-0.3,12-0.3,24.1-0.8,36.1c-0.3,10.2-0.6,20.6-1.4,30.9c-0.9,12.9-2,25.8-3.3,38.7
			c-0.9,10.4-2,20.8-3.5,31.2c-2.5,17.5-5,35.1-11.5,51.7c-2.7,7.1-7.4,13.5-12.3,19.4c-8.2,10.1-17,19.5-25.7,29.1
			c-3.3,3.6-6.9,6.8-10.6,10.4c-3.6-4.7-6.9-9.3-10.2-13.9c-8.7-11.7-17.2-23.3-25.8-35c-8.2-11-16.7-22-24.9-33.2
			c-4.1-5.7-9.6-9.1-16.2-10.2c-8.3-1.3-13.7-6.5-17.6-13.1c-6.3-10.9-12-22.2-17.8-33.4c-0.6-1.1-0.6-2.5-0.6-3.9
			c0.5-14.6,0.9-29.3,2-44.3c0.8,3.9,1.9,7.9,2.4,12c1.1,8.8,3.3,17.3,8.8,24.6c3.3,4.3,6.6,8.5,10.4,12.3c1.4,1.4,3.9,1.6,6,2.2
			c11.3,3.1,21.9,7.7,30.4,16.1c1.7,1.7,2.8,4.4,3.8,6.9c2.8,7.7,5.4,15.6,8,23.3c1.6,4.7,3.3,9.4,4.7,14.2c0.8,2.2,1.9,3.3,4.4,3.1
			c8.5-0.6,16.9-1.1,26.1-1.6c-6.1-9.4-11.8-18.4-18-28c5,2.8,9.6,5.4,14,7.9c6.8,3.8,13.5,7.6,20.5,11.5c1.9,1.1,3.3,0.9,4.7-0.8
			c7.1-8.7,14.2-17.3,21.3-25.8c4.4-5.4,4.4-5.2,1.1-11.3c-10.2-19.2-20.6-38.3-30.9-57.5c-6.3-11.8-12.6-23.6-19.1-35.3
			c-2.2-3.9-1.4-7.9-1.4-11.8c0-5.2,0.5-10.2,0.5-15.4c0-0.8-0.9-1.9-1.7-2.5c-11.7-8.3-23.5-16.5-35.3-24.9
			c-10.2-7.1-20.5-14.3-30.6-21.4C466.5,193.9,466.1,193.4,466.1,193.5z"/>
		<path fill="#11BBF3" d="M226.1,180.9c32.6,23.3,67.6,42.2,101.9,63c-3.3,5.4-6.8,10.7-10.1,16.1c-3.9,6.3-3.9,6.3-10.9,3.6
			c-17.8-6.8-35.7-13.4-53.7-20.3c-9-3.5-18-7.4-26.8-11.2c-0.9-0.5-1.9-2.2-1.9-3.3c0-11.2,0.3-22.4,0.6-33.7
			C225.4,190.4,225.8,185.7,226.1,180.9z"/>
		<path fill="#11BBF3" d="M345.7,225.5c-32.4-20-53.5-49.9-72.8-82c5.2-1.4,10.1-2.7,15-3.9c6.6-1.7,13.2-3.5,19.8-5.5
			c2-0.6,3-0.3,4.3,1.6c9.6,15.1,19.2,30.4,29.4,45.4c5,7.2,11.3,13.7,16.9,20.6c4.9,6,4.7,6.5-0.5,11.8
			C353.9,217.3,349.8,221.4,345.7,225.5z"/>
		<path fill="#11BBF3" d="M407.2,184.7c-10.1,1.6-19.5,5-26.6,13.4c-4.7-12.4-9-24.3-14-35.9c-4.4-9.8-4.7-20.3-6.3-30.6
			c-0.6-4.4-1.4-8.8-1.9-13.2c-0.2-0.9,0.6-2.5,1.3-2.7c10.7-3.6,21.4-7.1,32.6-10.6C392.1,132.6,399.1,158.4,407.2,184.7z"/>
		<path fill="#11BBF3" d="M229.8,384.7c-3.9-13.9-3.8-27.6-5-41.4c21.1,0,42-1.1,62-9.3c-1.1,10.6-2.2,20.5-3.1,30.4
			c-0.2,2-1.3,3-3.1,3.6C263.8,373.7,247.2,379.2,229.8,384.7z"/>
		<path fill="#11BBF3" d="M301.1,286.3c-2.7,8.2-5.4,15.9-7.7,23.6c-0.6,2.4-1.7,2.8-3.9,2.8c-19.1,1.3-37.5-3.1-55.9-7.1
			c-2.2-0.5-4.4-0.8-6.9-1.4c0-9.4,0-19.1,0-28.7C250.6,283.9,276.1,283.9,301.1,286.3z"/>
		<path fill="#11BBF3" d="M255,449.6c-3.1-3-12.9-26.3-15.6-37.2c14.5-8.3,29-16.9,43.5-25.2c2.8,12.1,5.5,23.3,8.2,34.6
			c0.5,1.9,0.2,3.1-1.7,4.4c-10.2,6.8-20.2,13.9-30.4,20.9C257.6,448.2,256.4,448.8,255,449.6z"/>
		<path fill="#11BBF3" d="M305.8,494.3c-10.9-9-21.6-18-32.6-27.1c7.7-6.5,15.3-12.9,23.1-19.7C299.5,463.3,302.7,478.7,305.8,494.3
			z"/>
		<path fill="#11BBF3" d="M516.1,268.7c-4.7,0.3-9.4,0.6-14.2,0.9c-3.1-7.1-6.1-13.9-9.1-20.6c0.2-0.2,0.2-0.3,0.3-0.5
			c7.9,6.5,15.6,12.9,23.5,19.2C516.4,268.2,516.2,268.3,516.1,268.7z"/>
		<path fill="#11BBF3" d="M565.8,373.4c-3.8,0-7.6,0-11.5,0c-0.5,0-1.3-0.9-1.4-1.6c-0.9-3.3-1.7-6.6-2.7-10.4
			c5.5,3.8,10.6,7.2,15.6,10.9C565.8,372.6,565.8,372.9,565.8,373.4z"/>
	</g>
</g>
</svg>
