<?xml version="1.0" encoding="utf-8"?>
<!-- Generator: Adobe Illustrator 18.1.1, SVG Export Plug-In . SVG Version: 6.00 Build 0)  -->
<svg version="1.1" id="Layer_2" xmlns="http://www.w3.org/2000/svg" xmlns:xlink="http://www.w3.org/1999/xlink" x="0px" y="0px"
	 viewBox="170.2 93.5 501.4 439.1" enable-background="new 170.2 93.5 501.4 439.1" xml:space="preserve">
<g>
	<g>
		<polygon fill="none" points="385.1,308.2 389.6,279.7 382.7,279.7 380.9,290.7 371.9,290.7 373.6,279.7 366.2,279.7 361.7,308.2 
			369.1,308.2 370.9,296.9 380,296.9 378.2,308.2 		"/>
		<polygon fill="none" points="402.1,301.9 394.2,301.9 397.7,279.7 390.8,279.7 386.4,308.2 401.1,308.2 		"/>
		<g>
			<polygon fill="none" points="418.8,279.7 400.4,279.7 399.4,286 405.5,286 403,301.9 403,301.9 402,308.2 402,308.2 402.1,308.2 
				409.4,308.2 412.9,286 417.8,286 			"/>
			<polygon fill="none" points="438.5,279.7 428.8,297 424.7,279.7 420,279.7 419.7,279.7 418.6,287.1 424.1,308.2 429.9,308.2 
				446.5,279.7 			"/>
		</g>
	</g>
	<g>
		<path fill="none" d="M443.2,306.2c-0.2,1.5-1.7,2.8-3.2,2.8s-2.6-1.3-2.3-2.8c0.2-1.5,1.7-2.8,3.2-2.8
			C442.4,303.4,443.4,304.6,443.2,306.2z"/>
		<path fill="none" d="M456.8,301.2c-0.6,3.8-2.4,7.7-6.9,7.7c-4.4,0-5-3.9-4.4-7.7c0.6-3.8,2.4-7.7,6.9-7.7
			C456.8,293.5,457.4,297.4,456.8,301.2z M449.7,301.2c-0.1,0.9-0.6,4,0.9,4c1.4,0,2-3.1,2.1-4c0.1-0.9,0.6-4-0.9-4
			C450.4,297.2,449.8,300.3,449.7,301.2z"/>
		<path fill="none" d="M463.9,293.8l-0.3,1.8h0.1c1-1.3,2.1-2.2,3.8-2.3l-0.6,4c-0.2,0-0.4-0.1-0.6-0.1c-2.8,0-3.1,1.8-3.4,4
			l-1.2,7.4h-4.1l2.3-14.8H463.9z"/>
		<path fill="none" d="M469.9,310.6c-0.1,0.9,0,2.1,1.2,2.1c1.8,0,2-2.8,2.2-4.1l0.3-1.9h-0.1c-0.4,0.5-0.8,1.1-1.2,1.5
			c-0.5,0.4-1.1,0.7-1.8,0.7c-1.5,0-2.3-1.2-2.8-2.5c-0.5-1.5-0.4-3.4-0.2-5c0.4-2.6,1.7-7.9,5.3-7.9c1.4,0,2.2,0.9,2.5,2.1h0.1
			l0.3-1.8h4.1l-2.6,16.1c-0.7,4.3-2.9,6.1-6.5,6.1c-3.5,0-4.8-2-4.5-5.4H469.9z M474.7,301.1c0.1-0.8,0.6-4-0.8-4
			c-1.4,0-2,3.1-2.1,4c-0.1,0.9-0.6,4,0.9,4C474,305.1,474.6,301.9,474.7,301.1z"/>
	</g>
</g>
<g>
	<path d="M637.2,296.2l-17.6-10.9l11.5-13.5l-26.5-85.4l-16.2,2.7l5.4-25.8l-27.7-2.7l-20.3-67.1L488,151.2h-67.1h-67.1l-57.6-57.6
		l-20.3,67.1l-27.7,2.7l5.4,25.8l-16.2-2.7l-67.1,210.1c0,0,104.6-18.1,123.6-19.5l6.9,34.2l78.6,47.1l41.6,74.3l41.6-74.3
		l78.6-47.1L548,377c19.2,1.4,123.6,19.5,123.6,19.5L637.2,296.2z"/>
	<polygon fill="#C4C4C4" points="420.9,443 407.1,457.5 420.9,504.9 434.8,457.5 	"/>
	<path fill="#A60000" d="M420.9,197c-49,0-150.2-14.8-150.2-14.8l0.9,8c0,0,90.9,15,149.3,15s149.3-15,149.3-15l0.9-8
		C571.2,182.2,469.9,197,420.9,197z"/>
	<path fill="#EF1615" d="M571.7,178.3h-15.6l-16.5-54.2l-47.4,52.1h-71.2h-71.2l-47.4-52.1l-16.5,54.2h-15.6l1.4,11.8l-0.9-8
		c0,0,101.3,14.8,150.2,14.8S571.2,182,571.2,182l-0.9,8L571.7,178.3z"/>
	<path fill="#EF1615" d="M420.9,379.4c0,0-93.4,0.3-109,4.9l2.7,15.3l78.1,48.2l28.2-26.6l28.2,26.6l78.1-48.2l2.7-15.3
		C514.2,379.7,420.9,379.4,420.9,379.4z"/>
	<path fill="#A60000" d="M420.9,372c0,0-86.5-0.9-110.7,2.5l1.7,9.9c15.7-4.6,109-4.9,109-4.9s93.4,0.3,109,4.9l1.7-9.9
		C507.4,370.9,420.9,372,420.9,372z"/>
	<polygon fill="#C2C1C1" points="492.1,176.2 504.1,176.2 542.4,133.5 539.5,124.1 	"/>
	<path fill="#C2C1C1" d="M625.8,313.2c-0.9-3.3-1.6-5.2-1.6-5.2s-37.6-17.2-61.3-20.5c-4.7,0.3-8.7,1.1-9.8,2.5
		C553.1,289.9,600.6,297.6,625.8,313.2z"/>
	<path fill="#C2C1C1" d="M429.3,347.1c0,0,0,0.3,0,0.8c2.2,0,4.6,0,6.8,0l-2.7-120.3c0,0,123.2-8.5,159.7-18.9l-1.9-6.1
		c0,0-110.9,18.3-163.5,18.3L429.3,347.1z"/>
	<path fill="#EF1615" d="M436.1,347.9c121.7,1.6,183.9,14.5,208.5,21.7c-4.3-11.3-14.6-43.8-18.6-56.5
		c-25.2-15.6-72.8-23.1-72.8-23.1c1.1-1.4,5.2-2,9.8-2.5c-0.2,0-0.2,0-0.3,0l31.7-3.6l17-15.6l-18-59.5
		c-36.5,10.4-159.7,18.9-159.7,18.9L436.1,347.9z"/>
	<polygon fill="#C2C1C1" points="550.4,357.3 534.5,252 530.4,255.6 545.7,358.7 	"/>
	<path fill="#A60000" d="M435.1,355.4c6.8,0,149.9,8.2,207.9,21.4c0,0,6.3,2.7,3-3.8c-0.3-0.6-0.8-1.9-1.4-3.5
		c-25-7.6-89-20.6-215.3-21.9C429.1,349.8,429.6,355.4,435.1,355.4z"/>
	<polygon points="533.1,362.4 521.6,282 498.9,296.9 459.5,304.7 530.4,255.6 546.3,363.5 546.3,365 	"/>
	<polygon fill="#C2C1C1" points="459.5,304.7 452.6,310.2 500.5,302.4 522.5,288.7 521.6,282 498.9,296.9 	"/>
	<polygon points="403.6,369.6 424.3,386 442.7,369.6 	"/>
	<polygon fill="#EF1615" points="414.2,220.8 414.2,228.8 412.6,347.7 329.1,354.5 191.5,371.8 198,347.7 245.2,205.2 373.2,224.1 	
		"/>
	<path fill="#C2C1C1" d="M186.8,373.1l55.9-173.4c0,0,101.6,21.1,171.5,21.1v8c0,0-121.1-7.7-167.9-21.6l-52.4,162.4L186.8,373.1z"
		/>
	<path fill="#A60000" d="M406.5,355.4c-7.1,0-156.2,8.2-216.5,21.4c0,0-6.6,2.7-3-3.8c0.3-0.6,0.8-1.9,1.4-3.5
		c26-7.6,92.8-20.6,224.3-21.9C412.6,349.8,412.3,355.4,406.5,355.4z"/>
	<polygon points="313.9,263.8 328.7,205.2 321.3,208.7 315.3,202.5 299.2,273.2 333.5,296.9 372.8,304.7 	"/>
	<polygon points="308.5,362.4 316.5,305.4 303.9,304.7 295.3,363.5 295.3,365 	"/>
	<polygon fill="#C2C1C1" points="309.9,351.7 316.5,305.4 321.4,306.6 314.8,351.3 	"/>
	<polygon fill="#C2C1C1" points="299.2,273.2 297.6,280 332.4,303.6 382.4,311.8 372.8,304.7 333.5,296.9 	"/>
	<polygon fill="#C2C1C1" points="320,268 333.1,215.7 326,215.7 313.9,263.8 	"/>
	<path fill="#C2C1C1" d="M316.5,373.7l3.3,23l76.7,47.1l-3.9,3.8l-78.1-48.2l-4.3-25C310.2,374.3,315.3,373.9,316.5,373.7z"/>
	<polygon fill="#C2C1C1" points="285.7,178.3 295.3,178.3 309.9,132.4 302.4,124.1 	"/>
	<path d="M465.4,157.3c-1.4-11.5-29.1-55-78-55c0,0,36.2,30.6,32.1,55c0,0-3.5-24.4-55-30.6c0,0,20.9,24.7,20.9,38h73.9L465.4,157.3
		z"/>
	<path d="M374.5,413.5c7.7-7.6,69.1-26.5,85-25c15.9,1.4,16.2,6.5,15.3,9.1c-0.9,2.7-1.7,9.1-20.6,8.8
		C435.1,406,393.1,407.7,374.5,413.5z"/>
	<path d="M481.6,400.9c0,0,0,0.2,0,0.3c0,0.2,0,0.5,0,0.8c0,0.3,0,0.8-0.2,1.3c0,0.3-0.2,0.5-0.2,0.8c0,0.3-0.2,0.6-0.3,0.9
		c-0.2,0.6-0.5,1.3-0.8,1.9c-0.2,0.3-0.3,0.6-0.6,0.9c-0.2,0.3-0.5,0.6-0.8,0.9c-0.3,0.3-0.6,0.6-0.9,0.9c-0.3,0.3-0.6,0.5-0.9,0.8
		c-0.3,0.3-0.8,0.5-1.1,0.8l-0.6,0.3l-0.6,0.3c-0.5,0.2-0.8,0.3-1.3,0.5c-0.5,0.2-0.8,0.3-1.3,0.5l-0.6,0.2c-0.2,0-0.5,0.2-0.6,0.2
		c-0.5,0.2-0.8,0.2-1.3,0.3c-0.8,0.2-1.6,0.2-2.2,0.3c-0.8,0.2-1.4,0-2,0c-0.6,0-1.3,0-1.7,0s-0.9-0.2-1.3-0.2
		c-0.8-0.2-1.1-0.2-1.1-0.2s0.5-0.2,1.1-0.2c0.3,0,0.8-0.2,1.3-0.2s1.1-0.2,1.6-0.3c0.3,0,0.6-0.2,0.9-0.2c0.3,0,0.6-0.2,0.9-0.2
		c0.6-0.2,1.4-0.3,2-0.5c0.6-0.3,1.4-0.3,2.2-0.6c0.3-0.2,0.8-0.3,1.1-0.5c0.3-0.2,0.6-0.3,1.1-0.5l0.5-0.3l0.5-0.3
		c0.3-0.2,0.6-0.3,0.9-0.6c0.3-0.2,0.6-0.5,0.9-0.6c0.3-0.3,0.5-0.5,0.8-0.8c0.3-0.2,0.5-0.5,0.8-0.8c0.3-0.3,0.5-0.5,0.6-0.8
		c0.2-0.3,0.5-0.5,0.6-0.8c0.2-0.3,0.3-0.5,0.5-0.8c0.2-0.3,0.3-0.5,0.5-0.8c0.2-0.3,0.2-0.5,0.3-0.6c0.2-0.5,0.3-0.8,0.5-1.1
		C481.4,401.3,481.6,400.9,481.6,400.9z"/>
</g>
</svg>
