<?xml version="1.0" encoding="utf-8"?>
<!-- Generator: Adobe Illustrator 18.1.1, SVG Export Plug-In . SVG Version: 6.00 Build 0)  -->
<svg version="1.1" id="Layer_2" xmlns="http://www.w3.org/2000/svg" xmlns:xlink="http://www.w3.org/1999/xlink" x="0px" y="0px"
	 viewBox="248.3 134.8 348 348" enable-background="new 248.3 134.8 348 348" xml:space="preserve">
<path d="M422.4,134.8c-96.1,0-174,78-174,174s78,174,174,174s174-78,174-174S518.4,134.8,422.4,134.8z M422.4,465.2
	c-37.3,0-71.5-13.1-98.4-34.8H362v-103l86.6,103.5h52L318.7,196v229.8c-32.4-28.7-52.8-70.6-52.8-117.2
	c0-86.3,70.1-156.4,156.4-156.4c37.6,0,72.1,13.2,99.1,35.3h-39.7v103L395.1,187h-52l182,234.8v-231c32.9,28.7,53.7,70.9,53.7,118
	C578.7,395.1,508.7,465.2,422.4,465.2z"/>
<g>
	<g>
		<polygon fill="none" points="414.3,262.7 439.3,248.4 435,243 425.3,248.5 419.7,241.4 429.3,235.9 424.7,230.2 399.7,244.4 
			404.3,250.2 414.2,244.5 419.9,251.6 410,257.3 		"/>
		<polygon fill="none" points="429.8,272 424.8,265.9 444.4,254.8 440.1,249.4 415,263.7 424.2,275.2 		"/>
		<g>
			<polygon fill="none" points="457.5,271.3 446,256.9 440.5,260 444.4,264.8 430.3,272.8 430.3,272.8 424.8,275.9 424.8,275.9 
				424.9,275.9 429.4,281.7 449,270.6 452,274.4 			"/>
			<polygon fill="none" points="469.8,286.6 450.3,289.9 461.2,275.9 458.3,272.2 458.1,272 451.6,275.7 438.6,293.2 442.2,297.7 
				474.8,292.9 			"/>
		</g>
	</g>
	<g>
		<path fill="none" d="M452.1,306.8c-1.3,0.8-3.2,0.4-4.2-0.8c-1-1.2-0.6-2.8,0.7-3.6c1.3-0.8,3.2-0.4,4.2,0.8
			C453.8,304.4,453.4,306,452.1,306.8z"/>
		<path fill="none" d="M464.5,314.4c-3.3,1.9-7.5,2.9-10.3-0.6c-2.8-3.5-0.1-6.4,3.3-8.2c3.3-1.9,7.6-2.9,10.3,0.5
			C470.5,309.6,467.8,312.5,464.5,314.4z M460,308.8c-0.8,0.4-3.5,2-2.6,3.2c0.9,1.1,3.7-0.4,4.5-0.8c0.8-0.4,3.5-2.1,2.6-3.2
			C463.6,306.8,460.8,308.4,460,308.8z"/>
		<path fill="none" d="M474.7,315.3l-1.6,0.9l0,0c1.6,0,3,0.3,4.2,1.5l-3.5,2c-0.1-0.2-0.2-0.3-0.3-0.5c-1.7-2.2-3.3-1.3-5.3-0.2
			l-6.5,3.7l-2.6-3.2l13-7.4L474.7,315.3z"/>
		<path fill="none" d="M465.3,330.4c-0.8,0.5-1.7,1.3-0.9,2.2c1.2,1.4,3.4-0.2,4.6-0.8l1.7-0.9l0,0c-0.6,0.1-1.3,0.1-1.9,0
			c-0.6-0.1-1.2-0.4-1.6-1c-1-1.2-0.5-2.6,0.2-3.7c0.8-1.3,2.4-2.5,3.8-3.3c2.3-1.3,7.3-3.6,9.5-0.8c0.9,1.1,0.7,2.3-0.1,3.3l0,0
			l1.6-0.9l2.6,3.2l-14.2,8.1c-3.8,2.2-6.6,1.5-8.8-1.3c-2.2-2.8-1.4-5,1.4-6.9L465.3,330.4z M475.7,328.3c0.7-0.4,3.5-2,2.6-3.1
			c-0.9-1.1-3.7,0.4-4.4,0.8c-0.8,0.5-3.5,2.1-2.5,3.2C472.1,330.2,475,328.7,475.7,328.3z"/>
	</g>
</g>
</svg>
