<?xml version="1.0" encoding="utf-8"?>
<!-- Generator: Adobe Illustrator 18.1.1, SVG Export Plug-In . SVG Version: 6.00 Build 0)  -->
<svg version="1.1" id="Layer_2" xmlns="http://www.w3.org/2000/svg" xmlns:xlink="http://www.w3.org/1999/xlink" x="0px" y="0px"
	 viewBox="281.3 193.5 257.5 94.1" enable-background="new 281.3 193.5 257.5 94.1" xml:space="preserve">
<g>
	<g>
		<polygon fill="none" points="343.4,256.8 345.3,249.6 343.5,249.4 342.8,252.2 340.4,252 341.1,249.2 339.3,249 337.4,256.2 
			339.3,256.4 340,253.5 342.4,253.8 341.6,256.6 		"/>
		<polygon fill="none" points="347.9,255.6 345.9,255.4 347.4,249.8 345.6,249.6 343.7,256.9 347.5,257.2 		"/>
		<g>
			<polygon fill="none" points="352.8,250.3 348.1,249.9 347.7,251.5 349.3,251.6 348.2,255.7 348.2,255.7 347.8,257.2 347.8,257.2 
				347.8,257.2 349.7,257.4 351.2,251.8 352.4,251.9 			"/>
			<polygon fill="none" points="357.9,250.8 355,255 354.4,250.5 353.2,250.4 353.1,250.4 352.6,252.2 353.5,257.8 355,258 360,251 
							"/>
		</g>
	</g>
	<g>
		<path fill="none" d="M358.4,257.8c-0.1,0.4-0.5,0.7-0.9,0.6c-0.4,0-0.6-0.4-0.5-0.8c0.1-0.4,0.5-0.7,0.9-0.6
			C358.3,257,358.5,257.4,358.4,257.8z"/>
		<path fill="none" d="M362.1,256.8c-0.2,1-0.8,1.9-2,1.8c-1.2-0.1-1.2-1.1-0.9-2.1c0.2-1,0.8-1.9,2-1.8
			C362.3,254.9,362.4,255.9,362.1,256.8z M360.3,256.7c-0.1,0.2-0.3,1,0.1,1.1c0.4,0,0.6-0.8,0.7-1s0.2-1-0.1-1.1
			C360.5,255.6,360.3,256.4,360.3,256.7z"/>
		<path fill="none" d="M364.1,255.1l-0.1,0.5l0,0c0.3-0.3,0.6-0.5,1-0.5l-0.3,1c-0.1,0-0.1,0-0.2,0c-0.7-0.1-0.8,0.4-1,1l-0.5,1.9
			l-1.1-0.1l1-3.8L364.1,255.1z"/>
		<path fill="none" d="M365.2,259.6c0,0.2-0.1,0.5,0.2,0.6c0.5,0,0.6-0.7,0.7-1l0.1-0.5l0,0c-0.1,0.1-0.2,0.3-0.3,0.3
			s-0.3,0.2-0.5,0.1c-0.4,0-0.6-0.4-0.7-0.7c-0.1-0.4,0-0.9,0.1-1.3c0.2-0.7,0.7-2,1.6-1.9c0.4,0,0.6,0.3,0.6,0.6l0,0l0.1-0.5
			l1.1,0.1l-1.1,4.1c-0.3,1.1-0.9,1.5-1.8,1.4c-0.9-0.1-1.2-0.7-1-1.5L365.2,259.6z M366.7,257.3c0-0.2,0.3-1-0.1-1
			c-0.4,0-0.6,0.8-0.7,1c0,0.2-0.2,1,0.1,1C366.4,258.3,366.7,257.5,366.7,257.3z"/>
	</g>
</g>
<g>
	<path fill="#444444" d="M300.8,194.9c4.4-0.1,8.9,0,13.4,0c0.5,3.7-3.6,3.4-6.1,3.3c-0.8,5.5-1.8,10.9-2.7,16.4c-1.3,0-2.6,0-3.9,0
		c0.9-5.5,1.8-10.9,2.7-16.4c-1.9,0-3.8,0-5.7,0C298.6,196.7,299.1,194.8,300.8,194.9z"/>
	<path fill="#444444" d="M316.3,194.8c3.8,0,7.6,0,11.4,0c0.3,4.5-5.2,2.8-8,3.2c-0.3,1.6-0.5,3.2-0.8,4.8c1.9,0.1,3.8,0,5.8,0.1
		c-0.2,1-0.4,2-0.5,3c-1.9,0-3.8,0-5.7,0c-0.3,1.8-0.6,3.6-0.9,5.4c2.1,0.1,4.3-0.2,6.4,0.1c1.4,0.3,1.4,1.9,1.1,3c-4-0.1-8,0-12,0
		C314.2,207.9,315.3,201.4,316.3,194.8z"/>
	<g>
		<path fill="#444444" d="M336.2,195.1c1.4-0.6,3.8-0.7,4.2,1.2c1.1,6,2.2,12.1,3.2,18.2c-1.3,0-2.7,0-4,0c-0.2-1.4-0.5-2.8-0.6-4.2
			c-2.1,0-4.1,0-6.2,0c-0.6,1.4-1.2,2.8-1.8,4.2c-1.4,0-2.7,0-4.1,0C330.1,208,333.1,201.5,336.2,195.1z M334.2,207.1
			c1.4,0,2.9,0,4.3,0c-0.3-2.6-0.6-5.2-1-7.8C336.4,201.9,335.3,204.5,334.2,207.1z"/>
	</g>
	<path fill="#444444" d="M350.5,195c1.2-0.5,3.3-0.7,3.7,0.9c0.9,3.5,1.6,7.1,2.5,10.6c2-3.5,3.9-7.1,6-10.6
		c0.9-1.4,2.7-1.3,4.1-1.1c-0.5,6.5-1.3,13.1-1.8,19.6c-1.2,0-2.5,0-3.7,0c0.4-4.2,0.9-8.4,1.2-12.6c-1.6,2.8-3.2,5.6-4.8,8.4
		c-1.1,0-2.2,0-3.2,0c-0.7-2.7-1.2-5.4-2.1-8c-1,4-1.8,8.1-2.7,12.1c-1.2,0-2.4,0-3.7,0C347.5,208,348.8,201.5,350.5,195z"/>
	<path fill="#82B729" d="M430.1,209.1c35.9-2.4,71.8-4.9,107.7-7.3c-1.3,4.2-2.9,8.4-4.4,12.6c-53.4,0-106.8,0-160.2,0
		c0-0.4,0-0.9,0-1.3C392.1,211.6,411.1,210.5,430.1,209.1z"/>
	<g>
		<path fill="#82B729" d="M304.4,229c6.1-1.5,12.5-1.2,18.7-1.5c7.9,0,16.1-0.5,23.8,1.8c3.7,1.1,7.4,3,9.4,6.5
			c1.9,2.9,1.5,6.5,1.3,9.8c4.1-6.9,10.8-12,18.3-14.8c7.7-2.9,16-3.5,24.2-3.3c3.4,0.4,7.2-0.3,10.1,1.8c2.1,1.5,1.8,4.4,2.2,6.7
			c0.2,1.2,0.7,3.1-0.9,3.5c-10.6-0.7-22.2-2.3-31.9,3c-7.7,4.3-11,13.3-11.8,21.7c-0.2,2.7,0.2,6,2.6,7.7c3.4,2.4,7.7,2.7,11.7,3
			c7.5,0.2,14.9-0.4,22.3-0.9c-1.4-4.8-1.2-10,0.1-14.8c1.7-7,4.9-13.7,9.8-19c9.9-10.7,25.5-13.2,39.4-12.6
			c6.1,0.3,12.5,0.7,18.1,3.4c4.2,1.7,7.1,6,6.4,10.6c2.7-4.3,6.6-7.8,11.2-10c8.3-4,17.7-4.3,26.7-4c3.2,0.3,6.6-0.3,9.6,1.2
			c2,1,2.3,3.4,1.3,5.2c-1.1,1.9-0.9,4.8-3.2,5.7c-6.7,0.2-13.4-0.3-20.1,0.1c-4.1,0.3-8.9,2.1-10.3,6.4c-3.7,12.8-7.3,25.5-11,38.3
			c-0.4,1.2-1.8,1.7-2.9,1.7c-4,0-8.1,0-12.1,0c-0.8,0-1.7-0.3-2.3-0.8c0-0.4,0-0.7,0-1.1c3-11.5,6.8-22.8,9.6-34.4
			c-5.2,6.8-14,9.5-22.1,11c-11,1.5-22,2.9-33,4.3c-0.7,4.5,3,8.7,7.4,9c11,1.5,22.1,0.3,33.1-0.1c1.1,0,2.1-0.2,3.1,0.2
			c-0.1,2.5-1.3,4.7-1.8,7.1c-0.5,2.4-3.1,3.6-5.3,3.9c-5.7,0.7-11.5,0.8-17.3,0.8c-6.5,0-13.2,0.3-19.6-1.3
			c-5.1-1.1-10.4-3.5-13.3-8.1c-0.7,2.8-0.7,6.5-3.9,7.6c-6.2,2-12.8,1.6-19.1,1.8c-8.4,0.1-17.5,0.1-24.9-4.7
			c-4.9-3.1-7.1-9-7-14.6c-1.5,4.5-2.8,9.1-4.3,13.5c-1.8,3.5-6.4,3.6-9.8,4.2c-12.8,1.5-25.9,2.3-38.8,0.5
			c-5.8-1-12.9-3.1-14.8-9.5c-1.2-5.8,1.6-12,6.3-15.4c5.9-4.5,13.4-6.4,20.6-7.6c9.6-1.3,19.1-2.7,28.6-4.3c3-0.6,3.7-4.8,2.1-7.1
			c-2.1-2.6-5.7-3-8.8-3.4c-11-0.7-22,1-33,1.6c-0.2-0.2-0.4-0.4-0.6-0.6C299.8,235.3,300.1,230.2,304.4,229z M441.4,238
			c-4.5,0.5-9.2,1.4-12.6,4.6c-3.6,3.5-5.5,8.3-6.8,13.1c5.7-0.6,11.3-1.6,16.9-2.3c6-0.9,12.1-1.4,17.7-3.9
			c2.5-1.2,5.2-3.3,5.2-6.4c0.1-2.4-2.3-3.8-4.3-4.4C452.3,237.4,446.8,237.6,441.4,238z M308.4,262.1c-4.1,0.6-8.8,3.6-8.6,8.2
			c0.5,3.2,4.2,4.2,6.8,4.7c8.2,1.3,16.6,0.7,24.8,0c1.3,0.1,1.2-1.5,1.6-2.3c1.4-4.8,3.2-9.5,4.3-14.4
			C327.8,259.4,318.1,260.8,308.4,262.1z"/>
	</g>
</g>
</svg>
