<?xml version="1.0" encoding="utf-8"?>
<!-- Generator: Adobe Illustrator 18.1.1, SVG Export Plug-In . SVG Version: 6.00 Build 0)  -->
<svg version="1.1" id="Layer_2" xmlns="http://www.w3.org/2000/svg" xmlns:xlink="http://www.w3.org/1999/xlink" x="0px" y="0px"
	 viewBox="414.5 177.7 64.9 53.5" enable-background="new 414.5 177.7 64.9 53.5" xml:space="preserve">
<g>
	<g>
		<polygon fill="none" points="442.5,206.8 447.5,203.7 446.6,202.7 444.7,203.9 443.5,202.5 445.5,201.3 444.5,200.2 439.5,203.2 
			440.5,204.3 442.4,203.1 443.6,204.5 441.7,205.7 		"/>
		<polygon fill="none" points="445.7,208.6 444.7,207.4 448.6,205 447.7,204 442.7,207 444.6,209.2 		"/>
		<g>
			<polygon fill="none" points="451.3,208.3 448.9,205.5 447.8,206.1 448.6,207.1 445.8,208.7 445.8,208.7 444.7,209.4 444.7,209.4 
				444.7,209.4 445.7,210.5 449.6,208.2 450.2,208.9 			"/>
			<polygon fill="none" points="453.8,211.3 449.9,212.1 452,209.2 451.5,208.5 451.4,208.5 450.1,209.2 447.6,212.8 448.3,213.7 
				454.8,212.6 			"/>
		</g>
	</g>
	<g>
		<path fill="none" d="M450.4,215.4c-0.3,0.1-0.6,0.1-0.9-0.1c-0.2-0.3-0.1-0.5,0.1-0.8c0.3-0.1,0.6-0.1,0.9,0.1
			C450.7,214.9,450.6,215.3,450.4,215.4z"/>
		<path fill="none" d="M452.9,216.9c-0.6,0.4-1.5,0.6-2-0.1c-0.6-0.7-0.1-1.3,0.6-1.7c0.6-0.4,1.5-0.6,2.1,0
			C454.1,215.9,453.6,216.5,452.9,216.9z M452,215.8c-0.2,0.1-0.7,0.4-0.5,0.6c0.2,0.2,0.8-0.1,0.9-0.2c0.1-0.1,0.7-0.4,0.5-0.6
			C452.7,215.4,452.1,215.7,452,215.8z"/>
		<path fill="none" d="M455,217l-0.3,0.2l0,0c0.3,0,0.6,0.1,0.9,0.3l-0.7,0.4c0,0,0-0.1-0.1-0.1c-0.4-0.4-0.7-0.2-1.1,0l-1.3,0.8
			l-0.5-0.6l2.6-1.5L455,217z"/>
		<path fill="none" d="M453.2,220.1c-0.2,0.1-0.3,0.3-0.2,0.5c0.3,0.3,0.7,0,0.9-0.2l0.4-0.2l0,0c-0.1,0-0.3,0-0.4,0
			c-0.1,0-0.3-0.1-0.3-0.2c-0.2-0.3-0.1-0.5,0-0.8c0.1-0.3,0.5-0.5,0.8-0.7c0.5-0.3,1.4-0.8,1.9-0.2c0.2,0.2,0.1,0.5,0,0.6l0,0
			l0.3-0.2l0.5,0.6l-2.8,1.7c-0.8,0.5-1.3,0.4-1.8-0.2c-0.5-0.6-0.3-1,0.3-1.4L453.2,220.1L453.2,220.1z M455.2,219.6
			c0.1-0.1,0.7-0.4,0.5-0.6s-0.8,0.1-0.9,0.2c-0.2,0.1-0.7,0.4-0.5,0.6C454.5,220,455.1,219.7,455.2,219.6z"/>
	</g>
</g>
<g>
	<path fill="#242529" d="M462,189.2c8.5,1.5,15.7,11.9,16.6,18.8l0.9,1.4l-1.2-0.8c0,0-2,4.1-3.2,5c0,0,0.3-2.9,0-3.4
		c0,0-3.9,6.1-5.6,6.6c0,0,7.7,0.7,7.8,0.4c0,0-4.3,5.3-14.9,6c0,0-1.1,7.6-7.8,8c0,0-4.3-5-4.8-6.6c0,0-11.7-1.5-15.3-3.4
		c0,0-8,3.7-11.4,7.3c0,0,4.4-6.8,4.4-10c0-3.2-8.6-12.8-13.1-14.8c0,0,14.7,9.1,16.4,9.4c0,0,2-16.1,12.6-19.8l-2.4-15.4
		C441.1,177.8,455.5,176.2,462,189.2z"/>
	<path fill="#FFFFFF" d="M469.1,205.2c-1.1-0.3-3.3-1.5-4.7-2.6l0,0c-2.2,0.7-3.8,2.8-3.8,5.3c0,1.8,0.9,3.4,2.2,4.4
		c1.8-0.7,3.9-0.9,7.1-0.4c1.1-1,1.8-2.5,1.8-4.1c0-1-0.3-2-0.8-2.8C470.2,205.2,469.5,205.3,469.1,205.2z"/>
	<path fill="#FFFFFF" d="M462,200.2c0,0,0.2,0,0.4,0c0.3,0,0.7,0.1,1.2,0.2c1,0.3,2.1,0.9,3.2,1.6c0.3,0.2,0.5,0.4,0.8,0.6
		c0.3,0.2,0.5,0.4,0.7,0.6c0.5,0.3,1,0.5,1.4,0.5c0.4,0,0.8-0.2,1-0.4c0.2-0.2,0.4-0.3,0.4-0.3s-0.1,0.1-0.3,0.3
		c-0.2,0.2-0.5,0.5-1.1,0.6c-0.5,0.1-1.2-0.1-1.7-0.4c-0.3-0.2-0.5-0.4-0.8-0.5c-0.3-0.2-0.5-0.4-0.8-0.6c-1.1-0.7-2.2-1.4-3-1.8
		c-0.4-0.2-0.8-0.3-1.1-0.4C462.2,200.2,462,200.2,462,200.2z"/>
	<path fill="#E70219" d="M467.4,205.6c-0.2,0-0.4,0.1-0.5,0.2c0.2,0.1,0.3,0.2,0.3,0.4c0,0.2-0.2,0.4-0.4,0.4
		c-0.1,0-0.2-0.1-0.3-0.2c0,0.1,0,0.2,0,0.3c0,0.6,0.5,1,1,1c0.6,0,1-0.5,1-1C468.5,206,468,205.6,467.4,205.6z"/>
</g>
</svg>
