<?xml version="1.0" encoding="utf-8"?>
<!-- Generator: Adobe Illustrator 18.1.1, SVG Export Plug-In . SVG Version: 6.00 Build 0)  -->
<svg version="1.1" id="Layer_1" xmlns="http://www.w3.org/2000/svg" xmlns:xlink="http://www.w3.org/1999/xlink" x="0px" y="0px"
	 viewBox="0 0 243.8 243.8" enable-background="new 0 0 243.8 243.8" xml:space="preserve">
<linearGradient id="SVGID_1_" gradientUnits="userSpaceOnUse" x1="121.8862" y1="0" x2="121.8862" y2="243.7723">
	<stop  offset="0" style="stop-color:#ED6A32"/>
	<stop  offset="1" style="stop-color:#F18730"/>
</linearGradient>
<path fill="url(#SVGID_1_)" d="M121.9,0C54.6,0,0,54.6,0,121.9s54.6,121.9,121.9,121.9s121.9-54.6,121.9-121.9S189.2,0,121.9,0z
	 M121.9,20c25.8,0,49.3,9.6,67.3,25.4L20.8,109.3C27,59,69.9,20,121.9,20z M21.2,136.9L87,112l-34.3,84.6
	C36.1,181.2,24.6,160.4,21.2,136.9z M121.9,223.7c-17.1,0-33.2-4.2-47.4-11.7l45.6-112.6l8.1-3.1l-37.8,93.4l24.1,9.8l46.9-115.7
	l6.4-2.4l-41,101.1l24.1,9.8l50-123.5l6.4-2.4c10.4,16,16.5,35,16.5,55.5C223.7,178.1,178.1,223.7,121.9,223.7z"/>
<g>
	<g>
		<circle fill="none" cx="119.7" cy="78.6" r="0.2"/>
		<path fill="none" d="M119.8,79c-0.2,0.1-0.4,0-0.4-0.2s0-0.4,0.2-0.4s0.4,0,0.4,0.2S120,78.9,119.8,79z M119.6,78.5
			c-0.1,0-0.1,0.1-0.1,0.1c0,0.1,0.1,0.1,0.1,0.1c0.1,0,0.1-0.1,0.1-0.1C119.8,78.6,119.7,78.5,119.6,78.5z"/>
	</g>
	<g>
		<circle fill="none" cx="121.2" cy="79.3" r="0.2"/>
		<path fill="none" d="M121.3,79.6c-0.1,0-0.3,0-0.3-0.2c0-0.1,0-0.3,0.2-0.3c0.1,0,0.3,0,0.3,0.2S121.5,79.5,121.3,79.6z
			 M121.2,79.3C121.2,79.3,121.2,79.3,121.2,79.3C121.2,79.3,121.2,79.3,121.2,79.3C121.3,79.3,121.3,79.3,121.2,79.3
			C121.3,79.3,121.3,79.3,121.2,79.3z"/>
	</g>
	<g>
		<circle fill="none" cx="117.8" cy="78.6" r="0.2"/>
		<path fill="none" d="M117.9,79c-0.2,0.1-0.4-0.1-0.5-0.2s0.1-0.4,0.2-0.5c0.2-0.1,0.4,0.1,0.5,0.2C118.2,78.7,118.1,78.9,117.9,79
			z M117.8,78.5c-0.1,0-0.1,0.1-0.1,0.2c0,0.1,0.1,0.1,0.2,0.1c0.1,0,0.1-0.1,0.1-0.2C117.9,78.5,117.8,78.5,117.8,78.5z"/>
	</g>
	<g>
		<circle fill="none" cx="115.8" cy="79.2" r="0.3"/>
		<path fill="none" d="M115.9,79.7c-0.2,0.1-0.5-0.1-0.6-0.3c-0.1-0.2,0.1-0.5,0.3-0.6c0.2-0.1,0.5,0.1,0.6,0.3
			C116.3,79.4,116.2,79.6,115.9,79.7z M115.7,79c-0.1,0-0.2,0.2-0.1,0.3c0,0.1,0.2,0.2,0.3,0.1s0.2-0.2,0.1-0.3
			C116,79.1,115.9,79,115.7,79z"/>
	</g>
	<g>
		<circle fill="none" cx="113.7" cy="80.8" r="0.4"/>
		<path fill="none" d="M113.9,81.3c-0.3,0.1-0.6-0.1-0.6-0.3c-0.1-0.3,0.1-0.6,0.3-0.6c0.3-0.1,0.6,0.1,0.6,0.3
			C114.3,80.9,114.2,81.2,113.9,81.3z M113.7,80.5c-0.1,0-0.2,0.2-0.2,0.4c0,0.1,0.2,0.2,0.4,0.2c0.1,0,0.2-0.2,0.2-0.4
			C114,80.6,113.8,80.5,113.7,80.5z"/>
	</g>
	<g>
		<circle fill="none" cx="112.4" cy="83.6" r="0.4"/>
		<path fill="none" d="M112.6,84.1c-0.3,0.1-0.6-0.1-0.7-0.4c-0.1-0.3,0.1-0.6,0.4-0.7c0.3-0.1,0.6,0.1,0.7,0.4
			C113.1,83.8,112.9,84.1,112.6,84.1z M112.4,83.3c-0.2,0-0.3,0.2-0.2,0.4c0,0.2,0.2,0.3,0.4,0.2c0.2,0,0.3-0.2,0.2-0.4
			C112.7,83.4,112.5,83.3,112.4,83.3z"/>
	</g>
	<g>
		<circle fill="none" cx="113.1" cy="87.2" r="0.5"/>
		<path fill="none" d="M113.3,87.8c-0.3,0.1-0.7-0.1-0.8-0.4c-0.1-0.3,0.1-0.7,0.4-0.8c0.3-0.1,0.7,0.1,0.8,0.4
			C113.9,87.3,113.7,87.7,113.3,87.8z M113,86.8c-0.2,0.1-0.4,0.3-0.3,0.5s0.3,0.4,0.5,0.3c0.2-0.1,0.4-0.3,0.3-0.5
			C113.5,86.8,113.2,86.7,113,86.8z"/>
	</g>
	<g>
		<circle fill="none" cx="115.6" cy="90.2" r="0.7"/>
		<path fill="none" d="M115.8,91c-0.5,0.1-0.9-0.1-1.1-0.6c-0.1-0.5,0.1-0.9,0.6-1.1c0.5-0.1,0.9,0.1,1.1,0.6
			C116.5,90.4,116.3,90.9,115.8,91z M115.4,89.6c-0.3,0.1-0.5,0.4-0.4,0.8c0.1,0.3,0.4,0.5,0.8,0.4c0.3-0.1,0.5-0.4,0.4-0.8
			C116.1,89.7,115.7,89.5,115.4,89.6z"/>
	</g>
	<polygon fill="none" points="136.2,86.8 133,87.7 131.7,78.4 129,79.2 130.6,91.2 136.5,89.4 	"/>
	<g>
		<polygon fill="none" points="140.4,75.8 133,78 133.3,80.6 135.8,79.9 136.7,86.6 136.7,86.6 137.1,89.3 137.1,89.3 137.1,89.3 
			140,88.4 138.8,79 140.7,78.4 		"/>
		<polygon fill="none" points="148.4,73.4 146.6,81.5 142.9,75 141,75.6 140.9,75.6 141.3,78.8 146.1,86.6 148.4,85.9 151.6,72.4 		
			"/>
	</g>
	<path fill="none" d="M125.6,80.2l0.6,4.6l-3.7,1.1l-0.6-4.6l-3,0.9l1.3,9.5c0.5,0.2,0.9,0.6,1,1.2c0.1,0.4,0.1,0.8,0,1.1l2.3-0.7
		l-0.6-4.8l3.7-1.1l0.6,4.8l2.8-0.8l-1.6-12L125.6,80.2z"/>
	<circle fill="none" cx="119.5" cy="93.4" r="1.4"/>
</g>
</svg>
