<?xml version="1.0" encoding="utf-8"?>
<!-- Generator: Adobe Illustrator 18.1.1, SVG Export Plug-In . SVG Version: 6.00 Build 0)  -->
<svg version="1.1" id="Layer_2" xmlns="http://www.w3.org/2000/svg" xmlns:xlink="http://www.w3.org/1999/xlink" x="0px" y="0px"
	 viewBox="260.6 59.4 312 476.4" enable-background="new 260.6 59.4 312 476.4" xml:space="preserve">
<g>
	<g>
		<polygon fill="none" points="331.7,405.9 339.1,377.2 332,376.5 329.1,387.6 319.8,386.7 322.7,375.6 315.1,374.9 307.6,403.6 
			315.2,404.4 318.2,392.9 327.5,393.8 324.5,405.3 		"/>
		<polygon fill="none" points="349.7,401.2 341.5,400.5 347.4,378 340.4,377.3 332.9,406.2 348,407.6 		"/>
		<g>
			<polygon fill="none" points="369.1,380.3 350.2,378.4 348.5,384.7 354.9,385.3 350.6,401.4 350.6,401.4 349,407.7 349,407.7 
				349,407.6 356.5,408.5 362.5,386 367.4,386.5 			"/>
			<polygon fill="none" points="389.2,382.2 377.6,398.9 375.1,380.8 370.4,380.3 370,380.3 368.1,387.7 371.7,410 377.6,410.5 
				397.5,383 			"/>
		</g>
	</g>
	<g>
		<path fill="none" d="M391.4,409.8c-0.4,1.5-2,2.7-3.6,2.5s-2.5-1.6-2.2-3.1c0.4-1.5,2-2.7,3.6-2.5
			C390.8,406.8,391.7,408.2,391.4,409.8z"/>
		<path fill="none" d="M406,406.1c-1,3.8-3.3,7.7-7.8,7.2c-4.6-0.5-4.8-4.5-3.7-8.3c1-3.8,3.3-7.7,7.8-7.2
			C406.7,398.2,406.9,402.3,406,406.1z M398.6,405.4c-0.3,0.9-1,4,0.5,4.2c1.4,0.1,2.4-3,2.7-3.9c0.3-0.9,1-4.1-0.5-4.2
			C399.7,401.3,398.9,404.5,398.6,405.4z"/>
		<path fill="none" d="M413.9,399.2l-0.5,1.8l0,0c1.1-1.2,2.4-2,4.2-2l-1,4c-0.2-0.1-0.4-0.1-0.6-0.1c-2.8-0.3-3.3,1.5-4,3.8
			l-1.9,7.5l-4.2-0.4l3.9-14.9L413.9,399.2z"/>
		<path fill="none" d="M418.3,417c-0.2,1-0.2,2.2,1,2.2c1.9,0.1,2.3-2.7,2.7-4l0.5-1.9l0,0c-0.4,0.5-0.8,1-1.4,1.4
			c-0.5,0.4-1.1,0.6-1.9,0.5c-1.6-0.1-2.3-1.5-2.6-2.8c-0.4-1.5-0.1-3.6,0.3-5.2c0.7-2.7,2.6-8,6.3-7.6c1.4,0.1,2.2,1.1,2.4,2.5l0,0
			l0.5-1.8l4.2,0.4l-4.2,16.3c-1.1,4.4-3.6,6-7.3,5.5c-3.7-0.4-4.7-2.6-4.1-6L418.3,417z M424.3,407.8c0.2-0.8,1-4-0.4-4.2
			c-1.4-0.1-2.4,3-2.6,3.8c-0.2,1-1,4.1,0.5,4.2C423.1,411.8,424,408.6,424.3,407.8z"/>
	</g>
</g>
<g>
	<path fill="#D10212" d="M341,59.4H363c17.4,1.9,35.1,3.9,51.4,10.8c21.7,8.5,40.3,26.5,47.2,49c4.8,22.3-2.2,47.1-19,62.8
		c-9.2,8.9-20.4,15.4-31.6,21.4c-17.9,10-33.7,24.7-43,43.2c-11.8,24.1-12.5,53.6-1.7,78.2c13.3,30.1,43.3,52.2,76.2,55.1
		c18.2,1.3,37.6-0.2,53.8-9.4c19-11.5,29.9-32.7,34.7-53.8c3,22.7,2.2,46.6-7,67.9c-10.4,23.9-31,42.7-54.9,52.6
		c-33.3,15.8-72.4,18-107.6,7.6c-40.9-12.5-77.3-43.2-92.9-83.4c-6.9-18.3-8.9-38-8-57.4c1.1-26.9,11.2-54.1,3.4-80.9
		c10.5,10.6,12.7,25.6,14.8,39.7c5.7-29.6,22.9-56.9,47.4-74.4c18.1-13.2,39.2-21.3,60.2-28.4c12.6-4.7,26.3-9.4,34.7-20.5
		c11.2-15,8.7-37.8-5-50.4C396,69.6,367.3,64.5,341,59.4z"/>
	<path fill="#D10212" d="M415.2,229.6c42.3-29.3,106.9-20.1,138.5,20.8c25,33.3,22.4,79.4,8.6,116.7c2.7-29,2.4-60-11.7-86.3
		c-13.7-25.2-42.2-41.4-70.8-40.4c-15.1,0.4-30.6,6-41.1,17.2c-10.8,12-12.1,30-7.7,44.9c1.7-13.7,8-28.1,20.7-35
		c17.5-9,41.8-5.5,54,10.7c12.4,15.9,11.5,40.2-1.4,55.6c-25.8,35.6-86.4,32.3-110.8-3.2C371.4,298.2,384.7,251.5,415.2,229.6z"/>
	<path fill="#D10212" d="M481,461.2c32.9-19.5,51.2-55.6,62-91c5.6,28.6-1.1,58.6-15.4,83.7c-21.9,38-58.4,67.5-99.7,81.9
		c16.6-10.6,31.8-23.6,44.5-38.8c-60,15.4-125.1,11.7-182.8-10.9c32.8,6.1,66.3,8.8,99.6,5.9C421.5,489.1,454.3,480.4,481,461.2z"/>
</g>
</svg>
