<?xml version="1.0" encoding="utf-8"?>
<!-- Generator: Adobe Illustrator 18.1.1, SVG Export Plug-In . SVG Version: 6.00 Build 0)  -->
<svg version="1.1" id="Layer_2" xmlns="http://www.w3.org/2000/svg" xmlns:xlink="http://www.w3.org/1999/xlink" x="0px" y="0px"
	 viewBox="0 0 186.7 186.7" enable-background="new 0 0 186.7 186.7" xml:space="preserve">
<g>
	<g>
		<polygon fill="none" points="87.3,149.4 89.4,136.6 86.3,136.6 85.4,141.6 81.4,141.6 82.2,136.6 78.8,136.6 76.8,149.4 
			80.1,149.4 80.9,144.3 85,144.3 84.2,149.4 		"/>
		<polygon fill="none" points="95,146.6 91.4,146.6 93,136.6 89.9,136.6 87.9,149.4 94.5,149.4 		"/>
		<g>
			<polygon fill="none" points="102.5,136.6 94.2,136.6 93.8,139.4 96.5,139.4 95.4,146.6 95.4,146.6 95,149.4 95,149.4 95,149.4 
				98.3,149.4 99.9,139.4 102.1,139.4 			"/>
			<polygon fill="none" points="111.4,136.6 107,144.4 105.2,136.6 103.1,136.6 102.9,136.6 102.4,139.9 104.9,149.4 107.5,149.4 
				115,136.6 			"/>
		</g>
	</g>
	<g>
		<path fill="none" d="M113.5,148.5c-0.1,0.7-0.8,1.3-1.4,1.3c-0.7,0-1.2-0.6-1-1.3c0.1-0.7,0.8-1.3,1.4-1.3
			S113.6,147.8,113.5,148.5z"/>
		<path fill="none" d="M119.6,146.3c-0.3,1.7-1.1,3.5-3.1,3.5c-2,0-2.3-1.8-2-3.5s1.1-3.5,3.1-3.5
			C119.6,142.8,119.9,144.6,119.6,146.3z M116.4,146.3c0,0.4-0.3,1.8,0.4,1.8c0.6,0,0.9-1.4,0.9-1.8c0-0.4,0.3-1.8-0.4-1.8
			C116.7,144.5,116.5,145.9,116.4,146.3z"/>
		<path fill="none" d="M122.8,142.9l-0.1,0.8h0c0.5-0.6,0.9-1,1.7-1l-0.3,1.8c-0.1,0-0.2,0-0.3,0c-1.3,0-1.4,0.8-1.5,1.8l-0.5,3.3
			H120l1-6.7H122.8z"/>
		<path fill="none" d="M125.6,150.5c0,0.4,0,0.9,0.5,0.9c0.8,0,0.9-1.3,1-1.8l0.1-0.9h0c-0.2,0.2-0.4,0.5-0.5,0.7
			c-0.2,0.2-0.5,0.3-0.8,0.3c-0.7,0-1-0.5-1.3-1.1c-0.2-0.7-0.2-1.5-0.1-2.3c0.2-1.2,0.8-3.6,2.4-3.6c0.6,0,1,0.4,1.1,0.9h0l0.1-0.8
			h1.8l-1.2,7.3c-0.3,1.9-1.3,2.7-2.9,2.7c-1.6,0-2.2-0.9-2-2.4L125.6,150.5L125.6,150.5z M127.7,146.2c0-0.4,0.3-1.8-0.4-1.8
			c-0.6,0-0.9,1.4-0.9,1.8c0,0.4-0.3,1.8,0.4,1.8C127.4,148,127.7,146.6,127.7,146.2z"/>
	</g>
</g>
<g>
	<linearGradient id="SVGID_1_" gradientUnits="userSpaceOnUse" x1="124.5419" y1="81.5398" x2="129.8821" y2="66.8676">
		<stop  offset="0" style="stop-color:#FC6E03"/>
		<stop  offset="1" style="stop-color:#EF4A18"/>
	</linearGradient>
	<circle fill="url(#SVGID_1_)" cx="127.2" cy="74.2" r="7.8"/>
	<linearGradient id="SVGID_2_" gradientUnits="userSpaceOnUse" x1="140.8507" y1="67.0228" x2="146.1909" y2="52.3506">
		<stop  offset="0" style="stop-color:#FC6E03"/>
		<stop  offset="1" style="stop-color:#EF4A18"/>
	</linearGradient>
	<circle fill="url(#SVGID_2_)" cx="143.5" cy="59.7" r="7.8"/>
	<linearGradient id="SVGID_3_" gradientUnits="userSpaceOnUse" x1="50.8204" y1="124.3205" x2="102.2508" y2="-16.9832">
		<stop  offset="0" style="stop-color:#FC6E03"/>
		<stop  offset="1" style="stop-color:#EF4A18"/>
	</linearGradient>
	<path fill="url(#SVGID_3_)" d="M54.1,43.6c11.1,0,24.1,5.2,31.9,3.3c7.8-2,15.6-21.5,39-21.5c14.9,0,26.3,9.7,36.1,22.3L148.9,0
		L0,37.8l19,75C20.4,50,43.2,43.6,54.1,43.6z"/>
	<linearGradient id="SVGID_4_" gradientUnits="userSpaceOnUse" x1="53.6897" y1="96.2526" x2="65.4757" y2="63.8708">
		<stop  offset="0" style="stop-color:#FC6E03"/>
		<stop  offset="1" style="stop-color:#EF4A18"/>
	</linearGradient>
	<polygon fill="url(#SVGID_4_)" points="74.1,70.3 64.6,72.3 62.5,62.8 49.8,65.5 51.8,75.1 42.3,77.1 45.1,89.8 54.6,87.8 
		56.6,97.3 69.3,94.6 67.3,85.1 76.8,83 	"/>
	<linearGradient id="SVGID_5_" gradientUnits="userSpaceOnUse" x1="86.9243" y1="204.5645" x2="125.9917" y2="97.2276">
		<stop  offset="0" style="stop-color:#FC6E03"/>
		<stop  offset="1" style="stop-color:#EF4A18"/>
	</linearGradient>
	<path fill="url(#SVGID_5_)" d="M178.4,116.3c-2,3-4.5,4.7-7.3,4.7c-11.1,0-41-18.2-41-18.2l-29.3,8.5l-24.7,6.5
		c-14.8,16.4-26.8,34.6-39,36.4c0,0-4.6-0.8-9.2-6.1l9.8,38.6l148.9-37.8L178.4,116.3z"/>
	<linearGradient id="SVGID_6_" gradientUnits="userSpaceOnUse" x1="116.7371" y1="59.218" x2="122.0773" y2="44.5458">
		<stop  offset="0" style="stop-color:#FC6E03"/>
		<stop  offset="1" style="stop-color:#EF4A18"/>
	</linearGradient>
	<circle fill="url(#SVGID_6_)" cx="119.4" cy="51.9" r="7.8"/>
</g>
</svg>
