<?xml version="1.0" encoding="utf-8"?>
<!-- Generator: Adobe Illustrator 18.1.1, SVG Export Plug-In . SVG Version: 6.00 Build 0)  -->
<svg version="1.1" id="Layer_2" xmlns="http://www.w3.org/2000/svg" xmlns:xlink="http://www.w3.org/1999/xlink" x="0px" y="0px"
	 viewBox="369.2 135.4 149.7 237.1" enable-background="new 369.2 135.4 149.7 237.1" xml:space="preserve">
<g>
	<g>
		<polygon fill="none" points="379.1,311.5 387.6,306.3 386.1,304.5 382.8,306.5 380.7,304.1 384.1,302.1 382.4,300.2 373.8,305.3 
			375.5,307.3 378.9,305.2 380.9,307.6 377.6,309.7 		"/>
		<polygon fill="none" points="384.5,314.6 382.7,312.5 389.4,308.5 387.9,306.6 379.3,311.9 382.7,315.7 		"/>
		<g>
			<polygon fill="none" points="394.2,314.1 390,309.2 388.1,310.4 389.6,312 384.7,314.9 384.7,314.9 382.8,316 382.8,316 
				382.8,316 384.5,318 391.2,314 392.2,315.2 			"/>
			<polygon fill="none" points="398.6,319.3 391.8,320.6 395.5,315.6 394.5,314.4 394.4,314.4 392.1,315.7 387.8,321.9 389.1,323.4 
				400.3,321.5 			"/>
		</g>
	</g>
	<g>
		<path fill="none" d="M392.5,326.5c-0.4,0.2-1.1,0.2-1.5-0.2c-0.4-0.4-0.2-0.9,0.2-1.3c0.4-0.2,1.1-0.2,1.5,0.2
			C393.2,325.6,393,326.2,392.5,326.5z"/>
		<path fill="none" d="M397,329c-1.1,0.7-2.6,1.1-3.5-0.1c-1-1.2-0.1-2.2,1.1-2.9c1.1-0.7,2.6-1.1,3.6,0.1
			C399,327.3,398.1,328.3,397,329z M395.3,327.2c-0.3,0.1-1.2,0.7-0.9,1.1s1.3-0.2,1.6-0.3c0.2-0.1,1.2-0.7,0.9-1.1
			C396.6,326.4,395.7,327,395.3,327.2z"/>
		<path fill="none" d="M400.5,329.2l-0.6,0.3l0,0c0.6,0,1,0.1,1.5,0.5l-1.2,0.7c-0.1-0.1-0.1-0.1-0.1-0.1c-0.6-0.7-1.2-0.4-1.9,0
			L396,332l-0.9-1.1l4.5-2.7L400.5,329.2z"/>
		<path fill="none" d="M397.4,334.6c-0.3,0.2-0.6,0.5-0.3,0.8c0.4,0.5,1.2-0.1,1.6-0.3l0.6-0.3l0,0c-0.2,0-0.4,0.1-0.7,0
			c-0.2,0-0.4-0.1-0.6-0.3c-0.4-0.4-0.2-0.9,0-1.3c0.2-0.4,0.8-0.9,1.3-1.2c0.8-0.4,2.5-1.3,3.3-0.4c0.3,0.4,0.2,0.8,0,1.1l0,0
			l0.6-0.3l0.9,1.1l-4.9,2.9c-1.3,0.8-2.3,0.6-3-0.4c-0.8-1-0.5-1.7,0.4-2.4L397.4,334.6L397.4,334.6z M401,333.7
			c0.2-0.1,1.2-0.7,0.9-1.1s-1.3,0.2-1.6,0.3c-0.3,0.2-1.2,0.7-0.8,1.1C399.7,334.4,400.8,333.9,401,333.7z"/>
	</g>
</g>
<g>
	<polygon fill="#232323" points="440.9,235.5 440.9,173.6 416,148.6 416,304.1 405.1,315.4 394.2,304.1 394.2,185.6 369.2,210.6 
		369.2,315.9 405.1,351.7 440.9,315.9 440.9,271 458.7,253.2 	"/>
	<polygon fill="#232323" points="514.1,270.8 496.5,253.2 514.2,235.5 514.2,214.5 518.9,212.3 512.5,206 512.5,206 489.2,182.7 
		489.2,224.5 479.5,234.1 469.9,224.5 469.9,170.6 475.3,168.1 469.9,162.6 469.9,162.6 468.9,161.6 468.9,161.6 468.9,161.6 
		444.9,137.6 444.9,137.8 442.4,135.4 444.9,147.1 444.9,147.1 444.9,237.3 460.9,253.3 444.9,269.3 444.9,361.1 442.4,372.6 
		444.9,370.1 444.9,370.1 469.5,345.5 469.5,345.1 473.4,341.3 469.5,337.4 469.5,281.6 478.8,272.3 488.2,281.7 488.2,326.4 
		511.6,303.1 518,296.7 514.1,292.9 	"/>
</g>
</svg>
