<?xml version="1.0" encoding="utf-8"?>
<!-- Generator: Adobe Illustrator 18.1.1, SVG Export Plug-In . SVG Version: 6.00 Build 0)  -->
<svg version="1.1" id="Layer_3" xmlns="http://www.w3.org/2000/svg" xmlns:xlink="http://www.w3.org/1999/xlink" x="0px" y="0px"
	 viewBox="149.9 10.2 542.6 575.4" enable-background="new 149.9 10.2 542.6 575.4" xml:space="preserve">
<g>
	<g>
		<polygon fill="none" points="252,98.7 256.5,70.2 249.6,70.2 247.9,81.2 238.8,81.2 240.5,70.2 233.1,70.2 228.6,98.7 236,98.7 
			237.8,87.4 246.9,87.4 245.1,98.7 		"/>
		<polygon fill="none" points="269,92.4 261.1,92.4 264.6,70.2 257.8,70.2 253.3,98.7 268,98.7 		"/>
		<g>
			<polygon fill="none" points="285.7,70.2 267.3,70.2 266.3,76.5 272.4,76.5 269.9,92.4 269.9,92.4 268.9,98.7 268.9,98.7 
				269,98.7 276.3,98.7 279.8,76.5 284.7,76.5 			"/>
			<polygon fill="none" points="305.4,70.2 295.8,87.5 291.6,70.2 286.9,70.2 286.7,70.2 285.5,77.6 291,98.7 296.8,98.7 
				313.4,70.2 			"/>
		</g>
	</g>
	<g>
		<path fill="none" d="M310.1,96.6c-0.2,1.5-1.7,2.8-3.2,2.8c-1.6,0-2.6-1.3-2.3-2.8c0.2-1.5,1.7-2.8,3.2-2.8S310.3,95.1,310.1,96.6
			z"/>
		<path fill="none" d="M323.7,91.7c-0.6,3.8-2.4,7.7-6.9,7.7c-4.4,0-5-3.9-4.4-7.7c0.6-3.8,2.4-7.7,6.9-7.7
			C323.8,84,324.3,87.9,323.7,91.7z M316.6,91.7c-0.1,0.9-0.6,4,0.9,4c1.4,0,2-3.1,2.1-4c0.1-0.9,0.6-4-0.9-4
			C317.3,87.7,316.8,90.8,316.6,91.7z"/>
		<path fill="none" d="M330.8,84.3l-0.3,1.8h0.1c1-1.3,2.1-2.2,3.8-2.3l-0.6,4c-0.2,0-0.4-0.1-0.6-0.1c-2.8,0-3.1,1.8-3.4,4
			l-1.2,7.4h-4.1l2.3-14.8H330.8z"/>
		<path fill="none" d="M336.8,101c-0.1,0.9,0,2.1,1.2,2.1c1.8,0,2-2.8,2.2-4.1l0.3-1.9h-0.1c-0.4,0.5-0.8,1.1-1.2,1.5
			c-0.5,0.4-1.1,0.7-1.8,0.7c-1.5,0-2.3-1.2-2.8-2.5c-0.5-1.5-0.4-3.4-0.2-5c0.4-2.6,1.7-7.9,5.3-7.9c1.4,0,2.2,0.9,2.5,2.1h0.1
			l0.3-1.8h4.1l-2.6,16.1c-0.7,4.3-2.9,6.1-6.5,6.1c-3.5,0-4.8-2-4.5-5.4H336.8z M341.6,91.6c0.1-0.8,0.6-4-0.8-4
			c-1.4,0-2,3.1-2.1,4c-0.1,0.9-0.6,4,0.9,4C340.9,95.6,341.5,92.4,341.6,91.6z"/>
	</g>
</g>
<g id="NDhPiu.tif_1_">
	<g>
		<path fill="#77ED29" d="M650.9,348c0.8,0.5,1.6,0.9,2.5,1.4c9.4,3.6,15.3,10.9,19.5,19.7c4.4,9.1,6.6,19.1,7.6,29.1
			c0.9,10.4,1.9,20.9,2.8,31.3c1.1,11.5,2.4,23,3.5,34.5c0.8,8,1.3,16.1,2,24.1c0.8,8.8,1.7,17.8,2.4,26.6
			c0.9,12.8,2.2,25.7,0.2,38.4c-1.3,8.7-4.1,17-10.6,23.3c-5.2,5-11.7,7.4-18.7,8.5c-11.7,1.7-22.7-0.9-33.9-3.6
			c-12.4-3-24.9-5.7-37.3-8.7c-9.3-2.2-18.4-4.6-27.6-6.9c-16.1-3.9-32-7.9-48-11.8c-15.1-3.8-30.2-7.7-45.4-11.7
			c-7.1-1.7-14-3.6-21.1-5.2c-2.2-0.5-2.8-1.6-2.8-3.8c0-29.1,0-58.4-0.2-87.6c0-2.4,0-4.9,0.2-7.2c0-3.5,0.5-3.8,3.9-2.8
			c6,1.6,12,3.3,18,4.9c14.5,3.9,29.1,7.9,43.6,11.8c14.3,3.9,28.5,7.9,42.8,11.7c5.5,1.4,11.2,2.5,16.5,4.4
			c5.4,1.7,11.3-1.3,11.2-9.1c-0.2-7.6-0.6-15.1-1.1-22.7c-0.5-7.7-1.1-15.3-1.7-23c-0.8-10.4-1.6-20.6-2.7-31
			c-0.5-4.6-3.1-8-7.6-9.4c-6.9-2.4-13.9-4.4-20.8-6.3c-10.9-3.1-21.9-6-32.8-9c-9.1-2.4-18.1-4.9-27.2-7.1
			c-4.1-1.1-6.6-3.1-6.8-7.6c-0.3-14.3-0.5-28.5-0.6-42.8c-0.2-9,0-18.1-0.2-27.1c0-2.8,1.9-2.2,3.1-1.9c4.1,0.9,8,1.9,12.1,3
			c10.6,3,20.9,6,31.5,9c8.2,2.4,16.2,4.9,24.6,7.1c3.8,0.9,7.6,1.7,11.3,2.2c5.7,0.8,7.2-2.2,7.6-7.1c0.3-3.9,0-7.7-0.2-11.7
			c-0.5-11.2-0.9-22.4-1.6-33.5c-0.3-6.5-0.9-12.8-1.4-19.2c-0.3-3.8-2.7-5.8-6.1-6.9c-7.7-2.4-15.3-4.7-23-7.1
			c-15.1-4.6-30.1-9.1-45.2-13.7c-15.3-4.6-30.4-9.1-45.7-13.7c-2.5-0.8-3.6-2-3.6-4.7c0-22.2,0-44.4-0.2-66.6c0-5.5,0-11,0-16.7
			c0-3.5,0.9-4.1,4.4-3c14.3,4.4,28.8,8.8,43.1,13.4c18.9,6,37.8,12.3,56.7,18.3c12.3,3.9,24.7,7.6,37,11.5
			c12,3.9,24.3,7.2,35.6,13.1c17.6,9.3,29.8,23,35,42.4c1.7,6.3,2.4,12.8,3.1,19.2c0.9,8.5,1.7,17,2.5,25.5
			c0.8,7.6,1.4,15.3,2.2,22.8c1.1,10.9,2.4,21.6,3.5,32.4c0.3,3.6,0.8,7.1,1.1,10.7c0.6,9.8,1.4,19.4,1.7,29.1
			c0.2,3.5-0.8,6.9-1.7,10.2c-1.7,5.2-5.5,8.3-11,9.1c-2,0.3-4.1,0.5-6,0.6C651,347.6,651,347.7,650.9,348z"/>
		<path fill="#77ED29" d="M386.5,318.9c-10.1-3-19.5-5.7-29-8.3c-10.4-3-20.8-5.8-31.2-8.8c-9-2.5-18-5.2-26.9-7.7
			c-2.8-0.8-5.2,1.1-5.4,4.1c-0.6,12.3-1.1,24.4-1.7,36.7c-0.8,14.2-1.9,28.3-2.7,42.5c-0.5,8.7-0.6,17.3-1.1,26
			c-0.8,12.9-1.7,25.8-2.5,38.6c-0.5,7.1-0.8,14.2-1.1,21.3c-0.3,8.2-0.6,16.2-0.9,24.4c-0.2,2.4-0.3,4.9-0.9,7.1
			c-0.8,3-3.5,1.7-5.2,1.3c-8.8-1.9-17.6-4.1-26.3-6.3c-7.4-1.7-14.8-3.6-22.2-5.4c-9.9-2.4-20-4.6-29.9-6.9
			c-9.9-2.4-19.7-4.9-29.4-7.2c-5-1.3-10.1-2.4-15.1-3.8c-1.6-0.5-3.1-1.7-4.4-2.8c-0.5-0.3-0.6-1.4-0.5-2c0.6-4.3,1.4-8.5,1.9-12.9
			c1.3-10.2,2.4-20.5,3.5-30.6c0.8-7.1,1.3-14.3,2-21.4c0.8-6.8,1.6-13.4,2.4-20.2c0.8-6.6,1.4-13.4,2.2-20
			c0.8-7.4,1.6-14.8,2.4-22.2c0.8-7.2,1.6-14.5,2.4-21.7c0.8-7.2,1.6-14.5,2.5-21.6c0.8-6.6,1.4-13.1,2.2-19.7
			c0.8-7.7,1.7-15.4,2.5-23.1c0.8-7.2,1.4-14.6,2.2-21.9c0.8-6.8,1.6-13.5,2.4-20.2c0.8-7.1,1.4-14,2.2-21.1
			c0.8-7.2,1.6-14.5,2.4-21.7c0.8-6.8,1.4-13.7,2.2-20.5c0.8-7.6,1.6-15,2.4-22.5c0.8-7.4,1.4-14.6,2.2-22
			c0.8-6.8,1.6-13.7,2.4-20.5c0.3-3.1,0.8-6.1,1.1-9.3c1.1-10.4,2-20.6,3.1-31c0.8-7.7,1.9-15.6,2.8-23.3c0.3-2.7,3.5-4.4,6.1-3.6
			c12.1,4.1,24.3,8.2,36.4,12.1c10.2,3.3,20.6,6.5,30.9,9.8c13.9,4.4,27.7,9,41.6,13.4c14.5,4.6,29,9.1,43.5,13.7
			c13.2,4.3,26.3,8.7,39.4,12.9c8,2.5,16.1,5,24.1,7.6c4.3,1.4,4.1,1.4,4.1,6.1c0,14.8,0,29.6,0,44.4c0,11.3,0.2,22.5,0.3,33.9
			c0,1.1,0,2.4-0.2,3.5c-0.6,3.9-2.4,4.7-6.3,3.5c-11.5-3.6-22.8-7.2-34.3-10.7c-9.4-3-18.9-5.8-28.3-8.7
			c-10.9-3.3-21.9-6.6-32.8-9.9c-5.4-1.6-10.7-3.3-15.9-5c-2.5-0.8-3.9,0-4.1,2.4c-0.6,5.2-1.3,10.4-1.4,15.6
			c-0.8,16.4-1.3,32.8-2,49.1c-0.2,2.2-0.5,4.4-0.8,6.6c-0.5,3,0.9,4.6,3.6,5.4c13.4,3.8,26.9,7.4,40.3,11.3c14,3.9,28,8,42.2,12.1
			c2.5,0.8,3.5,2.4,3.5,5c-0.2,12.6,0,25.4-0.2,38c-0.2,10.7-0.6,21.6-0.9,32.3C387.2,316.1,386.8,317.3,386.5,318.9z"/>
		<path d="M423.1,469.6c0,18.7,0,37.5,0,56.4c0,0.9,0,1.9-0.2,2.8c-0.2,2.8-0.9,3.3-3.6,2.7c-6.1-1.6-12.3-2.8-18.4-4.4
			c-9-2.2-18-4.7-26.9-6.9c-5.7-1.4-11.2-2.7-16.9-4.1c-6.5-1.6-12.9-3.3-19.4-5c-5.5-1.4-11-2.8-16.5-4.3c-4.6-1.3-9-2.4-13.4-3.8
			c-2.7-0.9-3.8-3.1-3.8-6c0.3-10.1,0.6-20.2,1.1-30.2c0.6-13.9,1.3-27.7,1.9-41.6c0.3-6.8,0.6-13.5,0.9-20.3
			c0.3-4.1,1.9-5.7,6.3-4.3c6.3,1.9,12.8,3.3,19.1,5c6.3,1.7,12.8,3.5,19.1,5.2c5.2,1.4,10.6,2.7,15.7,4.1c6.3,1.7,12.6,3.3,18.7,5
			c7.6,2,15,4.1,22.5,6.1c3.6,0.9,7.4,1.6,10.7,3c1.4,0.6,2.8,3.3,2.8,5.2C423.1,445.7,423,457.6,423.1,469.6L423.1,469.6z"/>
	</g>
</g>
</svg>
