<?xml version="1.0" encoding="utf-8"?>
<!-- Generator: Adobe Illustrator 18.1.1, SVG Export Plug-In . SVG Version: 6.00 Build 0)  -->
<svg version="1.1" id="Layer_3" xmlns="http://www.w3.org/2000/svg" xmlns:xlink="http://www.w3.org/1999/xlink" x="0px" y="0px"
	 viewBox="148.3 101.3 545.2 392.7" enable-background="new 148.3 101.3 545.2 392.7" xml:space="preserve">
<g>
	<g>
		<polygon fill="none" points="235,391.3 239.5,362.9 232.6,362.9 230.8,373.9 221.8,373.9 223.5,362.9 216.1,362.9 211.6,391.3 
			219,391.3 220.8,380 229.9,380 228.1,391.3 		"/>
		<polygon fill="none" points="252,385.1 244.1,385.1 247.6,362.9 240.7,362.9 236.2,391.3 251,391.3 		"/>
		<g>
			<polygon fill="none" points="268.7,362.9 250.3,362.9 249.3,369.1 255.4,369.1 252.9,385.1 252.9,385.1 251.9,391.3 251.9,391.3 
				251.9,391.3 259.3,391.3 262.8,369.1 267.7,369.1 			"/>
			<polygon fill="none" points="288.3,362.9 278.7,380.2 274.6,362.9 269.9,362.9 269.6,362.9 268.4,370.3 274,391.3 279.7,391.3 
				296.4,362.9 			"/>
		</g>
	</g>
	<g>
		<path fill="none" d="M293.1,389.3c-0.2,1.5-1.7,2.8-3.2,2.8c-1.6,0-2.6-1.3-2.3-2.8c0.2-1.5,1.7-2.8,3.2-2.8
			S293.3,387.8,293.1,389.3z"/>
		<path fill="none" d="M306.7,384.4c-0.6,3.8-2.4,7.7-6.9,7.7c-4.4,0-5-3.9-4.4-7.7c0.6-3.8,2.4-7.7,6.9-7.7
			C306.7,376.6,307.3,380.6,306.7,384.4z M299.6,384.4c-0.1,0.9-0.6,4,0.9,4c1.4,0,2-3.1,2.1-4c0.1-0.9,0.6-4-0.9-4
			C300.2,380.4,299.7,383.5,299.6,384.4z"/>
		<path fill="none" d="M313.8,376.9l-0.3,1.8h0.1c1-1.3,2.1-2.2,3.8-2.3l-0.6,4c-0.2,0-0.4-0.1-0.6-0.1c-2.8,0-3.1,1.8-3.4,4
			l-1.2,7.4h-4.1l2.3-14.8H313.8z"/>
		<path fill="none" d="M319.8,393.7c-0.1,0.9,0,2.1,1.2,2.1c1.8,0,2-2.8,2.2-4.1l0.3-1.9h-0.1c-0.4,0.5-0.8,1.1-1.2,1.5
			c-0.5,0.4-1.1,0.7-1.8,0.7c-1.5,0-2.3-1.2-2.8-2.5c-0.5-1.5-0.4-3.4-0.2-5c0.4-2.6,1.7-7.9,5.3-7.9c1.4,0,2.2,0.9,2.5,2.1h0.1
			l0.3-1.8h4.1l-2.6,16.1c-0.7,4.3-2.9,6.1-6.5,6.1c-3.5,0-4.8-2-4.5-5.4H319.8z M324.6,384.3c0.1-0.8,0.6-4-0.8-4
			c-1.4,0-2,3.1-2.1,4c-0.1,0.9-0.6,4,0.9,4C323.9,388.3,324.5,385.1,324.6,384.3z"/>
	</g>
</g>
<g id="n6WnU2.tif">
	<g>
		<path d="M437,101.3c2.4,0.3,4.7,0.8,6.9,1.1c15,1.6,28.5,6.6,40.6,15.4c12.4,9.1,20.9,21.3,26.5,36.1c-8.8-4.1-17.6-6.3-26.8-7.7
			c-9.4-1.3-18.9-1.9-28.3-0.9c-10.6,0.9-20.9,2.8-31,6.5c-10.4,3.8-19.7,9.1-28,16.4c-8,6.9-14,15.6-19.8,24.3
			c-22.2,32.3-44.3,64.7-66.3,97.3c-9.9,14.6-19.5,29.6-29.3,44.4c-0.3,0.6-0.6,1.3-1.3,2.4c9.3,0,18,0.2,26.6,0
			c21.1-0.6,38.7-9.9,54.5-23.1c1.4-1.3,3-2.4,4.7-3.8c0.2,0.5,0.3,0.6,0.3,0.9c0.2,14.2,0.3,28.5,0.6,42.7
			c0.2,7.1,0.5,14.2,0.5,21.3c0.2,14-8.7,25.4-22.2,29c-2.2,0.6-4.4,0.6-6.6,0.6c-62,0-124.3,0-186.3,0c-1.3,0-2.7,0.2-3.9,0.3
			c0-0.2,0-0.3,0-0.6c0.3-0.5,0.8-0.9,1.1-1.4c19.2-27.2,38.6-54.3,57.8-81.6c23.5-33.1,46.9-66.1,70.2-99.2
			c13.7-19.4,27.6-38.6,41.1-58.1c9.1-13.2,19.2-25.5,32.3-35c19.5-14.3,41.1-23.1,65-26c2.5-0.3,5-0.8,7.7-1.1
			C428,101.3,432.4,101.3,437,101.3z"/>
		<path d="M475.9,285.2c-0.2-2.8-0.3-5.8-0.3-8.7c-0.2-15.6-0.5-31.3-0.6-46.9c0-4.4-0.2-8.8,0-13.2c0.6-10.9,11.2-22.5,22-24.4
			c2.2-0.3,4.4-0.6,6.6-0.6c62,0,124.1,0,186,0c1.1,0,2.2,0,3.9,0c-1.9,2.7-3.5,5.2-5.2,7.6c-16.9,23.8-33.7,47.6-50.6,71.2
			c-20.6,29-41.3,58-61.7,87.1c-18.6,26.1-37,52.3-55.4,78.4c-7.1,10.1-14.8,19.5-24.3,27.2c-16.4,13.4-35,22.5-55.6,27.6
			c-12.3,3-24.6,4.1-37.2,3.3c-18.1-1.3-35-6.6-49.3-18.3c-10.9-8.7-18.3-19.8-23.3-32.6c-0.2-0.2,0-0.5,0-0.6
			c5.7,1.7,11.3,3.6,17.2,5c11,2.7,22.2,3.3,33.5,3c11-0.5,21.9-2.2,32.4-5.7c15.1-4.9,28.3-12.9,38.4-25.2
			c7.7-9.3,14.5-19.2,21.3-29.3c29-42.8,57.8-86,86.6-129c0.3-0.5,0.6-1.1,0.8-1.4c-32.3-4.7-60.9,2.7-84.7,26.1
			C476.4,285.7,476.1,285.4,475.9,285.2z"/>
		<path d="M500.6,171.2c-4.4,1.3-8.8,2-12.9,3.6c-18.7,7.2-30.4,20.9-34.6,40.6c-0.9,4.3-1.3,8.8-1.3,13.1
			c-0.2,44.7,0.2,89.4-0.2,134.2c-0.2,14-4.9,27.1-13.9,38.1c-12,15-28,22.8-46.6,26.6c-9,1.9-18.1,2.2-27.1,1.4
			c-7.2-0.6-14.3-2.5-21.6-3.9c0-0.3,0-0.8,0.2-1.1c2-0.3,3.9-0.6,6-1.1c9-2,16.9-6.1,23.9-12.1c9.8-8.3,15.6-18.9,18-31.3
			c0.8-4.7,0.9-9.4,0.9-14.3c0-42.7,0-85.4,0-128c0-10.9,2-21.4,6.9-31.2c7.6-15.4,19.7-25.8,35.3-32.4c10.9-4.6,22.4-6.9,34.2-7.2
			C481.1,166,491.7,167.7,500.6,171.2z"/>
	</g>
</g>
</svg>
