<?xml version="1.0" encoding="utf-8"?>
<!-- Generator: Adobe Illustrator 18.1.1, SVG Export Plug-In . SVG Version: 6.00 Build 0)  -->
<svg version="1.1" id="Layer_2" xmlns="http://www.w3.org/2000/svg" xmlns:xlink="http://www.w3.org/1999/xlink" x="0px" y="0px"
	 viewBox="208.3 66.1 414.4 475.2" enable-background="new 208.3 66.1 414.4 475.2" xml:space="preserve">
<g>
	<g>
		<polygon fill="none" points="340.3,221.3 344.8,192.8 337.9,192.8 336.2,203.8 327.1,203.8 328.8,192.8 321.4,192.8 316.9,221.3 
			324.3,221.3 326.1,210 335.2,210 333.4,221.3 		"/>
		<polygon fill="none" points="357.3,215 349.4,215 352.9,192.8 346.1,192.8 341.6,221.3 356.3,221.3 		"/>
		<g>
			<polygon fill="none" points="374,192.8 355.6,192.8 354.6,199.1 360.8,199.1 358.2,215 358.2,215 357.2,221.3 357.2,221.3 
				357.3,221.3 364.6,221.3 368.2,199.1 373,199.1 			"/>
			<polygon fill="none" points="393.7,192.8 384.1,210.1 379.9,192.8 375.2,192.8 375,192.8 373.8,200.2 379.3,221.3 385.1,221.3 
				401.7,192.8 			"/>
		</g>
	</g>
	<g>
		<path fill="none" d="M398.4,219.2c-0.2,1.5-1.7,2.8-3.2,2.8s-2.6-1.3-2.3-2.8c0.2-1.5,1.7-2.8,3.2-2.8
			C397.6,216.5,398.6,217.7,398.4,219.2z"/>
		<path fill="none" d="M412,214.3c-0.6,3.8-2.4,7.7-6.9,7.7c-4.4,0-5-3.9-4.4-7.7c0.6-3.8,2.4-7.7,6.9-7.7
			C412.1,206.6,412.6,210.5,412,214.3z M404.9,214.3c-0.1,0.9-0.6,4,0.9,4c1.4,0,2-3.1,2.1-4c0.1-0.9,0.6-4-0.9-4
			C405.6,210.3,405.1,213.4,404.9,214.3z"/>
		<path fill="none" d="M419.2,206.9l-0.3,1.8h0.1c1-1.3,2.1-2.2,3.8-2.3l-0.6,4c-0.2,0-0.4-0.1-0.6-0.1c-2.8,0-3.1,1.8-3.4,4
			l-1.2,7.4h-4.1l2.3-14.8H419.2z"/>
		<path fill="none" d="M425.1,223.6c-0.1,0.9,0,2.1,1.2,2.1c1.8,0,2-2.8,2.2-4.1l0.3-1.9h-0.1c-0.4,0.5-0.8,1.1-1.2,1.5
			c-0.5,0.4-1.1,0.7-1.8,0.7c-1.5,0-2.3-1.2-2.8-2.5c-0.5-1.5-0.4-3.4-0.2-5c0.4-2.6,1.7-7.9,5.3-7.9c1.4,0,2.2,0.9,2.5,2.1h0.1
			l0.3-1.8h4.1l-2.6,16.1c-0.7,4.3-2.9,6.1-6.5,6.1c-3.5,0-4.8-2-4.5-5.4H425.1z M429.9,214.2c0.1-0.8,0.6-4-0.8-4
			c-1.4,0-2,3.1-2.1,4c-0.1,0.9-0.6,4,0.9,4C429.2,218.2,429.8,215,429.9,214.2z"/>
	</g>
</g>
<path fill="#F8C40D" d="M613.7,270.6c-9.8-32.6-28-62.4-51.8-86.6c1.3-30.6-3.9-62.8-22-88.2c-9.4-12.9-22.2-24.3-37.5-29.6
	c4.7,8.8,9,18.9,6.5,29c-2.2,8.8-9.6,15.3-17.5,19.2c-12.8,6.3-26.9,8.7-40.9,9.8c-5.4,0.6-10.6-0.8-15.7-1.3
	c-26.6-3-53.7-0.8-79.5,6.3c-38,10.4-72.9,31.7-99.5,60.5c-12.1,13.4-23.1,28-31,44.3c12.6,1.7,23.5,9.1,32.4,17.8
	c9.8,9.9,17.6,21.6,23.8,34c9.1,19.1,14.6,39.7,16.2,60.8c1.1,18.7-0.9,38.4-10.2,55.1c-5.8,10.4-15.9,19.5-28.2,20.8
	c-10.6,0.2-20-5.8-28.2-12c-8.2-6-14.8-13.5-22-20.5c7.9,26,20.3,50.6,37.5,71.8c23.3,29.4,55,52.4,90.1,66
	c37.6,14.3,79.2,17.8,118.6,9.6c34.8-7.1,67.9-23.1,94.8-46.3c28.5-24.3,50.4-56.2,62.5-91.7C625.7,358.1,626.3,312.3,613.7,270.6z
	 M542.7,348.8c-12.4,31.2-32.8,59.1-57.5,81.7c-14.2,12.8-29.9,23.8-47.4,31.3c-15.4,6.6-32.6,10.9-49.4,7.4
	c-12.1-2.4-23.1-9.9-29.6-20.6c-6.6-10.9-8.7-23.9-8.7-36.5c0.8-22.8,8.3-45,18.7-65.2c15.7-29.9,38.1-56.5,65.4-76.9
	c16.7-12.1,35.4-22,55.7-25.8c13.5-2,28.3-1.6,40.3,6.1c12.4,7.6,19.7,21.4,21.9,35.6C555.3,307.2,550.6,329,542.7,348.8z"/>
</svg>
