<?xml version="1.0" encoding="utf-8"?>
<!-- Generator: Adobe Illustrator 18.1.1, SVG Export Plug-In . SVG Version: 6.00 Build 0)  -->
<svg version="1.1" id="Layer_2" xmlns="http://www.w3.org/2000/svg" xmlns:xlink="http://www.w3.org/1999/xlink" x="0px" y="0px"
	 viewBox="154.4 155.7 361.6 386.2" enable-background="new 154.4 155.7 361.6 386.2" xml:space="preserve">
<g>
	<g>
		<polygon fill="none" points="337.6,276.3 354.8,265.6 351.7,262.2 345.2,266.3 341.1,261.5 347.6,257.4 344.5,253.6 327.3,263.9 
			330.7,267.7 337.3,263.6 341.4,268.4 334.8,272.5 		"/>
		<polygon fill="none" points="348.6,282.5 344.8,278.4 358.3,270.1 355.5,266.7 338.3,277 344.8,284.6 		"/>
		<g>
			<polygon fill="none" points="367.9,281.5 359.7,271.8 355.9,273.9 358.6,277.4 349,282.9 349,282.9 345.2,285.3 345.2,285.3 
				345.2,285.3 348.6,289.1 361.7,281.2 364.2,283.6 			"/>
			<polygon fill="none" points="376.6,291.8 363.1,294.3 370.4,284.6 368.3,282.2 368.3,282.2 363.8,284.6 355.2,297 357.6,300.1 
				380,296.3 			"/>
		</g>
	</g>
	<g>
		<path fill="none" d="M364.5,306c-1,0.3-2.1,0.3-3.1-0.3c-0.7-1-0.3-1.7,0.3-2.8c1-0.3,2.1-0.3,3.1,0.3
			C365.9,303.9,365.5,305.6,364.5,306z"/>
		<path fill="none" d="M373.5,311.1c-2.1,1.4-5.2,2.1-6.9-0.3c-2.1-2.4-0.3-4.5,2.1-5.9c2.1-1.4,5.2-2.1,7.2,0
			C377.6,307.7,375.5,309.8,373.5,311.1z M370,307.4c-0.7,0.3-2.4,1.4-1.7,2.1c0.7,0.7,2.8-0.3,3.1-0.7c0.3-0.3,2.4-1.4,1.7-2.1
			C372.8,306,370.7,307,370,307.4z"/>
		<path fill="none" d="M380.4,311.5l-1,0.7l0,0c1,0,2.1,0.3,3.1,1l-2.4,1.4c0,0,0-0.3-0.3-0.3c-1.4-1.4-2.4-0.7-3.8,0l-4.5,2.8
			l-1.7-2.1l9-5.2L380.4,311.5z"/>
		<path fill="none" d="M374.2,322.2c-0.7,0.3-1,1-0.7,1.7c1,1,2.4,0,3.1-0.7l1.4-0.7l0,0c-0.3,0-1,0-1.4,0s-1-0.3-1-0.7
			c-0.7-1-0.3-1.7,0-2.8s1.7-1.7,2.8-2.4c1.7-1,4.8-2.8,6.6-0.7c0.7,0.7,0.3,1.7,0,2.1l0,0l1-0.7l1.7,2.1l-9.7,5.9
			c-2.8,1.7-4.5,1.4-6.2-0.7c-1.7-2.1-1-3.4,1-4.8L374.2,322.2L374.2,322.2z M381.4,320.5c0.3-0.3,2.4-1.4,1.7-2.1s-2.8,0.3-3.1,0.7
			c-0.7,0.3-2.4,1.4-1.7,2.1C379,321.8,381,320.8,381.4,320.5z"/>
	</g>
</g>
<g>
	<path fill="#CB0000" d="M330.5,155.7h8c33.6,1.2,66.3,14.7,91.6,36.8c23.2,20.1,41,46.3,51.9,74.9c-11.6-20.6-26.8-39.3-45.3-54.1
		c-28-22.8-64.2-36-100.5-34.1c-5.5,0.7-10-3.7-15.5-3.5c-3.9-2-8.3-3-12.6-1.6c-12.8,2.4-25.3,7.3-36.1,14.6c0.2,2.8,2.2,5.1,2.1,8
		c-27.2,15.4-49.6,38.2-66.4,64.4c-0.9,0-1.7,0.1-2.6,0.1c-6.3,12.3-10.5,25.4-15.5,38.3c-5.8,16.9-10.9,34.3-12.8,52
		c-0.5,0-1,0-1.5,0c-2.5-3.4-2.9-7.5-2.5-11.6c2.5-53.5,22.9-107.9,63.2-144.3C261.6,171.9,295.6,157.3,330.5,155.7z"/>
	<path fill="#CB0000" d="M188,312.3c0.5-3.4,5.1-2.3,7.6-2.8c15.8,0.6,26.7,14.8,32.4,28.2c11.5,28.3,10.8,62-3.4,89.2
		c-6.4-3.4-14.6-3.8-20.9-0.1c-3.6,2.1-6.8,6-6.3,10.5c0.6,4.1,4.1,6.8,7.2,9c-6.7,2.2-14.6,2.4-20.6-1.8
		c-5.8-4.4-12.8-9.5-16.8-15.7l0,0c-9.4-16-13.3-35.1-12.8-53.6c0.7-17.9,4.7-36.5,15.7-51c-1,14.3-1.1,28.7,1.1,42.9
		c0.9,4,7,3.2,7-0.8C179.5,348,182.9,329.9,188,312.3z"/>
	<path fill="#CB0000" d="M499,319.3c12.2,14.2,16.1,33.4,17,51.6v7c-0.7,16.5-4.2,33.5-13.6,47.3c-4.8,7-12.1,13.3-21,13.8
		C499.2,402,504.4,359.7,499,319.3z"/>
	<path fill="#CB0000" d="M462.7,456.8c22-33.2,33.2-72.8,34.7-112.3c1,59.9-21.6,122.1-67.8,161.6c-24.8,21.2-56.4,34.6-89.1,35.8
		h-8.9c-53.7-1.9-102.6-36.7-127.9-83.2c-1-1.7-2-3.5-1.7-5.6c1-0.7,2.2-1.1,3.4-1c8.9,14.1,19.7,26.9,31.9,38.2
		c23.9,22.2,54.9,37.2,87.5,39.8c25,2.2,50.5-3.1,72.9-14.3C424.3,502.6,446.4,481.5,462.7,456.8z"/>
	<path fill="#CB0000" d="M413.2,396c21.3-11.9,42-25.1,61.1-40.3c0.8,0.9,1.5,1.7,2.2,2.7c-6.4,5.8-13.3,11.1-20.1,16.5
		c5.6,5.7,8.5,14,7,21.9c-1.5,8.7-7.5,16-15.2,20.1c-12.5,6.9-29.5,5.4-39.7-4.9c-5.2-5.1-8.1-12.6-7.5-19.9
		C403.9,395.3,408.7,398.1,413.2,396z"/>
	<path fill="#CB0000" d="M269.7,361.2c1.6-1.1,3.2-2.2,5-3c33.2,16.3,67.4,30.2,102.4,41.9c5,1.5,10.1-1.6,12.4-6
		c4.9,12-0.8,25.6-10.5,33.3c-18.3,14.7-45.8,16.6-66.2,5.3c-8.8-5-16.3-13.6-17.4-24c-1.3-11.2,5.4-21.6,14.1-28
		C296,374.7,282.6,368.4,269.7,361.2z"/>
	<path fill="#CB0000" d="M205.8,430.4c5.8-2.9,13.2-2.7,18.5,1c9.3,5.7,19.1,10.5,28.8,15.5c0.4,2.2,0.3,4.5,1,6.6
		c18.1,9.1,36.7,17.1,55.6,24.4c1.9-1.3,3.8-2.7,5.7-4c9.5,3.4,19.1,6.8,28.7,9.8c3.6,1,3.6,5.5,4.1,8.5c0.1,4.8,0.6,10.8-3,14.5
		c-13.1-3.8-25.9-8.7-38.7-13.5c-0.1-2.1-0.1-4.1,0-6.2c-18.7-7.2-37.1-15.3-55-24.4c-2.4,0.7-4.8,1.7-7.1,2.5
		c-12.5-6.6-24.7-13.5-36.8-20.8c-2.6-1.8-6.4-3.7-6.1-7.4C201.1,433.9,203.6,431.8,205.8,430.4z"/>
</g>
</svg>
