<?xml version="1.0" encoding="utf-8"?>
<!-- Generator: Adobe Illustrator 18.1.1, SVG Export Plug-In . SVG Version: 6.00 Build 0)  -->
<svg version="1.1" id="Layer_2" xmlns="http://www.w3.org/2000/svg" xmlns:xlink="http://www.w3.org/1999/xlink" x="0px" y="0px"
	 viewBox="0 0 298.1 394.4" enable-background="new 0 0 298.1 394.4" xml:space="preserve">
<g>
	<linearGradient id="SVGID_1_" gradientUnits="userSpaceOnUse" x1="148.9656" y1="47.718" x2="148.9656" y2="392.2443">
		<stop  offset="0.2581" style="stop-color:#F2F2F2"/>
		<stop  offset="1" style="stop-color:#D8D8D7"/>
	</linearGradient>
	<path fill="url(#SVGID_1_)" d="M134.2,392.2l-19.4-18.5l0.1-10.6l-11.2,0l-17.6-17l-0.1-30.9c-22.1-28.1-40.2-63.8-50.3-98.9
		c-5.9,0.9-16.2,2.5-26.3,4.6l-7.1,1.5V104.8h22.1c0.2-3,0.4-4.8,0.4-4.9l0.3-3.1l2.8-1.5c70.8-37.8,118.6-47,120.6-47.3l1.1-0.2
		l1.1,0.2c2,0.4,49.8,9.5,120.6,47.3l2.7,1.4l0.4,3c0,0.1,0.2,1.9,0.5,5.1l21,0v118.7l-7.4-1.9c-9.6-2.5-19.3-4.1-25-5
		c-8.7,30.1-23.9,61.8-42.3,87.9l0,29.2l-27.8,0c-0.4,0.4-0.7,0.8-0.9,1.1c-0.4,0.6-1.1,1.3-1.7,2l-0.1,55.3H134.2z"/>
	<linearGradient id="SVGID_2_" gradientUnits="userSpaceOnUse" x1="8.0756" y1="220.0317" x2="289.8555" y2="220.0317">
		<stop  offset="0.4409" style="stop-color:#383939"/>
		<stop  offset="1" style="stop-color:#212121"/>
	</linearGradient>
	<path fill="url(#SVGID_2_)" d="M268.4,100.5c-70.8-37.8-118.9-46.7-118.9-46.7s-48.1,8.9-118.9,46.7c0,0-0.4,3.9-0.8,10.2H8.1
		v104.5c15.8-3.3,31.8-5.4,31.8-5.4c8.6,32.3,25.9,70.8,51.9,103.4l0.1,30.5l14.1,13.6l14.8,0l-0.1,14l15.8,15.1h48.1l0.1-51.8
		c0,0,2.2-2.2,3-3.3c0.9-1.1,2.8-3.4,2.8-3.4l24.6,0l0-25.2c20.9-29.4,36.3-64.1,43.9-92.7c0,0,15.5,1.9,30.8,5.8V110.7l-20.6,0
		C268.9,104.1,268.4,100.5,268.4,100.5z"/>
	<path fill="#1F1D1D" d="M149,58.8v14.1l-44.7,0C104.3,72.8,125.7,65.2,149,58.8z"/>
	<path fill="#1F1D1D" d="M35.1,103l-0.4,7.7c0,0,13.8,0,45.7,0c2.7,0,8.3,1.3,12.1,6.2l0.1-6.1l12.9-0.1V91.5h-4.6l0-17
		C100.9,74.5,70.3,85.6,35.1,103z"/>
	<path fill="#1F1D1D" d="M149,196.1v11.6l-27.7,0.1l0,27.3l-29.1-0.1l-0.3,70.4c0,0-27.8-32.2-47.4-96.3l15.2-2.2l0.1-9.5
		c0,0,7.7-1.3,15.4-1.3c3.5,0,11.4-1.1,17.2-6.2l-0.1,6.1C115.4,196,149,196.1,149,196.1z"/>
	<path fill="#1F1D1D" d="M152.7,222h-15.9v22.2h28.7V266c0,0,18.4-0.6,22.5,0v-25.8C188,240.2,160.1,230.9,152.7,222z"/>
	<path fill="#1F1D1D" d="M130.2,251.9v20.2c0,0-9.3,4.3-23.4,2.5v-22.7H130.2z"/>
	<path fill="#1F1D1D" d="M213.3,273.3c0,0,3.9,3,9.5,8.2c0,0,5.9-9.5,8.1-14c0,0-11.5-14.5-17.6-18.1V273.3z"/>
	<g>
		<path fill="#37C1D5" d="M162.1,276.4v-28h-28c0,0,0,27,0,28C134.1,278.4,162.1,276.4,162.1,276.4z"/>
		<path fill="#37C1D5" d="M210.1,323.3V222.8l-11.7-10.3h-73.3v27h-27v101.5l11.1,12.5h15.9v16.2l13,11.8h42v-42.8l-10.6-11.2h-18.4
			v-4.2L210.1,323.3z M162.1,335.4v27h-28v-27h-29v-87h14.8h14.2v-29h57v26.7v59.3h-57v30H162.1z"/>
	</g>
	<path fill="#0692A0" d="M197.4,213.7l9.9,10.1v45.7c0,0-5-2.9-13.1-3.4l-0.1-49.5l-62.8-0.1v29.3h-29.2v28.9h-2.7v-32.1h29.1v-28.8
		H197.4z"/>
	<path fill="#0692A0" d="M160,266.8c0,0-6.6,0.6-10,1.1s-6.2,0.4-14.5,3.3v-20.4H160L160,266.8z"/>
	<path fill="#37C1D5" d="M280.6,208c-7.7-2.1-34.1-5.2-34.4-5.2l-3.4-0.4v-87.1h42.6v19.4H264v16h18.5v19.5H264v16.5l21.5,3.3v19.4
		L280.6,208z M12.7,115.3h63.3c12.1,0,18.8,6.5,18.8,18.3v10.3c0,3.9-1.2,7.1-3.5,9.6c2.3,2.5,3.5,5.7,3.5,9.6v10.4
		c0,11.3-6.5,17.5-19.3,18.3c-7.6,0.5-16.3,1.3-16.4,1.3l-3.8,0.3l0,8.9l-3.3,0.5c-0.2,0-23,3.3-34.8,5.3l-4.5,0.8V115.3z
		 M33.9,186.6l21-2.5l-0.1-49.4h-21v16h18.5v19.5H33.9L33.9,186.6z M73.7,174.3c0.3,0,0.6-0.1,0.9-0.1c0.7,0,1-0.1,1.2-0.2
		c0-0.1,0.1-0.3,0.1-0.6v-10.4c0-0.3,0-0.5-0.1-0.5c0,0,0,0,0,0c0,0-0.1-0.1-0.4-0.2l0,0c-0.1,0-0.5-0.1-1.7-0.1L73.7,174.3z
		 M73.7,144.8c1.1,0,1.6-0.1,1.7-0.1c0.2-0.1,0.3-0.2,0.3-0.2l0,0c0,0,0.1-0.2,0.1-0.6v-10.3c0-0.4,0-0.6-0.1-0.8
		c-0.1,0-0.4-0.1-0.9-0.1h-1.1V144.8z M238.7,193c-12-0.8-28.8-1.3-29-1.3l-3.7-0.1v-58.9H196v59h-18.9v-59h-17.3v59h-18.9v-59
		h-25.8v12h15.4v17.5h-15.4v12H133v17.5H96.2v-76.4h128.7v59.1l17.9,0.7v18.2L238.7,193z"/>
	<g>
		
			<image overflow="visible" opacity="0.75" width="1155" height="405" xlink:href="51B7A5562725A703.png"  transform="matrix(0.24 0 0 0.24 12.5162 115.155)">
		</image>
		<g>
			<g>
				<linearGradient id="SVGID_3_" gradientUnits="userSpaceOnUse" x1="149.0474" y1="119.155" x2="149.0474" y2="204.2843">
					<stop  offset="0" style="stop-color:#F2F2F2"/>
					<stop  offset="1" style="stop-color:#D8D8D7"/>
				</linearGradient>
				<path fill="url(#SVGID_3_)" d="M58.7,119.2h17.3c10,0,14.9,4.8,14.9,14.5v10.3c0,4.5-2,7.7-6.1,9.6c4.1,1.9,6.1,5.1,6.1,9.6
					v10.4c0,9.6-5.2,13.8-15.7,14.4c-7.7,0.5-16.5,1.3-16.5,1.3L58.7,119.2z M69.9,128.9v19.7h3.5c1.6,0,2.6-0.1,3.2-0.3
					c2-0.7,3.1-2.2,3.1-4.4v-10.3c0-3.1-1.6-4.7-4.9-4.7H69.9z M69.9,158.4l0,20.2c0,0,3.7-0.5,4.9-0.5c3.2-0.2,4.9-1.5,4.9-4.6
					v-10.4c0-2.2-1-3.6-3.1-4.3c-0.6-0.2-1.7-0.3-3.2-0.3H69.9z M100,119.2h29.1v9.8h-17.9v19.7h15.4v9.8h-15.4v19.7h17.9v9.8H100
					V119.2z M166.5,119.2v9.8H156v59h-11.2v-59h-10.5v-9.8H166.5z M202.7,119.2v9.8h-10.5v59H181v-59h-10.5v-9.8H202.7z
					 M209.8,187.9v-68.8h11.2v59l17.9,0.7v10.4C226.8,188.4,209.8,187.9,209.8,187.9z M16.5,119.2h34.9v11.7H30v23.6h18.5v11.8H30
					l0.1,24.6l21.4-2.5l0,10.6c0,0-22.9,3.3-34.9,5.3V119.2z M246.7,119.2h34.9v11.7h-21.5v23.6h18.5v11.8h-18.5v23.6l21.5,3.3v11.1
					c-8.1-2.2-34.9-5.3-34.9-5.3V119.2z"/>
			</g>
			<defs>
				<filter id="Adobe_OpacityMaskFilter" filterUnits="userSpaceOnUse" x="16.5" y="119.2" width="265.1" height="85.1">
					
						<feColorMatrix  type="matrix" values="-1 0 0 0 1  0 -1 0 0 1  0 0 -1 0 1  0 0 0 1 0" color-interpolation-filters="sRGB" result="source"/>
				</filter>
			</defs>
			<mask maskUnits="userSpaceOnUse" x="16.5" y="119.2" width="265.1" height="85.1" id="SVGID_4_">
				<g filter="url(#Adobe_OpacityMaskFilter)">
					
						<image overflow="visible" width="1122" height="372" xlink:href="51B7A5562725A705.jpg"  transform="matrix(0.24 0 0 0.24 14.5162 117.155)">
					</image>
				</g>
			</mask>
			<g opacity="0.75" mask="url(#SVGID_4_)">
				<path fill="#FFFFFF" d="M58.7,119.2h17.3c10,0,14.9,4.8,14.9,14.5v10.3c0,4.5-2,7.7-6.1,9.6c4.1,1.9,6.1,5.1,6.1,9.6v10.4
					c0,9.6-5.2,13.8-15.7,14.4c-7.7,0.5-16.5,1.3-16.5,1.3L58.7,119.2z M69.9,128.9v19.7h3.5c1.6,0,2.6-0.1,3.2-0.3
					c2-0.7,3.1-2.2,3.1-4.4v-10.3c0-3.1-1.6-4.7-4.9-4.7H69.9z M69.9,158.4l0,20.2c0,0,3.7-0.5,4.9-0.5c3.2-0.2,4.9-1.5,4.9-4.6
					v-10.4c0-2.2-1-3.6-3.1-4.3c-0.6-0.2-1.7-0.3-3.2-0.3H69.9z M100,119.2h29.1v9.8h-17.9v19.7h15.4v9.8h-15.4v19.7h17.9v9.8H100
					V119.2z M166.5,119.2v9.8H156v59h-11.2v-59h-10.5v-9.8H166.5z M202.7,119.2v9.8h-10.5v59H181v-59h-10.5v-9.8H202.7z
					 M209.8,187.9v-68.8h11.2v59l17.9,0.7v10.4C226.8,188.4,209.8,187.9,209.8,187.9z M16.5,119.2h34.9v11.7H30v23.6h18.5v11.8H30
					l0.1,24.6l21.4-2.5l0,10.6c0,0-22.9,3.3-34.9,5.3V119.2z M246.7,119.2h34.9v11.7h-21.5v23.6h18.5v11.8h-18.5v23.6l21.5,3.3v11.1
					c-8.1-2.2-34.9-5.3-34.9-5.3V119.2z"/>
			</g>
		</g>
	</g>
	<path fill="#37C1D5" d="M154.9,116.8l-1.1-7.3h-0.6l-1.1,7.3H124V87.3h-2.9v29.5h-11.5V87.3h-5.3V76.5h40.1v10.8h-8.9v3.9h7.7v7.5
		l4-22.3h12.6l3.7,20.8V76.5h10.8l4.3,15.5l4.3-15.5h10.8v40.3H154.9z M142.1,106l0.6-3.9h-7.1v3.9H142.1z"/>
	<g>
		
			<image overflow="visible" opacity="0.75" width="399" height="194" xlink:href="51B7A5562725A704.png"  transform="matrix(0.24 0 0 0.24 103.2799 75.4711)">
		</image>
		<g>
			<g>
				<linearGradient id="SVGID_5_" gradientUnits="userSpaceOnUse" x1="149.0474" y1="79.4711" x2="149.0474" y2="113.8281">
					<stop  offset="0" style="stop-color:#F2F2F2"/>
					<stop  offset="1" style="stop-color:#D8D8D7"/>
				</linearGradient>
				<path fill="url(#SVGID_5_)" d="M123.4,79.5v4.9h-5.3v29.5h-5.6V84.3h-5.3v-4.9H123.4z M127,79.5h14.5v4.9h-8.9v9.8h7.7v4.9h-7.7
					v9.8h8.9v4.9H127V79.5z M161.3,101.6l1.8,12.2h-5.7l-1.1-7.3h-5.7l-1.1,7.3h-5.6l1.8-12.1l4-22.2h7.7L161.3,101.6z M155.6,101.6
					l-2.1-14.3l-2.1,14.3H155.6z M178.7,103l6.5-23.5h5.6v34.4h-5.4V94.5l-4.8,19.3h-3.8l-4.9-19.3v19.3h-5.4V79.5h5.6L178.7,103z"
					/>
			</g>
			<defs>
				<filter id="Adobe_OpacityMaskFilter_1_" filterUnits="userSpaceOnUse" x="107.3" y="79.5" width="83.5" height="34.4">
					
						<feColorMatrix  type="matrix" values="-1 0 0 0 1  0 -1 0 0 1  0 0 -1 0 1  0 0 0 1 0" color-interpolation-filters="sRGB" result="source"/>
				</filter>
			</defs>
			<mask maskUnits="userSpaceOnUse" x="107.3" y="79.5" width="83.5" height="34.4" id="SVGID_6_">
				<g filter="url(#Adobe_OpacityMaskFilter_1_)">
					
						<image overflow="visible" width="365" height="160" xlink:href="51B7A5562725A704.jpg"  transform="matrix(0.24 0 0 0.24 105.2799 77.4711)">
					</image>
				</g>
			</mask>
			<g opacity="0.75" mask="url(#SVGID_6_)">
				<path fill="#FFFFFF" d="M123.4,79.5v4.9h-5.3v29.5h-5.6V84.3h-5.3v-4.9H123.4z M127,79.5h14.5v4.9h-8.9v9.8h7.7v4.9h-7.7v9.8
					h8.9v4.9H127V79.5z M161.3,101.6l1.8,12.2h-5.7l-1.1-7.3h-5.7l-1.1,7.3h-5.6l1.8-12.1l4-22.2h7.7L161.3,101.6z M155.6,101.6
					l-2.1-14.3l-2.1,14.3H155.6z M178.7,103l6.5-23.5h5.6v34.4h-5.4V94.5l-4.8,19.3h-3.8l-4.9-19.3v19.3h-5.4V79.5h5.6L178.7,103z"
					/>
			</g>
		</g>
	</g>
	<path fill="#D3D3D3" d="M18.4,162.3l0.1,39.6c0,0,26.9-4.4,31.4-4.7v-6.8c0,0-10,1-21.9,2.7v-28.9l18.6,0l0-5.4
		C46.6,158.9,29,160.5,18.4,162.3z"/>
	<path fill="#D3D3D3" d="M68,157.6v22.8c0,0,8.2-1.1,9.5-1.1s4-1.6,4-6c0-4.3,0-11,0-11s-0.3-5.3-3.6-5.3c0,0,2.8-0.2,4.9-0.2
		c2.1-0.1,3.8,0,3.8,0s2.5,2.2,2.5,4.6c0,3.5,0,0,0,14.5c0,1.1-1.7,7.6-7.8,9.3c-4.5,1.3-11.6,1.3-20.6,2.2V158L68,157.6z"/>
	<polygon fill="#D3D3D3" points="101.9,156.7 109.3,156.7 109.3,179.8 127.2,179.8 127.2,186.2 101.9,186.2 	"/>
	<rect x="146.7" y="157" fill="#D3D3D3" width="7.4" height="29.2"/>
	<rect x="182.7" y="157" fill="#D3D3D3" width="7.4" height="29.2"/>
	<path fill="#D3D3D3" d="M211.8,157.8h7.4v21.9c0,0,7.3,0.1,17.8,0.7v7c-13-1-25.2-1.2-25.2-1.2V157.8z"/>
	<path fill="#D3D3D3" d="M248.5,158.2c0,0,17.4,1.5,28.2,4.1v2.3h-18.4v26.8l21.4,3.4v7.4c-14.7-3.2-31.2-5-31.2-5V158.2z"/>
	<linearGradient id="SVGID_7_" gradientUnits="userSpaceOnUse" x1="149.4662" y1="102.9805" x2="149.4662" y2="3.4403">
		<stop  offset="0.6452" style="stop-color:#F2F2F2"/>
		<stop  offset="1" style="stop-color:#D8D8D7"/>
	</linearGradient>
	<path fill="url(#SVGID_7_)" d="M265.6,98.3c-0.7-0.4-69.7-37.1-116.1-45.9C103.1,61.2,34,97.9,33.3,98.3l-8.7,4.7V78.1l3-1.7
		c59.2-34.2,117.7-70.7,118.2-71l3.1-1.9l3.1,1.9c0.6,0.4,60.1,36.9,119.3,71.1l3,1.7V103L265.6,98.3z"/>
	<linearGradient id="SVGID_8_" gradientUnits="userSpaceOnUse" x1="30.5496" y1="51.7511" x2="268.3828" y2="51.7511">
		<stop  offset="0" style="stop-color:#383939"/>
		<stop  offset="1" style="stop-color:#212121"/>
	</linearGradient>
	<path fill="url(#SVGID_8_)" d="M149,10.4c0,0-58.5,36.5-118.4,71.2v11.5c0,0,71.1-38,118.9-46.7c47.9,8.7,118.9,46.7,118.9,46.7
		V81.6C208.4,46.9,149,10.4,149,10.4z"/>
	<path fill="#37C1D5" d="M149.5,35.7C99.9,46.5,34.7,84,34.7,84v2.4c41.4-22,74.6-36.6,114.8-46.1c40.2,9.5,73.3,24.1,114.8,46.1V84
		C264.2,84,199,46.5,149.5,35.7z"/>
	<path fill="#1F1D1D" d="M149,17.1c0,0-17.8,11.7-48.1,29.4c0,0,29.3-13.1,48.2-16.4L149,17.1z"/>
</g>
</svg>
