<?xml version="1.0" encoding="utf-8"?>
<!-- Generator: Adobe Illustrator 18.1.1, SVG Export Plug-In . SVG Version: 6.00 Build 0)  -->
<svg version="1.1" id="Layer_2" xmlns="http://www.w3.org/2000/svg" xmlns:xlink="http://www.w3.org/1999/xlink" x="0px" y="0px"
	 viewBox="0 0 151 80.9" enable-background="new 0 0 151 80.9" xml:space="preserve">
<g>
	<g>
		<polygon fill="none" points="69.5,68.4 71.5,55.6 68.4,55.6 67.6,60.6 63.6,60.6 64.3,55.6 61,55.6 59,68.4 62.3,68.4 63.1,63.4 
			67.2,63.4 66.4,68.4 		"/>
		<polygon fill="none" points="77.2,65.7 73.6,65.7 75.2,55.6 72.1,55.6 70,68.4 76.7,68.4 		"/>
		<g>
			<polygon fill="none" points="84.7,55.6 76.4,55.6 75.9,58.4 78.7,58.4 77.6,65.7 77.6,65.7 77.1,68.4 77.1,68.4 77.1,68.4 
				80.5,68.4 82,58.4 84.2,58.4 			"/>
			<polygon fill="none" points="93.5,55.6 89.2,63.4 87.3,55.6 85.2,55.6 85.1,55.6 84.6,59 87.1,68.4 89.6,68.4 97.2,55.6 			"/>
		</g>
	</g>
	<g>
		<path fill="none" d="M95.7,67.5c-0.1,0.7-0.8,1.3-1.4,1.3c-0.7,0-1.2-0.6-1-1.3c0.1-0.7,0.8-1.3,1.4-1.3S95.8,66.9,95.7,67.5z"/>
		<path fill="none" d="M101.8,65.3c-0.3,1.7-1.1,3.5-3.1,3.5c-2,0-2.3-1.8-2-3.5c0.3-1.7,1.1-3.5,3.1-3.5
			C101.8,61.8,102.1,63.6,101.8,65.3z M98.6,65.3c0,0.4-0.3,1.8,0.4,1.8c0.6,0,0.9-1.4,0.9-1.8s0.3-1.8-0.4-1.8S98.7,64.9,98.6,65.3
			z"/>
		<path fill="none" d="M105,62l-0.1,0.8h0c0.5-0.6,0.9-1,1.7-1l-0.3,1.8c-0.1,0-0.2,0-0.3,0c-1.3,0-1.4,0.8-1.5,1.8l-0.5,3.3h-1.8
			l1-6.7H105z"/>
		<path fill="none" d="M107.7,69.5c0,0.4,0,0.9,0.5,0.9c0.8,0,0.9-1.3,1-1.8l0.1-0.9h0c-0.2,0.2-0.4,0.5-0.5,0.7
			c-0.2,0.2-0.5,0.3-0.8,0.3c-0.7,0-1-0.5-1.3-1.1c-0.2-0.7-0.2-1.5-0.1-2.3c0.2-1.2,0.8-3.6,2.4-3.6c0.6,0,1,0.4,1.1,0.9h0l0.1-0.8
			h1.8l-1.2,7.3c-0.3,1.9-1.3,2.7-2.9,2.7c-1.6,0-2.2-0.9-2-2.4L107.7,69.5L107.7,69.5z M109.9,65.3c0-0.4,0.3-1.8-0.4-1.8
			c-0.6,0-0.9,1.4-0.9,1.8s-0.3,1.8,0.4,1.8C109.6,67.1,109.8,65.7,109.9,65.3z"/>
	</g>
</g>
<path fill="#1D1D1B" d="M150.9,78.7c-0.3-0.6-6.7-14.9-20.8-29.3c-8.3-8.5-17.5-15.3-27.4-20.2c-12.4-6.1-25.8-9.2-40-9.2
	c-7.8,0-15.5,1.3-23.1,4c-6,2.1-12,5-17.6,8.7c-5.8,3.8-10.1,7.5-12.6,10c0.1-3.6,0.7-9.3,3-15.2c2.2-5.5,5.5-10.1,9.7-13.6
	c5.3-4.4,12.3-7.1,20.7-8.1c0.8,0,1.7-0.1,2.5-0.1c13.4,0,20.7,5.2,20.8,5.3c0.3,0.2,0.6,0.3,0.9,0.3c0.4,0,0.8-0.2,1.1-0.5
	c0.5-0.6,0.5-1.5,0-2.1C67.7,8.2,59.9,0,41.3,0C31.1,0,21,4.1,13.6,11.2C7.4,17,0,27.9,0,46.3c0,5.5,1.1,10.8,3.4,15.6
	c1.8,3.9,4.3,7.4,7.4,10.7c5.3,5.5,10.6,8,10.8,8.1c0.2,0.1,0.4,0.1,0.7,0.1h127.3c0.5,0,1-0.3,1.3-0.7
	C151,79.7,151.1,79.2,150.9,78.7z"/>
</svg>
