<?xml version="1.0" encoding="utf-8"?>
<!-- Generator: Adobe Illustrator 18.1.1, SVG Export Plug-In . SVG Version: 6.00 Build 0)  -->
<svg version="1.1" id="Layer_1" xmlns="http://www.w3.org/2000/svg" xmlns:xlink="http://www.w3.org/1999/xlink" x="0px" y="0px"
	 viewBox="-31.5 -106.1 820.6 807.5" enable-background="new -31.5 -106.1 820.6 807.5" xml:space="preserve">
<g opacity="0.2">
	<path d="M304.1,268.4c9.2,2.3,17.7,3.1,26.9,3.1c50,0,100.8-30,108.4-83.8c5.4-30-6.9-66.1-41.5-66.1c-33.8,0-54.6,31.5-60,61.5
		l-1.5,9.2H227.9C238.7,101.5,322.5,30,413.3,30c92.3,0,150,69.2,135.4,161.5c-12.3,73.8-71.5,137.7-145.4,154.6l-16.9,72.3H281
		L304.1,268.4z"/>
</g>
<polygon opacity="0.2" points="259.1,551.4 269.9,481.4 379.8,481.4 364.4,551.4 "/>
</svg>
